<svg width="1138" height="36" viewBox="0 0 1138 36" fill="none" xmlns="http://www.w3.org/2000/svg">
<path d="M281 0H304L268 36H245L281 0Z" fill="#FF4500"/>
<path d="M85 0H108L72 36H49L85 0Z" fill="#FF4500"/>
<path d="M477 0H500L464 36H441L477 0Z" fill="#FF4500"/>
<path d="M673 0H696L660 36H637L673 0Z" fill="#FF4500"/>
<path d="M869 0H892L856 36H833L869 0Z" fill="#FF4500"/>
<path d="M330 0H353L317 36H294L330 0Z" fill="#FF4500"/>
<path d="M134 0H157L121 36H98L134 0Z" fill="#FF4500"/>
<path d="M526 0H549L513 36H490L526 0Z" fill="#FF4500"/>
<path d="M722 0H745L709 36H686L722 0Z" fill="#FF4500"/>
<path d="M918 0H941L905 36H882L918 0Z" fill="#FF4500"/>
<path d="M379 0H402L366 36H343L379 0Z" fill="#FF4500"/>
<path d="M183 0H206L170 36H147L183 0Z" fill="#FF4500"/>
<path d="M575 0H598L562 36H539L575 0Z" fill="#FF4500"/>
<path d="M771 0H794L758 36H735L771 0Z" fill="#FF4500"/>
<path d="M967 0H990L954 36H931L967 0Z" fill="#FF4500"/>
<path d="M232 0H255L219 36H196L232 0Z" fill="#FF4500"/>
<path d="M36 0H59L23 36H0L36 0Z" fill="#FF4500"/>
<path d="M428 0H451L415 36H392L428 0Z" fill="#FF4500"/>
<path d="M624 0H647L611 36H588L624 0Z" fill="#FF4500"/>
<path d="M820 0H843L807 36H784L820 0Z" fill="#FF4500"/>
<path d="M1016 0H1138V36H980L1016 0Z" fill="#FF4500"/>
</svg>
