<svg width="35" height="35" viewBox="0 0 35 35" fill="none" xmlns="http://www.w3.org/2000/svg">
<path fill-rule="evenodd" clip-rule="evenodd" d="M25.2778 0H9.72222C4.35279 0 0 4.35279 0 9.72222V25.2778C0 30.6472 4.35279 35 9.72222 35H25.2778C30.6472 35 35 30.6472 35 25.2778V9.72222C35 4.35279 30.6472 0 25.2778 0ZM31.5972 25.2778C31.5865 28.7634 28.7634 31.5865 25.2778 31.5972H9.72222C6.23651 31.5865 3.41345 28.7634 3.40278 25.2778V9.72222C3.41345 6.23651 6.23651 3.41345 9.72222 3.40278H25.2778C28.7634 3.41345 31.5865 6.23651 31.5972 9.72222V25.2778ZM26.7361 10.2083C27.81 10.2083 28.6806 9.33777 28.6806 8.26389C28.6806 7.19001 27.81 6.31944 26.7361 6.31944C25.6622 6.31944 24.7917 7.19001 24.7917 8.26389C24.7917 9.33777 25.6622 10.2083 26.7361 10.2083ZM17.5 8.75C12.6675 8.75 8.75 12.6675 8.75 17.5C8.75 22.3325 12.6675 26.25 17.5 26.25C22.3325 26.25 26.25 22.3325 26.25 17.5C26.2552 15.1777 25.3349 12.9492 23.6929 11.3071C22.0508 9.66504 19.8223 8.74483 17.5 8.75ZM12.1528 17.5C12.1528 20.4532 14.5468 22.8472 17.5 22.8472C20.4532 22.8472 22.8472 20.4532 22.8472 17.5C22.8472 14.5468 20.4532 12.1528 17.5 12.1528C14.5468 12.1528 12.1528 14.5468 12.1528 17.5Z" fill="#DFDED4"/>
</svg>
