<svg width="50" height="50" viewBox="0 0 50 50" fill="none" xmlns="http://www.w3.org/2000/svg">
<path fill-rule="evenodd" clip-rule="evenodd" d="M4.16667 0C1.86547 0 0 1.86547 0 4.16667V45.8333C0 48.1344 1.86547 50 4.16667 50H45.8333C48.1344 50 50 48.1344 50 45.8333V4.16667C50 1.86547 48.1344 0 45.8333 0H4.16667ZM15.3354 11.1187C15.3511 13.7749 13.3628 15.4116 11.0034 15.3999C8.78075 15.3882 6.84325 13.6187 6.85497 11.1226C6.86669 8.77492 8.72217 6.88819 11.1323 6.94289C13.5776 6.99758 15.3511 8.79056 15.3354 11.1187ZM25.7769 18.7827H18.777H18.7731V42.56H26.1714V42.0053C26.1714 40.95 26.1706 39.8944 26.1697 38.8386C26.1675 36.0225 26.165 33.2033 26.1794 30.3881C26.1833 29.7044 26.2144 28.9936 26.3903 28.3411C27.0503 25.9036 29.2419 24.3294 31.6872 24.7164C33.2575 24.9622 34.2964 25.8725 34.7339 27.3531C35.0036 28.2786 35.1247 29.2747 35.1364 30.2397C35.1681 33.1497 35.1636 36.0597 35.1592 38.97C35.1575 39.9972 35.1558 41.025 35.1558 42.0522V42.5561H42.5778V41.9858C42.5778 40.7303 42.5772 39.475 42.5764 38.2197C42.575 35.0822 42.5733 31.9447 42.5817 28.8061C42.5855 27.3881 42.4333 25.9897 42.0856 24.6186C41.5661 22.5794 40.4919 20.8919 38.7458 19.6733C37.5075 18.8061 36.1481 18.2475 34.6286 18.185C34.4556 18.1778 34.2811 18.1684 34.1058 18.1589C33.3289 18.1169 32.5392 18.0743 31.7964 18.2241C29.6714 18.6498 27.8044 19.6225 26.3942 21.3372C26.2303 21.5339 26.07 21.7336 25.8308 22.0317L25.7769 22.0992V18.7827ZM7.449 42.5678H14.8123V18.7981H7.449V42.5678Z" fill="#DFDED4"/>
</svg>
