<svg width="139" height="73" viewBox="0 0 139 73" fill="none" xmlns="http://www.w3.org/2000/svg">
<g clip-path="url(#clip0_80_791)">
<path d="M45.552 15.987V12.41C45.552 8.80867 44.4083 5.84 42.121 3.504C39.8337 1.168 36.938 0 33.434 0C29.638 0 26.6693 1.19233 24.528 3.577C22.3867 5.96167 21.316 9.14933 21.316 13.14V14.235C21.316 14.4297 21.3403 14.6 21.389 14.746L21.462 15.987C17.8607 13.4077 14.6243 12.118 11.753 12.118C9.51433 12.118 7.373 12.8723 5.329 14.381C3.38233 15.7923 1.94667 17.6417 1.022 19.929C0.340667 21.535 0 23.141 0 24.747C0 29.6623 2.82267 33.4097 8.468 35.989L9.563 36.5C3.18767 39.42 0 43.362 0 48.326C0 51.684 1.168 54.6283 3.504 57.159C5.84 59.6897 8.614 60.955 11.826 60.955C14.746 60.955 17.6417 59.9087 20.513 57.816L21.462 57.086C21.3647 58.0593 21.316 59.2273 21.316 60.59C21.316 64.24 22.4597 67.2208 24.747 69.5325C27.0343 71.8442 29.93 73 33.434 73C37.2787 73 40.2595 71.7955 42.3765 69.3865C44.4935 66.9775 45.552 63.8263 45.552 59.933V57.086C49.1533 59.6653 52.3653 60.955 55.188 60.955C58.3513 60.955 61.0888 59.6775 63.4005 57.1225C65.7122 54.5675 66.868 51.6353 66.868 48.326C66.868 43.362 64.0453 39.5903 58.4 37.011L57.305 36.5C63.6803 33.58 66.868 29.6623 66.868 24.747C66.868 21.5837 65.7243 18.688 63.437 16.06C61.1497 13.432 58.3878 12.118 55.1515 12.118C51.9152 12.118 49.056 13.14 46.574 15.184L45.552 15.987ZM39.42 28.324C45.0653 20.0993 50.297 15.987 55.115 15.987C57.1103 15.987 58.9232 16.8873 60.5535 18.688C62.1838 20.4887 62.999 22.5083 62.999 24.747C62.999 30.7817 56.4777 34.3587 43.435 35.478V37.595C49.9077 38.1303 54.7865 39.2983 58.0715 41.099C61.3565 42.8997 62.999 45.3087 62.999 48.326C62.999 50.516 62.2082 52.5235 60.6265 54.3485C59.0448 56.1735 57.2077 57.086 55.115 57.086C50.1997 57.086 44.968 52.9493 39.42 44.676L37.522 45.771C40.296 51.4163 41.683 56.1857 41.683 60.079C41.683 66.1137 38.9333 69.131 33.434 69.131C30.806 69.131 28.762 68.328 27.302 66.722C25.8907 65.0187 25.185 62.8773 25.185 60.298C25.185 56.4047 26.572 51.5623 29.346 45.771L27.448 44.676C21.9 52.9493 16.6683 57.086 11.753 57.086C9.75767 57.086 7.94483 56.2222 6.3145 54.4945C4.68417 52.7668 3.869 50.7107 3.869 48.326C3.869 42.2913 10.366 38.7143 23.36 37.595V35.478C10.366 34.4073 3.869 30.8303 3.869 24.747C3.869 22.6057 4.64767 20.6103 6.205 18.761C7.76233 16.9117 9.61167 15.987 11.753 15.987C16.571 15.987 21.8027 20.0993 27.448 28.324L29.346 27.302C26.572 21.608 25.185 16.7413 25.185 12.702C25.185 10.1227 25.8907 7.98133 27.302 6.278C28.762 4.672 30.806 3.869 33.434 3.869C38.9333 3.869 41.683 6.862 41.683 12.848C41.683 16.79 40.296 21.608 37.522 27.302L39.42 28.324Z" fill="#DFDED4"/>
</g>
<g clip-path="url(#clip1_80_791)">
<path d="M117.64 15.987V12.41C117.64 8.80867 116.496 5.84 114.209 3.504C111.921 1.168 109.026 0 105.522 0C101.726 0 98.7569 1.19233 96.6155 3.577C94.4742 5.96167 93.4035 9.14933 93.4035 13.14V14.235C93.4035 14.4297 93.4279 14.6 93.4765 14.746L93.5495 15.987C89.9482 13.4077 86.7119 12.118 83.8405 12.118C81.6019 12.118 79.4605 12.8723 77.4165 14.381C75.4699 15.7923 74.0342 17.6417 73.1095 19.929C72.4282 21.535 72.0875 23.141 72.0875 24.747C72.0875 29.6623 74.9102 33.4097 80.5555 35.989L81.6505 36.5C75.2752 39.42 72.0875 43.362 72.0875 48.326C72.0875 51.684 73.2555 54.6283 75.5915 57.159C77.9275 59.6897 80.7015 60.955 83.9135 60.955C86.8335 60.955 89.7292 59.9087 92.6005 57.816L93.5495 57.086C93.4522 58.0593 93.4035 59.2273 93.4035 60.59C93.4035 64.24 94.5472 67.2208 96.8345 69.5325C99.1219 71.8442 102.018 73 105.522 73C109.366 73 112.347 71.7955 114.464 69.3865C116.581 66.9775 117.64 63.8263 117.64 59.933V57.086C121.241 59.6653 124.453 60.955 127.276 60.955C130.439 60.955 133.176 59.6775 135.488 57.1225C137.8 54.5675 138.956 51.6353 138.956 48.326C138.956 43.362 136.133 39.5903 130.488 37.011L129.393 36.5C135.768 33.58 138.956 29.6623 138.956 24.747C138.956 21.5837 137.812 18.688 135.525 16.06C133.237 13.432 130.475 12.118 127.239 12.118C124.003 12.118 121.144 13.14 118.662 15.184L117.64 15.987ZM111.508 28.324C117.153 20.0993 122.385 15.987 127.203 15.987C129.198 15.987 131.011 16.8873 132.641 18.688C134.271 20.4887 135.087 22.5083 135.087 24.747C135.087 30.7817 128.565 34.3587 115.523 35.478V37.595C121.995 38.1303 126.874 39.2983 130.159 41.099C133.444 42.8997 135.087 45.3087 135.087 48.326C135.087 50.516 134.296 52.5235 132.714 54.3485C131.132 56.1735 129.295 57.086 127.203 57.086C122.287 57.086 117.056 52.9493 111.508 44.676L109.61 45.771C112.384 51.4163 113.771 56.1857 113.771 60.079C113.771 66.1137 111.021 69.131 105.522 69.131C102.894 69.131 100.85 68.328 99.3895 66.722C97.9782 65.0187 97.2725 62.8773 97.2725 60.298C97.2725 56.4047 98.6595 51.5623 101.434 45.771L99.5355 44.676C93.9875 52.9493 88.7559 57.086 83.8405 57.086C81.8452 57.086 80.0324 56.2222 78.402 54.4945C76.7717 52.7668 75.9565 50.7107 75.9565 48.326C75.9565 42.2913 82.4535 38.7143 95.4475 37.595V35.478C82.4535 34.4073 75.9565 30.8303 75.9565 24.747C75.9565 22.6057 76.7352 20.6103 78.2925 18.761C79.8499 16.9117 81.6992 15.987 83.8405 15.987C88.6585 15.987 93.8902 20.0993 99.5355 28.324L101.434 27.302C98.6595 21.608 97.2725 16.7413 97.2725 12.702C97.2725 10.1227 97.9782 7.98133 99.3895 6.278C100.85 4.672 102.894 3.869 105.522 3.869C111.021 3.869 113.771 6.862 113.771 12.848C113.771 16.79 112.384 21.608 109.61 27.302L111.508 28.324Z" fill="#DFDED4"/>
</g>
<defs>
<clipPath id="clip0_80_791">
<rect width="66.868" height="73" fill="white"/>
</clipPath>
<clipPath id="clip1_80_791">
<rect width="66.868" height="73" fill="white" transform="translate(72.0875)"/>
</clipPath>
</defs>
</svg>
