<svg width="79" height="110" viewBox="0 0 79 110" fill="none" xmlns="http://www.w3.org/2000/svg">
<path d="M60.7969 3.62329C60.8206 3.6472 60.8444 3.67112 60.8688 3.69576C61.0801 3.73175 61.2909 3.76452 61.5029 3.79539C61.9695 3.86618 62.4226 3.95185 62.8786 4.07534C63.3311 4.18853 63.7917 4.26526 64.2504 4.34793C64.2504 4.39576 64.2504 4.44358 64.2504 4.49286C64.335 4.50182 64.4196 4.51079 64.5068 4.52003C65.0897 4.59483 65.6386 4.81175 66.1931 5.0001C66.3369 5.04846 66.4808 5.09679 66.6248 5.14503C66.6248 5.19286 66.6248 5.24068 66.6248 5.28996C66.6743 5.29659 66.7238 5.30322 66.7748 5.31006C67.431 5.47393 68.0668 5.98051 68.5994 6.38484C68.8314 6.55772 69.0726 6.71342 69.3169 6.86774C69.3545 6.89707 69.3921 6.92641 69.4308 6.95663C69.4308 7.00445 69.4308 7.05228 69.4308 7.10155C69.4753 7.12397 69.5198 7.14639 69.5657 7.16949C69.6646 7.21931 69.7635 7.26913 69.8625 7.31894C69.8625 7.36677 69.8625 7.4146 69.8625 7.46387C69.9053 7.48433 69.9482 7.50479 69.9923 7.52586C70.4384 7.76009 70.7378 8.13159 71.0406 8.52365C71.0882 8.58479 71.0882 8.58479 71.1368 8.64716C71.2895 8.84986 71.4119 9.01948 71.4453 9.27547C71.4928 9.27547 71.5403 9.27547 71.5892 9.27547C71.6943 9.46731 71.7331 9.55768 71.7331 9.78271C71.7806 9.78271 71.8281 9.78271 71.877 9.78271C72.004 10.0065 72.0209 10.0895 72.0209 10.3624C72.0684 10.3624 72.1159 10.3624 72.1648 10.3624C73.2231 12.3243 73.6366 14.5919 73.6263 16.8072C73.6262 16.8617 73.6262 16.9162 73.6261 16.9724C73.6236 17.9685 73.5449 18.9434 73.388 19.9276C73.3761 20.0025 73.3642 20.0774 73.352 20.1546C73.2926 20.5223 73.2306 20.8875 73.1451 21.2501C73.1268 21.3285 73.1084 21.4068 73.0895 21.4876C73.0349 21.712 72.9783 21.9358 72.9213 22.1596C72.9091 22.2077 72.8969 22.2558 72.8843 22.3054C72.8721 22.3534 72.8599 22.4015 72.8473 22.451C72.7354 22.9004 72.6532 23.3532 72.5757 23.8098C72.5246 24.0581 72.5246 24.0581 72.4548 24.2323C72.3829 24.4148 72.3367 24.5874 72.2955 24.779C72.2807 24.8465 72.2659 24.914 72.2507 24.9835C72.2357 25.0533 72.2207 25.123 72.2053 25.1949C72.1042 25.6646 71.9942 26.1256 71.8493 26.5839C71.7966 26.755 71.7966 26.755 71.7691 27.0019C71.7351 27.2329 71.6757 27.4301 71.5892 27.6462C71.5326 27.7878 71.4794 27.9308 71.4274 28.0742C71.1981 28.6962 70.9343 29.2659 70.51 29.7827C70.4625 29.7827 70.415 29.7827 70.3661 29.7827C70.3498 29.8221 70.3335 29.8616 70.3166 29.9022C70.1943 30.1229 70.0332 30.2971 69.8625 30.4802C69.8271 30.5184 69.7917 30.5567 69.7552 30.5961C69.6475 30.7119 69.5392 30.827 69.4308 30.9421C69.3724 31.0048 69.3141 31.0675 69.254 31.1321C68.9141 31.4869 68.5549 31.8049 68.1717 32.1106C68.1276 32.1458 68.0836 32.1811 68.0382 32.2173C67.7223 32.4639 67.7223 32.4639 67.5601 32.4639C67.5601 32.5117 67.5601 32.5595 67.5601 32.6088C67.3442 32.7537 67.3442 32.7537 67.1284 32.7537C67.1284 32.8016 67.1284 32.8494 67.1284 32.8987C66.9471 33.0238 66.9471 33.0238 66.7102 33.1613C66.6326 33.2071 66.5549 33.2529 66.475 33.3C66.265 33.4059 66.265 33.4059 66.0492 33.4059C66.0492 33.4537 66.0492 33.5016 66.0492 33.5508C65.9305 33.5508 65.8117 33.5508 65.6894 33.5508C65.6894 33.5987 65.6894 33.6465 65.6894 33.6958C65.0495 33.9214 64.404 34.1083 63.7468 34.2755C63.6672 34.2957 63.5876 34.316 63.5057 34.3369C62.5913 34.5598 61.6677 34.6665 60.7294 34.7193C60.6769 34.7223 60.6243 34.7254 60.5701 34.7285C59.2644 34.7998 57.9565 34.7988 56.6492 34.8005C56.4763 34.8008 56.3033 34.8014 56.1304 34.802C55.8533 34.8028 55.5762 34.8028 55.2991 34.8022C55.1961 34.802 55.093 34.8021 54.9899 34.8024C53.2761 34.8069 51.9978 34.2649 50.5801 33.3334C50.5321 33.3033 50.4841 33.2731 50.4346 33.242C50.3366 33.1797 50.242 33.1123 50.1484 33.0436C50.1484 32.9958 50.1484 32.9479 50.1484 32.8987C50.0772 32.8747 50.006 32.8508 49.9326 32.8262C49.9291 32.8704 49.9257 32.9145 49.9222 32.96C49.8863 33.4185 49.8501 33.8769 49.8136 34.3353C49.8 34.5065 49.7865 34.6777 49.7732 34.849C49.754 35.0947 49.7344 35.3404 49.7148 35.586C49.7089 35.663 49.7029 35.7399 49.6968 35.8191C49.6911 35.8902 49.6853 35.9613 49.6794 36.0345C49.6744 36.0973 49.6695 36.16 49.6644 36.2247C49.6448 36.3769 49.6448 36.3769 49.5728 36.5218C49.5615 36.6258 49.553 36.73 49.5459 36.8343C49.5036 37.2971 49.3958 37.7382 49.2851 38.1885C49.2671 38.2662 49.2491 38.3439 49.2305 38.424C49.2129 38.4987 49.1953 38.5735 49.1771 38.6505C49.1538 38.75 49.1538 38.75 49.1299 38.8514C49.0692 39.0581 49.0692 39.0581 48.9686 39.2769C48.7936 39.6752 48.7206 40.1064 48.6285 40.53C48.591 40.7003 48.5534 40.8707 48.5155 41.0409C48.4992 41.1159 48.4829 41.1908 48.466 41.268C48.4217 41.4494 48.4217 41.4494 48.3497 41.5943C48.3276 41.7632 48.3131 41.9322 48.298 42.1018C48.2778 42.2465 48.2778 42.2465 48.2058 42.319C48.1909 42.4273 48.1794 42.5361 48.1698 42.645C48.1419 42.9631 48.1419 42.9631 48.0619 43.0436C48.053 43.1168 48.0441 43.1901 48.0349 43.2655C47.9935 43.5287 47.93 43.7382 47.8326 43.9831C47.7943 44.0797 47.7582 44.1773 47.7247 44.2758C47.5256 44.8579 47.1777 45.4134 46.7668 45.8697C46.7194 45.8697 46.6719 45.8697 46.6229 45.8697C46.6059 45.9089 46.5888 45.9481 46.5712 45.9886C46.4543 46.2054 46.31 46.385 46.1553 46.5762C46.0696 46.6832 46.0696 46.6832 45.9821 46.7925C45.9076 46.8737 45.9076 46.8737 45.8315 46.9566C45.784 46.9566 45.7365 46.9566 45.6876 46.9566C45.6698 47.0015 45.652 47.0463 45.6336 47.0925C45.5437 47.2465 45.5437 47.2465 45.3998 47.3144C45.202 47.4203 45.1776 47.5445 45.112 47.7537C45.0645 47.7537 45.017 47.7537 44.9681 47.7537C44.9444 47.8255 44.9206 47.8972 44.8962 47.9711C44.8487 47.9711 44.8012 47.9711 44.7523 47.9711C44.7345 48.0115 44.7167 48.0518 44.6983 48.0934C44.4954 48.4716 44.2163 48.7164 43.8889 48.9856C43.8295 49.0454 43.7702 49.1052 43.709 49.1668C43.5132 49.364 43.316 49.539 43.0974 49.7103C43.05 49.7103 43.0025 49.7103 42.9535 49.7103C42.9535 49.7581 42.9535 49.8059 42.9535 49.8552C42.7807 49.9889 42.608 50.1133 42.4274 50.2356C42.3746 50.2717 42.3218 50.3077 42.2674 50.3448C41.861 50.619 41.4499 50.8688 41.0109 51.0871C40.9266 51.1295 40.8423 51.1719 40.7554 51.2156C40.1844 51.4968 39.6137 51.7238 38.9963 51.8842C38.861 51.9213 38.861 51.9213 38.7229 51.9592C38.2565 52.0622 37.7891 52.0498 37.3137 52.0483C37.2138 52.0484 37.1139 52.0486 37.014 52.0488C36.8053 52.049 36.5966 52.0487 36.3879 52.048C36.1234 52.0472 35.8589 52.0476 35.5944 52.0485C35.3882 52.049 35.1819 52.0489 34.9757 52.0485C34.8317 52.0484 34.6877 52.0488 34.5436 52.0492C33.7802 52.0454 33.0287 52.0003 32.3051 51.7392C32.3485 51.8198 32.3919 51.9003 32.4366 51.9832C32.7368 52.5443 33.0226 53.0964 33.2404 53.6958C33.2883 53.816 33.2883 53.816 33.3371 53.9386C33.3705 54.0229 33.4039 54.1071 33.4383 54.194C33.4691 54.2715 33.4999 54.349 33.5316 54.4289C33.6002 54.6378 33.6002 54.6378 33.6002 54.9277C33.6477 54.9277 33.6951 54.9277 33.7441 54.9277C33.7588 54.9984 33.7736 55.0691 33.7888 55.1419C33.8081 55.2341 33.8275 55.3263 33.8475 55.4213C33.8667 55.5129 33.8859 55.6046 33.9057 55.699C33.9552 55.94 33.9552 55.94 34.0319 56.1595C34.054 56.4001 34.0685 56.6408 34.0836 56.8819C34.0958 57.1047 34.0958 57.1047 34.1758 57.319C34.1929 57.5246 34.2063 57.7289 34.2162 57.9349C34.2207 58.0277 34.2207 58.0277 34.2253 58.1224C34.271 59.1436 34.2488 60.1626 34.2208 61.1841C34.2178 61.2944 34.2148 61.4048 34.212 61.5151C34.2079 61.6708 34.2033 61.8265 34.1985 61.9821C34.1959 62.0732 34.1933 62.1642 34.1905 62.258C34.1758 62.4639 34.1758 62.4639 34.1038 62.5363C34.0886 62.7404 34.0767 62.9434 34.0678 63.1478C34.0415 63.7488 34.0415 63.7488 33.9599 63.9132C33.9523 64.0248 33.9466 64.1365 33.9419 64.2483C33.9041 64.7217 33.7664 65.1468 33.6184 65.5945C33.4911 65.9829 33.3848 66.3746 33.2854 66.771C33.2037 67.075 33.0987 67.3386 32.9509 67.6153C32.8769 67.7613 32.8195 67.9078 32.7638 68.0617C32.6919 68.259 32.6199 68.4394 32.5209 68.6233C32.4735 68.6233 32.426 68.6233 32.377 68.6233C32.3685 68.6653 32.3599 68.7073 32.351 68.7506C32.2714 69.0325 32.1039 69.2646 31.9498 69.511C31.9171 69.565 31.8843 69.619 31.8505 69.6746C31.8188 69.7256 31.7871 69.7766 31.7545 69.8291C31.7256 69.8759 31.6967 69.9226 31.6668 69.9707C31.6266 70.0212 31.6266 70.0212 31.5856 70.0726C31.5381 70.0726 31.4906 70.0726 31.4417 70.0726C31.434 70.1135 31.4264 70.1545 31.4185 70.1967C31.3616 70.3901 31.2763 70.527 31.1657 70.695C31.1247 70.7579 31.0837 70.8207 31.0415 70.8854C30.9985 70.9505 30.9554 71.0155 30.9111 71.0825C30.8265 71.2115 30.742 71.3405 30.6576 71.4695C30.62 71.5265 30.5824 71.5834 30.5436 71.6421C30.4654 71.7636 30.3919 71.8881 30.3215 72.0143C30.2876 72.067 30.2536 72.1197 30.2186 72.174C30.1711 72.174 30.1236 72.174 30.0747 72.174C30.057 72.2262 30.0392 72.2783 30.021 72.332C29.9204 72.5599 29.7984 72.7175 29.6385 72.9077C29.581 72.9768 29.5235 73.0458 29.4642 73.1169C29.4045 73.1884 29.3448 73.2598 29.2832 73.3335C29.1161 73.5407 28.9494 73.7483 28.7827 73.9559C28.6442 74.1205 28.5069 74.2757 28.3479 74.4204C28.3004 74.4204 28.2529 74.4204 28.204 74.4204C28.1795 74.4809 28.1795 74.4809 28.1545 74.5427C27.7643 75.2351 26.9284 75.7066 26.2614 76.0871C26.2115 76.1183 26.1616 76.1495 26.1102 76.1816C25.6952 76.4336 25.2571 76.5792 24.7971 76.724C24.5341 76.8119 24.2854 76.9186 24.031 77.0291C23.8592 77.0899 23.6868 77.1488 23.5138 77.2057C23.4189 77.237 23.324 77.2684 23.2291 77.2997C23.1824 77.3151 23.1357 77.3304 23.0876 77.3463C22.825 77.4335 22.5638 77.5252 22.3025 77.6165C21.7416 77.7862 21.2073 77.8545 20.6224 77.876C20.553 77.8794 20.4836 77.8828 20.4121 77.8864C19.7003 77.9157 19.0464 77.8776 18.374 77.6315C18.3191 77.6122 18.2642 77.5929 18.2076 77.573C18.094 77.5329 17.9804 77.4925 17.867 77.4516C17.7057 77.3937 17.5441 77.3373 17.3821 77.2813C16.7917 77.0762 16.2102 76.8545 15.6323 76.6158C15.4013 76.5202 15.4013 76.5202 15.1753 76.4514C14.9523 76.3723 14.771 76.2704 14.5697 76.146C14.258 75.9577 13.9447 75.7908 13.6163 75.6342C13.2076 75.432 12.8321 75.1999 12.4562 74.9412C12.3797 74.889 12.3797 74.889 12.3017 74.8357C12.1793 74.7497 12.061 74.658 11.9435 74.5653C11.9435 74.5175 11.9435 74.4697 11.9435 74.4204C11.8798 74.3931 11.8798 74.3931 11.8148 74.3652C11.6358 74.2643 11.542 74.1588 11.4129 73.9992C11.259 73.8153 11.1097 73.6507 10.9228 73.501C10.7263 73.3383 10.5786 73.1803 10.4326 72.9711C10.4326 72.9233 10.4326 72.8755 10.4326 72.8262C10.3851 72.8262 10.3376 72.8262 10.2887 72.8262C10.1448 72.6088 10.1448 72.6088 10.1448 72.3914C10.0973 72.3914 10.0498 72.3914 10.0009 72.3914C9.87321 72.2325 9.75416 72.0732 9.63666 71.9068C9.60134 71.8576 9.56601 71.8083 9.52962 71.7576C9.25356 71.3711 8.98543 70.9794 8.71791 70.5869C8.56683 70.3695 8.41077 70.1572 8.25165 69.9458C7.94716 69.541 7.65595 69.1277 7.36649 68.712C7.15992 68.4154 6.95032 68.1218 6.73622 67.8307C6.1535 67.0263 5.62681 66.1215 5.39617 65.145C5.34868 65.145 5.3012 65.145 5.25227 65.145C5.17098 64.9504 5.0901 64.7557 5.00944 64.5608C4.98663 64.5063 4.96381 64.4518 4.94031 64.3956C4.66011 63.7166 4.57455 63.1364 4.57325 62.4005C4.57307 62.329 4.57307 62.329 4.57288 62.256C4.57399 61.2807 4.73092 60.3654 4.96448 59.4204C4.9922 59.3031 5.01984 59.1857 5.04739 59.0683C5.13218 58.7131 5.22394 58.3605 5.32394 58.0093C5.39764 57.7486 5.46442 57.4865 5.53107 57.2238C5.86003 55.9645 6.48378 54.9167 7.22609 53.8614C7.37425 53.6437 7.50049 53.4198 7.62659 53.1885C7.74351 52.9757 7.74351 52.9757 7.84244 52.8262C7.88992 52.8262 7.93741 52.8262 7.98633 52.8262C8.00266 52.7754 8.01898 52.7246 8.0358 52.6722C8.15458 52.4102 8.29506 52.2401 8.48998 52.0291C8.53746 52.0291 8.58495 52.0291 8.63387 52.0291C8.65326 51.9872 8.67264 51.9452 8.69261 51.902C8.96043 51.3901 9.38774 50.9576 9.75987 50.5203C10.0556 50.1708 10.336 49.8102 10.6104 49.4434C10.6918 49.3366 10.7777 49.2332 10.8643 49.1305C10.9118 49.1305 10.9593 49.1305 11.0082 49.1305C11.0319 49.0588 11.0557 48.9871 11.0801 48.9132C11.1276 48.9132 11.1751 48.9132 11.224 48.9132C11.239 48.8717 11.2539 48.8302 11.2693 48.7875C11.4053 48.5611 11.5763 48.4596 11.7951 48.3153C11.9096 48.2385 11.9096 48.2385 12.0264 48.1602C12.2313 48.0436 12.2313 48.0436 12.4472 48.0436C12.4472 47.9958 12.4472 47.9479 12.4472 47.8987C12.735 47.7537 13.0228 47.6088 13.3106 47.4639C13.381 47.4255 13.4515 47.3871 13.5242 47.3475C13.7622 47.2372 13.9796 47.1863 14.2369 47.1378C14.5711 47.0704 14.8741 46.99 15.1888 46.8612C15.4652 46.7608 15.7564 46.7201 16.0446 46.6668C16.2215 46.6307 16.3984 46.5945 16.5752 46.5581C16.7066 46.5311 16.838 46.5042 16.9697 46.4793C17.0769 46.4585 17.1837 46.4357 17.2902 46.4114C18.0092 46.2646 18.7371 46.2749 19.4677 46.2736C19.6973 46.2728 19.9267 46.2692 20.1563 46.2655C21.139 46.2578 22.0365 46.3756 22.9882 46.6209C23.2187 46.6799 23.4503 46.7335 23.6822 46.7869C24.2079 46.9085 24.7313 47.0401 25.2541 47.174C25.2167 47.096 25.1793 47.018 25.1408 46.9377C24.8685 46.3648 24.6117 45.7941 24.3924 45.1983C24.332 45.0357 24.2676 44.8776 24.1973 44.7193C24.0966 44.4777 24.0295 44.2379 23.959 43.9856C23.9309 43.8919 23.9025 43.7984 23.8739 43.7048C23.6902 43.099 23.5379 42.4987 23.425 41.8754C23.3939 41.672 23.3939 41.672 23.3115 41.5219C23.2891 41.3364 23.2748 41.1509 23.2598 40.9648C23.2488 40.7956 23.2488 40.7956 23.1676 40.6523C23.1576 40.5553 23.1514 40.4579 23.1473 40.3604C23.1446 40.303 23.142 40.2456 23.1392 40.1865C23.1367 40.1265 23.1342 40.0665 23.1316 40.0046C23.1266 39.8862 23.1214 39.7678 23.1159 39.6494C23.1137 39.5968 23.1115 39.5442 23.1093 39.4901C23.0994 39.3325 23.0994 39.3325 23.0237 39.1305C23.017 38.9968 23.0145 38.8629 23.0144 38.729C23.0141 38.6468 23.0139 38.5646 23.0137 38.4799C23.0139 38.3467 23.0139 38.3467 23.0141 38.2109C23.014 38.1199 23.014 38.0288 23.0139 37.935C23.0139 37.7425 23.014 37.5499 23.0143 37.3574C23.0147 37.1104 23.0145 36.8634 23.014 36.6164C23.0137 36.381 23.0139 36.1456 23.0141 35.9102C23.014 35.8212 23.0138 35.7323 23.0137 35.6407C23.014 35.5177 23.014 35.5177 23.0144 35.3923C23.0144 35.3199 23.0145 35.2475 23.0145 35.1729C23.0237 35.0001 23.0237 35.0001 23.0956 34.8552C23.1128 34.6862 23.123 34.5172 23.1333 34.3477C23.1717 34.1043 23.2457 33.8891 23.3257 33.657C23.4248 33.3503 23.4925 33.0364 23.5633 32.722C23.7681 31.8165 24.0476 30.9675 24.3938 30.1082C24.456 29.9451 24.5075 29.7825 24.5571 29.6151C24.7036 29.1588 24.9489 28.7493 25.1821 28.3334C25.214 28.2764 25.246 28.2193 25.2788 28.1605C25.3419 28.0487 25.4058 27.9374 25.4699 27.8262C25.5174 27.8262 25.5649 27.8262 25.6138 27.8262C25.6372 27.7336 25.6372 27.7336 25.6611 27.6391C25.7784 27.3385 25.9416 27.1448 26.1535 26.9068C26.4383 26.5815 26.4383 26.5815 26.6931 26.232C26.7406 26.232 26.788 26.232 26.837 26.232C26.8414 26.1901 26.8459 26.1483 26.8505 26.1052C26.9329 25.8751 27.0715 25.7879 27.2687 25.6523C27.3161 25.6523 27.3636 25.6523 27.4126 25.6523C27.4126 25.6045 27.4126 25.5566 27.4126 25.5074C27.7342 25.2175 27.7342 25.2175 27.9162 25.2175C27.9399 25.1458 27.9637 25.074 27.9882 25.0001C28.1522 24.8675 28.3149 24.7448 28.4873 24.6242C28.5338 24.5906 28.5803 24.557 28.6282 24.5224C28.976 24.2755 28.976 24.2755 29.1393 24.2755C29.1393 24.2276 29.1393 24.1798 29.1393 24.1305C29.1831 24.1067 29.2269 24.0829 29.272 24.0584C29.5835 23.8881 29.8945 23.7174 30.2017 23.5395C31.0452 23.0519 31.8923 22.6233 32.8087 22.2918C32.8836 22.2645 32.8836 22.2645 32.9601 22.2367C33.2686 22.129 33.563 22.0717 33.888 22.0291C33.9117 22.0052 33.9355 21.9813 33.9599 21.9566C34.4767 21.8273 35.0008 21.7866 35.531 21.7571C35.7495 21.7453 35.7495 21.7453 35.9233 21.7025C36.1486 21.6612 36.3601 21.6574 36.5891 21.6571C36.6782 21.6571 36.7673 21.657 36.8591 21.6569C36.9515 21.6571 37.0439 21.6574 37.1392 21.6577C37.2324 21.6574 37.3257 21.6572 37.4218 21.6569C37.555 21.657 37.555 21.657 37.6909 21.6571C37.8129 21.6573 37.8129 21.6573 37.9374 21.6574C38.133 21.6668 38.133 21.6668 38.2769 21.7392C38.4385 21.7593 38.6005 21.7769 38.7625 21.7936C39.8333 21.9181 40.8971 22.1439 41.8743 22.6088C41.9764 22.6529 42.0786 22.6967 42.1809 22.7401C42.8627 23.0322 43.4844 23.3604 44.1047 23.7682C44.1725 23.8066 44.2403 23.845 44.3102 23.8846C44.3611 23.9179 44.412 23.9513 44.4645 23.9856C44.4645 24.0334 44.4645 24.0813 44.4645 24.1305C44.512 24.1305 44.5594 24.1305 44.6084 24.1305C44.6084 24.1784 44.6084 24.2262 44.6084 24.2755C44.6603 24.2934 44.7122 24.3113 44.7658 24.3298C45.0837 24.4722 45.3032 24.6727 45.5212 24.9412C45.6656 25.1462 45.6656 25.1462 45.8315 25.2175C45.8315 25.2653 45.8315 25.3132 45.8315 25.3624C45.9027 25.3863 45.974 25.4103 46.0473 25.4349C46.037 25.3617 46.0266 25.2884 46.0159 25.213C45.9891 25.0244 45.9636 24.8357 45.9394 24.6468C45.9276 24.4306 45.9276 24.4306 45.8315 24.3479C45.8082 24.1422 45.7946 23.9363 45.7798 23.7297C45.7787 23.5551 45.7787 23.5551 45.6876 23.4784C45.6271 23.1908 45.5882 22.8992 45.5437 22.6088C45.5313 22.5325 45.5189 22.4562 45.5062 22.3776C45.3853 21.5695 45.3706 20.7664 45.3593 19.9503C45.3562 19.7435 45.3528 19.5367 45.3491 19.3299C45.3468 19.2024 45.3448 19.0749 45.3433 18.9474C45.3423 18.8899 45.3414 18.8325 45.3403 18.7734C45.3397 18.7233 45.339 18.6731 45.3383 18.6215C45.3273 18.4701 45.2935 18.3352 45.2559 18.1885C45.2493 18.0422 45.2466 17.8957 45.2469 17.7492C45.2467 17.6736 45.2465 17.5981 45.2464 17.5202C45.2559 17.3189 45.2559 17.3189 45.3279 17.1016C45.3372 16.928 45.3444 16.7544 45.3503 16.5807C45.3931 15.6998 45.6203 14.9036 45.9824 14.1003C46.0889 13.7934 46.1265 13.4728 46.1745 13.1524C46.2346 12.7799 46.3391 12.4508 46.479 12.1016C46.5137 12.0076 46.548 11.9135 46.5819 11.8193C46.7898 11.25 47.009 10.6921 47.2705 10.145C47.3012 10.0786 47.3319 10.0122 47.3635 9.94377C47.7657 9.09849 48.2694 8.13947 48.9253 7.46387C48.9728 7.46387 49.0203 7.46387 49.0692 7.46387C49.0866 7.42296 49.1039 7.38204 49.1218 7.33989C49.2317 7.14033 49.3637 7.00056 49.5234 6.83887C49.578 6.78264 49.6326 6.72641 49.6889 6.66847C49.862 6.52068 50.0063 6.44791 50.2204 6.37692C50.2204 6.32909 50.2204 6.28126 50.2204 6.23199C50.8915 5.64177 51.7811 5.27409 52.5947 4.92764C52.6496 4.90317 52.7045 4.87869 52.7611 4.85348C53.1865 4.67084 53.6107 4.56001 54.0632 4.46483C54.2435 4.43919 54.2435 4.43919 54.3215 4.34793C54.4168 4.32746 54.5129 4.31075 54.6093 4.29585C54.6672 4.2866 54.725 4.27735 54.7847 4.26782C54.9076 4.24876 55.0305 4.2297 55.1534 4.21064C55.2113 4.2014 55.2691 4.19215 55.3288 4.18262C55.3822 4.17435 55.4356 4.16609 55.4907 4.15757C55.618 4.14226 55.618 4.14226 55.6885 4.05807C55.7932 4.04636 55.8982 4.03791 56.0033 4.0309C56.2699 4.00669 56.5113 3.96275 56.7677 3.88597C58.0639 3.51638 59.4628 3.40405 60.7969 3.62329Z" fill="#DFDED4"/>
<path d="M34.5419 98.6036C34.6774 98.6026 34.6774 98.6026 34.8156 98.6015C34.9144 98.6015 35.0131 98.6016 35.1119 98.6017C35.2135 98.6014 35.315 98.6011 35.4166 98.6008C35.6297 98.6002 35.8428 98.6002 36.0558 98.6006C36.3277 98.601 36.5995 98.5998 36.8713 98.5981C37.0812 98.5971 37.2912 98.597 37.5011 98.5972C37.6012 98.5972 37.7014 98.5968 37.8015 98.5961C38.3483 98.5926 38.7854 98.6088 39.2841 98.8409C39.3796 98.8668 39.4755 98.8915 39.5719 98.9134C39.5719 98.9612 39.5719 99.009 39.5719 99.0583C39.6669 99.0822 39.7619 99.1061 39.8597 99.1307C39.8597 99.1786 39.8597 99.2264 39.8597 99.2757C39.9072 99.2757 39.9547 99.2757 40.0036 99.2757C40.0036 99.3235 40.0036 99.3713 40.0036 99.4206C40.0511 99.4206 40.0986 99.4206 40.1475 99.4206C40.5469 100.145 40.6031 100.824 40.5972 101.644C40.598 101.763 40.598 101.763 40.5989 101.883C40.5979 102.3 40.5751 102.651 40.4353 103.044C40.4116 103.116 40.3878 103.187 40.3634 103.261C40.188 103.456 40.188 103.456 40.0036 103.623C39.9561 103.623 39.9087 103.623 39.8597 103.623C39.8404 103.668 39.8211 103.713 39.8013 103.759C39.7158 103.913 39.7158 103.913 39.5 104.058C39.4605 104.342 39.5321 104.527 39.6574 104.778C39.8461 105.176 39.9901 105.581 40.1326 105.997C40.2068 106.198 40.2892 106.379 40.3904 106.567C40.5073 106.812 40.5073 106.812 40.4353 107.102C39.7468 107.102 39.0582 107.102 38.3488 107.102C38.3488 107.054 38.3488 107.006 38.3488 106.957C38.3013 106.957 38.2538 106.957 38.2049 106.957C38.1866 106.899 38.1684 106.841 38.1495 106.782C37.9951 106.3 37.9951 106.3 37.7912 105.838C37.6941 105.638 37.682 105.51 37.7013 105.29C37.6538 105.29 37.6063 105.29 37.5574 105.29C37.4861 105.051 37.4149 104.812 37.3415 104.566C36.8667 104.542 36.3918 104.518 35.9025 104.493C35.9034 104.675 35.9042 104.858 35.9051 105.045C35.9056 105.221 35.9061 105.397 35.9065 105.573C35.9069 105.695 35.9073 105.818 35.908 105.94C35.9088 106.116 35.9092 106.292 35.9096 106.467C35.9099 106.523 35.9103 106.578 35.9107 106.634C35.9107 106.766 35.907 106.898 35.9025 107.029C35.8306 107.102 35.8306 107.102 35.6441 107.11C35.5631 107.11 35.4821 107.109 35.3986 107.109C35.2675 107.108 35.2675 107.108 35.1337 107.108C35.0417 107.108 34.9496 107.107 34.8548 107.106C34.7624 107.106 34.6701 107.106 34.575 107.105C34.346 107.104 34.117 107.103 33.888 107.102C33.8035 106.932 33.807 106.831 33.8069 106.641C33.8067 106.575 33.8065 106.509 33.8063 106.441C33.8064 106.368 33.8066 106.295 33.8067 106.22C33.8066 106.143 33.8065 106.067 33.8063 105.988C33.806 105.734 33.8062 105.479 33.8065 105.225C33.8064 105.049 33.8063 104.873 33.8063 104.697C33.8061 104.327 33.8063 103.957 33.8066 103.587C33.807 103.113 33.8068 102.638 33.8064 102.164C33.8061 101.8 33.8062 101.436 33.8064 101.072C33.8064 100.897 33.8064 100.722 33.8062 100.547C33.806 100.303 33.8063 100.058 33.8067 99.8139C33.8066 99.7414 33.8064 99.6688 33.8063 99.594C33.8066 99.494 33.8066 99.494 33.8069 99.392C33.8069 99.3342 33.8069 99.2764 33.807 99.2169C33.8162 99.0543 33.8318 98.9214 33.888 98.7684C34.1403 98.599 34.2433 98.6048 34.5419 98.6036ZM35.9025 100.508C35.9008 100.806 35.8995 101.103 35.8986 101.401C35.8982 101.503 35.8977 101.604 35.8971 101.706C35.8962 101.851 35.8959 101.997 35.8955 102.142C35.8951 102.23 35.8948 102.318 35.8944 102.408C35.8797 102.602 35.8797 102.602 35.9745 102.681C36.2903 102.702 36.6069 102.698 36.9233 102.7C37.0564 102.702 37.0564 102.702 37.1921 102.704C37.321 102.705 37.321 102.705 37.4525 102.705C37.5312 102.706 37.6099 102.707 37.6909 102.707C37.9556 102.677 38.1243 102.608 38.3488 102.464C38.5485 102.177 38.5218 101.865 38.5242 101.527C38.5265 101.469 38.5289 101.411 38.5313 101.351C38.5319 101.295 38.5324 101.238 38.5329 101.18C38.5339 101.129 38.5348 101.079 38.5358 101.026C38.4662 100.774 38.3358 100.666 38.133 100.508C37.8832 100.458 37.8832 100.458 37.6099 100.472C37.5364 100.473 37.5364 100.473 37.4614 100.474C37.306 100.476 37.1507 100.48 36.9953 100.485C36.8894 100.487 36.7836 100.488 36.6778 100.49C36.4193 100.494 36.161 100.5 35.9025 100.508Z" fill="#DFDED4"/>
<path d="M25.941 86.1374C26.0052 86.1371 26.0694 86.1368 26.1356 86.1364C26.2708 86.136 26.406 86.136 26.5412 86.1363C26.7455 86.1365 26.9497 86.1348 27.154 86.133C27.8439 86.1306 28.479 86.149 29.1393 86.3766C29.2106 86.4005 29.2818 86.4244 29.3552 86.449C29.3552 86.4969 29.3552 86.5447 29.3552 86.594C29.4264 86.594 29.4976 86.594 29.571 86.594C29.571 86.6418 29.571 86.6896 29.571 86.7389C29.6185 86.7389 29.666 86.7389 29.7149 86.7389C29.7149 86.7867 29.7149 86.8345 29.7149 86.8838C29.7862 86.9077 29.8574 86.9316 29.9308 86.9563C30.3882 87.6264 30.3841 88.3315 30.3816 89.1234C30.3817 89.219 30.3819 89.3147 30.382 89.4132C30.3822 89.6147 30.3819 89.8162 30.3812 90.0176C30.3804 90.2742 30.3809 90.5307 30.3817 90.7872C30.3824 91.0342 30.3819 91.2813 30.3816 91.5283C30.3819 91.6196 30.3822 91.7108 30.3825 91.8049C30.3792 92.4188 30.3734 93.0241 30.0117 93.5459C29.9763 93.5989 29.9409 93.6519 29.9044 93.7064C29.7791 93.8492 29.6726 93.913 29.4991 93.9853C29.4991 94.0331 29.4991 94.0809 29.4991 94.1302C28.9406 94.4326 28.4895 94.5469 27.858 94.5406C27.7798 94.541 27.7015 94.5413 27.6208 94.5417C27.4564 94.5419 27.292 94.5413 27.1276 94.5397C26.8783 94.5378 26.6292 94.5397 26.3798 94.542C24.6185 94.545 24.6185 94.545 23.9957 93.9626C23.3299 93.2559 23.2892 92.5341 23.2898 91.5945C23.2895 91.4964 23.2892 91.3982 23.2889 91.3C23.2884 91.095 23.2884 90.89 23.2888 90.685C23.2892 90.4242 23.288 90.1634 23.2863 89.9025C23.2852 89.7 23.2852 89.4974 23.2854 89.2949C23.2853 89.1525 23.2843 89.0102 23.2833 88.8679C23.2872 88.1129 23.4148 87.5233 23.8151 86.8838C23.8626 86.8838 23.9101 86.8838 23.959 86.8838C23.959 86.836 23.959 86.7882 23.959 86.7389C24.0065 86.7389 24.054 86.7389 24.1029 86.7389C24.1029 86.6911 24.1029 86.6432 24.1029 86.594C24.186 86.5491 24.2691 86.5043 24.3547 86.4581C24.4015 86.4329 24.4482 86.4076 24.4964 86.3817C24.9752 86.1778 25.4281 86.1368 25.941 86.1374ZM25.5419 88.1882C25.3985 88.4084 25.3801 88.5855 25.3805 88.8456C25.3803 88.9186 25.3801 88.9916 25.3798 89.0669C25.3804 89.1453 25.3809 89.2237 25.3814 89.3046C25.3814 89.3855 25.3815 89.4664 25.3815 89.5498C25.3817 89.7208 25.3823 89.8919 25.3832 90.0629C25.3845 90.3248 25.3847 90.5867 25.3846 90.8487C25.385 91.0148 25.3854 91.181 25.3859 91.3471C25.386 91.4256 25.3861 91.504 25.3861 91.5848C25.3866 91.6578 25.3871 91.7309 25.3875 91.8061C25.3878 91.8702 25.3881 91.9344 25.3884 92.0005C25.3976 92.1662 25.4174 92.3063 25.4699 92.4635C25.7125 92.6494 25.971 92.6272 26.2662 92.6277C26.3147 92.6278 26.3633 92.628 26.4134 92.6281C26.5158 92.6282 26.6182 92.6279 26.7205 92.6273C26.8772 92.6266 27.0338 92.6273 27.1904 92.6283C27.29 92.6282 27.3897 92.628 27.4893 92.6277C27.5798 92.6275 27.6703 92.6274 27.7635 92.6272C28 92.6258 28 92.6258 28.204 92.4635C28.2743 92.2222 28.2853 91.9903 28.2864 91.7399C28.2869 91.67 28.2873 91.6001 28.2878 91.5281C28.2879 91.4534 28.288 91.3788 28.288 91.3018C28.2883 91.2244 28.2885 91.147 28.2888 91.0672C28.2891 90.9037 28.2893 90.7402 28.2893 90.5767C28.2894 90.3268 28.2907 90.0768 28.2921 89.8268C28.2923 89.6678 28.2925 89.5088 28.2925 89.3498C28.2931 89.2752 28.2936 89.2005 28.2941 89.1236C28.2938 89.0188 28.2938 89.0188 28.2934 88.9118C28.2935 88.8506 28.2936 88.7894 28.2937 88.7264C28.2714 88.505 28.2209 88.2776 28.0601 88.1157C27.7342 88.0855 27.4068 88.0782 27.0798 88.0659C26.9425 88.0594 26.9425 88.0594 26.8024 88.0527C26.1549 88.0166 26.1549 88.0166 25.5419 88.1882Z" fill="#DFDED4"/>
<path d="M9.42532 98.5781C9.47733 98.5803 9.52933 98.5826 9.58292 98.5849C9.88767 98.6024 10.1478 98.6581 10.4326 98.7683C10.4326 98.8161 10.4326 98.864 10.4326 98.9133C10.5276 98.9133 10.6225 98.9133 10.7204 98.9133C10.7204 98.9611 10.7204 99.0089 10.7204 99.0582C10.759 99.0627 10.7976 99.0671 10.8373 99.0718C11.0882 99.1582 11.242 99.3163 11.4399 99.493C11.3998 99.7353 11.3426 99.9301 11.224 100.145C11.1766 100.145 11.1291 100.145 11.0801 100.145C11.0801 100.217 11.0801 100.289 11.0801 100.363C11.0327 100.363 10.9852 100.363 10.9362 100.363C10.9303 100.401 10.9244 100.44 10.9183 100.48C10.8453 100.713 10.7152 100.889 10.5765 101.087C10.5528 101.039 10.529 100.992 10.5046 100.942C10.385 100.916 10.265 100.892 10.1448 100.87C10.1003 100.846 10.0558 100.822 10.0099 100.798C9.83986 100.717 9.70648 100.699 9.51975 100.684C9.21664 100.66 9.21664 100.66 9.13752 100.58C8.98327 100.568 8.82867 100.562 8.67407 100.557C8.58016 100.554 8.48626 100.551 8.38951 100.548C8.28959 100.545 8.18968 100.542 8.08977 100.539C7.98957 100.536 7.88938 100.533 7.78918 100.53C7.54313 100.522 7.29707 100.515 7.051 100.507C7.051 100.555 7.051 100.603 7.051 100.652C6.95603 100.652 6.86106 100.652 6.76321 100.652C6.69649 100.881 6.68215 101.085 6.68195 101.323C6.68172 101.399 6.68149 101.475 6.68126 101.553C6.68141 101.635 6.68155 101.716 6.6817 101.8C6.68163 101.885 6.68156 101.969 6.68149 102.055C6.68144 102.233 6.68158 102.411 6.68188 102.589C6.68226 102.861 6.68188 103.134 6.68142 103.406C6.68147 103.579 6.68156 103.752 6.6817 103.925C6.68156 104.006 6.68141 104.088 6.68126 104.172C6.68149 104.248 6.68171 104.324 6.68195 104.402C6.68201 104.469 6.68206 104.535 6.68212 104.604C6.69064 104.771 6.71659 104.913 6.76321 105.073C6.83147 105.083 6.89973 105.094 6.97006 105.104C7.1949 105.145 7.1949 105.145 7.3388 105.218C7.60818 105.237 7.87822 105.234 8.14822 105.236C8.22289 105.237 8.29755 105.239 8.37447 105.24C8.4834 105.241 8.4834 105.241 8.59453 105.241C8.66068 105.242 8.72684 105.243 8.79499 105.243C9.04355 105.222 9.04355 105.222 9.42532 105C9.42532 104.618 9.42532 104.235 9.42532 103.841C9.19827 103.843 9.19827 103.843 8.96664 103.845C8.50797 103.85 8.50797 103.85 8.34608 103.768C8.34401 103.492 8.34272 103.216 8.34159 102.94C8.34098 102.861 8.34038 102.782 8.33976 102.7C8.33953 102.626 8.3393 102.551 8.33906 102.473C8.33868 102.404 8.3383 102.334 8.33792 102.263C8.34608 102.102 8.34608 102.102 8.41803 102.029C8.63602 102.023 8.85237 102.021 9.07035 102.022C9.13573 102.022 9.2011 102.022 9.26846 102.022C9.47813 102.023 9.68781 102.024 9.89748 102.025C10.0393 102.025 10.1811 102.025 10.3229 102.026C10.6712 102.026 11.0196 102.028 11.3679 102.029C11.3679 102.077 11.3679 102.125 11.3679 102.174C11.4154 102.174 11.4629 102.174 11.5118 102.174C11.606 102.537 11.5967 102.9 11.5984 103.272C11.5988 103.343 11.5992 103.414 11.5996 103.488C11.6003 103.637 11.6008 103.787 11.6011 103.937C11.6018 104.166 11.604 104.395 11.6063 104.624C11.6067 104.77 11.6071 104.916 11.6074 105.061C11.6083 105.13 11.6092 105.198 11.6101 105.268C11.6089 105.625 11.6002 105.87 11.3679 106.16C11.2443 106.274 11.2443 106.274 11.1161 106.363C11.0738 106.394 11.0315 106.424 10.988 106.455C10.8643 106.522 10.8643 106.522 10.6485 106.522C10.6485 106.57 10.6485 106.618 10.6485 106.667C10.458 106.773 10.3682 106.812 10.1448 106.812C10.1448 106.86 10.1448 106.907 10.1448 106.957C9.74143 107.128 9.36583 107.124 8.93573 107.123C8.86105 107.124 8.78637 107.124 8.70943 107.124C8.55184 107.125 8.39424 107.125 8.23665 107.125C7.99664 107.124 7.7567 107.126 7.5167 107.128C7.36316 107.128 7.20961 107.128 7.05606 107.128C6.94924 107.129 6.94924 107.129 6.84025 107.13C6.2003 107.126 5.60063 106.954 5.10838 106.522C4.96315 106.315 4.8539 106.099 4.74864 105.87C4.71215 105.804 4.71215 105.804 4.67493 105.737C4.4339 105.196 4.52216 104.459 4.52323 103.877C4.52313 103.751 4.52313 103.751 4.52302 103.623C4.52298 103.447 4.52311 103.271 4.52341 103.095C4.52379 102.827 4.52341 102.559 4.52295 102.292C4.523 102.12 4.52309 101.948 4.52323 101.776C4.52309 101.697 4.52294 101.618 4.52279 101.536C4.52707 100.11 4.52707 100.11 4.78911 99.6968C4.82185 99.6434 4.85459 99.5901 4.88832 99.5351C4.91345 99.4973 4.93859 99.4595 4.96448 99.4205C5.01197 99.4205 5.05945 99.4205 5.10838 99.4205C5.10838 99.3488 5.10838 99.277 5.10838 99.2031C5.41262 98.9133 5.41262 98.9133 5.68397 98.9133C5.68397 98.8654 5.68397 98.8176 5.68397 98.7683C6.80872 98.3536 8.24449 98.5208 9.42532 98.5781Z" fill="#DFDED4"/>
<path d="M50.7831 100.202C50.8629 100.202 50.8629 100.202 50.9444 100.201C51.0567 100.2 51.1691 100.2 51.2814 100.199C51.4505 100.199 51.6196 100.196 51.7887 100.194C53.3875 100.183 53.3875 100.183 54.0003 100.676C54.345 101.07 54.5446 101.593 54.5501 102.112C54.5515 102.226 54.5515 102.226 54.5529 102.343C54.5534 102.426 54.5539 102.508 54.5545 102.593C54.5551 102.678 54.5557 102.763 54.5562 102.85C54.5572 103.031 54.558 103.211 54.5586 103.391C54.5598 103.665 54.563 103.94 54.5662 104.214C54.5669 104.389 54.5675 104.564 54.568 104.74C54.5692 104.821 54.5705 104.903 54.5718 104.987C54.5701 105.596 54.4399 106.016 54.1057 106.521C54.0582 106.521 54.0107 106.521 53.9618 106.521C53.9618 106.569 53.9618 106.617 53.9618 106.666C53.843 106.714 53.7243 106.762 53.602 106.811C53.602 106.859 53.602 106.907 53.602 106.956C53.2471 107.072 52.948 107.119 52.5714 107.12C52.5233 107.12 52.4752 107.12 52.4256 107.121C52.3248 107.121 52.224 107.12 52.1232 107.12C51.9693 107.119 51.8154 107.12 51.6615 107.121C51.5631 107.121 51.4647 107.12 51.3662 107.12C51.2775 107.12 51.1888 107.12 51.0974 107.12C50.8679 107.101 50.8679 107.101 50.5802 106.956C50.5802 107.817 50.5802 108.678 50.5802 109.565C50.2611 109.578 49.9421 109.592 49.6133 109.605C49.5126 109.61 49.4118 109.614 49.308 109.619C49.2293 109.622 49.1506 109.625 49.0695 109.628C48.9885 109.632 48.9075 109.635 48.824 109.639C48.6375 109.637 48.6375 109.637 48.5656 109.565C48.5579 109.456 48.5552 109.348 48.5545 109.239C48.5539 109.169 48.5533 109.099 48.5526 109.026C48.5523 108.948 48.552 108.871 48.5517 108.791C48.5511 108.709 48.5505 108.628 48.5499 108.544C48.5481 108.273 48.5469 108.002 48.5459 107.732C48.5455 107.639 48.5451 107.547 48.5447 107.452C48.5432 107.065 48.5418 106.677 48.541 106.29C48.5399 105.734 48.5375 105.178 48.5334 104.623C48.5303 104.185 48.5291 103.748 48.5286 103.31C48.5282 103.124 48.5271 102.938 48.5253 102.752C48.5231 102.491 48.5231 102.231 48.5236 101.97C48.5224 101.893 48.5212 101.816 48.52 101.737C48.5244 101.213 48.5244 101.213 48.7346 100.936C49.1235 100.652 49.1235 100.652 49.357 100.652C49.3808 100.58 49.4045 100.508 49.429 100.434C49.853 100.215 50.3153 100.205 50.7831 100.202ZM50.5802 102.173C50.5658 102.395 50.56 102.61 50.561 102.832C50.5609 102.898 50.5608 102.963 50.5606 103.031C50.5605 103.169 50.5608 103.307 50.5614 103.446C50.5622 103.658 50.5614 103.87 50.5605 104.083C50.5606 104.217 50.5608 104.351 50.561 104.485C50.5607 104.549 50.5605 104.613 50.5602 104.679C50.5464 105.019 50.5464 105.019 50.724 105.289C51.0105 105.322 51.2993 105.313 51.5874 105.312C51.6679 105.313 51.7484 105.314 51.8314 105.315C51.9082 105.316 51.985 105.316 52.0641 105.316C52.1701 105.316 52.1701 105.316 52.2783 105.316C52.3352 105.307 52.3922 105.298 52.4508 105.289C52.6395 105.004 52.6128 104.763 52.6088 104.432C52.6086 104.37 52.6084 104.308 52.6082 104.243C52.6074 104.044 52.6055 103.845 52.6037 103.645C52.603 103.51 52.6023 103.375 52.6017 103.24C52.6002 102.908 52.5977 102.577 52.5947 102.246C52.4997 102.222 52.4048 102.198 52.3069 102.173C52.3069 102.126 52.3069 102.078 52.3069 102.028C52.0461 102.024 51.7853 102.022 51.5245 102.019C51.413 102.018 51.413 102.018 51.2994 102.016C51.2284 102.015 51.1575 102.015 51.0844 102.014C51.0188 102.014 50.9532 102.013 50.8857 102.012C50.7094 102.013 50.7094 102.013 50.5802 102.173Z" fill="#DFDED4"/>
<path d="M47.9046 86.1364C47.9964 86.1352 48.0883 86.134 48.1829 86.1328C48.7952 86.1325 49.343 86.213 49.9326 86.3764C50.0285 86.4008 50.1244 86.425 50.2204 86.4489C50.2204 86.4967 50.2204 86.5445 50.2204 86.5938C50.2635 86.6042 50.3065 86.6147 50.3508 86.6255C50.4767 86.6581 50.6008 86.6973 50.7241 86.7387C50.7241 86.7865 50.7241 86.8344 50.7241 86.8836C50.7716 86.8836 50.819 86.8836 50.868 86.8836C50.9489 87.1554 50.9489 87.1554 50.868 87.3184C50.8205 87.3184 50.773 87.3184 50.7241 87.3184C50.7166 87.3558 50.7092 87.3931 50.7016 87.4316C50.6347 87.6706 50.536 87.8884 50.4363 88.1155C50.3888 88.1155 50.3413 88.1155 50.2924 88.1155C50.285 88.1619 50.2775 88.2082 50.2699 88.2559C50.2536 88.3052 50.2372 88.3546 50.2204 88.4054C50.0046 88.4778 50.0046 88.4778 49.8671 88.4241C49.816 88.397 49.7649 88.3699 49.7123 88.342C49.3986 88.191 49.1244 88.147 48.7792 88.1283C48.6375 88.1155 48.6375 88.1155 48.5656 88.0431C48.3802 88.0319 48.198 88.0263 48.0125 88.0249C47.9615 88.0234 47.9106 88.0219 47.858 88.0204C47.5151 88.0179 47.2781 88.0663 46.9827 88.2604C46.8667 88.5892 46.9272 88.8129 47.0547 89.13C47.1363 89.1405 47.2179 89.1509 47.302 89.1617C47.5583 89.2025 47.5583 89.2025 47.6303 89.2749C47.7694 89.2886 47.9089 89.2985 48.0485 89.3066C48.9309 89.3717 49.7558 89.4943 50.5082 89.9996C50.5082 90.0474 50.5082 90.0952 50.5082 90.1445C50.5794 90.1445 50.6507 90.1445 50.7241 90.1445C51.2199 90.9508 51.376 91.783 51.1707 92.7252C51.0607 93.0999 50.9481 93.445 50.7241 93.7677C50.6766 93.7677 50.6291 93.7677 50.5802 93.7677C50.5622 93.8123 50.5442 93.857 50.5256 93.903C50.4206 94.0847 50.3455 94.1265 50.1575 94.2115C50.1087 94.2341 50.0599 94.2567 50.0096 94.28C49.9359 94.3134 49.9359 94.3134 49.8607 94.3474C49.8166 94.3722 49.7726 94.3971 49.7272 94.4227C49.5577 94.4992 49.4426 94.5119 49.2578 94.5145C49.1652 94.5163 49.1652 94.5163 49.0706 94.518C49.0042 94.5184 48.9378 94.5188 48.8694 94.5192C48.8002 94.5199 48.7309 94.5205 48.6596 94.5212C48.5128 94.5223 48.366 94.5229 48.2193 94.5232C47.9975 94.524 47.7759 94.5276 47.5542 94.5313C46.7596 94.5378 46.1161 94.5091 45.3998 94.13C45.3168 94.0883 45.3168 94.0883 45.2321 94.0458C45.1925 94.0258 45.1529 94.0057 45.112 93.9851C45.112 93.9373 45.112 93.8894 45.112 93.8402C45.0408 93.8402 44.9696 93.8402 44.8962 93.8402C44.8962 93.7923 44.8962 93.7445 44.8962 93.6952C44.8012 93.6474 44.7062 93.5996 44.6084 93.5503C44.6559 93.4307 44.7034 93.3112 44.7523 93.188C44.7998 93.188 44.8473 93.188 44.8962 93.188C44.8962 93.1162 44.8962 93.0445 44.8962 92.9706C44.9437 92.9706 44.9912 92.9706 45.0401 92.9706C45.046 92.9332 45.052 92.8959 45.0581 92.8574C45.1352 92.605 45.2657 92.4002 45.3998 92.1735C45.6686 92.2096 45.818 92.2369 46.0474 92.3909C46.379 92.5279 46.6789 92.5563 47.033 92.5525C47.0846 92.5525 47.1362 92.5524 47.1893 92.5524C47.2976 92.5522 47.4059 92.5516 47.5142 92.5507C47.68 92.5494 47.8457 92.5492 48.0115 92.5493C48.117 92.5489 48.2226 92.5485 48.3281 92.548C48.4023 92.5479 48.4023 92.5479 48.478 92.5477C48.6949 92.5456 48.8617 92.533 49.0692 92.4633C49.0455 92.1764 49.0218 91.8894 48.9973 91.5938C48.6679 91.4611 48.4706 91.4255 48.1249 91.4081C47.6511 91.3834 47.6511 91.3834 47.4144 91.3039C47.2901 91.293 47.1657 91.2842 47.0412 91.2768C46.4439 91.2246 45.8896 91.0058 45.3998 90.6518C45.3642 90.5441 45.3642 90.5441 45.3279 90.4344C45.2804 90.4344 45.2329 90.4344 45.184 90.4344C44.6873 89.6674 44.6593 88.7648 44.8018 87.8755C44.9207 87.356 45.2122 86.9359 45.6157 86.5938C45.6869 86.5938 45.7581 86.5938 45.8315 86.5938C45.8315 86.546 45.8315 86.4981 45.8315 86.4489C46.4701 86.1027 47.1978 86.1346 47.9046 86.1364Z" fill="#DFDED4"/>
<path d="M19.0775 86.1396C19.2365 86.1404 19.3954 86.1396 19.5544 86.1387C20.2287 86.138 20.8905 86.1559 21.5127 86.4484C21.5127 86.4962 21.5127 86.544 21.5127 86.5933C21.6077 86.5933 21.7027 86.5933 21.8005 86.5933C21.8005 86.6411 21.8005 86.6889 21.8005 86.7382C21.8718 86.7382 21.943 86.7382 22.0164 86.7382C22.0164 86.786 22.0164 86.8339 22.0164 86.8831C22.0876 86.9071 22.1588 86.931 22.2322 86.9556C22.2322 87.0513 22.2322 87.1469 22.2322 87.2455C22.1847 87.2455 22.1372 87.2455 22.0883 87.2455C22.0809 87.2843 22.0735 87.3232 22.0658 87.3632C22.0034 87.5806 21.9044 87.7699 21.8005 87.9701C21.753 87.9701 21.7056 87.9701 21.6566 87.9701C21.6566 88.0657 21.6566 88.1614 21.6566 88.26C21.6091 88.26 21.5617 88.26 21.5127 88.26C21.4771 88.3676 21.4771 88.3676 21.4408 88.4773C21.398 88.4581 21.3553 88.4389 21.3112 88.419C20.6405 88.1312 20.0161 88.031 19.2913 88.0244C19.2391 88.0238 19.1869 88.0231 19.1331 88.0224C18.8409 88.0242 18.6046 88.0439 18.347 88.1875C18.1701 88.4547 18.1807 88.5964 18.2031 88.9121C18.3319 89.1571 18.3319 89.1571 18.6213 89.211C18.9895 89.2841 19.3598 89.3075 19.734 89.3291C19.9299 89.3469 19.9299 89.3469 20.0737 89.4194C20.1757 89.4232 20.2776 89.4261 20.3795 89.4284C20.9079 89.4729 21.3446 89.7457 21.8005 89.9991C21.8005 90.0469 21.8005 90.0947 21.8005 90.144C21.8449 90.1508 21.8892 90.1576 21.9349 90.1647C22.0883 90.2165 22.0883 90.2165 22.1743 90.3249C22.6894 91.4082 22.5467 92.4355 22.2322 93.5498C22.1847 93.5498 22.1372 93.5498 22.0883 93.5498C22.0883 93.5976 22.0883 93.6455 22.0883 93.6947C22.0408 93.6947 21.9933 93.6947 21.9444 93.6947C21.9296 93.7366 21.9147 93.7784 21.8995 93.8215C21.6843 94.1761 21.2518 94.3728 20.8652 94.4918C20.6235 94.5235 20.3842 94.5258 20.1406 94.5258C20.0717 94.5264 20.0028 94.5269 19.9318 94.5275C19.7863 94.5283 19.6408 94.5285 19.4953 94.5281C19.2754 94.5281 19.0558 94.5311 18.836 94.5343C17.6857 94.5415 16.898 94.3523 15.9727 93.6223C16.0141 93.4494 16.0606 93.2841 16.1166 93.115C16.164 93.115 16.2115 93.115 16.2605 93.115C16.2708 93.0717 16.2812 93.0283 16.2919 92.9837C16.3243 92.8569 16.3633 92.7319 16.4044 92.6078C16.4518 92.6078 16.4993 92.6078 16.5482 92.6078C16.5794 92.5226 16.5794 92.5226 16.6112 92.4357C16.6921 92.2455 16.6921 92.2455 16.836 92.1005C16.9508 92.1713 17.0656 92.2421 17.1803 92.3128C17.5783 92.5065 17.9702 92.5572 18.4068 92.5546C18.4585 92.5547 18.5101 92.5548 18.5633 92.555C18.6715 92.5551 18.7797 92.5548 18.8878 92.5542C19.0538 92.5534 19.2197 92.5542 19.3856 92.5551C19.491 92.555 19.5965 92.5548 19.7019 92.5546C19.7763 92.555 19.7763 92.555 19.8523 92.5555C20.1389 92.56 20.1389 92.56 20.3615 92.3904C20.3817 92.2352 20.3817 92.2352 20.375 92.0643C20.3743 91.978 20.3743 91.978 20.3736 91.8899C20.3707 91.734 20.3707 91.734 20.2896 91.5933C20.0006 91.4432 19.7345 91.4236 19.4127 91.4076C18.9367 91.383 18.9367 91.383 18.7787 91.3034C18.6424 91.2922 18.506 91.2835 18.3695 91.2763C17.9974 91.248 17.7419 91.1833 17.4116 91.0136C17.3547 90.9932 17.2977 90.9728 17.2391 90.9519C17.026 90.8571 16.8864 90.7411 16.7146 90.5833C16.6594 90.5333 16.6043 90.4834 16.5474 90.4319C16.1821 90.0668 16.1106 89.6657 16.0974 89.168C16.0971 89.0223 16.0975 88.8766 16.0986 88.731C16.0977 88.6215 16.0977 88.6215 16.0969 88.5099C16.0979 88.1083 16.1272 87.7696 16.2605 87.3904C16.3079 87.3904 16.3554 87.3904 16.4044 87.3904C16.4044 87.2947 16.4044 87.1991 16.4044 87.1005C16.4518 87.1005 16.4993 87.1005 16.5482 87.1005C16.5482 87.0288 16.5482 86.9571 16.5482 86.8831C16.5957 86.8831 16.6432 86.8831 16.6921 86.8831C16.6921 86.8353 16.6921 86.7875 16.6921 86.7382C16.7634 86.7382 16.8346 86.7382 16.908 86.7382C16.908 86.6904 16.908 86.6426 16.908 86.5933C16.9911 86.5484 17.0742 86.5036 17.1598 86.4574C17.2066 86.4322 17.2533 86.407 17.3015 86.381C17.8849 86.1325 18.4552 86.136 19.0775 86.1396Z" fill="#DFDED4"/>
<path d="M38.7314 86.2724C38.7848 86.2724 38.8381 86.2723 38.8931 86.2723C39.0695 86.2725 39.2458 86.2747 39.4222 86.277C39.5444 86.2775 39.6667 86.278 39.789 86.2782C40.1109 86.2794 40.4327 86.2822 40.7546 86.2854C41.083 86.2884 41.4114 86.2897 41.7398 86.2912C42.3843 86.2943 43.0286 86.2994 43.6731 86.3053C43.6731 86.8792 43.6731 87.4531 43.6731 88.0444C43.5006 88.1313 43.3884 88.1282 43.1958 88.1318C43.0921 88.134 43.0921 88.134 42.9863 88.1362C42.8741 88.138 42.8741 88.138 42.7596 88.1398C42.6832 88.1413 42.6067 88.1428 42.528 88.1444C42.2831 88.1491 42.0382 88.1534 41.7934 88.1577C41.6277 88.1608 41.4619 88.164 41.2962 88.1671C40.8893 88.1749 40.4825 88.1823 40.0756 88.1894C40.0756 88.5481 40.0756 88.9068 40.0756 89.2763C40.1599 89.2774 40.2441 89.2784 40.3309 89.2795C40.6428 89.2837 40.9547 89.2893 41.2666 89.2953C41.4017 89.2978 41.5368 89.2998 41.6719 89.3014C41.8659 89.3039 42.0598 89.3076 42.2537 89.3117C42.3144 89.3122 42.375 89.3126 42.4375 89.3131C42.6077 89.3175 42.6077 89.3175 42.8816 89.3488C43.0392 89.5868 43.0433 89.6576 43.0421 89.9336C43.042 90.0045 43.0418 90.0754 43.0417 90.1484C43.0408 90.2223 43.0399 90.2962 43.039 90.3723C43.0389 90.484 43.0389 90.484 43.0389 90.5979C43.0356 91.1502 43.0356 91.1502 42.9536 91.2328C42.7409 91.2445 42.5298 91.2517 42.317 91.2558C42.2532 91.2573 42.1894 91.2588 42.1237 91.2603C41.9192 91.2651 41.7146 91.2694 41.5101 91.2736C41.3718 91.2767 41.2334 91.2799 41.0951 91.2831C40.7553 91.2909 40.4154 91.2982 40.0756 91.3053C40.0756 91.7118 40.0756 92.1184 40.0756 92.5372C41.2865 92.5611 42.4974 92.585 43.745 92.6097C43.8803 92.8822 43.8334 93.211 43.8349 93.5109C43.8364 93.581 43.8379 93.6511 43.8394 93.7234C43.84 93.8243 43.84 93.8243 43.8406 93.9273C43.8412 93.989 43.8419 94.0507 43.8426 94.1143C43.8169 94.2763 43.8169 94.2763 43.7391 94.3936C43.5287 94.5462 43.3512 94.5197 43.0945 94.5184C43.0432 94.5184 42.9919 94.5185 42.9391 94.5185C42.7698 94.5183 42.6004 94.5167 42.4311 94.5149C42.3136 94.5145 42.1962 94.5142 42.0787 94.514C41.7697 94.5132 41.4606 94.511 41.1515 94.5086C40.8361 94.5064 40.5207 94.5054 40.2053 94.5043C39.5865 94.502 38.9677 94.4983 38.3488 94.4937C38.3488 94.4459 38.3488 94.3981 38.3488 94.3488C38.3028 94.3323 38.2568 94.3159 38.2094 94.299C38.061 94.2039 38.061 94.2039 38.0165 94.0606C37.978 93.7532 37.9779 93.4494 37.9775 93.1398C37.9771 93.0696 37.9768 92.9993 37.9764 92.9269C37.9754 92.695 37.9749 92.4631 37.9745 92.2312C37.9741 92.07 37.9736 91.9087 37.9732 91.7474C37.9725 91.4097 37.972 91.0719 37.9718 90.7341C37.9714 90.301 37.9697 89.8678 37.9676 89.4346C37.9663 89.1017 37.9659 88.7689 37.9658 88.436C37.9656 88.2762 37.965 88.1165 37.9641 87.9567C37.9628 87.7337 37.963 87.5106 37.9634 87.2875C37.9628 87.2214 37.9621 87.1552 37.9614 87.0871C37.9631 86.836 37.9697 86.6423 38.0657 86.409C38.2756 86.2527 38.4807 86.2672 38.7314 86.2724Z" fill="#DFDED4"/>
<path d="M44.4555 100.205C44.5429 100.204 44.6304 100.203 44.7205 100.202C45.4845 100.201 46.0958 100.278 46.7668 100.653C46.7668 100.701 46.7668 100.749 46.7668 100.798C46.8143 100.798 46.8618 100.798 46.9107 100.798C46.9107 100.846 46.9107 100.894 46.9107 100.943C46.9582 100.943 47.0057 100.943 47.0546 100.943C47.3623 101.602 47.4725 102.169 47.4613 102.896C47.4593 103.046 47.4613 103.196 47.4635 103.347C47.4633 103.444 47.4628 103.541 47.4621 103.638C47.4617 103.724 47.4613 103.81 47.4609 103.899C47.3975 104.216 47.3219 104.313 47.0546 104.494C46.7858 104.547 46.5216 104.546 46.2483 104.545C46.1705 104.546 46.0928 104.547 46.0127 104.548C45.7649 104.551 45.5172 104.552 45.2694 104.552C45.1012 104.554 44.933 104.556 44.7648 104.558C44.3529 104.563 43.941 104.565 43.5291 104.566C43.5373 104.685 43.5465 104.805 43.5561 104.924C43.5611 104.99 43.5661 105.057 43.5713 105.125C43.5811 105.18 43.5909 105.234 43.6011 105.291C43.8902 105.436 44.2591 105.377 44.5769 105.377C44.6532 105.378 44.7294 105.379 44.808 105.379C45.2535 105.38 45.6958 105.373 46.1193 105.218C46.1668 105.17 46.2143 105.123 46.2632 105.073C46.3344 105.073 46.4056 105.073 46.479 105.073C46.479 105.026 46.479 104.978 46.479 104.928C46.6215 105 46.6215 105 46.7668 105.073C46.7668 105.145 46.7668 105.217 46.7668 105.291C46.8143 105.291 46.8618 105.291 46.9107 105.291C47.0375 105.471 47.0375 105.471 47.176 105.707C47.2223 105.785 47.2686 105.862 47.3163 105.942C47.4144 106.16 47.4144 106.16 47.4087 106.322C47.2076 106.71 46.6246 106.89 46.2409 107.042C45.9338 107.138 45.6426 107.144 45.3231 107.141C45.2239 107.141 45.2239 107.141 45.1227 107.142C44.9841 107.142 44.8454 107.141 44.7068 107.14C44.4962 107.139 44.2857 107.14 44.0751 107.142C43.9394 107.142 43.8038 107.141 43.6682 107.141C43.5751 107.142 43.5751 107.142 43.4801 107.143C42.946 107.134 42.5143 106.99 42.1036 106.64C41.5913 106.021 41.4918 105.53 41.4878 104.744C41.4869 104.623 41.4869 104.623 41.4859 104.499C41.4848 104.328 41.4842 104.157 41.4839 103.986C41.4831 103.726 41.4795 103.467 41.4759 103.207C41.4752 103.04 41.4747 102.873 41.4744 102.706C41.4729 102.63 41.4715 102.553 41.4701 102.474C41.4735 101.899 41.6237 101.458 41.8743 100.943C41.9218 100.943 41.9693 100.943 42.0182 100.943C42.0182 100.895 42.0182 100.847 42.0182 100.798C42.0657 100.798 42.1132 100.798 42.1621 100.798C42.1621 100.75 42.1621 100.702 42.1621 100.653C42.2694 100.593 42.3775 100.534 42.4859 100.476C42.576 100.427 42.576 100.427 42.668 100.377C43.2276 100.151 43.8624 100.205 44.4555 100.205ZM43.6011 101.957C43.3133 102.283 43.3133 102.283 43.3852 102.972C44.0975 102.972 44.8098 102.972 45.5437 102.972C45.6186 102.246 45.6186 102.246 45.4133 101.985C45.1135 101.795 44.8567 101.801 44.5094 101.799C44.4154 101.798 44.3213 101.797 44.2244 101.796C43.9739 101.812 43.8184 101.835 43.6011 101.957Z" fill="#DFDED4"/>
<path d="M25.9691 100.204C26.0493 100.203 26.1296 100.202 26.2123 100.201C26.7024 100.2 27.1528 100.243 27.6284 100.362C27.6794 100.373 27.7304 100.384 27.783 100.395C27.977 100.453 28.0693 100.576 28.204 100.725C28.2396 100.758 28.2752 100.79 28.3119 100.824C28.7 101.248 28.8693 101.685 28.8701 102.257C28.8706 102.343 28.8711 102.429 28.8715 102.518C28.8712 102.61 28.8709 102.703 28.8706 102.798C28.8708 102.893 28.8709 102.988 28.8711 103.087C28.8713 103.288 28.871 103.489 28.8703 103.69C28.8695 103.948 28.8699 104.206 28.8708 104.464C28.8714 104.71 28.871 104.956 28.8706 105.202C28.8709 105.295 28.8712 105.388 28.8715 105.483C28.8708 105.612 28.8708 105.612 28.8701 105.743C28.87 105.818 28.8699 105.893 28.8698 105.971C28.8515 106.159 28.8515 106.159 28.7076 106.377C28.6601 106.377 28.6127 106.377 28.5637 106.377C28.5637 106.425 28.5637 106.473 28.5637 106.522C28.5162 106.522 28.4688 106.522 28.4198 106.522C28.4198 106.57 28.4198 106.617 28.4198 106.667C28.2294 106.773 28.1396 106.812 27.9162 106.812C27.9162 106.859 27.9162 106.907 27.9162 106.957C27.5665 107.141 27.2284 107.122 26.844 107.121C26.7409 107.121 26.7409 107.121 26.6357 107.121C26.4906 107.121 26.3455 107.121 26.2005 107.12C25.9791 107.12 25.7578 107.12 25.5364 107.121C25.3952 107.121 25.2539 107.121 25.1127 107.121C25.0139 107.121 25.0139 107.121 24.913 107.122C24.5662 107.119 24.2847 107.093 23.959 106.957C23.959 106.909 23.959 106.861 23.959 106.812C23.9189 106.806 23.8789 106.8 23.8376 106.794C23.5296 106.693 23.3441 106.499 23.1676 106.232C23.1676 106.16 23.1676 106.088 23.1676 106.015C23.1201 106.015 23.0726 106.015 23.0237 106.015C22.9975 105.775 22.9723 105.535 22.9472 105.294C22.9397 105.226 22.9323 105.157 22.9246 105.087C22.9179 105.022 22.9111 104.957 22.9042 104.889C22.8978 104.829 22.8914 104.769 22.8848 104.707C22.8831 104.66 22.8815 104.613 22.8798 104.565C22.9154 104.529 22.9154 104.529 22.9517 104.493C22.9621 104.414 22.9725 104.334 22.9832 104.253C23.0175 104.026 23.0528 103.888 23.1676 103.696C23.215 103.696 23.2625 103.696 23.3115 103.696C23.3278 103.654 23.3441 103.612 23.3609 103.569C23.5539 103.236 23.8858 103.04 24.2445 102.926C24.6828 102.823 25.102 102.804 25.5509 102.808C25.6192 102.807 25.6876 102.807 25.758 102.806C26.1459 102.807 26.4703 102.842 26.837 102.971C26.8013 102.541 26.8013 102.541 26.765 102.102C26.4771 102.047 26.2061 102.02 25.9134 102.022C25.7986 102.022 25.7986 102.022 25.6816 102.023C25.5634 102.024 25.5634 102.024 25.4429 102.025C25.3625 102.025 25.2821 102.025 25.1993 102.026C25.0017 102.026 24.8041 102.028 24.6065 102.029C24.6065 102.077 24.6065 102.125 24.6065 102.174C24.4878 102.174 24.3691 102.174 24.2468 102.174C24.2468 102.222 24.2468 102.27 24.2468 102.319C24.1254 102.378 24.1254 102.378 23.959 102.391C23.6862 102.165 23.49 101.901 23.3115 101.594C23.3115 101.523 23.3115 101.451 23.3115 101.377C23.264 101.377 23.2165 101.377 23.1676 101.377C23.1676 101.233 23.1676 101.09 23.1676 100.942C23.215 100.942 23.2625 100.942 23.3115 100.942C23.3115 100.894 23.3115 100.846 23.3115 100.797C24.2251 100.329 24.9494 100.204 25.9691 100.204ZM24.8943 104.638C24.8892 104.748 24.8883 104.858 24.8898 104.968C24.8905 105.028 24.8911 105.088 24.8918 105.15C24.8926 105.196 24.8935 105.242 24.8943 105.29C24.9418 105.29 24.9893 105.29 25.0382 105.29C25.0382 105.338 25.0382 105.386 25.0382 105.435C25.311 105.437 25.5838 105.438 25.8567 105.439C25.9732 105.44 25.9732 105.44 26.0922 105.441C26.1664 105.441 26.2406 105.442 26.317 105.442C26.4199 105.442 26.4199 105.442 26.5248 105.443C26.6947 105.446 26.6947 105.446 26.837 105.362C26.837 105.075 26.837 104.788 26.837 104.493C26.5857 104.366 26.2998 104.407 26.023 104.407C25.9307 104.405 25.9307 104.405 25.8366 104.404C25.326 104.393 25.326 104.393 24.8943 104.638Z" fill="#DFDED4"/>
<path d="M65.0713 100.208C65.2214 100.208 65.3715 100.208 65.5216 100.207C66.7893 100.207 66.7893 100.207 67.2723 100.435C67.2723 100.483 67.2723 100.53 67.2723 100.58C67.3257 100.598 67.3791 100.616 67.4342 100.634C67.65 100.733 67.7702 100.83 67.9198 101.014C67.9198 101.086 67.9198 101.158 67.9198 101.232C67.9673 101.232 68.0148 101.232 68.0637 101.232C68.257 101.669 68.2283 102.112 68.2267 102.581C68.2269 102.67 68.227 102.758 68.2271 102.849C68.2272 103.036 68.227 103.223 68.2264 103.409C68.2256 103.695 68.2264 103.98 68.2273 104.265C68.2272 104.447 68.227 104.628 68.2267 104.81C68.227 104.895 68.2273 104.98 68.2276 105.068C68.2235 105.798 68.2235 105.798 68.0637 106.159C68.0162 106.159 67.9687 106.159 67.9198 106.159C67.9124 106.206 67.905 106.252 67.8973 106.3C67.881 106.349 67.8647 106.398 67.8479 106.449C67.741 106.485 67.741 106.485 67.632 106.522C67.5964 106.629 67.5964 106.629 67.5601 106.739C67.4117 106.789 67.4117 106.789 67.2723 106.812C67.2723 106.859 67.2723 106.907 67.2723 106.956C66.8602 107.098 66.4939 107.123 66.0604 107.121C65.9936 107.121 65.9269 107.121 65.8581 107.121C65.7175 107.121 65.577 107.121 65.4365 107.12C65.2224 107.119 65.0083 107.12 64.7943 107.121C64.6572 107.121 64.5201 107.121 64.3831 107.121C64.3196 107.121 64.2561 107.121 64.1907 107.122C63.8233 107.119 63.5193 107.076 63.1712 106.956C63.1712 106.909 63.1712 106.861 63.1712 106.812C63.1 106.812 63.0287 106.812 62.9553 106.812C62.9553 106.764 62.9553 106.716 62.9553 106.667C62.9108 106.646 62.8663 106.625 62.8204 106.603C62.6675 106.522 62.6675 106.522 62.5236 106.377C62.5236 106.305 62.5236 106.233 62.5236 106.159C62.4762 106.159 62.4287 106.159 62.3797 106.159C62.2686 105.861 62.2181 105.615 62.2195 105.296C62.2195 105.213 62.2195 105.131 62.2195 105.046C62.2203 104.957 62.221 104.869 62.2218 104.779C62.222 104.688 62.2222 104.596 62.2224 104.503C62.2231 104.262 62.2244 104.021 62.226 103.78C62.2274 103.534 62.2281 103.287 62.2288 103.041C62.2304 102.559 62.2328 102.076 62.2358 101.594C62.2833 101.594 62.3308 101.594 62.3797 101.594C62.3797 101.475 62.3797 101.355 62.3797 101.232C62.4272 101.232 62.4747 101.232 62.5236 101.232C62.5236 101.136 62.5236 101.041 62.5236 100.942C62.5711 100.942 62.6186 100.942 62.6675 100.942C62.6675 100.894 62.6675 100.846 62.6675 100.797C62.7833 100.709 62.7833 100.709 62.9373 100.616C62.9874 100.585 63.0375 100.555 63.0891 100.523C63.1654 100.479 63.1654 100.479 63.2431 100.435C63.2851 100.409 63.327 100.382 63.3702 100.355C63.8951 100.141 64.5147 100.206 65.0713 100.208ZM64.1785 102.319C64.1516 102.536 64.1414 102.725 64.1453 102.942C64.1454 103.002 64.1454 103.062 64.1455 103.124C64.1459 103.251 64.1471 103.378 64.1489 103.505C64.1515 103.7 64.1518 103.894 64.1518 104.089C64.1525 104.212 64.1533 104.336 64.1543 104.459C64.1545 104.517 64.1546 104.575 64.1548 104.635C64.1595 104.914 64.1652 105.052 64.3224 105.29C64.5107 105.32 64.5107 105.32 64.7299 105.311C64.8509 105.31 64.8509 105.31 64.9744 105.309C65.059 105.307 65.1436 105.305 65.2307 105.303C65.3159 105.302 65.401 105.301 65.4887 105.3C65.6995 105.298 65.9103 105.294 66.1211 105.29C66.2713 104.981 66.285 104.701 66.2816 104.363C66.2815 104.31 66.2815 104.256 66.2815 104.201C66.2813 104.089 66.2807 103.976 66.2798 103.863C66.2785 103.691 66.2783 103.519 66.2783 103.347C66.278 103.238 66.2776 103.128 66.2771 103.018C66.277 102.967 66.2769 102.916 66.2768 102.863C66.279 102.511 66.279 102.511 66.193 102.174C65.8795 101.963 65.5951 102.002 65.2262 102.002C65.1575 102 65.0889 101.998 65.0181 101.996C64.9518 101.996 64.8856 101.996 64.8173 101.996C64.7569 101.995 64.6965 101.994 64.6342 101.994C64.3941 102.044 64.3176 102.115 64.1785 102.319Z" fill="#DFDED4"/>
<path d="M5.68396 86.3047C7.41721 86.3047 9.15046 86.3047 10.9362 86.3047C11.1149 87.0244 11.0294 87.8724 10.6527 88.5109C10.615 88.5666 10.615 88.5666 10.5765 88.6235C10.529 88.6235 10.4815 88.6235 10.4326 88.6235C10.4118 88.6788 10.391 88.7341 10.3696 88.7911C10.2887 88.9858 10.2887 88.9858 10.1448 89.2032C10.0973 89.2032 10.0498 89.2032 10.0009 89.2032C9.92967 89.4185 9.92967 89.4185 9.857 89.638C9.9312 89.6574 10.0054 89.6769 10.0818 89.6969C10.3354 89.7692 10.5599 89.8747 10.7923 90.0003C10.7923 90.0482 10.7923 90.096 10.7923 90.1453C10.8398 90.1453 10.8873 90.1453 10.9362 90.1453C10.9362 90.1931 10.9362 90.2409 10.9362 90.2902C10.9837 90.2902 11.0312 90.2902 11.0801 90.2902C11.3915 90.8808 11.3905 91.5003 11.3859 92.1561C11.3868 92.2768 11.3868 92.2768 11.3876 92.3999C11.3874 92.4775 11.3872 92.5551 11.387 92.6351C11.3869 92.7049 11.3867 92.7748 11.3865 92.8467C11.3667 93.0569 11.3109 93.215 11.224 93.4061C11.1765 93.4061 11.1291 93.4061 11.0801 93.4061C11.0801 93.454 11.0801 93.5018 11.0801 93.5511C11.0326 93.5511 10.9852 93.5511 10.9362 93.5511C10.9362 93.5989 10.9362 93.6467 10.9362 93.696C10.865 93.696 10.7938 93.696 10.7204 93.696C10.7204 93.7438 10.7204 93.7916 10.7204 93.8409C10.6729 93.8409 10.6254 93.8409 10.5765 93.8409C10.5765 93.8887 10.5765 93.9366 10.5765 93.9858C10.4531 94.0742 10.4531 94.0742 10.2932 94.167C10.0689 94.2891 10.0689 94.2891 9.92895 94.4931C9.48498 94.5021 9.04107 94.5087 8.59703 94.513C8.44638 94.5148 8.29573 94.5173 8.1451 94.5204C7.17822 94.5402 6.37239 94.5447 5.54006 93.9858C5.54006 93.938 5.54006 93.8902 5.54006 93.8409C5.48219 93.8245 5.42431 93.808 5.36468 93.7911C5.18031 93.696 5.18031 93.696 5.11286 93.5239C5.10796 93.3166 5.1438 93.2173 5.25226 93.0438C5.29975 93.0438 5.34724 93.0438 5.39616 93.0438C5.39616 92.9721 5.39616 92.9003 5.39616 92.8264C5.44365 92.8264 5.49113 92.8264 5.54006 92.8264C5.54006 92.7547 5.54006 92.6829 5.54006 92.609C5.58755 92.609 5.63503 92.609 5.68396 92.609C5.68396 92.5134 5.68396 92.4177 5.68396 92.3192C5.73144 92.3192 5.77893 92.3192 5.82786 92.3192C5.8516 92.2474 5.87534 92.1757 5.8998 92.1018C6.14261 92.1414 6.26547 92.1782 6.4754 92.3192C6.4754 92.367 6.4754 92.4148 6.4754 92.4641C7.03099 92.5865 7.57683 92.6237 8.14371 92.6272C8.20674 92.6286 8.26976 92.6301 8.33469 92.6317C8.68739 92.6338 8.92184 92.6215 9.20946 92.3916C9.34829 92.2518 9.30028 92.0114 9.30389 91.8255C9.30658 91.7354 9.30927 91.6452 9.31204 91.5524C9.29788 91.3074 9.29788 91.3074 9.18163 91.13C8.88944 90.951 8.60091 90.9715 8.26513 90.9695C8.13452 90.9677 8.00392 90.9653 7.87334 90.9622C7.81564 90.9618 7.75794 90.9613 7.69849 90.9609C7.55463 90.9424 7.55463 90.9424 7.41073 90.7974C7.39668 90.5772 7.39668 90.5772 7.40174 90.3174C7.40304 90.2312 7.40434 90.1451 7.40567 90.0564C7.40734 89.9901 7.40901 89.9237 7.41073 89.8554C7.45822 89.8554 7.50571 89.8554 7.55463 89.8554C7.60212 89.7358 7.6496 89.6163 7.69853 89.4931C7.74602 89.4931 7.7935 89.4931 7.84243 89.4931C7.85866 89.4424 7.87489 89.3916 7.89161 89.3394C8.02673 89.0418 8.23702 88.8199 8.45076 88.5781C8.63326 88.3662 8.7084 88.2508 8.77776 87.9714C7.75681 87.9714 6.73585 87.9714 5.68396 87.9714C5.68396 87.4214 5.68396 86.8714 5.68396 86.3047Z" fill="#DFDED4"/>
<path d="M12.9803 100.282C13.0927 100.283 13.0927 100.283 13.2075 100.284C13.2884 100.284 13.3693 100.284 13.4527 100.284C13.5379 100.285 13.6231 100.285 13.7108 100.286C13.7963 100.286 13.8818 100.287 13.9698 100.287C14.1818 100.288 14.3937 100.289 14.6057 100.291C14.7028 100.486 14.6888 100.641 14.6913 100.86C14.6925 100.949 14.6937 101.038 14.6949 101.13C14.6954 101.177 14.6959 101.225 14.6964 101.274C14.6979 101.423 14.6998 101.573 14.7019 101.722C14.7062 102.039 14.7099 102.356 14.7136 102.673C14.7179 103.04 14.7224 103.407 14.7274 103.773C14.7293 103.92 14.7308 104.067 14.7323 104.214C14.7335 104.304 14.7347 104.393 14.736 104.485C14.7369 104.564 14.7378 104.643 14.7387 104.724C14.744 104.945 14.744 104.945 14.8215 105.218C15.3914 105.218 15.9612 105.218 16.5483 105.218C16.5497 105.074 16.5512 104.93 16.5526 104.781C16.5575 104.306 16.563 103.83 16.569 103.355C16.5726 103.067 16.5759 102.778 16.5787 102.49C16.5813 102.212 16.5847 101.934 16.5885 101.655C16.5898 101.549 16.5909 101.443 16.5917 101.337C16.5929 101.188 16.595 101.04 16.5973 100.891C16.5983 100.806 16.5992 100.722 16.6002 100.635C16.6203 100.436 16.6203 100.436 16.7642 100.291C16.9456 100.274 16.9456 100.274 17.1717 100.276C17.2524 100.277 17.3331 100.277 17.4162 100.278C17.5008 100.279 17.5854 100.28 17.6725 100.282C17.7577 100.282 17.8428 100.283 17.9305 100.284C18.1413 100.285 18.3521 100.288 18.5629 100.291C18.7269 100.554 18.7254 100.776 18.7266 101.083C18.7269 101.133 18.7273 101.183 18.7277 101.235C18.7287 101.4 18.7286 101.565 18.7284 101.73C18.7287 101.845 18.729 101.96 18.7294 102.075C18.7299 102.317 18.7299 102.558 18.7295 102.8C18.7291 103.108 18.7303 103.416 18.732 103.724C18.733 103.962 18.7331 104.2 18.7329 104.438C18.7329 104.552 18.7333 104.666 18.734 104.779C18.7413 106.07 18.7413 106.07 18.3554 106.544C17.6028 107.153 16.892 107.167 15.9616 107.151C15.7478 107.148 15.5342 107.148 15.3204 107.149C15.1824 107.148 15.0444 107.147 14.9064 107.146C14.8436 107.146 14.7808 107.146 14.716 107.146C14.2479 107.136 13.8774 107.011 13.4545 106.812C13.4545 106.765 13.4545 106.717 13.4545 106.667C13.3833 106.644 13.3121 106.62 13.2387 106.595C13.2387 106.547 13.2387 106.499 13.2387 106.45C13.1674 106.426 13.0962 106.402 13.0228 106.378C12.8821 106.161 12.8789 106.069 12.8789 105.798C12.8314 105.798 12.784 105.798 12.735 105.798C12.7334 105.091 12.7321 104.383 12.7313 103.676C12.7309 103.347 12.7304 103.019 12.7296 102.691C12.7288 102.374 12.7284 102.057 12.7282 101.741C12.7281 101.619 12.7278 101.498 12.7274 101.377C12.7269 101.208 12.7268 101.039 12.7269 100.87C12.7266 100.82 12.7263 100.769 12.7261 100.717C12.727 100.294 12.727 100.294 12.9803 100.282Z" fill="#DFDED4"/>
<path d="M58.4541 100.209C58.5605 100.208 58.5605 100.208 58.669 100.208C59.8585 100.21 59.8585 100.21 60.2303 100.426C60.4137 100.528 60.5937 100.619 60.7879 100.698C61.0128 100.798 61.0128 100.798 61.1567 100.942C61.1567 101.014 61.1567 101.086 61.1567 101.16C61.1092 101.16 61.0617 101.16 61.0128 101.16C61.0128 101.232 61.0128 101.303 61.0128 101.377C60.9653 101.377 60.9178 101.377 60.8689 101.377C60.8612 101.418 60.8535 101.459 60.8456 101.501C60.7886 101.696 60.704 101.841 60.5946 102.011C60.5585 102.069 60.5224 102.127 60.4852 102.187C60.4456 102.231 60.406 102.274 60.3652 102.319C60.2703 102.319 60.1753 102.319 60.0774 102.319C60.0774 102.271 60.0774 102.224 60.0774 102.174C59.9587 102.174 59.84 102.174 59.7177 102.174C59.7177 102.127 59.7177 102.079 59.7177 102.029C59.0291 102.029 58.3406 102.029 57.6312 102.029C57.6312 102.221 57.6312 102.412 57.6312 102.609C57.7302 102.622 57.7302 102.622 57.8313 102.636C58.641 102.747 58.641 102.747 58.9487 102.831C59.2039 102.896 59.4433 102.926 59.7042 102.951C59.9341 102.981 60.1446 103.045 60.3652 103.116C60.3652 103.164 60.3652 103.212 60.3652 103.261C60.4112 103.269 60.4572 103.276 60.5046 103.284C60.5536 103.3 60.6026 103.317 60.653 103.334C60.6768 103.406 60.7005 103.477 60.725 103.551C60.7725 103.551 60.82 103.551 60.8689 103.551C61.1891 104.002 61.2006 104.379 61.1927 104.923C61.1943 105.037 61.1943 105.037 61.196 105.153C61.1936 105.642 61.121 105.959 60.8689 106.377C60.8214 106.377 60.7739 106.377 60.725 106.377C60.725 106.425 60.725 106.473 60.725 106.522C60.6775 106.522 60.63 106.522 60.5811 106.522C60.5811 106.57 60.5811 106.618 60.5811 106.667C60.4624 106.715 60.3437 106.763 60.2213 106.812C60.2213 106.86 60.2213 106.908 60.2213 106.957C59.847 107.11 59.5195 107.124 59.1224 107.124C59.0589 107.124 58.9954 107.124 58.93 107.125C58.7961 107.125 58.6622 107.125 58.5284 107.125C58.3248 107.125 58.1214 107.126 57.9178 107.128C57.7873 107.128 57.6567 107.128 57.5261 107.128C57.4659 107.129 57.4057 107.13 57.3436 107.13C56.9363 107.127 56.6385 107.047 56.2641 106.885C56.204 106.862 56.1439 106.839 56.082 106.816C55.9509 106.766 55.8197 106.717 55.6886 106.667C55.6886 106.619 55.6886 106.571 55.6886 106.522C55.6173 106.522 55.5461 106.522 55.4727 106.522C55.4221 106.404 55.4221 106.404 55.4008 106.232C55.4963 106.027 55.4963 106.027 55.6346 105.802C55.6795 105.728 55.7244 105.654 55.7706 105.578C55.8148 105.507 55.8589 105.436 55.9044 105.363C55.9411 105.295 55.9779 105.228 56.0157 105.159C56.1202 105 56.1202 105 56.3361 104.928C56.436 104.999 56.5359 105.07 56.6356 105.142C57.138 105.431 57.8014 105.381 58.3597 105.372C58.4353 105.371 58.511 105.371 58.589 105.37C58.7734 105.368 58.9577 105.366 59.1421 105.363C59.1421 105.315 59.1421 105.267 59.1421 105.218C59.1896 105.218 59.2371 105.218 59.286 105.218C59.2666 105.041 59.2666 105.041 59.2141 104.856C58.7685 104.556 58.1679 104.564 57.6447 104.534C57.276 104.51 57.0229 104.444 56.6958 104.276C56.6007 104.249 56.505 104.223 56.408 104.203C56.408 104.156 56.408 104.108 56.408 104.058C56.3645 104.051 56.3209 104.044 56.2759 104.036C56.0905 103.976 56.0412 103.919 55.9314 103.76C55.9023 103.719 55.8731 103.678 55.8431 103.637C55.5354 103.048 55.5183 102.309 55.6661 101.671C55.8067 101.285 56.0142 100.914 56.3361 100.653C56.4073 100.653 56.4786 100.653 56.5519 100.653C56.5757 100.581 56.5994 100.509 56.6239 100.435C57.1983 100.181 57.8391 100.206 58.4541 100.209Z" fill="#DFDED4"/>
<path d="M31.5137 86.3047C32.2023 86.3047 32.8908 86.3047 33.6002 86.3047C33.6002 88.3851 33.6002 90.4656 33.6002 92.609C34.7336 92.6062 34.7336 92.6062 35.8669 92.6025C36.0084 92.6023 36.1498 92.6021 36.2913 92.602C36.4026 92.6014 36.4026 92.6014 36.5161 92.6008C36.5862 92.6008 36.6564 92.6008 36.7286 92.6008C36.7898 92.6006 36.851 92.6005 36.914 92.6003C37.0538 92.609 37.0538 92.609 37.1257 92.6815C37.1458 92.9436 37.1424 93.2067 37.1437 93.4695C37.1452 93.5434 37.1467 93.6173 37.1482 93.6934C37.1488 93.7998 37.1488 93.7998 37.1493 93.9083C37.15 93.9735 37.1507 94.0387 37.1514 94.1058C37.1257 94.2757 37.1257 94.2757 37.0463 94.3933C36.8427 94.5422 36.6773 94.5207 36.4276 94.5212C36.3789 94.5216 36.3302 94.522 36.2801 94.5224C36.1191 94.5233 35.9582 94.5227 35.7972 94.522C35.6853 94.5221 35.5734 94.5223 35.4614 94.5226C35.2268 94.5229 34.9922 94.5225 34.7576 94.5214C34.457 94.5202 34.1565 94.5209 33.8559 94.5222C33.6248 94.523 33.3936 94.5227 33.1624 94.5222C33.0516 94.522 32.9408 94.5222 32.83 94.5227C32.675 94.5233 32.52 94.5224 32.365 94.5212C32.2768 94.5211 32.1887 94.5209 32.0978 94.5207C31.8493 94.4901 31.7541 94.4606 31.5857 94.2757C31.4017 93.8954 31.4249 93.5128 31.432 93.0998C31.4327 93.0262 31.4334 92.9526 31.4341 92.8768C31.4365 92.6345 31.44 92.3922 31.4434 92.1499C31.4453 91.9816 31.4471 91.8132 31.4489 91.6449C31.4537 91.2024 31.4594 90.76 31.4652 90.3176C31.4711 89.8658 31.476 89.4141 31.4811 88.9624C31.4911 88.0765 31.5022 87.1906 31.5137 86.3047Z" fill="#DFDED4"/>
<path d="M70.3617 97.7397C70.4425 97.7388 70.5233 97.7379 70.6066 97.737C70.7223 97.7368 70.7223 97.7368 70.8403 97.7365C70.947 97.7361 70.947 97.7361 71.0558 97.7356C71.2295 97.7532 71.2295 97.7532 71.3734 97.8982C71.3884 98.1189 71.3943 98.3332 71.3941 98.5541C71.3946 98.6221 71.3951 98.6901 71.3956 98.7602C71.3966 98.9082 71.3972 99.0562 71.3976 99.2042C71.3982 99.4384 71.3997 99.6725 71.4014 99.9067C71.4048 100.404 71.4072 100.902 71.4094 101.399C71.412 101.975 71.415 102.55 71.4192 103.126C71.4206 103.357 71.4212 103.587 71.4218 103.818C71.4227 103.96 71.4237 104.101 71.4247 104.243C71.4247 104.307 71.4246 104.371 71.4245 104.438C71.4276 104.749 71.4319 105.011 71.5893 105.289C71.7491 105.362 71.7491 105.362 71.9355 105.38C71.9968 105.389 72.0582 105.399 72.1213 105.408C72.2141 105.421 72.2141 105.421 72.3088 105.434C72.6578 105.496 72.6578 105.496 72.7405 105.579C72.7476 105.686 72.7499 105.794 72.75 105.901C72.7502 105.998 72.7502 105.998 72.7503 106.097C72.75 106.166 72.7498 106.234 72.7495 106.304C72.7499 106.406 72.7499 106.406 72.7503 106.511C72.7502 106.575 72.7501 106.64 72.75 106.707C72.7499 106.767 72.7499 106.827 72.7498 106.888C72.7405 107.029 72.7405 107.029 72.6685 107.101C72.4157 107.119 72.1619 107.114 71.9086 107.115C71.8382 107.116 71.7679 107.116 71.6954 107.117C71.2743 107.118 70.9136 107.078 70.5101 106.956C70.5101 106.908 70.5101 106.86 70.5101 106.811C70.47 106.805 70.4299 106.799 70.3886 106.793C70.1692 106.721 70.0315 106.605 69.8625 106.449C69.8625 106.401 69.8625 106.353 69.8625 106.304C69.815 106.304 69.7675 106.304 69.7186 106.304C69.4552 105.814 69.3898 105.413 69.397 104.86C69.3968 104.784 69.3967 104.708 69.3965 104.629C69.3964 104.379 69.3982 104.129 69.4002 103.879C69.4005 103.704 69.4008 103.53 69.4009 103.356C69.4014 102.991 69.4029 102.627 69.4052 102.263C69.408 101.795 69.4093 101.327 69.41 100.859C69.4107 100.413 69.4121 99.9676 69.4137 99.5218C69.4139 99.4363 69.4142 99.3509 69.4144 99.2628C69.4152 99.0225 69.4166 98.7823 69.4181 98.542C69.4183 98.4701 69.4185 98.3982 69.4187 98.3241C69.4192 98.2591 69.4197 98.1941 69.4202 98.1271C69.4205 98.0703 69.4208 98.0135 69.4212 97.955C69.4485 97.5889 70.0918 97.7398 70.3617 97.7397Z" fill="#DFDED4"/>
<path d="M20.3972 100.28C20.4775 100.279 20.5578 100.279 20.6405 100.279C20.7673 100.28 20.7673 100.28 20.8967 100.28C20.9809 100.28 21.0652 100.28 21.152 100.279C21.2725 100.279 21.2725 100.279 21.3955 100.28C21.4697 100.28 21.5438 100.28 21.6202 100.28C21.8005 100.289 21.8005 100.289 21.9444 100.362C21.9478 101.219 21.9503 102.076 21.9519 102.933C21.9526 103.332 21.9537 103.73 21.9553 104.128C21.9568 104.511 21.9577 104.895 21.9581 105.279C21.9583 105.426 21.9589 105.573 21.9596 105.719C21.9607 105.924 21.9608 106.129 21.9608 106.334C21.9613 106.395 21.9618 106.456 21.9623 106.519C21.9608 106.939 21.9608 106.939 21.8005 107.101C21.6125 107.117 21.6125 107.117 21.3773 107.115C21.2933 107.114 21.2094 107.114 21.1229 107.114C21.0349 107.112 20.9469 107.111 20.8562 107.11C20.7676 107.109 20.679 107.109 20.5878 107.108C20.3685 107.106 20.1492 107.104 19.9299 107.101C19.9282 106.223 19.9269 105.346 19.9261 104.469C19.9257 104.061 19.9252 103.654 19.9244 103.246C19.9236 102.854 19.9232 102.461 19.923 102.068C19.9229 101.918 19.9226 101.768 19.9222 101.617C19.9217 101.408 19.9216 101.198 19.9217 100.989C19.9214 100.926 19.9212 100.863 19.9209 100.798C19.9218 100.28 19.9218 100.28 20.3972 100.28Z" fill="#DFDED4"/>
<path d="M21.9445 96.7388C21.9445 96.7866 21.9445 96.8344 21.9445 96.8837C22.0157 96.9076 22.0869 96.9315 22.1603 96.9562C22.2342 97.0773 22.2342 97.0773 22.2997 97.2279C22.3901 97.4245 22.4656 97.557 22.6055 97.7261C22.7596 97.9294 22.7846 98.0813 22.8079 98.333C22.5857 98.4608 22.5033 98.4779 22.2323 98.4779C22.2323 98.5257 22.2323 98.5735 22.2323 98.6228C22.1507 98.6512 22.069 98.6796 21.985 98.7089C21.691 98.8188 21.4279 98.9629 21.1587 99.1238C21.0124 99.2008 20.8824 99.2421 20.7214 99.275C20.7214 99.3228 20.7214 99.3706 20.7214 99.4199C20.6026 99.4199 20.4839 99.4199 20.3616 99.4199C20.3616 99.4677 20.3616 99.5156 20.3616 99.5648C20.2666 99.5648 20.1717 99.5648 20.0738 99.5648C20.0738 99.6127 20.0738 99.6605 20.0738 99.7098C19.5971 99.7913 19.5971 99.7913 19.3543 99.7098C19.1692 99.4997 19.0009 99.2654 18.9875 98.9789C19.0081 98.8402 19.0081 98.8402 19.0665 98.6228C19.114 98.6228 19.1615 98.6228 19.2104 98.6228C19.2104 98.575 19.2104 98.5272 19.2104 98.4779C19.3338 98.3747 19.4622 98.2774 19.5927 98.1835C19.6991 98.106 19.6991 98.106 19.8077 98.027C20.0019 97.8982 20.0019 97.8982 20.2177 97.8257C20.2177 97.7779 20.2177 97.7301 20.2177 97.6808C20.3364 97.633 20.4551 97.5851 20.5775 97.5359C20.5775 97.488 20.5775 97.4402 20.5775 97.3909C20.8906 97.1011 20.8906 97.1011 21.153 97.1011C21.153 97.0533 21.153 97.0054 21.153 96.9562C21.4207 96.75 21.6116 96.7154 21.9445 96.7388Z" fill="#DFDED4"/>
<path d="M11.5837 104.275C11.6075 104.275 11.6312 104.275 11.6557 104.275C11.6557 104.73 11.6557 105.184 11.6557 105.652C11.6319 105.652 11.6082 105.652 11.5837 105.652C11.5837 105.198 11.5837 104.744 11.5837 104.275Z" fill="#DFDED4"/>
<path d="M11.5837 102.537C11.6075 102.537 11.6312 102.537 11.6557 102.537C11.6557 102.92 11.6557 103.302 11.6557 103.697C11.6319 103.697 11.6082 103.697 11.5837 103.697C11.5837 103.314 11.5837 102.931 11.5837 102.537Z" fill="#DFDED4"/>
<path d="M6.83521 98.4785C6.9791 98.552 6.9791 98.552 6.9791 98.552L6.83521 98.4785Z" fill="#DFDED4"/>
</svg>
