<svg width="73" height="110" viewBox="0 0 73 110" fill="none" xmlns="http://www.w3.org/2000/svg">
<g clip-path="url(#clip0_80_818)">
<path d="M0 55V110H36.5H73V55V0H36.5H0V55ZM69.8382 3.79617C69.8714 4.42886 69.8936 19.4692 69.8714 37.2402L69.8382 69.5409L36.2559 69.5742L2.66261 69.5964V36.1302V2.66398H36.2116H69.7605L69.8382 3.79617ZM15.7982 73.115C16.1421 74.1473 16.5082 75.2573 16.6302 75.5903L16.841 76.2008L19.6035 76.2563L22.3549 76.3118L20.6907 77.4884C18.017 79.3754 17.9726 79.3976 17.9726 79.5086C17.9726 79.553 18.3277 80.6519 18.7603 81.9284C19.193 83.2048 19.5258 84.3037 19.5037 84.3703C19.4815 84.4258 18.6938 83.9263 17.7508 83.2603C16.8078 82.5832 15.8204 81.9062 15.5541 81.7508L15.0771 81.4622L14.6666 81.7064C14.4447 81.8507 14.012 82.1393 13.7014 82.3613C11.9374 83.6488 10.7281 84.4702 10.6726 84.4147C10.6394 84.3925 10.9833 83.2825 11.4271 81.9617C11.9818 80.33 12.2036 79.5086 12.1371 79.3976C12.0372 79.2533 11.4492 78.8315 9.07508 77.1887C8.47599 76.778 7.98784 76.4006 7.98784 76.3562C7.98784 76.3007 9.19711 76.2452 10.6726 76.2341L13.3685 76.2008L14.2006 73.7255C14.6555 72.3713 15.066 71.2614 15.1103 71.2614C15.1436 71.2614 15.4543 72.0938 15.7982 73.115ZM36.0008 73.7033C36.4223 74.9576 36.8106 76.0454 36.8661 76.112C36.9438 76.223 37.6316 76.2563 39.6175 76.2563C41.0819 76.2563 42.269 76.2896 42.269 76.334C42.2579 76.3895 41.3704 77.0333 40.2942 77.7881C39.2181 78.5429 38.2418 79.22 38.142 79.2977C37.9312 79.4531 37.909 79.3532 39.0517 82.7386C39.3512 83.6488 39.5842 84.4147 39.562 84.448C39.5287 84.4702 39.0739 84.1816 38.5302 83.7931C37.9977 83.4157 37.1546 82.8274 36.6664 82.4944C36.1783 82.1615 35.679 81.7952 35.5459 81.6731C35.4239 81.5621 35.2575 81.4733 35.1798 81.4733C35.091 81.4733 34.0704 82.1504 32.8833 82.9717C31.7073 83.7931 30.7199 84.4702 30.6866 84.4702C30.6644 84.4702 31.0084 83.3602 31.4632 82.0172C31.9181 80.663 32.2842 79.5197 32.2842 79.4753C32.2842 79.4309 31.8515 79.0979 31.319 78.7205C30.7754 78.3431 30.2983 77.999 30.2318 77.9546C30.1763 77.8991 29.9766 77.7659 29.788 77.6549C29.6105 77.5439 29.1112 77.1887 28.6786 76.8779L27.9131 76.3118L30.6644 76.2563L33.4269 76.2008L33.9483 74.6468C34.9801 71.5277 35.0799 71.2392 35.1687 71.3391C35.2131 71.3834 35.5903 72.449 36.0008 73.7033ZM55.9149 73.9031L56.7137 76.2563H59.4207C61.817 76.2563 62.4716 76.3229 61.9945 76.5116C61.7837 76.5893 57.8564 79.3754 57.8231 79.4642C57.812 79.5086 58.167 80.6186 58.6219 81.9506C59.0768 83.2714 59.4096 84.3814 59.3763 84.4036C59.3319 84.4258 58.3556 83.782 57.1907 82.9606C56.0369 82.1393 55.0052 81.4844 54.9164 81.5066C54.8277 81.5288 53.807 82.2059 52.6643 83.0161C51.5105 83.8264 50.5453 84.4702 50.5231 84.4369C50.5009 84.4147 50.8559 83.2825 51.3219 81.9173C51.7768 80.552 52.1096 79.4087 52.0652 79.3643C52.0208 79.3199 51.4772 78.9425 50.867 78.5318C50.2568 78.11 49.7354 77.7437 49.7021 77.6993C49.6689 77.666 49.2916 77.3996 48.8479 77.0999C47.5166 76.2119 47.4278 76.2563 50.512 76.2563C52.9971 76.2563 53.2301 76.2452 53.2856 76.0565C53.341 75.8678 54.7611 71.672 54.872 71.3724C54.9275 71.2281 54.9386 71.2281 55.0274 71.3724C55.0717 71.4612 55.4822 72.6044 55.9149 73.9031ZM15.9757 91.3078C15.9757 91.6852 15.9313 91.8961 15.8647 91.8517C15.8093 91.8184 15.7538 91.7185 15.7538 91.6408C15.7538 91.5631 15.654 91.3633 15.5208 91.1968C15.3211 90.9415 15.2213 90.9082 14.5778 90.9082H13.8678V93.0505C13.8678 95.3148 13.9011 95.4591 14.3781 95.4591C14.5223 95.4591 14.6666 95.5035 14.6999 95.5701C14.7442 95.6367 14.3116 95.6811 13.4795 95.6811C12.6474 95.6811 12.2147 95.6367 12.2591 95.5701C12.2924 95.5035 12.4366 95.4591 12.5809 95.4591C13.0579 95.4591 13.0912 95.3148 13.0912 93.0505V90.9082H12.3923C11.6157 90.9082 11.3938 91.0414 11.2606 91.5964C11.1275 92.107 10.9833 91.9405 10.9833 91.2967V90.6862H13.4795H15.9757V91.3078ZM18.6938 90.7972C18.7271 90.8638 18.6383 90.9082 18.483 90.9082C18.0947 90.9082 17.9726 91.1968 17.9726 92.1181V92.9062H19.304H20.6353V92.0404C20.6353 91.1191 20.5354 90.9082 20.1138 90.9082C19.9696 90.9082 19.8587 90.8527 19.8587 90.7972C19.8587 90.7306 20.3246 90.6862 21.0236 90.6862C21.7225 90.6862 22.1885 90.7306 22.1885 90.7972C22.1885 90.8527 22.0775 90.9082 21.9333 90.9082C21.4451 90.9082 21.4119 91.0636 21.4119 93.1393C21.4119 94.227 21.4451 95.1816 21.4784 95.2815C21.5228 95.3925 21.6781 95.4591 21.8667 95.4591C22.0442 95.4591 22.1885 95.5035 22.1885 95.5701C22.1885 95.6367 21.7225 95.6811 21.0236 95.6811C20.3246 95.6811 19.8587 95.6367 19.8587 95.5701C19.8587 95.5035 19.9696 95.4591 20.1138 95.4591C20.5465 95.4591 20.6353 95.2593 20.6353 94.2159V93.2392H19.304H17.9726V94.2159C17.9726 95.2149 18.0614 95.4591 18.4275 95.4591C18.5385 95.4591 18.6605 95.5035 18.6938 95.5701C18.7381 95.6367 18.3609 95.6811 17.6509 95.6811C16.9742 95.6811 16.5304 95.6367 16.5304 95.5701C16.5304 95.5035 16.6192 95.4591 16.7301 95.4591C17.1517 95.4591 17.1961 95.2593 17.1961 93.1837C17.1961 91.0525 17.1628 90.9082 16.6635 90.9082C16.5193 90.9082 16.4416 90.8638 16.4749 90.7972C16.5082 90.7306 17.0075 90.6862 17.5843 90.6862C18.1612 90.6862 18.6605 90.7306 18.6938 90.7972ZM25.7608 90.7972C26.959 91.1302 27.0588 92.6176 25.905 93.0283C25.6942 93.106 25.5167 93.2059 25.5167 93.2392C25.5167 93.3613 26.9146 94.9596 27.2363 95.2149C27.4027 95.3481 27.6357 95.4591 27.7467 95.4591C27.8576 95.4591 27.9796 95.5146 28.0129 95.5701C28.0684 95.6478 27.8243 95.6811 27.2807 95.6589L26.4708 95.6256L25.8717 94.8486C24.9842 93.6942 24.6514 93.3502 24.4073 93.3502C24.2076 93.3502 24.1854 93.4279 24.1854 94.227C24.1854 95.3148 24.2409 95.4591 24.6292 95.4591C24.8067 95.4591 24.9842 95.5035 25.0175 95.5701C25.0619 95.6367 24.6514 95.6811 23.8637 95.6811C23.1204 95.6811 22.6322 95.6367 22.6322 95.5701C22.6322 95.5035 22.7432 95.4591 22.8874 95.4591C23.0316 95.4591 23.198 95.4036 23.2757 95.3259C23.4421 95.1594 23.4643 91.441 23.2979 91.1191C23.2313 90.997 23.0649 90.9082 22.9096 90.9082C22.7543 90.9082 22.6322 90.8527 22.6322 90.7972C22.6322 90.6529 25.2283 90.6529 25.7608 90.7972ZM31.9957 90.7861C32.0401 90.8416 32.0956 91.1191 32.1289 91.3966C32.2176 91.9849 32.0512 92.0848 31.8404 91.5742C31.6296 91.0636 31.3301 90.9082 30.5424 90.9082H29.8435V91.9516V92.995L30.3205 92.9395C31.0084 92.8618 31.0638 92.8285 31.0638 92.5177C31.0638 92.3623 31.1193 92.2402 31.1748 92.2402C31.2413 92.2402 31.2857 92.5954 31.2857 93.0727C31.2857 93.5499 31.2413 93.9051 31.1748 93.9051C31.1193 93.9051 31.0638 93.783 31.0638 93.6276C31.0638 93.3058 30.7754 93.1282 30.2429 93.1282H29.8435V94.1604C29.8435 94.8153 29.8878 95.2371 29.9766 95.3259C30.143 95.4924 31.2968 95.5035 31.674 95.3259C31.8404 95.2593 32.0512 94.9818 32.2065 94.671C32.3397 94.3713 32.495 94.1382 32.5394 94.1271C32.5948 94.1271 32.617 94.4601 32.5948 94.8708L32.5616 95.6256L30.4204 95.6589C28.9781 95.6811 28.3014 95.6478 28.3457 95.5701C28.379 95.5146 28.5011 95.4591 28.612 95.4591C29.0225 95.4591 29.0669 95.2482 29.0558 93.4167C29.0336 91.2745 28.9892 90.9748 28.6453 90.9304C28.5122 90.9082 28.4012 90.8416 28.4012 90.7861C28.4012 90.6529 31.9181 90.6529 31.9957 90.7861ZM42.3578 90.9082C42.7904 91.1746 42.8237 91.1746 42.8237 90.9637C42.8237 90.8749 42.8792 90.7972 42.9347 90.7972C43.0012 90.7972 43.0456 91.0414 43.0456 91.3522C43.0456 91.9849 42.9125 92.0626 42.7128 91.5742C42.5131 91.0858 42.1913 90.9082 41.5257 90.9082C40.8711 90.9082 40.6049 91.0969 40.6049 91.5631C40.6049 92.0293 40.8157 92.2291 41.9362 92.7841C42.502 93.0616 43.0678 93.4279 43.1898 93.5943C43.6114 94.1715 43.4117 95.0817 42.7571 95.5146C42.3245 95.7921 41.2594 95.7588 40.8378 95.448C40.6603 95.3148 40.4274 95.2371 40.3386 95.2704C40.1944 95.3259 40.1611 95.2482 40.1611 94.7598C40.1611 94.2492 40.1722 94.2048 40.3164 94.4046C40.3941 94.5267 40.4939 94.7265 40.5383 94.8486C40.6492 95.2149 41.2483 95.5035 41.8918 95.5146C42.6462 95.5146 42.9347 95.2704 42.9347 94.6266C42.9347 94.0605 42.8126 93.9273 41.7143 93.4279C40.738 92.9728 40.3053 92.5843 40.2055 92.0626C40.1278 91.6186 40.4163 91.0414 40.8378 90.8305C41.2372 90.6196 41.9473 90.6529 42.3578 90.9082ZM57.0687 90.8083C57.3128 90.8749 57.6567 91.0858 57.8342 91.2745C58.3889 91.8739 58.1227 92.662 57.2462 93.0172C57.0354 93.0949 56.8357 93.1837 56.8135 93.1948C56.6804 93.2947 58.6108 95.3148 59.0102 95.4924C59.2875 95.6145 59.2765 95.6256 58.7661 95.6589C58.1227 95.7033 57.8675 95.5257 57.1575 94.5378C56.514 93.6498 56.0813 93.2392 55.804 93.2392C55.5821 93.2392 55.571 93.2947 55.6043 94.3158L55.6375 95.4036L55.9482 95.4369C56.1146 95.4591 56.2477 95.5257 56.2477 95.5812C56.2477 95.6367 55.7707 95.6811 55.1716 95.67C54.2619 95.67 54.1398 95.6478 54.4172 95.5479C54.6058 95.4813 54.7833 95.3703 54.8277 95.3037C54.9275 95.1594 54.9497 91.33 54.8499 91.0858C54.8166 90.9859 54.6502 90.9082 54.4837 90.9082C54.2619 90.9082 54.2286 90.886 54.3617 90.7972C54.5836 90.6529 56.5362 90.664 57.0687 90.8083ZM36.8328 90.9526C36.8328 91.0303 36.855 91.2745 36.8883 91.4743C36.9438 91.8517 36.9438 91.8517 36.8106 91.5631C36.5111 90.9526 36.4223 90.9082 35.4904 90.9082H34.614V91.9627V93.0172H35.1576C35.7123 93.0172 35.8787 92.9173 35.9786 92.5177C36.0008 92.3956 36.034 92.6398 36.034 93.0727C36.034 93.4944 36.0008 93.7497 35.9786 93.6276C35.8787 93.2281 35.7123 93.1282 35.1576 93.1282H34.614V94.1493C34.614 94.7154 34.6584 95.2482 34.7138 95.337C34.847 95.5479 35.8344 95.6256 36.3336 95.4591C36.622 95.3592 36.8328 95.1816 37.0658 94.8153L37.3875 94.3047V94.7487C37.3875 95.7366 37.5096 95.6811 35.2353 95.67C33.6266 95.67 33.2827 95.6367 33.5046 95.5368C33.6599 95.4702 33.8152 95.3592 33.8596 95.2926C33.904 95.2371 33.9483 94.2825 33.9483 93.1837C33.9483 92.0848 33.904 91.1302 33.8596 91.0636C33.8152 90.9859 33.6821 90.9082 33.56 90.8749C33.438 90.8527 34.1258 90.8194 35.091 90.8083C36.5 90.7972 36.8328 90.8305 36.8328 90.9526ZM49.0365 91.1635C49.0365 91.6852 48.9255 91.7407 48.7147 91.3189C48.5372 90.9748 48.5151 90.9637 47.7052 90.9304L46.8731 90.8971L46.9064 93.0394C46.9175 94.2159 46.9508 95.2371 46.9841 95.3148C47.0062 95.3925 47.1948 95.4924 47.3945 95.559C47.683 95.6367 47.5166 95.6589 46.5958 95.6589C45.9523 95.6589 45.5307 95.6256 45.6527 95.6034C46.1409 95.4813 46.152 95.4147 46.152 93.1171V90.9082H45.3421C44.5766 90.9082 44.5211 90.9304 44.3991 91.1857C44.3214 91.3411 44.266 91.5409 44.266 91.6297C44.266 91.7185 44.2216 91.7962 44.155 91.7962C44.0996 91.7962 44.0441 91.5742 44.0441 91.2967V90.7972H46.5403H49.0365V91.1635ZM51.6991 91.5964C52.6976 93.7941 53.3299 95.337 53.2745 95.3925C53.2412 95.4258 53.3189 95.4591 53.452 95.4591C53.5851 95.4591 53.6961 95.5035 53.6961 95.5479C53.6961 95.6034 53.3632 95.6589 52.9527 95.6589C52.2649 95.6811 52.2205 95.67 52.4091 95.5146C52.6199 95.3592 52.6199 95.337 52.3204 94.5711L52.0097 93.783L51.0002 93.8163L49.9906 93.8496L49.7798 94.3713C49.5468 94.9374 49.5912 95.4591 49.8685 95.4591C49.9573 95.4591 50.035 95.5035 50.035 95.5701C50.035 95.6367 49.7354 95.6811 49.3693 95.6811C49.0032 95.6811 48.7037 95.6367 48.7037 95.5701C48.7037 95.5035 48.7924 95.4591 48.9034 95.4591C49.1474 95.4591 49.2806 95.2149 50.0128 93.4612C50.7006 91.8406 51.1777 90.8083 51.2664 90.7972C51.3108 90.7972 51.4994 91.1635 51.6991 91.5964ZM17.1961 98.3118C17.2182 98.334 17.1295 98.3784 16.9964 98.4228C16.841 98.4561 16.7523 98.5671 16.7523 98.7225C16.7523 99.0111 17.6509 101.897 17.7397 101.897C17.784 101.897 18.0836 101.087 18.4275 100.088C18.8269 98.889 19.0932 98.2896 19.193 98.2896C19.2929 98.2896 19.5924 98.9223 20.0362 100.099C20.4023 101.087 20.7462 101.93 20.7795 101.964C20.8128 101.997 20.9459 101.686 21.0679 101.264C21.19 100.854 21.3897 100.143 21.5228 99.6993C21.778 98.8113 21.7558 98.5449 21.3786 98.3784C21.1678 98.2785 21.2011 98.2563 21.6559 98.223C21.9444 98.2008 22.2883 98.2119 22.4325 98.2452C22.6766 98.3007 22.6877 98.3118 22.4547 98.3784C22.1219 98.4894 22.0331 98.7225 21.312 101.065C20.9681 102.219 20.6242 103.174 20.5687 103.196C20.5021 103.218 20.1915 102.541 19.8698 101.708C19.5369 100.865 19.193 99.9768 19.0932 99.7326L18.9046 99.2997L18.3388 100.954C18.017 101.875 17.7286 102.752 17.6953 102.918C17.5289 103.573 17.3292 103.218 16.6635 101.142C16.2974 99.999 15.9646 98.9556 15.9202 98.8113C15.8758 98.667 15.7094 98.5005 15.5541 98.4339L15.2546 98.3118L15.5319 98.223C15.7982 98.1453 17.0851 98.2119 17.1961 98.3118ZM25.0175 98.2341C25.2283 98.3229 25.2283 98.334 24.9953 98.334C24.4517 98.3562 24.4073 98.5449 24.4073 100.654C24.4073 101.731 24.4517 102.674 24.4961 102.741C24.5404 102.807 24.729 102.918 24.9065 102.985C25.1839 103.074 25.0175 103.096 24.019 103.096C23.0205 103.096 22.8541 103.074 23.1315 102.985C23.3201 102.918 23.4976 102.807 23.5419 102.741C23.5863 102.674 23.6307 101.731 23.6307 100.654C23.6307 98.5449 23.5863 98.3673 23.0427 98.3229C22.6877 98.3007 23.7084 98.1564 24.2964 98.1453C24.5737 98.1453 24.8954 98.1786 25.0175 98.2341ZM26.9257 98.223C27.0921 98.2341 27.4804 98.6337 28.2237 99.5883C28.8117 100.343 29.3664 101.042 29.4552 101.142C29.5328 101.242 29.6882 101.453 29.788 101.608C29.8989 101.764 30.021 101.897 30.0764 101.897C30.2096 101.897 30.1985 98.9334 30.0654 98.6892C30.0099 98.5782 29.7991 98.445 29.5994 98.4006L29.2333 98.3118L29.7436 98.223C30.0432 98.1675 30.4537 98.1675 30.6866 98.223L31.1193 98.3118L30.8087 98.4339C30.6423 98.5116 30.4537 98.6892 30.3982 98.8446C30.3316 99.0111 30.2872 100.054 30.2872 101.187C30.2872 102.308 30.2429 103.229 30.1985 103.229C30.143 103.229 29.7325 102.752 29.2777 102.163C28.8228 101.575 28.0684 100.598 27.5802 99.9768C27.1032 99.3552 26.6705 98.8224 26.615 98.8113C26.5041 98.7669 26.4819 102.141 26.5818 102.541C26.6261 102.707 26.7704 102.818 26.9812 102.863C27.6468 102.996 27.3806 103.118 26.4375 103.118L25.4613 103.107L25.8495 102.918L26.2378 102.73L26.2711 100.643L26.2933 98.556L25.9383 98.4117C25.5944 98.2563 25.5833 98.2563 25.8495 98.2119C26.0049 98.2008 26.2489 98.1897 26.4043 98.2008C26.5596 98.2119 26.7926 98.223 26.9257 98.223ZM48.1489 98.4339C48.4041 98.6337 48.4707 98.6337 48.6038 98.5116C48.7369 98.3784 48.7591 98.4006 48.7369 98.7114C48.7258 98.9112 48.7147 99.1443 48.7147 99.2331C48.7037 99.333 48.6149 99.2553 48.4929 99.0666C48.1822 98.556 47.8716 98.334 47.4056 98.2674C46.5292 98.1564 46.0189 99.0777 46.6401 99.666C46.7844 99.7992 47.2947 100.077 47.7717 100.288C48.8035 100.72 49.1474 101.12 49.1474 101.83C49.1474 102.397 48.9366 102.718 48.3708 103.007C47.7606 103.318 47.2836 103.285 46.6845 102.907L46.1742 102.585L46.0632 102.818C45.9634 103.018 45.9412 102.918 45.9412 102.341V101.62L46.152 102.075C46.4404 102.741 46.8398 103.007 47.5388 103.007C48.3154 103.007 48.7037 102.718 48.7037 102.13C48.7037 101.586 48.3597 101.264 47.2392 100.754C46.3406 100.343 45.9301 99.9102 45.9301 99.3663C45.9301 98.9889 46.2296 98.4783 46.5736 98.2896C46.9619 98.0676 47.7495 98.1342 48.1489 98.4339ZM35.1687 98.4783C35.1687 98.6226 35.202 98.8557 35.2353 99.0111C35.2907 99.2664 35.2796 99.2553 35.1132 98.9556C34.8137 98.4228 34.6362 98.3451 33.7597 98.3451H32.9499V99.3996V100.454H33.4935C34.0482 100.454 34.2146 100.354 34.3144 99.9546C34.3366 99.8325 34.3699 100.11 34.3588 100.565C34.3588 101.02 34.3366 101.275 34.3144 101.12C34.2479 100.732 33.9816 100.565 33.4269 100.565H32.9499V101.719C32.9499 103.04 32.9166 103.007 33.9927 103.007C34.8026 103.007 35.1465 102.807 35.5015 102.141L35.7234 101.731L35.6901 102.397L35.6679 103.063L33.671 103.085C32.5727 103.096 31.7517 103.074 31.8404 103.04C32.2398 102.896 32.2842 102.663 32.2842 100.609C32.2842 98.6337 32.2731 98.5782 32.0401 98.4117C31.8071 98.2452 31.9181 98.2341 33.4824 98.2341C35.1576 98.2341 35.1687 98.2341 35.1687 98.4783ZM40.4385 98.3118C39.6397 98.4783 39.7173 98.2119 39.7173 100.665C39.7173 103.196 39.6286 103.007 40.8157 103.007C41.6921 103.007 42.0582 102.796 42.2801 102.175C42.4687 101.653 42.5575 101.764 42.5131 102.496L42.4687 103.118L40.4606 103.107C39.3512 103.107 38.5192 103.074 38.6079 103.04C39.0073 102.896 39.0517 102.663 39.0517 100.676C39.0517 98.6337 39.0073 98.4228 38.5524 98.3118C38.4304 98.2785 38.852 98.2563 39.4954 98.2563C40.1389 98.2563 40.5605 98.2785 40.4385 98.3118ZM44.8761 98.3118C44.388 98.4339 44.3769 98.5005 44.3769 100.676C44.3769 102.852 44.388 102.918 44.8761 103.04C44.9982 103.063 44.621 103.096 44.0441 103.085C43.4672 103.085 43.1011 103.063 43.2342 103.04C43.6891 102.952 43.7223 102.796 43.6891 100.609L43.6558 98.5227L43.3784 98.3784C43.1344 98.2563 43.2231 98.2341 44.0996 98.2452C44.6543 98.2563 44.9982 98.2896 44.8761 98.3118ZM54.7611 98.3895C54.7944 98.4783 54.8055 98.7114 54.7833 98.9223L54.7389 99.2886L54.6169 99C54.3839 98.4561 54.1731 98.3451 53.4076 98.3451H52.6976L52.7198 100.643L52.753 102.952L53.0859 103.018C53.2745 103.063 52.9195 103.096 52.3093 103.096C51.4439 103.096 51.2775 103.074 51.566 102.996L51.921 102.885V100.621V98.3451H51.222C50.4676 98.3451 50.035 98.5449 50.035 98.9001C50.035 99.0111 49.9906 99.1443 49.924 99.1776C49.802 99.2553 49.7687 98.4339 49.8907 98.3118C49.924 98.2674 51.0223 98.2341 52.3315 98.2341C54.2619 98.2341 54.7167 98.2674 54.7611 98.3895Z" fill="#DFDED4"/>
<path d="M16.486 6.53706C16.4528 6.59256 16.6525 6.63696 16.9298 6.63696C17.2183 6.64806 17.3958 6.60366 17.3625 6.54816C17.2737 6.41496 16.5637 6.40386 16.486 6.53706Z" fill="#DFDED4"/>
<path d="M40.5273 6.61626C40.0058 6.88266 39.8061 7.14905 39.7507 7.68185C39.6619 8.44774 39.9947 8.82514 41.3704 9.51333C42.6241 10.146 42.8681 10.3791 42.846 10.9674C42.8238 11.4114 42.5797 11.7333 42.1026 11.9442C41.792 12.0774 41.792 12.0885 42.0361 12.0996C42.4022 12.0996 43.0235 11.7 43.2121 11.3226C43.445 10.8786 43.4229 10.2237 43.1566 9.79083C42.9791 9.50223 42.6795 9.30243 41.9029 8.93614C40.5273 8.28124 40.2277 8.02595 40.2277 7.49315C40.2277 6.92706 40.5605 6.66066 41.2817 6.66066C41.7143 6.66066 41.8919 6.71616 42.2025 6.99366C42.4022 7.18235 42.613 7.44875 42.6463 7.60415C42.7683 8.09255 42.9347 7.90385 42.9347 7.27115C42.9347 6.62736 42.8792 6.53856 42.6463 6.84936C42.5131 7.03806 42.4909 7.03806 42.1692 6.79386C41.7143 6.46086 40.9821 6.38316 40.5273 6.61626Z" fill="#DFDED4"/>
<path d="M57.8231 6.61483C57.0576 7.00333 56.8358 7.69152 57.2019 8.46852C57.3794 8.83481 57.9785 9.27881 58.6885 9.54521C59.1545 9.73391 59.809 10.1224 59.9865 10.3333C60.1086 10.4887 60.164 10.7662 60.1418 11.1325C60.1418 11.2435 59.9865 11.4877 59.809 11.6653C59.5428 11.9317 59.3874 11.9872 58.9659 11.9872C58.1005 11.9872 57.7566 11.7652 57.3683 10.966L57.0355 10.2667V11.1547C57.0355 11.8651 57.0576 11.9983 57.1575 11.8207C57.2241 11.6986 57.2906 11.5765 57.3128 11.5543C57.335 11.5321 57.4792 11.6209 57.6567 11.743C58.1116 12.0538 58.7551 12.2314 59.1655 12.1537C60.2417 11.9428 60.6855 11.4877 60.6855 10.5775C60.6855 9.8116 60.3415 9.45641 58.9326 8.76821C57.9341 8.27982 57.7677 8.15772 57.6235 7.80252C57.4792 7.46953 57.4792 7.35853 57.5902 7.13653C57.801 6.74803 58.0894 6.62593 58.7107 6.68143C59.3098 6.74803 59.687 7.02553 59.9089 7.55832C60.1197 8.06892 60.2417 7.93572 60.2417 7.18093V6.49273L60.0309 6.75913L59.8312 7.02553L59.4873 6.77023C59.0435 6.44833 58.3002 6.37064 57.8231 6.61483Z" fill="#DFDED4"/>
<path d="M6.235 6.80398C6.39032 6.94828 6.60111 7.33677 6.68986 7.66977C7.25567 9.60115 8.07664 12.032 8.17649 12.0653C8.28743 12.1097 8.79776 10.7666 8.70901 10.6667C8.67573 10.6445 8.65354 10.6778 8.65354 10.7444C8.65354 10.8221 8.60916 10.8776 8.55369 10.8776C8.49822 10.8776 8.20977 10.1672 7.92132 9.29036C7.14472 6.93718 7.14472 6.93718 7.59959 6.68188C7.77709 6.58198 7.64396 6.55978 6.88956 6.54868H5.95764L6.235 6.80398Z" fill="#DFDED4"/>
<path d="M12.7029 6.68126C13.0469 6.86996 13.1023 7.01426 13.0358 7.49155L12.9803 7.93555L13.18 7.44715C13.2909 7.18075 13.5017 6.86996 13.657 6.75896L13.9233 6.54806L13.2022 6.55916C12.6031 6.55916 12.5254 6.58136 12.7029 6.68126Z" fill="#DFDED4"/>
<path d="M15.4764 6.81472C14.8662 7.10332 14.3781 7.53622 14.1229 8.04681C13.8456 8.56851 13.8012 9.7562 14.0342 10.3556C14.2671 10.9772 14.9883 11.6765 15.6428 11.9207L16.1421 12.1094L15.6317 11.6654C14.9328 11.066 14.7553 10.5665 14.7553 9.29C14.7664 7.86921 15.0881 7.21432 16.0311 6.72592C16.5636 6.44843 16.0866 6.52613 15.4764 6.81472Z" fill="#DFDED4"/>
<path d="M17.8173 6.71452C18.2721 6.91432 18.8158 7.55812 18.9822 8.07981C19.0487 8.32401 19.0931 8.9678 19.0709 9.5561C19.0265 10.4996 18.9933 10.6661 18.7159 11.0879C18.5384 11.3432 18.2278 11.6651 18.017 11.7872C17.5066 12.0869 17.6065 12.1535 18.2056 11.9204C20.0028 11.2211 20.5797 8.72361 19.2373 7.39162C18.8712 7.02532 17.9615 6.54803 17.6731 6.55913C17.5399 6.55913 17.5954 6.61462 17.8173 6.71452Z" fill="#DFDED4"/>
<path d="M20.7018 6.67019C20.9237 6.73679 21.079 6.85889 21.1234 7.01429C21.2233 7.42498 21.2011 11.2766 21.0901 11.5874C21.0236 11.7317 20.8904 11.876 20.7795 11.9093C20.6685 11.9426 21.0346 11.9648 21.5783 11.9648C22.366 11.9648 22.5102 11.9426 22.2772 11.8538C21.8667 11.7095 21.8445 11.4986 21.8778 8.79027L21.9111 6.54809L21.1345 6.55919C20.4799 6.57029 20.4134 6.58139 20.7018 6.67019Z" fill="#DFDED4"/>
<path d="M22.965 6.6593C23.6085 6.8036 23.8414 7.0478 23.9524 7.73599C24.0855 8.63508 23.6195 9.21228 22.7431 9.21228C22.5656 9.21228 22.4103 9.25667 22.4103 9.32327C22.4103 9.37877 22.4547 9.43427 22.5101 9.43427C22.61 9.43427 23.1536 10.0781 23.6861 10.8107C23.8082 10.9772 24.0744 11.3102 24.2852 11.5544C24.6402 11.9761 24.6735 11.9872 25.3392 11.9761C26.0048 11.965 26.0048 11.965 25.6831 11.8208C25.4945 11.7431 25.1173 11.4212 24.851 11.1215C24.1077 10.3001 23.2978 9.34547 23.2978 9.28997C23.2978 9.25667 23.4753 9.20118 23.6861 9.16788C24.1299 9.07908 24.7068 8.54628 24.8177 8.12449C24.9952 7.40299 24.1299 6.6593 23.0316 6.5927L22.4657 6.5594L22.965 6.6593Z" fill="#DFDED4"/>
<path d="M26.9478 6.65971C27.1475 6.70411 27.3583 6.81511 27.4138 6.90391C27.5358 7.08151 27.5469 11.5437 27.4249 11.7213C27.3805 11.799 27.2474 11.8767 27.1253 11.91C27.0033 11.9322 27.3028 11.9655 27.791 11.9766C28.4455 11.9766 28.623 11.9544 28.4899 11.8656C28.3124 11.7657 28.2902 11.5215 28.2902 9.33479C28.2902 6.68191 28.2791 6.71521 28.9559 6.62641C29.1667 6.60421 28.7229 6.58201 27.9574 6.58201C27.0366 6.57091 26.6926 6.60421 26.9478 6.65971Z" fill="#DFDED4"/>
<path d="M32.3397 6.65914C32.1289 6.74794 32.1289 6.75904 32.3508 6.75904C32.4839 6.77014 32.6282 6.84784 32.6614 6.94774C32.6947 7.04764 32.728 8.16872 32.728 9.44521C32.728 11.754 32.728 11.7762 32.4839 11.8761C32.2953 11.9427 32.495 11.976 33.1718 11.976C34.0039 11.9871 34.0815 11.9649 33.8374 11.8428L33.5601 11.6985V9.12332V6.54814L33.0608 6.55924C32.7835 6.55924 32.4618 6.60364 32.3397 6.65914Z" fill="#DFDED4"/>
<path d="M33.9261 6.6257C34.0592 6.6482 34.2811 6.6482 34.4253 6.6257C34.5585 6.6032 34.4475 6.58069 34.1702 6.58069C33.8928 6.58069 33.7819 6.6032 33.9261 6.6257Z" fill="#DFDED4"/>
<path d="M35.0578 6.67081C35.9342 7.04821 36.1228 7.19251 36.4445 7.7031C36.7552 8.2137 36.7774 8.3136 36.7774 9.36809C36.7774 10.3671 36.7441 10.5336 36.5 10.9332C36.2226 11.3994 35.9675 11.6214 35.5015 11.8434C35.1243 12.021 35.4461 12.021 36.034 11.8434C36.5777 11.6769 37.2211 11.1108 37.4319 10.6113C37.5096 10.4226 37.6094 9.97858 37.6427 9.62338C37.7426 8.86859 37.4541 7.9029 36.9882 7.4256C36.6109 7.02601 35.8787 6.68191 35.2575 6.60421C34.847 6.54871 34.8137 6.55981 35.0578 6.67081Z" fill="#DFDED4"/>
<path d="M38.2307 6.72649C37.9645 6.98179 38.1864 7.32589 38.6079 7.32589C38.8964 7.32589 38.9408 7.35919 38.9408 7.64778C38.9408 7.88088 38.8409 8.05848 38.5858 8.25828C38.3861 8.41368 38.2751 8.54688 38.3417 8.54688C38.619 8.54688 39.0517 8.00298 39.0628 7.63668C39.085 7.05949 39.0517 6.94849 38.8076 6.73759C38.5303 6.50449 38.4526 6.50449 38.2307 6.72649Z" fill="#DFDED4"/>
<path d="M46.7067 6.68135L47.095 6.82565V9.32313V11.8206L46.7621 11.8872C46.4404 11.9538 46.4515 11.9649 46.8731 11.9982C47.7384 12.0648 48.4263 12.0537 48.5927 11.9649C48.7147 11.9094 48.6703 11.8872 48.4596 11.8761C48.2821 11.8761 48.1156 11.7873 48.038 11.6652C47.9714 11.532 47.9381 10.533 47.9603 9.07893L47.9825 6.71465L48.4374 6.68135C49.0919 6.63695 49.4691 6.81455 49.6577 7.28075C50.0017 8.09104 49.5579 8.99013 48.8257 8.99013C48.6703 8.99013 48.4596 9.04563 48.3708 9.10113C48.2488 9.17883 48.3042 9.21213 48.6038 9.21213C49.569 9.21213 50.0793 9.67832 50.0793 10.5441C50.0793 11.2656 49.7687 11.7318 49.2029 11.865L48.7591 11.9649L49.3138 11.976C50.5453 11.9982 51.2997 10.8882 50.7117 9.92252C50.512 9.58952 49.8907 9.21213 49.5579 9.21213C49.2362 9.21213 49.2583 9.02343 49.5801 8.95683C49.7465 8.92353 50.046 8.75703 50.2457 8.60163C50.5342 8.35743 50.5897 8.22424 50.5897 7.84684C50.5786 7.32514 50.4676 7.13645 49.9795 6.81455C49.7021 6.63695 49.4137 6.60365 47.9825 6.57035C46.5403 6.54815 46.3738 6.57035 46.7067 6.68135Z" fill="#DFDED4"/>
<path d="M51.7878 6.71444L52.1428 6.86983V9.31181V11.7649L51.8544 11.8315C51.344 11.9647 51.81 12.0979 52.6753 12.0757C53.5629 12.0535 53.8957 11.9425 53.3854 11.8426C53.0636 11.776 53.0415 11.7427 52.9749 11.0767C52.9305 10.6882 52.9194 10.1221 52.9416 9.82241L52.9749 9.26741L53.4076 9.23411C54.0954 9.17861 54.3395 9.27851 54.4615 9.68921C54.5392 9.97781 54.5614 9.86681 54.5614 9.10091C54.5614 8.39052 54.5392 8.24622 54.4726 8.53482C54.3617 9.02321 54.2063 9.11201 53.5296 9.07871L52.9749 9.04541V7.87992V6.71444L53.8957 6.72554C54.9053 6.73664 55.0828 6.83653 55.4045 7.56913L55.5598 7.93542L55.5709 7.49143C55.5931 6.49244 55.7041 6.54794 53.4298 6.54794C51.5992 6.55904 51.455 6.57014 51.7878 6.71444Z" fill="#DFDED4"/>
<path d="M61.0959 6.62718C60.9739 6.73818 61.0072 7.77047 61.1181 7.77047C61.1736 7.77047 61.2512 7.62617 61.2956 7.44857C61.4177 6.89358 61.7061 6.72708 62.6047 6.72708L63.4035 6.71598V9.20236C63.4035 11.8552 63.4368 11.7109 62.8488 11.9551C62.7046 12.0106 62.993 12.055 63.6698 12.0772C64.2911 12.0994 64.757 12.0661 64.8347 11.9884C64.9123 11.9107 64.8791 11.8774 64.7126 11.8774C64.2578 11.8774 64.2245 11.6887 64.2578 9.14686L64.2911 6.71598L65.112 6.72708C65.8664 6.72708 65.9552 6.76038 66.1882 7.03788C66.3324 7.20438 66.4544 7.43747 66.4544 7.55957C66.4544 7.67057 66.5099 7.77047 66.5654 7.77047C66.6874 7.77047 66.7096 7.40417 66.6098 6.89358L66.5432 6.54948H63.8473C62.3718 6.54948 61.1292 6.58278 61.0959 6.62718Z" fill="#DFDED4"/>
<path d="M9.90708 7.07002C9.78505 7.36972 9.77395 7.53622 9.85161 7.66942C9.91818 7.78042 10.129 8.27991 10.3287 8.79051C10.5173 9.29 10.839 10.1336 11.0387 10.6553C11.2384 11.177 11.4381 11.7098 11.4714 11.843C11.5934 12.2426 11.7265 12.1427 11.9262 11.5322C12.0926 11.0327 12.1037 10.9661 11.9484 10.844C11.8486 10.7663 11.6378 10.3556 11.4825 9.9338C11.3271 9.5009 10.9832 8.59071 10.7281 7.90251C10.4729 7.22542 10.2288 6.65933 10.1733 6.65933C10.129 6.65933 10.0069 6.84802 9.90708 7.07002Z" fill="#DFDED4"/>
<path d="M12.7695 8.40243C12.7584 8.46903 12.7251 8.62443 12.6918 8.73543C12.6363 8.92413 12.6363 8.92413 12.7584 8.73543C12.8249 8.62443 12.8582 8.48013 12.8249 8.40243C12.7917 8.30253 12.7695 8.30253 12.7695 8.40243Z" fill="#DFDED4"/>
<path d="M12.3257 9.94573C12.3257 10.0678 12.3589 10.1011 12.3922 10.0123C12.4255 9.93463 12.4144 9.83473 12.3811 9.80143C12.3479 9.75703 12.3146 9.82363 12.3257 9.94573Z" fill="#DFDED4"/>
<path d="M39.7173 11.1774C39.7284 11.8322 39.7395 11.9099 39.8726 11.7323C40.0279 11.5325 40.272 11.477 40.272 11.6324C40.272 11.6879 40.394 11.7878 40.5494 11.8544C40.7934 11.9654 40.7823 11.9432 40.4495 11.5991C40.2387 11.3994 40.039 11.0664 39.9946 10.8888C39.8615 10.2561 39.7173 10.4115 39.7173 11.1774Z" fill="#DFDED4"/>
<path d="M55.8816 10.7549C55.7817 11.2211 55.1272 11.876 54.7389 11.8871C54.4615 11.8871 54.4504 11.9093 54.639 11.987C54.9164 12.1091 55.7041 12.1202 55.8705 12.0092C56.0369 11.9093 56.2033 10.433 56.048 10.433C55.9925 10.433 55.9149 10.5773 55.8816 10.7549Z" fill="#DFDED4"/>
<path d="M31.0971 11.1114C30.9196 11.511 30.7532 11.6997 30.487 11.8218L30.1208 11.9772L30.7643 11.9883H31.3967V11.2668C31.3967 10.8672 31.3856 10.5453 31.3745 10.5453C31.3523 10.5453 31.2303 10.8006 31.0971 11.1114Z" fill="#DFDED4"/>
<path d="M16.6191 12.0656C16.6968 12.0993 16.7966 12.0881 16.8299 12.0543C16.8743 12.0205 16.8077 11.9868 16.6857 11.998C16.5636 11.998 16.5304 12.0318 16.6191 12.0656Z" fill="#DFDED4"/>
<path d="M41.0819 12.0652C41.1818 12.0877 41.3371 12.0877 41.4148 12.0652C41.4813 12.0314 41.4037 12.0089 41.2151 12.0089C41.0376 12.0089 40.971 12.0314 41.0819 12.0652Z" fill="#DFDED4"/>
<path d="M5.99084 17.6372C5.99084 17.8592 6.0796 17.9036 6.73416 18.0368C6.95604 18.0812 7.2223 18.2588 7.39981 18.4808C7.72154 18.8693 7.89905 19.3577 9.87382 25.5293C12.2147 32.8219 12.0483 32.3557 12.3478 32.389C12.4921 32.4112 12.6474 32.3557 12.6696 32.278C12.7029 32.2003 13.5904 29.5363 14.6443 26.3618C15.6983 23.1872 16.5858 20.5676 16.608 20.5454C16.6191 20.5232 16.6635 20.5232 16.6968 20.5454C16.719 20.5787 17.7285 23.1761 18.9267 26.3063C20.1138 29.4475 21.1456 32.1115 21.201 32.2225C21.3896 32.5777 21.7668 32.4112 21.9222 31.9117C21.9998 31.6675 22.4103 30.2689 22.8541 28.8037C23.2867 27.3385 23.6972 26.0177 23.7416 25.8623C23.7971 25.7069 24.1521 24.5636 24.5293 23.3093C25.8162 18.9914 26.2045 18.1922 27.1032 18.0146C27.4693 17.9369 27.5802 17.8703 27.6024 17.6705L27.6357 17.4263H25.5167H23.3977L23.431 17.6705C23.4532 17.8592 23.5641 17.9369 23.8747 17.9924C24.7845 18.1367 25.0618 18.614 24.9176 19.8128C24.8732 20.2679 23.431 25.2629 22.3437 28.7815C22.2661 29.0368 22.1884 28.9591 22.022 28.4929C21.9443 28.3042 21.5117 27.1387 21.0457 25.9178C19.3039 21.3335 17.8617 17.504 17.8617 17.4596C17.8617 17.4374 17.6953 17.4263 17.5067 17.4485L17.1405 17.4818L16.5304 19.3133C16.1864 20.3234 15.3211 22.9097 14.6 25.0631C13.8677 27.2164 13.2465 28.948 13.2132 28.8925C13.1688 28.8481 12.9802 28.3042 12.7916 27.6937C12.603 27.0832 12.0483 25.3295 11.5601 23.8088C10.1956 19.5575 10.0957 19.2134 10.0957 18.8249C10.0957 18.3254 10.4063 18.0701 11.0942 18.0035C11.5934 17.9591 11.6489 17.9258 11.6489 17.6927V17.4263H8.81987C6.10179 17.4263 5.99084 17.4374 5.99084 17.6372Z" fill="#DFDED4"/>
<path d="M28.1793 17.638C28.1793 17.8045 28.3014 17.8489 28.9337 17.9155C29.9988 18.0265 30.1097 18.0709 30.3538 18.4594C30.5535 18.8035 30.5646 19.081 30.5646 24.642C30.5646 28.9488 30.5313 30.5472 30.4314 30.7691C30.2318 31.2131 29.8656 31.4018 29.0114 31.4906C28.3346 31.5683 28.2348 31.6127 28.2348 31.8014C28.2348 32.0234 28.3125 32.0234 31.674 32.0234H35.1132L35.1465 31.7681C35.1798 31.5461 35.1354 31.5239 34.6473 31.5128C33.7597 31.5017 33.2494 31.3019 33.0386 30.8579C32.8611 30.5028 32.8389 29.97 32.8389 24.7197C32.8389 18.526 32.8611 18.3262 33.4158 18.1042C33.56 18.0376 34.0038 17.9599 34.4254 17.9266C35.0577 17.86 35.1687 17.8267 35.1687 17.638C35.1687 17.4382 35.0466 17.4271 31.674 17.4271C28.3346 17.4271 28.1793 17.4382 28.1793 17.638Z" fill="#DFDED4"/>
<path d="M36.2782 17.6372C36.2782 17.8481 36.6554 17.9813 37.2878 17.9813C37.4542 17.9813 37.7204 18.0368 37.8647 18.1034C38.4416 18.3587 38.4416 18.392 38.4748 24.5302C38.5192 31.068 38.5525 30.7684 37.5984 31.179C37.3099 31.3122 36.9771 31.4121 36.8662 31.4121C36.4002 31.4121 36.1672 31.5453 36.1672 31.8117V32.0781H38.9297C41.3482 32.0781 41.7033 32.0559 41.7587 31.9005C41.8586 31.623 41.7587 31.5564 41.1707 31.5009C40.5162 31.4343 39.6397 31.0125 39.3624 30.6352C39.1738 30.3799 39.1627 30.0025 39.1849 24.5968L39.2181 18.8471L40.4385 20.3899C41.1153 21.2446 42.6795 23.2537 43.9332 24.8632C48.0381 30.1246 49.7244 32.2446 49.8797 32.3334C49.9685 32.3778 50.0905 32.3889 50.146 32.3556C50.2125 32.3112 50.2569 30.1246 50.2569 26.2729C50.2569 20.1679 50.3235 19.0025 50.6452 18.6473C50.9115 18.3476 51.5327 18.0812 52.1318 17.9924C52.5534 17.9369 52.6533 17.8814 52.6754 17.6705L52.7087 17.4263H49.9241H47.1394L47.1727 17.6705C47.1949 17.8703 47.2947 17.9258 47.6498 17.9591C48.4153 18.0257 48.9256 18.2033 49.2917 18.5363L49.6467 18.8471L49.6689 23.7754L49.7022 28.6927L49.3694 28.3042C49.1808 28.0933 48.6039 27.3607 48.0824 26.6947C47.561 26.0176 46.9841 25.2961 46.8177 25.0852C46.1188 24.2194 42.0916 19.0913 41.4814 18.281L40.8157 17.4263H38.5525C36.4002 17.4263 36.2782 17.4374 36.2782 17.6372Z" fill="#DFDED4"/>
<path d="M53.9179 17.6377C53.9179 17.8597 54.2063 17.9818 54.7721 17.9818C54.9829 17.9818 55.2492 18.0928 55.4378 18.2482L55.7484 18.5146L55.7817 24.5529C55.8039 30.3138 55.7928 30.5913 55.5931 30.9243C55.3712 31.2906 54.7499 31.5237 53.9734 31.5237C53.6183 31.5237 53.574 31.557 53.6072 31.7679L53.6405 32.0232L59.7867 32.0565C63.4478 32.0676 65.9884 32.0343 66.0439 31.9788C66.1992 31.8234 66.4876 27.6276 66.3545 27.4944C66.1437 27.2835 65.9329 27.5277 65.6223 28.3602C64.9344 30.2472 63.9692 31.1907 62.4604 31.4238C61.3954 31.5903 59.1876 31.5126 58.755 31.2906C58.2003 31.0242 58.1226 30.5802 58.1004 27.4167L58.0782 24.5862L59.5427 24.5973C60.7297 24.6084 61.0626 24.6417 61.2955 24.7971C61.6838 25.0524 61.9057 25.6074 61.9057 26.3067C61.9057 26.8284 61.9279 26.8617 62.1831 26.8617H62.4604V24.3642V21.8668H62.1831C61.9279 21.8668 61.9057 21.9001 61.9057 22.4107C61.9057 23.5872 61.584 23.8536 60.0419 23.9979C59.4539 24.0534 58.755 24.0645 58.4998 24.0312L58.0227 23.9646V20.9788V17.9818L58.3223 17.9152C58.7106 17.8153 61.7726 17.9485 62.4272 18.0928C63.3369 18.3037 64.0025 19.1029 64.4019 20.4571C64.5572 21.0121 64.6238 21.1009 64.8235 21.0676C64.9566 21.0454 65.0676 20.9788 65.0676 20.9233C65.0676 20.8567 65.001 20.0464 64.9123 19.114L64.768 17.4268H59.343C54.1065 17.4268 53.9179 17.4379 53.9179 17.6377Z" fill="#DFDED4"/>
<path d="M33.4047 35.853C32.8611 35.9862 32.1511 36.519 31.8737 37.0185C31.43 37.8066 31.5853 39.0498 32.2066 39.7269C32.5727 40.1154 33.0941 40.4151 34.4254 41.0145C35.091 41.3142 35.8233 41.6916 36.0673 41.8692C36.8772 42.4574 37.0547 43.3898 36.5111 44.1446C36.0895 44.7218 35.5792 44.9549 34.7138 44.9549C33.4158 44.9549 32.6614 44.3555 32.14 42.9014C31.7073 41.6916 31.5742 41.847 31.5298 43.5896C31.5076 44.9882 31.5076 45.0659 31.7184 45.0659C31.8626 45.0659 31.9514 44.966 32.0069 44.7329C32.1067 44.2667 32.2509 44.2223 32.5948 44.5442C33.0275 44.9438 33.4713 45.1436 34.2479 45.2768C35.3462 45.4766 36.267 45.2546 37.0104 44.5997C38.0865 43.6562 38.1198 41.8137 37.0769 40.8147C36.9105 40.6482 36.0673 40.1931 35.2131 39.7935C32.961 38.739 32.617 38.4393 32.617 37.5069C32.617 36.6633 33.1828 36.186 34.1813 36.186C35.2464 36.186 36.0895 36.7965 36.5111 37.8732C36.611 38.1396 36.7774 38.3616 36.8772 38.3838C37.0325 38.4171 37.0547 38.2728 37.0547 37.1961C37.0547 35.8419 36.9216 35.6199 36.5777 36.3636L36.3891 36.7521L36.023 36.4524C35.8344 36.2859 35.5237 36.0861 35.3351 36.0084C34.8803 35.8197 33.8596 35.7309 33.4047 35.853Z" fill="#DFDED4"/>
<path d="M50.7561 35.8415C50.0349 36.0302 49.3582 36.5408 49.0476 37.1513C48.981 37.2845 48.9255 37.6952 48.9255 38.0726C48.9255 39.3713 49.5468 40.0595 51.455 40.9031C53.5851 41.8466 54.0621 42.2795 54.0621 43.2452C54.0621 44.2664 53.2079 44.9879 51.9653 44.9768C50.634 44.9657 49.7021 44.1443 49.3138 42.6236C49.2362 42.3128 49.1141 42.113 49.0032 42.0908C48.8368 42.0575 48.8146 42.2018 48.8146 43.556C48.8146 44.9657 48.8257 45.0656 49.0254 45.0656C49.1807 45.0656 49.2583 44.9546 49.3027 44.6771C49.3915 44.2331 49.5024 44.1998 49.8463 44.5217C49.9795 44.6549 50.3678 44.888 50.7006 45.0434C51.5216 45.4318 52.8307 45.4429 53.6184 45.0656C54.9941 44.4107 55.5266 42.8678 54.8387 41.5025C54.4615 40.7699 53.9623 40.4147 52.2871 39.6821C50.7117 39.005 50.0904 38.5499 49.9129 37.9727C49.7354 37.3844 49.9573 36.785 50.4676 36.4409C50.9114 36.1412 51.8211 36.0968 52.4091 36.341C52.9416 36.563 53.5629 37.2512 53.7848 37.8728C53.9068 38.228 54.0289 38.4056 54.1398 38.3834C54.2729 38.3501 54.3062 38.1503 54.3173 37.451C54.3506 36.0191 54.162 35.5529 53.8846 36.2966C53.7515 36.6629 53.574 36.7184 53.341 36.4742C52.8418 35.9858 51.4994 35.6528 50.7561 35.8415Z" fill="#DFDED4"/>
<path d="M17.307 36.1294C17.307 36.2515 17.429 36.2959 17.7952 36.2959C18.1058 36.2959 18.3721 36.3736 18.5385 36.5068L18.8047 36.7177V40.3695C18.8047 42.3675 18.7714 44.1435 18.7271 44.2989C18.6272 44.6319 18.2278 44.8428 17.6953 44.8428C17.429 44.8428 17.307 44.8983 17.307 45.0093C17.307 45.1536 17.8284 45.1758 21.3453 45.1758H25.3725L25.4391 44.421C25.4834 44.0103 25.5167 43.4109 25.5167 43.089C25.5167 42.6006 25.4834 42.5118 25.317 42.5118C25.1728 42.5118 25.0619 42.6783 24.9287 43.1001C24.6847 43.866 24.1078 44.5431 23.542 44.7096C23.2979 44.7873 22.5768 44.8428 21.9333 44.8428C20.957 44.8428 20.7351 44.8095 20.5132 44.6319L20.247 44.421L20.2137 41.1021C20.1804 37.8387 20.2248 36.8287 20.4023 36.529C20.4578 36.4402 20.7906 36.3514 21.2011 36.307C21.5894 36.2737 21.9111 36.1849 21.9111 36.1294C21.9111 36.0628 21.0458 36.0073 19.6146 35.9851C17.6066 35.9629 17.307 35.9851 17.307 36.1294Z" fill="#DFDED4"/>
<path d="M25.9604 36.1194C25.9604 36.2193 26.138 36.2859 26.5263 36.3192C27.4471 36.408 27.4249 36.3414 27.4915 39.4827C27.5247 41.0034 27.5025 42.7349 27.4582 43.3343C27.3694 44.6219 27.2141 44.8439 26.4375 44.8439C26.0825 44.8439 25.9604 44.8883 25.9604 45.0104C25.9604 45.1547 26.2489 45.1769 28.1571 45.1547C29.5217 45.1325 30.3427 45.077 30.3427 45.0104C30.3427 44.9438 30.1097 44.8772 29.8101 44.8439C28.8671 44.7329 28.9004 44.9105 28.9004 40.5816C28.9004 36.2082 28.8782 36.3414 29.8323 36.2748C30.1097 36.2526 30.3427 36.186 30.3427 36.1305C30.3427 36.0639 29.5217 36.0084 28.1571 35.9862C26.3377 35.964 25.9604 35.9862 25.9604 36.1194Z" fill="#DFDED4"/>
<path d="M38.6079 37.0729C38.6079 37.9608 38.6412 38.1828 38.7632 38.1828C38.852 38.1828 38.9629 38.0274 38.9962 37.8165C39.1182 37.2949 39.4622 36.6733 39.7395 36.4735C39.9281 36.3403 40.2942 36.2959 41.2927 36.2959H42.6018V39.9255C42.5907 43.7328 42.5353 44.4543 42.2024 44.6985C42.0915 44.7762 41.7365 44.8428 41.4147 44.8428C40.971 44.8428 40.8268 44.8872 40.8268 45.0093C40.8268 45.1536 41.1707 45.1758 43.212 45.1758C45.2534 45.1758 45.5973 45.1536 45.5973 45.0093C45.5973 44.8872 45.4641 44.8428 45.0647 44.8428C43.9442 44.8428 43.8999 44.6319 43.9553 39.6813L43.9886 36.3514H45.3643H46.7289L47.0506 36.7288C47.217 36.9397 47.4278 37.3504 47.4944 37.6389C47.572 37.9497 47.7052 38.1828 47.7828 38.1828C47.8938 38.1828 47.9271 37.9164 47.9271 37.0729V35.9629H43.2675H38.6079V37.0729Z" fill="#DFDED4"/>
<path d="M6.45686 40.3705C6.49014 40.5592 6.80078 40.5703 11.0942 40.5703C15.3877 40.5703 15.6983 40.5592 15.7316 40.3705C15.7649 40.1929 15.4876 40.1818 11.0942 40.1818C6.70093 40.1818 6.42358 40.1929 6.45686 40.3705Z" fill="#DFDED4"/>
<path d="M56.3586 40.403C56.3586 40.625 56.4363 40.625 61.0182 40.625C65.6001 40.625 65.6778 40.625 65.6778 40.403C65.6778 40.181 65.6001 40.181 61.0182 40.181C56.4363 40.181 56.3586 40.181 56.3586 40.403Z" fill="#DFDED4"/>
<path d="M22.6323 50.5486C21.778 50.7928 21.312 51.0703 20.8572 51.592C20.6131 51.8695 20.4023 52.2136 20.3912 52.3801C20.3468 53.2126 20.5354 53.4901 21.1567 53.5012C21.6338 53.5012 21.9111 53.1127 21.7447 52.6798C21.545 52.1359 21.6116 51.5476 21.9111 51.1813C22.2661 50.7706 22.7321 50.6152 23.664 50.593C24.4961 50.5819 24.9842 50.8039 25.3725 51.37C26.138 52.5133 25.9605 55.2106 25.0064 56.9089C24.3075 58.1742 22.4326 60.1833 20.6464 61.6041C19.8698 62.2146 19.8143 62.2923 19.9918 62.3922C20.0806 62.4366 20.247 62.4588 20.369 62.4366C20.48 62.4144 22.1663 62.3922 24.1078 62.3922L27.6247 62.3811V60.9603L27.6136 59.5506L27.314 60.1611C26.7926 61.2045 26.7704 61.2156 23.9303 61.2378L21.4674 61.2711L22.4104 60.4164C24.485 58.5294 26.4709 56.4538 26.8259 55.7989C27.9797 53.6455 27.2696 51.3367 25.2505 50.6707C24.4961 50.4265 23.2535 50.3599 22.6323 50.5486Z" fill="#DFDED4"/>
<path d="M31.5631 50.5379C30.498 50.8931 29.7991 51.5258 29.3221 52.5803C28.8561 53.6015 28.723 54.2675 28.6564 55.999C28.5566 58.885 29.0225 60.6166 30.2429 61.7821C30.9751 62.4925 31.4411 62.659 32.6725 62.6368C34.4476 62.6257 35.5126 61.6711 36.1894 59.4955C36.4224 58.7407 36.4445 58.4521 36.4445 56.4985C36.4445 54.5117 36.4224 54.2675 36.1783 53.5571C35.679 52.0586 34.9801 51.1373 34.026 50.6933C33.4602 50.438 32.14 50.3492 31.5631 50.5379ZM33.6155 50.8043C34.3477 51.2261 34.6917 52.2806 34.8581 54.667C35.0023 56.7205 34.8581 59.6731 34.5585 60.772C34.2368 61.9486 33.6155 62.4925 32.5616 62.4925C31.5187 62.4925 30.8863 61.9486 30.5757 60.7609C30.0876 58.9627 30.1097 53.6459 30.609 52.1363C30.8198 51.4925 31.1415 51.0374 31.5631 50.8043C32.1622 50.4824 33.0719 50.4824 33.6155 50.8043Z" fill="#DFDED4"/>
<path d="M39.7728 50.516C39.5288 50.5715 39.0517 50.7602 38.7189 50.9267C37.9867 51.293 37.3876 52.0811 37.3876 52.6805C37.3876 53.3464 38.1309 53.7349 38.6634 53.3464C38.8631 53.2021 38.8742 53.1466 38.7411 52.5251C38.4748 51.2264 39.1072 50.6159 40.7047 50.6159C42.1692 50.6159 42.7683 51.3152 42.9014 53.2243C42.968 54.2788 42.6684 55.7107 42.1581 56.7097C41.559 57.9196 39.7285 59.9176 37.6982 61.6048C37.2877 61.9378 36.966 62.2597 36.9771 62.3041C37.0104 62.404 44.4879 62.4151 44.5877 62.3152C44.6654 62.2375 44.6654 59.6068 44.5877 59.6068C44.5433 59.6068 44.4879 59.7622 44.4435 59.9509C44.3437 60.4726 43.9886 60.8944 43.4894 61.0942C43.1344 61.2385 42.6019 61.2718 40.8268 61.2718C39.6064 61.2718 38.6079 61.2385 38.6079 61.1941C38.6079 61.1608 38.7743 60.9832 38.974 60.8056C40.4052 59.518 41.1374 58.8409 42.2247 57.7642C43.2786 56.7097 43.5338 56.3878 43.9332 55.5886C44.3658 54.7006 44.3991 54.5785 44.3991 53.7016C44.3991 52.625 44.1883 52.0811 43.5449 51.4484C42.6573 50.5937 41.1152 50.2163 39.7728 50.516Z" fill="#DFDED4"/>
<path d="M48.2599 50.6275C47.1949 51.0382 46.3961 52.0594 46.507 52.8364C46.5514 53.2027 47.0507 53.4469 47.4611 53.3026C47.7829 53.1916 47.7829 53.1694 47.6387 52.0261C47.5166 51.0826 48.1046 50.6164 49.4137 50.6164C50.5564 50.6164 51.1 51.127 51.2221 52.3258C51.4107 54.1573 50.4899 55.3005 48.4042 55.8333C47.794 55.9887 47.1172 56.2773 47.1838 56.3439C47.2171 56.3772 47.4833 56.2995 47.7829 56.1663C48.5151 55.8222 49.8353 55.8111 50.3789 56.1219C51.2665 56.6436 51.6769 57.8646 51.5327 59.6073C51.4551 60.6729 51.1888 61.4166 50.7339 61.8828C50.268 62.3712 49.6467 62.5377 48.6371 62.46C47.3613 62.3601 46.5736 61.8495 46.0855 60.7728C45.7748 60.0957 45.675 59.9958 45.8192 60.4842C46.0522 61.3056 46.618 61.9494 47.4611 62.3379C48.4042 62.7708 49.9241 62.7042 51.089 62.1603C51.688 61.8828 52.509 61.0614 52.8197 60.4176C53.1858 59.6739 53.1858 58.4307 52.8197 57.7314C52.3315 56.799 51.4551 56.1774 50.2014 55.8666C49.6467 55.7334 49.5025 55.6557 49.6578 55.6002C49.7687 55.5558 50.1016 55.4337 50.39 55.3338C51.1777 55.0563 52.0763 54.4237 52.4092 53.9131C53.1414 52.7698 52.4425 51.1936 50.9447 50.6719C50.0794 50.3722 48.97 50.35 48.2599 50.6275Z" fill="#DFDED4"/>
<path d="M24.1854 92.0186C24.1854 93.2618 24.1854 93.2618 25.0952 93.0176C25.6166 92.8622 25.8496 92.5403 25.8496 91.9298C25.8496 91.2416 25.4945 90.9086 24.7401 90.9086H24.1854V92.0186Z" fill="#DFDED4"/>
<path d="M55.582 91.9523V93.1289H56.0147C56.5694 93.1289 57.113 92.9291 57.2462 92.6849C57.3127 92.5739 57.3571 92.252 57.3571 91.9745C57.3571 91.2419 57.0354 90.92 56.2255 90.8312L55.582 90.7646V91.9523Z" fill="#DFDED4"/>
<path d="M50.7561 92.0963C50.6563 92.3294 50.4677 92.7179 50.3567 92.9732C50.035 93.6725 50.0461 93.6836 51.0335 93.6836C51.5216 93.6836 51.921 93.6614 51.921 93.6281C51.921 93.6059 51.799 93.3173 51.6548 92.9954C51.5105 92.6735 51.333 92.2406 51.2443 92.0408C51.1555 91.8521 51.0557 91.6856 51.0224 91.6856C50.978 91.6856 50.8671 91.8743 50.7561 92.0963Z" fill="#DFDED4"/>
</g>
<defs>
<clipPath id="clip0_80_818">
<rect width="73" height="110" fill="white"/>
</clipPath>
</defs>
</svg>
