<svg width="43" height="30" viewBox="0 0 43 30" fill="none" xmlns="http://www.w3.org/2000/svg">
<path d="M42.1253 4.71668C41.8805 3.81189 41.4023 2.98675 40.7381 2.32338C40.074 1.66001 39.247 1.18156 38.3396 0.935642C34.9751 0.015003 21.5149 1.62643e-05 21.5149 1.62643e-05C21.5149 1.62643e-05 8.0568 -0.0149713 4.69014 0.864988C3.78332 1.12222 2.95808 1.60744 2.29365 2.27407C1.62922 2.94069 1.14791 3.76633 0.89592 4.67172C0.00859746 8.02456 3.14783e-06 14.9786 3.14783e-06 14.9786C3.14783e-06 14.9786 -0.00859074 21.9669 0.872286 25.2855C1.36644 27.1203 2.81666 28.5698 4.66006 29.0644C8.05895 29.985 21.4827 30 21.4827 30C21.4827 30 34.9429 30.015 38.3074 29.1372C39.2151 28.8917 40.0428 28.4143 40.7087 27.7523C41.3745 27.0903 41.8554 26.2666 42.1038 25.3625C42.9932 22.0118 42.9997 15.06 42.9997 15.06C42.9997 15.06 43.0427 8.06952 42.1253 4.71668ZM17.2093 21.4209L17.2201 8.5748L28.4072 15.0086L17.2093 21.4209Z" fill="#DFDED4"/>
</svg>
