<svg width="1733" height="51" viewBox="0 0 1733 51" fill="none" xmlns="http://www.w3.org/2000/svg">
<path d="M189.699 0C189.957 0 190.214 0.0199966 190.455 0.0499954C191.726 0.209995 192.401 0.719997 191.983 1.2L160.385 36.99C159.967 37.47 158.6 37.72 157.329 37.57C156.059 37.41 155.384 36.9 155.802 36.42L187.4 0.629997C187.738 0.249996 188.67 0.0100021 189.683 0.0100021L189.699 0Z" fill="#FF4500"/>
<path d="M167.766 0C168.023 0 168.28 0.0199966 168.522 0.0499954C169.792 0.209995 170.467 0.719997 170.049 1.2L138.451 36.99C138.033 37.47 136.666 37.72 135.396 37.57C134.126 37.41 133.45 36.9 133.868 36.42L165.466 0.629997C165.804 0.249996 166.737 0.0100021 167.75 0.0100021L167.766 0Z" fill="#FF4500"/>
<path d="M145.816 0C146.073 0 146.331 0.0199966 146.572 0.0499954C147.842 0.209995 148.518 0.719997 148.1 1.2L116.501 36.99C116.083 37.47 114.716 37.72 113.446 37.57C112.176 37.41 111.5 36.9 111.918 36.42L143.517 0.629997C143.854 0.249996 144.787 0.0100021 145.8 0.0100021L145.816 0Z" fill="#FF4500"/>
<path d="M123.882 0C124.14 0 124.397 0.0199966 124.638 0.0499954C125.908 0.209995 126.584 0.719997 126.166 1.2L94.5675 36.99C94.1494 37.47 92.7827 37.72 91.5123 37.57C90.242 37.41 89.5666 36.9 89.9846 36.42L121.583 0.629997C121.92 0.249996 122.853 0.0100021 123.866 0.0100021L123.882 0Z" fill="#FF4500"/>
<path d="M101.932 0C102.19 0 102.447 0.0199966 102.688 0.0499954C103.958 0.209995 104.634 0.719997 104.216 1.2L72.6177 36.99C72.1996 37.47 70.8327 37.72 69.5624 37.57C68.292 37.41 67.6166 36.9 68.0347 36.42L99.6328 0.629997C99.9705 0.249996 100.903 0.0100021 101.916 0.0100021L101.932 0Z" fill="#FF4500"/>
<path d="M79.9823 0C80.2396 0 80.4969 0.0199966 80.7381 0.0499954C82.0085 0.209995 82.6839 0.719997 82.2658 1.2L50.6676 36.99C50.2495 37.47 48.8827 37.72 47.6123 37.57C46.342 37.41 45.6667 36.9 46.0847 36.42L77.6828 0.629997C78.0205 0.249996 78.9532 0.0100021 79.9663 0.0100021L79.9823 0Z" fill="#FF4500"/>
<path d="M58.0488 0C58.3061 0 58.5633 0.0199966 58.8045 0.0499954C60.0749 0.209995 60.7503 0.719997 60.3322 1.2L28.7341 36.99C28.316 37.47 26.9492 37.72 25.6788 37.57C24.4085 37.41 23.733 36.9 24.1511 36.42L55.7492 0.629997C56.0869 0.249996 57.0196 0.0100021 58.0327 0.0100021L58.0488 0Z" fill="#FF4500"/>
<path d="M36.0988 0C36.3561 0 36.6134 0.0199966 36.8546 0.0499954C38.1249 0.209995 38.8003 0.719997 38.3822 1.2L6.78419 36.99C6.3661 37.47 4.99922 37.72 3.72886 37.57C2.45851 37.41 1.78321 36.9 2.2013 36.42L33.7993 0.629997C34.137 0.249996 35.0697 0.0100021 36.0827 0.0100021L36.0988 0Z" fill="#FF4500"/>
<path d="M2.5 48.0001L1730.5 48.0001" stroke="#FF4500" stroke-width="5" stroke-miterlimit="10" stroke-linecap="square"/>
</svg>
