<svg width="1733" height="54" viewBox="0 0 1733 54" fill="none" xmlns="http://www.w3.org/2000/svg">
<path d="M1537.3 53.19C1537.04 53.19 1536.79 53.17 1536.54 53.14C1535.27 52.98 1534.6 52.47 1535.02 51.99L1566.62 16.2C1567.03 15.72 1568.4 15.47 1569.67 15.62C1570.94 15.78 1571.62 16.29 1571.2 16.77L1539.6 52.56C1539.26 52.94 1538.33 53.18 1537.32 53.18L1537.3 53.19Z" fill="#FF4500"/>
<path d="M1559.23 53.19C1558.98 53.19 1558.72 53.17 1558.48 53.14C1557.21 52.98 1556.53 52.47 1556.95 51.99L1588.55 16.2C1588.97 15.72 1590.33 15.47 1591.6 15.62C1592.87 15.78 1593.55 16.29 1593.13 16.77L1561.53 52.56C1561.2 52.94 1560.26 53.18 1559.25 53.18L1559.23 53.19Z" fill="#FF4500"/>
<path d="M1581.18 53.19C1580.93 53.19 1580.67 53.17 1580.43 53.14C1579.16 52.98 1578.48 52.47 1578.9 51.99L1610.5 16.2C1610.92 15.72 1612.28 15.47 1613.55 15.62C1614.82 15.78 1615.5 16.29 1615.08 16.77L1583.48 52.56C1583.15 52.94 1582.21 53.18 1581.2 53.18L1581.18 53.19Z" fill="#FF4500"/>
<path d="M1603.12 53.19C1602.86 53.19 1602.6 53.17 1602.36 53.14C1601.09 52.98 1600.42 52.47 1600.83 51.99L1632.43 16.2C1632.85 15.72 1634.22 15.47 1635.49 15.62C1636.76 15.78 1637.43 16.29 1637.02 16.77L1605.42 52.56C1605.08 52.94 1604.15 53.18 1603.13 53.18L1603.12 53.19Z" fill="#FF4500"/>
<path d="M1625.07 53.19C1624.81 53.19 1624.55 53.17 1624.31 53.14C1623.04 52.98 1622.37 52.47 1622.78 51.99L1654.38 16.2C1654.8 15.72 1656.17 15.47 1657.44 15.62C1658.71 15.78 1659.38 16.29 1658.97 16.77L1627.37 52.56C1627.03 52.94 1626.1 53.18 1625.08 53.18L1625.07 53.19Z" fill="#FF4500"/>
<path d="M1647.02 53.19C1646.76 53.19 1646.5 53.17 1646.26 53.14C1644.99 52.98 1644.32 52.47 1644.73 51.99L1676.33 16.2C1676.75 15.72 1678.12 15.47 1679.39 15.62C1680.66 15.78 1681.33 16.29 1680.92 16.77L1649.32 52.56C1648.98 52.94 1648.05 53.18 1647.03 53.18L1647.02 53.19Z" fill="#FF4500"/>
<path d="M1668.95 53.19C1668.69 53.19 1668.44 53.17 1668.2 53.14C1666.92 52.98 1666.25 52.47 1666.67 51.99L1698.27 16.2C1698.68 15.72 1700.05 15.47 1701.32 15.62C1702.59 15.78 1703.27 16.29 1702.85 16.77L1671.25 52.56C1670.91 52.94 1669.98 53.18 1668.97 53.18L1668.95 53.19Z" fill="#FF4500"/>
<path d="M1690.9 53.19C1690.64 53.19 1690.39 53.17 1690.15 53.14C1688.87 52.98 1688.2 52.47 1688.62 51.99L1720.22 16.2C1720.63 15.72 1722 15.47 1723.27 15.62C1724.54 15.78 1725.22 16.29 1724.8 16.77L1693.2 52.56C1692.86 52.94 1691.93 53.18 1690.92 53.18L1690.9 53.19Z" fill="#FF4500"/>
<path d="M2.5 2.5L1730.5 2.5" stroke="#FF4500" stroke-width="5" stroke-miterlimit="10" stroke-linecap="square"/>
</svg>
