<?xml version="1.0" standalone="no"?>
<!DOCTYPE svg PUBLIC "-//W3C//DTD SVG 20010904//EN"
 "http://www.w3.org/TR/2001/REC-SVG-20010904/DTD/svg10.dtd">
<svg version="1.0" xmlns="http://www.w3.org/2000/svg"
 width="637.000000pt" height="383.000000pt" viewBox="0 0 637.000000 383.000000"
 preserveAspectRatio="xMidYMid meet">

<g transform="translate(0.000000,383.000000) scale(0.100000,-0.100000)"
fill="#000000" stroke="none">
<path d="M1458 3414 c-4 -4 -38 -6 -75 -5 -64 2 -69 0 -88 -26 -11 -15 -28
-35 -37 -45 -10 -10 -18 -21 -18 -25 0 -4 -22 -52 -48 -107 -57 -117 -74 -159
-71 -172 4 -14 -13 -148 -20 -159 -3 -5 -6 -39 -7 -75 -1 -36 -6 -102 -11
-146 -5 -45 -5 -119 0 -165 4 -46 10 -135 12 -198 2 -63 6 -120 9 -127 7 -18
-45 -27 -103 -19 -37 5 -50 3 -60 -9 -8 -9 -21 -16 -30 -16 -10 0 -26 -10 -37
-23 -57 -67 -94 -116 -94 -124 0 -5 -10 -18 -22 -29 -37 -32 -80 -135 -115
-274 -3 -14 -9 -115 -13 -225 -5 -110 -11 -225 -15 -256 -8 -62 8 -178 29
-213 8 -11 19 -45 26 -75 22 -94 85 -234 134 -299 62 -81 94 -96 188 -88 40 4
92 8 115 9 23 1 45 5 49 10 4 4 34 7 66 7 43 0 60 -4 64 -15 7 -17 40 -20 49
-5 13 21 36 9 53 -27 17 -37 28 -52 111 -143 22 -25 41 -48 41 -52 0 -20 100
-32 290 -33 113 -1 309 -7 435 -15 127 -7 239 -13 250 -13 113 1 408 16 475
25 87 11 528 21 835 18 226 -2 354 14 421 51 28 16 56 29 63 29 7 0 41 17 74
38 65 39 256 218 257 239 0 19 110 127 155 153 44 24 32 24 535 37 l225 5 29
-30 c16 -17 35 -28 42 -25 8 3 20 0 27 -6 10 -8 18 -5 30 10 10 11 21 18 25
15 4 -2 41 -7 82 -10 41 -2 83 -8 93 -11 9 -4 32 -1 50 6 42 16 42 16 28 33
-9 11 -7 27 10 72 54 144 64 248 30 313 -6 11 -11 29 -11 41 0 11 -12 50 -27
85 -22 49 -35 67 -58 77 -34 14 -168 17 -202 5 -18 -6 -23 -5 -23 7 0 9 -4 16
-9 16 -14 0 -32 58 -19 62 14 5 -26 105 -53 134 -12 13 -27 34 -33 46 -11 22
-18 23 -160 28 -130 4 -150 3 -166 -12 -15 -14 -43 -19 -127 -22 -229 -11
-254 -13 -266 -26 -10 -10 -6 -11 21 -7 24 5 32 3 32 -8 0 -12 -14 -15 -60
-15 -64 0 -74 5 -37 20 14 6 -6 7 -58 3 -44 -3 -83 -10 -86 -15 -3 -5 -34 -11
-67 -13 -60 -3 -62 -2 -82 30 -29 46 -132 128 -215 171 -38 20 -73 39 -77 43
-4 3 16 33 44 66 28 33 62 78 76 100 96 152 128 182 185 171 18 -3 37 -3 40 1
4 3 89 8 190 9 100 1 220 5 267 9 143 10 161 10 170 -6 8 -11 13 -12 30 -1 34
21 56 14 76 -23 12 -22 29 -38 44 -41 14 -3 30 -7 36 -9 13 -4 106 20 134 35
11 6 44 12 72 12 49 1 50 2 69 45 30 71 52 207 44 282 -3 36 -7 113 -7 171
l-1 104 -35 33 c-39 37 -83 43 -120 17 -13 -9 -26 -13 -30 -9 -4 4 -1 10 6 12
13 5 17 43 4 43 -4 0 -13 -5 -20 -12 -8 -8 -12 -8 -12 -1 0 24 -50 23 -90 -2
-22 -14 -53 -25 -70 -25 -23 0 -33 -6 -39 -22 -9 -24 -7 -24 -166 -29 -47 -1
-171 6 -240 15 -16 2 -31 8 -33 15 -2 7 -32 11 -82 11 -43 0 -90 4 -104 9 -16
7 -34 6 -53 -1 -25 -10 -36 -7 -79 17 -93 54 -132 85 -150 119 -11 20 -60 82
-111 138 -142 159 -144 160 -173 153 -57 -14 -88 -11 -162 16 -43 16 -88 28
-100 28 -13 0 -51 4 -86 10 -35 7 -95 11 -135 10 -81 -1 -211 7 -337 21 -47 6
-168 10 -270 10 -102 0 -205 5 -230 11 -43 10 -128 13 -665 25 -126 2 -250 9
-275 15 -25 5 -63 10 -85 9 -63 -1 -84 0 -185 6 -52 3 -98 2 -102 -2z m42 -53
c0 -18 -18 -21 -30 -6 -10 13 -9 15 9 15 11 0 21 -4 21 -9z m980 -32 c102 -6
273 -12 380 -15 107 -2 215 -6 240 -9 177 -17 235 -27 270 -45 42 -22 54 -36
20 -25 -19 6 -19 5 2 -45 14 -34 26 -49 35 -46 10 4 13 -7 14 -47 0 -29 4 -74
9 -102 5 -27 14 -84 20 -125 6 -41 12 -82 14 -90 1 -8 6 -31 10 -52 4 -20 5
-46 1 -59 -7 -20 -8 -21 -17 -5 -5 9 -8 23 -5 29 2 7 -2 48 -9 92 -8 44 -18
107 -23 140 -21 138 -37 195 -53 195 -5 0 -7 -8 -4 -17 8 -27 27 -176 23 -180
-2 -2 -12 35 -22 82 -16 76 -28 105 -40 93 -2 -2 0 -21 6 -43 17 -73 50 -229
65 -305 8 -41 19 -87 25 -102 6 -15 8 -39 5 -55 -6 -25 -4 -28 20 -29 20 -2
25 2 21 16 -2 10 -1 24 4 31 8 11 11 11 20 -3 19 -33 28 -19 22 35 -4 44 -2
55 15 71 21 18 21 18 27 -5 3 -13 6 -71 8 -129 l2 -105 -65 -7 c-36 -4 -80
-10 -99 -13 l-34 -6 22 37 c12 20 20 39 17 41 -5 5 -65 -58 -66 -69 0 -6 -64
-28 -83 -28 -4 0 -3 9 3 21 15 27 2 39 -15 15 -8 -10 -16 -23 -17 -28 -6 -16
-101 -30 -109 -16 -6 9 -11 9 -23 -1 -8 -7 -40 -15 -71 -18 l-56 -6 13 29 c7
16 23 45 35 64 25 37 28 50 14 50 -5 0 -19 -21 -31 -46 -38 -77 -66 -104 -111
-104 -25 0 -39 5 -39 13 0 6 18 39 40 72 41 60 47 75 32 75 -5 0 -26 -29 -46
-64 -60 -102 -46 -97 -267 -96 -119 0 -197 4 -205 11 -7 6 -16 23 -19 39 l-6
29 -24 -27 -24 -27 -1 115 c0 79 3 110 10 100 15 -23 32 7 25 45 -4 17 -9 49
-12 72 -3 24 -9 40 -14 37 -5 -3 -9 11 -9 30 0 19 4 37 9 40 9 6 15 -12 26
-79 2 -16 9 -54 15 -84 5 -29 10 -55 10 -57 0 -2 5 -4 10 -4 16 0 12 68 -10
170 -20 90 -21 120 -2 120 9 0 19 -56 27 -147 2 -24 7 -47 10 -53 14 -22 25
-8 25 33 0 85 33 89 43 6 5 -40 2 -63 -13 -97 -23 -50 -24 -62 -10 -62 6 0 10
6 10 14 0 21 21 31 31 15 6 -9 9 0 9 28 0 33 7 50 28 74 l29 32 12 -64 c18
-96 31 -133 43 -121 7 7 4 36 -11 89 -11 44 -21 99 -21 124 1 41 2 43 15 25 9
-12 14 -40 14 -70 -1 -28 4 -62 9 -76 10 -24 11 -23 13 15 3 46 2 51 -11 128
-10 53 -9 61 12 90 l23 32 7 -40 c4 -22 10 -57 13 -77 3 -21 10 -38 14 -38 12
0 19 68 9 78 -13 13 -27 104 -19 126 7 17 11 13 26 -27 10 -26 15 -59 12 -74
-5 -27 11 -63 28 -63 4 0 5 20 2 44 -5 35 -3 47 13 61 22 20 27 45 9 45 -6 0
-13 -9 -16 -20 -8 -29 -16 -25 -37 20 -16 33 -17 45 -8 65 16 34 15 45 -2 45
-8 0 -19 -14 -25 -30 -5 -17 -16 -29 -22 -28 -7 2 -14 -9 -15 -24 -3 -30 -33
-88 -46 -88 -8 0 -13 53 -10 103 1 16 13 45 27 65 14 20 25 43 25 51 0 23 -28
-6 -71 -74 -32 -50 -39 -57 -44 -40 -15 46 -25 65 -35 65 -13 0 -13 -15 5 -79
12 -48 12 -56 -2 -78 -20 -30 -23 -26 -30 33 -2 27 -9 57 -14 66 -7 12 -5 27
6 48 25 48 -2 35 -34 -16 l-28 -46 -13 51 c-11 48 -22 62 -34 43 -2 -4 2 -34
9 -66 10 -41 11 -66 4 -85 -10 -25 -11 -25 -21 -6 -6 10 -24 60 -39 110 -23
76 -30 90 -46 88 -15 -2 -23 7 -32 36 -6 21 -11 48 -11 59 0 12 -10 26 -21 33
-20 10 -21 9 -17 -20 2 -17 3 -31 1 -31 -5 0 -53 107 -53 119 0 14 38 18 90 9
25 -5 128 -13 230 -19z m-1052 -111 c57 -79 96 -144 99 -165 3 -18 3 -33 0
-33 -3 0 -27 35 -53 78 -46 73 -93 139 -122 171 -38 40 -50 81 -24 81 4 0 49
-59 100 -132z m14 69 c31 -43 62 -106 55 -113 -2 -2 -21 21 -43 52 -21 31 -49
68 -61 84 -13 15 -23 31 -23 34 0 16 43 -19 72 -57z m215 22 c2 -49 -1 -48
-15 4 -8 28 -7 37 2 37 7 0 12 -17 13 -41z m57 26 c-4 -8 -9 -15 -13 -15 -4 0
-8 7 -8 15 0 8 6 15 13 15 8 0 11 -6 8 -15z m326 9 c0 -5 -36 -76 -47 -93 -2
-2 -5 -2 -8 1 -3 2 0 20 6 39 6 19 12 40 15 47 3 12 34 18 34 6z m-454 -39
c-7 -29 -26 -34 -26 -7 0 18 20 45 28 37 2 -2 2 -16 -2 -30z m334 14 c0 -11
-4 -17 -10 -14 -5 3 -10 13 -10 21 0 8 5 14 10 14 6 0 10 -9 10 -21z m70 17
c0 -3 -8 -12 -17 -22 -10 -9 -23 -33 -29 -53 -10 -30 -12 -32 -13 -12 -2 41
21 91 41 91 10 0 18 -2 18 -4z m66 -53 c-11 -11 -17 4 -9 23 7 18 8 18 11 1 2
-10 1 -21 -2 -24z m-446 -33 c-17 -51 -24 -44 -15 16 5 33 10 43 17 36 8 -8 8
-23 -2 -52z m130 51 c0 -4 -5 -23 -12 -42 l-12 -34 -7 35 c-5 23 -3 37 4 42
16 10 27 10 27 -1z m76 -25 c10 -54 -1 -64 -13 -12 -5 25 -7 46 -2 46 4 0 11
-16 15 -34z m77 5 c3 -11 -1 -28 -8 -38 -12 -17 -14 -16 -20 9 -8 31 0 62 14
54 5 -3 11 -15 14 -25z m-512 -96 c53 -76 53 -74 11 -60 -23 8 -47 27 -65 51
-61 86 -59 81 -46 102 12 18 13 18 39 -12 14 -17 42 -53 61 -81z m2104 77 c20
-14 37 -64 25 -76 -8 -8 -20 0 -45 29 -19 22 -34 43 -35 48 0 9 42 9 55 -1z
m126 -19 c0 -16 2 -37 5 -48 2 -11 7 -45 10 -75 5 -54 5 -55 -12 -31 -13 18
-64 161 -64 179 0 1 14 2 30 2 26 0 30 -4 31 -27z m71 -38 c11 -33 17 -69 16
-79 -5 -31 -54 51 -63 103 -6 38 -5 42 11 39 12 -2 24 -22 36 -63z m73 54 c49
-12 53 -20 75 -134 12 -61 28 -101 36 -92 5 4 -6 55 -32 150 -11 41 -11 49 1
53 48 19 73 -21 78 -124 2 -40 9 -78 15 -84 9 -9 12 -7 12 9 0 23 25 49 34 35
3 -5 8 -28 12 -50 4 -23 11 -42 16 -42 6 0 7 10 4 23 -4 12 -9 59 -13 105 -6
79 -5 82 15 82 25 0 37 -20 46 -79 4 -24 16 -55 26 -69 17 -20 20 -40 20 -115
0 -50 3 -87 8 -83 9 9 9 13 11 83 l1 57 46 -46 c53 -53 138 -91 184 -82 25 5
30 3 35 -18 3 -13 16 -30 27 -37 18 -11 20 -11 14 4 -3 9 -9 28 -12 41 -6 22
-4 23 17 16 13 -5 28 -18 34 -30 10 -21 32 -31 75 -33 l25 -1 -28 -12 -29 -13
24 -15 c13 -8 38 -19 57 -23 24 -5 30 -10 20 -16 -8 -5 -21 -6 -30 -3 -11 3
-18 -3 -22 -17 -5 -19 -2 -21 44 -17 39 2 49 0 49 -13 0 -9 3 -19 7 -23 4 -3
8 -13 9 -21 2 -16 -16 -18 -56 -5 -24 8 -23 8 8 9 45 1 40 20 -5 19 -21 0 -45
2 -53 4 -10 2 -15 -5 -15 -20 0 -21 -27 -52 -46 -52 -4 0 -10 21 -14 46 -8 56
-15 52 -25 -18 -6 -46 -8 -38 -9 55 0 59 -5 107 -10 107 -17 0 -24 -52 -22
-152 0 -27 -4 -38 -14 -38 -8 0 -15 -6 -15 -14 0 -8 -7 -16 -15 -20 -8 -3 -15
-12 -15 -20 0 -8 -8 -22 -17 -32 -10 -10 -18 -25 -19 -33 0 -9 -9 -34 -19 -56
-14 -29 -20 -35 -23 -22 -2 10 1 32 7 49 6 17 11 41 11 53 0 13 7 28 15 35 18
15 20 40 2 40 -15 0 -47 -67 -47 -98 0 -12 -5 -22 -11 -22 -11 0 -8 43 6 88 5
14 3 22 -4 22 -6 0 -13 -6 -15 -12 -35 -121 -61 -178 -80 -178 -14 0 10 101
35 152 33 65 35 78 14 78 -8 0 -15 -7 -15 -15 0 -8 -14 -27 -30 -42 -18 -16
-28 -33 -25 -41 10 -28 -35 -155 -50 -140 -4 3 5 32 20 63 37 82 26 90 -20 15
-23 -39 -41 -58 -43 -50 -3 8 -11 21 -19 28 -18 18 -17 51 2 58 21 8 19 24 -3
24 -11 0 -23 -10 -28 -21 -9 -20 -11 -18 -28 20 -11 22 -25 41 -32 41 -8 0
-19 9 -26 20 -13 21 -38 27 -38 10 0 -6 20 -30 45 -54 42 -41 56 -66 37 -66
-4 0 -7 -17 -7 -38 0 -24 -7 -46 -18 -56 -9 -10 -17 -23 -17 -29 0 -7 -9 -23
-20 -37 l-20 -25 -1 55 c-1 30 -2 75 -2 100 -1 25 -4 47 -8 50 -4 3 -10 33
-14 68 -6 55 -5 61 9 56 21 -8 20 5 -1 28 -36 40 -37 31 -18 -222 3 -30 7 -76
11 -103 3 -26 3 -58 0 -72 -13 -51 -85 -97 -100 -62 -3 8 -9 7 -20 -7 -9 -11
-22 -16 -31 -12 -22 8 -17 69 12 131 12 27 20 51 17 54 -6 6 -33 -31 -34 -46
0 -7 -3 -13 -7 -13 -5 0 -9 75 -10 168 -2 99 1 159 6 147 5 -11 6 -24 4 -28
-3 -4 1 -15 8 -23 7 -8 12 -47 13 -94 1 -48 5 -79 11 -77 18 6 4 277 -14 277
-10 0 -39 88 -46 144 -5 33 -3 46 4 41 16 -9 14 17 -3 41 -8 11 -17 38 -21 60
-4 21 -11 51 -17 66 -5 14 -8 34 -6 44 2 12 20 -4 59 -57 69 -90 104 -129 119
-129 13 0 -45 84 -102 147 -26 29 -38 52 -38 72 0 16 -3 38 -6 48 -8 23 55
-43 120 -127 97 -124 297 -352 304 -345 6 6 -70 106 -136 179 -84 92 -131 160
-138 197 l-7 34 44 -53 c24 -30 67 -80 94 -111 28 -32 75 -88 105 -124 30 -36
58 -63 62 -61 8 5 -26 51 -149 203 -46 55 -83 105 -83 111 0 5 -7 10 -15 10
-21 0 -75 78 -75 109 0 14 -10 46 -22 71 -30 64 -35 25 -8 -71 25 -92 26 -109
4 -88 -23 24 -68 229 -49 229 3 0 26 -5 50 -11z m-2081 -34 c5 -22 4 -26 -4
-15 -5 8 -10 24 -10 34 0 26 6 18 14 -19z m87 -61 c-6 -14 -16 -22 -21 -19
-14 9 -12 61 3 86 11 19 12 18 21 -11 6 -20 5 -39 -3 -56z m399 14 c0 -15 -4
-28 -9 -28 -8 0 -21 48 -21 79 1 30 30 -20 30 -51z m-857 -18 c76 -115 57
-138 -32 -39 -48 55 -53 63 -43 85 7 13 15 24 20 24 5 0 30 -32 55 -70z m665
29 c-6 -16 -12 -28 -14 -26 -8 7 8 67 17 62 4 -3 3 -19 -3 -36z m62 29 c0 -7
-4 -19 -9 -27 -11 -17 -23 1 -15 23 7 19 24 21 24 4z m-376 -78 c5 -26 1 -41
-14 -60 l-20 -25 0 38 c0 20 -4 37 -10 37 -14 0 -12 46 2 70 12 19 13 19 24
-3 7 -12 15 -38 18 -57z m433 43 c-3 -10 -5 -4 -5 12 0 17 2 24 5 18 2 -7 2
-21 0 -30z m1871 -26 c4 -68 -13 -76 -22 -11 -9 66 -8 76 7 72 7 -3 13 -27 15
-61z m-2048 13 c0 -13 -1 -13 -10 0 -5 8 -10 22 -10 30 0 13 1 13 10 0 5 -8
10 -22 10 -30z m-223 -12 c-3 -7 -5 -2 -5 12 0 14 2 19 5 13 2 -7 2 -19 0 -25z
m309 -15 c-3 -10 -8 -31 -12 -46 -5 -21 -9 -25 -15 -15 -12 19 -11 52 3 66 18
18 30 15 24 -5z m130 -9 c4 -16 1 -38 -9 -58 l-16 -31 0 58 c-1 59 14 77 25
31z m1393 -94 c0 -8 -13 10 -29 40 -16 30 -29 62 -29 70 0 8 13 -10 29 -40 16
-30 29 -62 29 -70z m-1729 79 c0 -11 -7 -34 -16 -50 -8 -17 -13 -36 -10 -42 3
-7 5 -6 5 3 1 8 11 21 22 29 21 13 22 12 16 -22 -3 -19 -1 -39 5 -45 9 -9 31
-151 45 -297 4 -38 7 -141 7 -227 1 -140 -1 -159 -17 -170 -19 -14 -38 -44
-59 -90 -12 -26 -62 -57 -74 -45 -3 3 6 21 20 40 14 19 26 41 26 50 0 10 16
34 35 56 34 37 43 72 26 99 -5 9 -16 -7 -35 -50 -18 -41 -30 -58 -35 -49 -9
14 -8 28 3 84 7 33 5 41 -19 64 -22 22 -28 25 -36 13 -5 -8 -9 -24 -10 -35 0
-16 -3 -14 -11 8 -15 42 -26 32 -33 -30 -3 -32 -10 -76 -15 -98 l-9 -40 4 42
c3 23 6 98 6 165 1 74 5 113 9 98 l8 -25 2 25 c1 14 2 27 2 30 0 3 -3 43 -7
90 l-6 85 20 -23 c20 -22 41 -23 41 0 0 5 7 26 17 45 13 29 14 36 3 43 -10 6
-11 12 -3 22 7 9 8 32 1 74 -9 62 1 114 22 114 5 0 10 11 10 25 0 29 20 66 32
59 4 -3 8 -14 8 -25z m-533 -16 c19 -21 41 -50 49 -64 12 -24 11 -30 -17 -68
-17 -22 -35 -38 -41 -35 -5 3 -22 23 -37 45 -26 36 -28 42 -19 86 12 60 16 73
23 73 4 0 22 -17 42 -37z m601 6 c-3 -8 -7 -3 -11 10 -4 17 -3 21 5 13 5 -5 8
-16 6 -23z m2315 -1 c28 -38 80 -138 72 -138 -17 0 -126 150 -119 162 10 15
23 8 47 -24z m-2464 -20 c-1 -37 -2 -39 -9 -18 -12 36 -12 60 0 60 6 0 10 -19
9 -42z m1868 -63 c-6 -16 -25 27 -31 70 l-7 40 21 -50 c11 -27 18 -54 17 -60z
m-1237 -67 c10 -37 15 -70 10 -73 -11 -7 -21 29 -54 200 -7 37 18 -37 44 -127z
m-269 98 c5 -6 9 -29 9 -52 0 -58 12 -61 34 -8 10 24 22 44 27 44 4 0 11 -22
15 -50 7 -54 28 -67 44 -27 7 17 9 18 9 5 1 -10 8 -18 16 -18 21 0 19 -33 -5
-63 -31 -40 -25 -64 8 -30 16 15 17 14 26 -22 6 -28 5 -46 -8 -72 -20 -42 -20
-49 -1 -33 20 17 23 13 29 -39 3 -28 0 -54 -9 -72 -8 -15 -15 -40 -15 -55 0
-22 3 -24 14 -15 12 10 15 6 21 -19 5 -24 10 -28 20 -20 21 17 26 -14 19 -116
-7 -89 -8 -94 -29 -94 -25 0 -38 20 -25 40 5 8 2 23 -7 37 -10 15 -13 34 -9
55 3 17 2 36 -3 42 -5 6 -11 20 -13 31 -4 18 -6 17 -18 -7 -15 -32 -40 -37
-40 -9 0 11 -4 23 -10 26 -13 8 -13 -24 1 -64 8 -24 8 -35 -1 -46 -16 -19 -30
-19 -30 1 0 26 -32 114 -41 114 -13 0 -11 -34 2 -47 6 -6 8 -16 4 -22 -10 -17
-57 21 -80 66 -19 36 -28 49 -50 76 -37 43 -66 87 -57 87 15 0 92 -71 92 -85
0 -16 39 -65 51 -65 5 0 9 5 9 11 0 11 -136 226 -157 247 -23 23 -31 45 -42
119 -17 110 -15 111 42 27 64 -97 129 -183 140 -183 16 -2 6 29 -18 55 -14 16
-36 45 -47 66 -12 21 -25 38 -30 38 -4 0 -8 5 -8 11 0 6 19 -6 42 -27 50 -45
66 -29 19 20 -17 18 -31 36 -31 40 0 15 32 -17 72 -72 21 -29 43 -50 49 -47
11 7 -7 44 -30 62 -9 7 -11 13 -5 13 6 0 19 -9 29 -20 19 -21 35 -26 35 -11 0
5 -20 33 -45 62 -46 54 -57 97 -38 146 7 17 8 17 11 -2 2 -11 8 -24 13 -29z
m119 10 c0 -19 -4 -38 -10 -41 -6 -4 -10 10 -10 34 0 23 5 41 10 41 6 0 10
-15 10 -34z m1950 -13 c18 -27 56 -71 83 -100 35 -36 44 -50 30 -47 -27 7 -72
55 -117 124 -33 49 -42 70 -33 70 2 0 19 -21 37 -47z m-2467 -3 c3 -11 1 -36
-3 -55 -7 -30 -6 -35 6 -31 10 4 14 -4 14 -29 0 -19 5 -35 10 -35 7 0 7 -6 1
-18 -5 -9 -7 -29 -4 -44 3 -14 1 -34 -4 -43 -9 -15 -13 -12 -31 20 -24 39 -28
61 -12 67 6 2 5 18 -1 43 -16 61 -10 145 11 145 4 0 10 -9 13 -20z m347 -6 c0
-8 -4 -12 -10 -9 -5 3 -10 13 -10 21 0 8 5 12 10 9 6 -3 10 -13 10 -21z m-466
-170 c7 -65 6 -68 -9 -47 -23 32 -57 112 -66 153 -4 19 -11 46 -14 60 -5 16 9
2 38 -36 40 -54 46 -69 51 -130z m405 113 c12 -15 12 -17 -1 -12 -14 6 -45 43
-62 75 -8 15 37 -30 63 -63z m2349 24 c23 -28 42 -59 42 -70 0 -11 5 -23 10
-26 6 -3 10 -11 10 -16 0 -13 -44 0 -49 14 -2 6 -15 22 -29 36 -23 23 -49 111
-33 111 3 0 25 -22 49 -49z m-2398 -16 c7 -9 8 -15 2 -15 -5 0 -12 7 -16 15
-3 8 -4 15 -2 15 2 0 9 -7 16 -15z m1627 -116 c17 -21 20 -120 3 -149 l-14
-25 -8 35 c-4 19 -12 76 -18 125 -5 50 -12 104 -15 120 -3 17 5 2 17 -31 13
-34 28 -68 35 -75z m-2117 112 c0 -17 -12 -41 -21 -41 -10 0 -12 33 -2 43 9
10 23 9 23 -2z m1055 -68 c-3 -12 -1 -25 5 -28 14 -9 12 -37 -4 -58 -12 -15
-15 -8 -28 57 -13 68 -13 76 1 91 14 14 16 13 24 -12 4 -16 5 -38 2 -50z
m-1155 12 c-18 -19 -35 -33 -38 -31 -2 2 9 23 24 45 19 29 30 39 38 31 7 -7 0
-21 -24 -45z m734 -14 c-6 -6 -53 50 -53 64 0 6 13 -5 29 -24 16 -19 27 -37
24 -40z m-839 -2 c8 -14 12 -29 9 -32 -4 -3 -7 -25 -8 -49 -1 -24 -3 -59 -5
-78 l-2 -35 -31 34 c-29 33 -30 36 -24 100 10 99 15 114 33 99 8 -6 21 -24 28
-39z m1393 -24 l0 -40 -13 43 c-15 45 -9 95 6 56 4 -10 7 -37 7 -59z m-1158
28 c0 -16 -26 -17 -35 -3 -4 6 -1 18 6 26 10 12 14 12 20 2 5 -7 9 -19 9 -25z
m-75 16 c4 -5 0 -18 -8 -27 -9 -9 -20 -29 -26 -45 -11 -29 -41 -37 -41 -11 0
28 43 94 61 94 4 0 11 -5 14 -11z m1199 -94 c5 -41 3 -55 -13 -75 l-20 -25
-11 30 c-13 34 -8 99 11 121 17 21 26 7 33 -51z m-1154 25 c20 -28 20 -30 3
-57 -10 -15 -23 -34 -30 -41 -7 -7 -13 -19 -13 -25 0 -8 -3 -8 -12 1 -8 8 -5
21 16 53 34 51 24 66 -13 20 -39 -47 -50 -23 -16 34 14 25 30 45 35 45 5 0 18
-13 30 -30z m2195 -117 c-4 -20 -1 -33 7 -35 9 -3 14 -40 17 -133 4 -144 -12
-167 -22 -33 -7 82 -20 210 -31 298 l-6 45 20 -55 c12 -33 18 -67 15 -87z
m-2363 95 c-7 -7 -12 -8 -12 -2 0 14 12 26 19 19 2 -3 -1 -11 -7 -17z m305
-85 c9 -21 17 -56 19 -78 2 -22 8 -96 14 -164 6 -68 9 -126 6 -128 -2 -2 -18
17 -35 43 -28 43 -31 54 -31 128 0 45 -4 97 -10 115 -13 47 -5 50 19 10 29
-48 26 -12 -4 47 -14 27 -25 62 -25 79 0 29 0 29 15 7 9 -12 23 -39 32 -59z
m-273 24 c-3 -9 -10 -17 -15 -17 -11 0 -12 34 -2 44 11 11 24 -9 17 -27z m323
-24 c-3 -10 -5 -2 -5 17 0 19 2 27 5 18 2 -10 2 -26 0 -35z m3998 19 c-3 -3
-11 0 -18 7 -9 10 -8 11 6 5 10 -3 15 -9 12 -12z m-4270 -62 c23 0 23 -24 1
-74 l-22 -50 -22 35 c-12 19 -27 41 -33 50 -9 12 -6 24 17 60 l28 44 9 -32 c6
-18 16 -33 22 -33z m3645 39 c63 -6 133 -10 154 -9 32 1 37 -2 28 -12 -8 -11
-6 -17 9 -26 21 -14 26 -61 7 -80 -8 -8 -8 -15 0 -25 9 -10 8 -18 -2 -32 -10
-14 -28 -18 -82 -20 -39 0 -72 3 -76 9 -5 7 -17 7 -39 -1 -18 -7 -34 -11 -36
-9 -3 2 10 20 26 39 35 39 38 47 16 47 -9 0 -30 -20 -47 -45 -18 -25 -38 -45
-45 -45 -21 0 -15 15 23 54 20 20 34 39 32 42 -11 10 -50 -14 -68 -41 -18 -27
-20 -28 -20 -9 0 12 7 27 15 34 8 7 15 20 15 28 0 13 -3 12 -15 -4 -11 -14
-15 -16 -15 -4 0 8 -7 24 -16 35 -14 19 -15 19 -20 -3 -4 -15 -14 -22 -30 -22
-13 0 -24 -4 -24 -10 0 -5 -6 -10 -14 -10 -17 0 -26 -21 -27 -63 -1 -31 -1
-31 -9 -7 -20 61 -7 101 32 106 12 1 26 3 31 3 4 1 7 6 7 11 0 6 -23 10 -52
10 -47 0 -50 1 -32 14 14 11 16 17 7 27 -6 6 -9 18 -6 27 7 16 5 16 273 -9z
m500 8 c0 -8 -16 -49 -36 -93 -35 -79 -35 -79 -30 -32 8 68 66 179 66 125z
m-4075 -37 c-4 -12 -9 -19 -12 -17 -3 3 -2 15 2 27 4 12 9 19 12 17 3 -3 2
-15 -2 -27z m4193 20 c1 -1 7 -3 14 -4 29 -3 36 -163 8 -189 -10 -10 -11 -3
-6 33 6 44 6 45 -12 24 -9 -12 -25 -36 -35 -54 -10 -18 -20 -30 -24 -26 -15
15 -22 123 -11 173 10 47 13 51 37 48 14 -1 27 -4 29 -5z m-4393 -83 c-3 -18
1 -54 9 -82 26 -82 16 -88 -31 -21 -36 51 -47 91 -38 140 l7 36 29 -21 c25
-18 29 -26 24 -52z m1102 11 c-2 -13 -4 -5 -4 17 -1 22 1 32 4 23 2 -10 2 -28
0 -40z m-1190 -5 c-3 -10 -5 -2 -5 17 0 19 2 27 5 18 2 -10 2 -26 0 -35z
m1243 1 c0 -14 -4 -23 -9 -20 -5 3 -7 15 -4 26 7 28 13 25 13 -6z m3124 -11
c-10 -46 -67 -159 -71 -142 -4 16 61 169 72 169 3 0 3 -12 -1 -27z m-4120 -69
c-13 -30 -18 -35 -21 -20 -3 10 3 37 14 60 14 33 19 37 21 19 2 -11 -5 -38
-14 -59z m-88 15 c19 -30 24 -50 20 -70 -6 -32 8 -39 23 -11 9 16 10 16 16 0
7 -16 -24 -108 -35 -108 -9 0 -31 53 -46 108 -14 51 -19 122 -9 122 3 0 16
-19 31 -41z m3547 -6 c-9 -25 -23 -42 -45 -54 -14 -7 -18 -6 -18 5 0 8 9 17
19 21 11 3 23 15 26 26 4 10 10 19 15 19 5 0 7 -8 3 -17z m-2884 -38 c0 -5 -4
-3 -9 5 -5 8 -9 22 -9 30 0 16 17 -16 18 -35z m-817 -52 c-9 -25 -10 -21 -10
32 0 55 1 57 10 28 7 -21 7 -40 0 -60z m1195 50 c-3 -10 -5 -4 -5 12 0 17 2
24 5 18 2 -7 2 -21 0 -30z m3043 27 c0 -5 -5 -10 -11 -10 -5 0 -7 5 -4 10 3 6
8 10 11 10 2 0 4 -4 4 -10z m102 -72 c-16 -35 -33 -73 -36 -85 -4 -13 -11 -23
-16 -23 -11 0 -1 28 41 116 17 36 34 63 36 60 3 -3 -8 -33 -25 -68z m-792 52
c0 -5 -12 -10 -26 -10 -14 0 -23 4 -19 10 3 6 15 10 26 10 10 0 19 -4 19 -10z
m-3424 -140 c3 -14 9 -33 15 -42 5 -10 9 -27 9 -37 0 -11 5 -23 10 -26 6 -3
10 1 10 10 0 27 25 11 28 -19 3 -19 8 -26 18 -22 21 8 36 -37 23 -71 -7 -18
-6 -30 1 -37 7 -7 10 -2 10 16 0 14 6 31 14 37 11 9 16 5 25 -18 7 -16 11 -44
9 -62 -2 -26 -8 -35 -25 -37 -13 -2 -23 -9 -23 -16 0 -20 90 -16 90 4 1 8 10
-3 21 -25 26 -53 44 -69 35 -33 -5 22 -3 26 9 22 19 -8 20 12 1 23 -14 8 -86
107 -86 118 0 3 -11 23 -25 43 -29 43 -31 68 -8 101 16 23 17 23 24 5 4 -10 8
-32 8 -47 1 -37 31 -127 42 -127 5 0 6 13 3 28 -4 19 -1 32 10 41 11 10 16 31
16 71 0 68 9 120 21 120 5 0 9 -5 9 -10 0 -6 14 -29 31 -53 31 -43 33 -59 19
-186 0 -2 -7 2 -14 9 -8 6 -25 10 -38 8 l-23 -3 23 -20 c26 -23 29 -69 7 -130
-8 -22 -15 -46 -15 -54 0 -20 -49 -81 -64 -81 -20 0 -52 70 -36 80 9 6 9 13 1
29 -13 24 -22 26 -38 10 -8 -8 -21 5 -48 47 -21 33 -41 61 -45 64 -9 6 -100
138 -100 145 0 3 -11 23 -25 45 -22 34 -25 51 -25 122 l1 83 44 -50 c25 -27
48 -61 51 -75z m734 95 c10 -26 4 -55 -11 -55 -5 0 -9 18 -9 40 0 46 6 51 20
15z m3666 -72 c-4 -12 -11 -23 -17 -23 -7 0 -8 7 -4 18 4 9 10 37 14 62 l6 45
3 -39 c2 -22 1 -50 -2 -63z m-4240 41 c23 -54 15 -63 -11 -14 -27 50 -30 65
-14 54 6 -3 17 -21 25 -40z m3765 18 c-9 -18 -41 -38 -41 -27 0 9 43 55 48 51
2 -2 -1 -13 -7 -24z m-754 -14 c-3 -7 -5 -2 -5 12 0 14 2 19 5 13 2 -7 2 -19
0 -25z m233 22 c-14 -4 -34 -8 -45 -8 l-20 -1 20 9 c11 5 31 8 45 8 l25 0 -25
-8z m460 -5 c0 -15 -38 -41 -47 -32 -2 3 0 15 7 26 12 24 40 28 40 6z m-180
-10 c0 -15 -38 -40 -47 -31 -7 7 26 46 39 46 4 0 8 -7 8 -15z m40 -10 c-7 -8
-17 -15 -23 -15 -5 0 -2 9 8 20 21 23 35 19 15 -5z m70 21 c0 -2 -7 -9 -15
-16 -13 -11 -14 -10 -9 4 5 14 24 23 24 12z m-250 -31 c-7 -8 -17 -15 -23 -15
-5 0 -2 9 8 20 21 23 35 19 15 -5z m56 9 c-3 -9 -6 -18 -6 -20 0 -2 -7 -4 -15
-4 -13 0 -14 4 -5 20 13 24 35 27 26 4z m-2920 -40 c1 -30 -11 -54 -27 -54 -5
0 -7 10 -5 23 3 12 5 33 5 45 1 34 26 21 27 -14z m2739 27 c-6 -5 -29 -11 -52
-13 -42 -3 -47 6 -8 15 36 9 69 7 60 -2z m-2645 -16 c0 -8 -4 -15 -8 -15 -4 0
-14 -15 -21 -32 -10 -24 -15 -28 -18 -16 -5 19 23 78 37 78 6 0 10 -7 10 -15z
m3055 -15 c-3 -5 -14 -10 -23 -10 -15 0 -15 2 -2 10 20 13 33 13 25 0z m-3684
-21 c8 -16 8 -32 -1 -65 -7 -24 -16 -44 -21 -44 -12 0 -21 56 -13 94 7 41 18
46 35 15z m2250 -10 c4 -13 7 -49 8 -80 1 -43 -4 -63 -20 -83 -27 -34 -39 -25
-39 28 0 30 6 48 20 61 24 22 29 75 5 55 -16 -13 -18 -8 -9 28 8 28 26 24 35
-9z m-91 -4 c0 -22 -4 -25 -40 -25 -23 0 -40 5 -40 11 0 7 -7 8 -17 4 -10 -4
-34 -9 -53 -12 -31 -3 -33 -2 -20 11 8 8 39 17 69 20 30 4 57 8 59 11 3 3 14
5 24 5 13 0 18 -7 18 -25z m27 -12 c-3 -10 -5 -4 -5 12 0 17 2 24 5 18 2 -7 2
-21 0 -30z m1773 27 c0 -5 -8 -10 -17 -10 -15 0 -16 2 -3 10 19 12 20 12 20 0z
m-4015 -38 c-5 -14 -7 -14 -15 -2 -5 9 -4 20 3 28 14 17 22 0 12 -26z m3398
-29 c-16 -13 -37 -8 -28 6 2 5 10 21 16 37 l12 29 8 -30 c7 -23 5 -33 -8 -42z
m92 21 c-42 -33 -55 -16 -14 18 22 18 35 24 38 16 2 -6 -9 -22 -24 -34z m86
29 c-16 -31 -52 -64 -62 -58 -13 9 17 63 38 68 32 8 34 7 24 -10z m530 -42
c-19 -35 -19 -41 -5 -49 12 -7 14 -19 8 -61 -7 -54 -28 -77 -45 -50 -14 23
-11 149 4 144 7 -3 20 12 32 36 10 23 21 37 23 31 2 -6 -6 -29 -17 -51z
m-3948 29 c-3 -12 -8 -19 -11 -16 -5 6 5 36 12 36 2 0 2 -9 -1 -20z m575 3 c2
-8 -5 -13 -17 -13 -12 0 -21 6 -21 16 0 18 31 15 38 -3z m322 7 c0 -5 -7 -10
-16 -10 -8 0 -12 5 -9 10 3 6 10 10 16 10 5 0 9 -4 9 -10z m2555 -20 c-10 -11
-20 -18 -23 -15 -3 3 3 14 13 25 10 11 20 18 23 15 3 -3 -3 -14 -13 -25z m85
20 c0 -16 -38 -50 -56 -50 -16 0 -12 12 14 43 16 19 42 23 42 7z m110 1 c0
-15 -49 -68 -50 -54 0 25 20 63 35 63 8 0 15 -4 15 -9z m84 -6 c7 -19 -3 -47
-15 -39 -12 7 -12 54 0 54 5 0 11 -7 15 -15z m-1889 -5 c-3 -5 -16 -10 -28 -9
-21 0 -21 1 -2 9 28 12 37 12 30 0z m1733 -10 c-7 -11 -16 -20 -21 -20 -4 0
-3 9 3 20 6 11 15 20 20 20 6 0 5 -9 -2 -20z m439 -79 c1 -91 0 -99 -18 -104
-29 -8 -33 13 -15 83 9 34 16 72 16 84 0 18 7 36 14 36 1 0 2 -45 3 -99z
m-3276 6 c-16 -16 -25 38 -9 65 13 22 13 22 16 -16 2 -21 -1 -43 -7 -49z
m1794 26 c-3 -32 -10 -71 -15 -88 -31 -99 -28 -95 -29 -46 -1 28 5 51 15 63
16 16 16 18 0 24 -19 7 -20 16 -5 67 6 21 16 37 25 37 12 0 13 -11 9 -57z
m1163 -60 c14 -11 14 -13 2 -11 -8 1 -40 -5 -71 -15 -36 -12 -79 -17 -120 -15
l-64 3 1 38 c1 21 4 40 7 44 3 3 26 6 51 7 39 1 43 -1 35 -16 -6 -10 -5 -19 1
-23 14 -8 30 3 30 21 0 9 11 14 30 14 17 0 30 5 30 12 0 6 10 23 23 36 l22 24
3 -53 c2 -35 9 -57 20 -66z m-3481 87 c-5 -31 -17 -36 -17 -7 0 15 4 27 10 27
5 0 9 -9 7 -20z m415 -52 c-2 -10 -8 -18 -13 -18 -5 0 -5 7 -2 17 4 11 3 14
-5 9 -7 -4 -12 -14 -12 -22 0 -8 -4 -14 -10 -14 -12 0 -12 2 0 35 5 14 15 23
20 20 6 -4 10 -3 9 2 -4 24 4 34 10 13 4 -14 5 -33 3 -42z m-52 37 c0 -1 -7
-18 -15 -36 -13 -31 -14 -32 -15 -9 -1 23 -2 24 -14 8 -19 -25 -26 -22 -26 11
0 23 5 30 23 33 20 4 47 0 47 -7z m300 1 c0 -22 -11 -46 -21 -46 -5 0 -9 14
-9 30 0 20 5 30 15 30 8 0 15 -6 15 -14z m50 -26 c0 -23 -4 -30 -20 -30 -24 0
-25 8 -4 38 20 29 24 28 24 -8z m45 20 c3 -5 16 -10 28 -11 18 -1 16 -2 -8
-10 -28 -8 -44 1 -45 24 0 10 18 9 25 -3z m1015 -16 c0 -28 -38 -114 -50 -114
-4 0 -10 18 -14 41 -5 29 -2 48 11 70 22 37 53 39 53 3z m30 17 c0 -6 -4 -13
-10 -16 -5 -3 -10 1 -10 9 0 9 5 16 10 16 6 0 10 -4 10 -9z m625 -51 c-24 -45
-29 -31 -8 21 11 27 19 38 21 27 2 -9 -4 -31 -13 -48z m1450 38 c-5 -13 -9
-44 -9 -70 -1 -39 -4 -48 -18 -48 -15 0 -18 10 -18 70 0 69 0 70 26 70 23 0
25 -3 19 -22z m33 -43 c-5 -33 -13 -64 -19 -69 -12 -13 -11 6 2 64 20 93 32
97 17 5z m-3700 0 c-3 -32 0 -56 5 -58 6 -2 7 -12 3 -23 -7 -18 -8 -18 -24 4
-14 18 -20 20 -30 10 -19 -19 -14 -38 12 -38 32 0 48 -22 41 -59 -4 -23 -1
-33 10 -37 23 -9 18 -24 -9 -24 -20 0 -23 4 -18 28 5 24 4 26 -11 13 -10 -7
-17 -21 -17 -30 0 -11 -5 -8 -14 9 -11 21 -11 29 1 48 18 30 13 35 -22 22 -22
-8 -25 -13 -15 -24 14 -18 -15 -36 -59 -36 -38 0 -40 13 -5 28 19 9 24 17 19
32 -4 14 -2 20 9 20 9 0 27 18 41 40 15 23 30 38 36 34 15 -9 29 15 29 52 0
28 6 44 18 44 2 0 2 -25 0 -55z m1350 44 c-18 -10 -25 -30 -10 -28 21 4 21 -5
0 -43 -39 -73 -60 -99 -74 -94 -7 3 -16 -4 -19 -15 -4 -10 -10 -17 -15 -14
-11 7 5 61 24 80 8 8 18 25 22 38 4 12 14 27 23 33 12 9 13 15 3 26 -16 19 -6
28 32 28 26 -1 28 -2 14 -11z m112 -12 c0 -13 -15 -44 -32 -68 l-33 -44 -3 39
c-5 55 14 96 44 96 19 0 24 -5 24 -23z m176 -19 c-3 -24 -9 -54 -12 -67 -6
-20 -4 -22 15 -16 24 7 25 4 10 -47 -8 -30 -15 -38 -34 -38 -22 0 -24 4 -27
71 -3 77 4 107 29 127 25 18 26 16 19 -30z m702 17 c-6 -14 -13 -23 -16 -21
-7 7 9 46 18 46 5 0 4 -11 -2 -25z m-2068 -10 c0 -16 -6 -25 -15 -25 -18 0
-18 5 -5 31 14 26 20 24 20 -6z m537 19 c-3 -3 -12 -4 -19 -1 -8 3 -5 6 6 6
11 1 17 -2 13 -5z m2135 -6 c26 -15 48 -34 48 -42 0 -11 -169 -6 -175 4 -13
21 17 42 52 35 20 -4 33 -2 33 5 0 13 15 13 42 -2z m-3608 -158 c12 -14 30
-36 39 -50 9 -14 46 -65 82 -114 l65 -90 -31 -13 c-29 -12 -32 -11 -57 19 -37
43 -94 121 -114 155 -9 15 -32 53 -51 84 -35 57 -50 112 -40 150 4 15 14 5 45
-48 22 -38 50 -79 62 -93z m1363 154 c-3 -3 -12 -4 -19 -1 -8 3 -5 6 6 6 11 1
17 -2 13 -5z m1584 -17 c-10 -9 -11 -8 -5 6 3 10 9 15 12 12 3 -3 0 -11 -7
-18z m-2471 -26 c0 -25 -7 -47 -21 -62 -18 -22 -20 -22 -15 -4 2 11 8 39 11
63 8 53 25 55 25 3z m894 23 c25 -10 19 -22 -9 -16 -14 2 -25 8 -25 13 0 10
12 11 34 3z m104 0 c34 -10 26 -24 -13 -24 -33 0 -43 8 -28 23 8 8 12 8 41 1z
m272 2 c0 -2 -7 -9 -15 -16 -12 -10 -15 -10 -15 4 0 9 7 16 15 16 8 0 15 -2
15 -4z m44 -11 c-4 -8 -10 -15 -15 -15 -4 0 -6 7 -3 15 4 8 10 15 15 15 4 0 6
-7 3 -15z m103 -7 c-19 -83 -33 -128 -39 -128 -5 0 -9 8 -9 18 -2 19 -5 43 -8
55 -3 16 -1 22 9 23 6 1 15 2 21 3 6 0 8 8 5 17 -7 18 0 34 16 34 6 0 8 -10 5
-22z m-257 -4 c0 -8 -5 -12 -10 -9 -6 4 -8 11 -5 16 9 14 15 11 15 -7z m60 12
c0 -3 -4 -8 -10 -11 -5 -3 -10 -1 -10 4 0 6 5 11 10 11 6 0 10 -2 10 -4z
m-100 -16 c0 -5 -11 -10 -25 -10 -14 0 -25 5 -25 10 0 6 11 10 25 10 14 0 25
-4 25 -10z m-360 -20 c0 -13 -5 -18 -15 -14 -16 7 -19 17 -8 27 12 13 23 7 23
-13z m-190 0 c0 -5 -4 -10 -10 -10 -5 0 -10 5 -10 10 0 6 5 10 10 10 6 0 10
-4 10 -10z m120 -6 c0 -11 -8 -14 -27 -12 -39 4 -42 28 -4 28 21 0 31 -5 31
-16z m140 1 c0 -8 -7 -15 -15 -15 -8 0 -15 7 -15 15 0 8 7 15 15 15 8 0 15 -7
15 -15z m821 -109 c-11 -13 -71 -10 -71 3 0 4 17 33 38 66 l37 60 3 -58 c2
-32 -2 -64 -7 -71z m558 80 c-9 -8 -10 -7 -5 7 3 10 7 24 7 30 1 7 3 4 6 -7 3
-10 -1 -23 -8 -30z m382 21 c-10 -9 -11 -8 -5 6 3 10 9 15 12 12 3 -3 0 -11
-7 -18z m-1701 -2 c-8 -15 -40 -13 -40 2 0 9 8 13 23 11 12 -2 20 -7 17 -13z
m2238 10 c95 -12 54 -20 -98 -20 -82 0 -150 3 -150 7 0 13 172 22 248 13z
m-2188 -15 c0 -5 -4 -10 -10 -10 -5 0 -10 5 -10 10 0 6 5 10 10 10 6 0 10 -4
10 -10z m60 -5 c0 -8 -9 -15 -20 -15 -11 0 -20 7 -20 15 0 8 9 15 20 15 11 0
20 -7 20 -15z m323 9 c-7 -3 -22 -21 -34 -40 -21 -34 -22 -35 -36 -15 -10 15
-11 26 -4 38 6 10 11 12 11 6 0 -18 20 -16 20 2 0 10 9 15 28 14 15 0 22 -3
15 -5z m237 -30 c0 -51 -15 -74 -50 -74 l-29 0 32 55 c18 30 35 55 40 55 4 0
7 -16 7 -36z m195 -18 c-8 -52 -34 -76 -55 -51 -9 11 -5 23 21 60 18 25 34 43
36 41 3 -2 1 -25 -2 -50z m185 5 c0 -35 -4 -51 -16 -55 -27 -10 -54 -7 -54 8
0 23 29 84 42 89 25 10 28 6 28 -42z m-1593 15 c-5 -14 -67 -21 -67 -7 0 15
30 29 52 23 10 -2 17 -10 15 -16z m775 -6 c-5 -30 -2 -27 -34 -35 -21 -5 -29
-2 -38 15 -16 30 4 52 44 48 27 -3 31 -6 28 -28z m96 23 c-23 -48 -33 -63 -44
-63 -20 0 -25 16 -14 44 7 19 17 26 35 26 15 0 25 -3 23 -7z m948 -35 c-19
-26 -22 -7 -4 25 7 13 13 17 15 10 3 -7 -3 -23 -11 -35z m234 15 c-5 -16 -13
-63 -18 -106 -8 -65 -15 -84 -38 -108 -22 -23 -36 -29 -71 -29 l-43 0 24 48
c14 27 36 59 50 73 14 13 26 30 26 37 0 14 62 111 72 111 3 1 2 -11 -2 -26z
m437 21 c-3 -3 -12 -4 -19 -1 -8 3 -5 6 6 6 11 1 17 -2 13 -5z m763 -21 c0
-20 -3 -24 -11 -16 -7 7 -9 19 -6 27 10 24 17 19 17 -11z m-3180 2 c0 -8 -9
-15 -20 -15 -20 0 -26 11 -13 23 12 13 33 7 33 -8z m94 9 c24 -9 20 -33 -4
-27 -11 3 -20 12 -20 19 0 16 2 16 24 8z m-44 -14 c0 -5 -5 -10 -11 -10 -5 0
-7 5 -4 10 3 6 8 10 11 10 2 0 4 -4 4 -10z m139 -19 c-3 -6 -10 -7 -18 -2 -7
5 -10 14 -6 21 9 14 29 -2 24 -19z m91 8 c0 -16 -5 -20 -27 -17 -17 2 -29 10
-31 21 -3 13 3 17 27 17 25 0 31 -4 31 -21z m100 -4 c0 -10 -10 -15 -30 -15
-20 0 -30 5 -30 15 0 10 10 15 30 15 20 0 30 -5 30 -15z m70 5 c0 -5 -9 -10
-21 -10 -11 0 -17 5 -14 10 3 6 13 10 21 10 8 0 14 -4 14 -10z m70 -4 c0 -14
-29 -31 -38 -22 -2 3 -2 12 1 21 8 19 37 20 37 1z m400 -16 c0 -23 -4 -30 -20
-30 -22 0 -25 12 -10 41 16 28 30 23 30 -11z m974 4 c-10 -39 -57 -120 -62
-106 -2 7 6 32 17 55 12 24 21 48 21 54 0 9 9 17 28 22 1 1 -1 -11 -4 -25z
m131 -11 c-9 -20 -18 -39 -20 -42 -10 -9 -5 41 5 60 19 34 31 20 15 -18z
m-221 -30 c-2 -31 -8 -61 -14 -67 -15 -15 -12 -36 5 -36 12 0 11 -5 -3 -30
-21 -36 -32 -38 -32 -5 0 14 -4 25 -10 25 -5 0 -12 -11 -16 -25 -4 -18 -13
-25 -31 -25 -20 0 -23 4 -18 23 6 20 5 21 -8 5 -15 -18 -57 -25 -57 -9 0 16
31 83 58 123 25 38 26 39 34 18 5 -13 4 -39 -3 -62 -11 -42 -6 -59 12 -41 11
11 54 106 66 146 11 35 20 15 17 -40z m-1186 24 c3 -13 -4 -17 -33 -17 l-37 0
23 20 c27 22 43 21 47 -3z m1453 -4 c-12 -20 -14 -14 -5 12 4 9 9 14 11 11 3
-2 0 -13 -6 -23z m59 19 c0 -5 -7 -17 -15 -28 -14 -18 -14 -17 -4 9 12 27 19
34 19 19z m-1320 -12 c0 -5 -4 -10 -10 -10 -5 0 -10 5 -10 10 0 6 5 10 10 10
6 0 10 -4 10 -10z m-940 -31 c-30 -30 -32 -31 -45 -13 -26 34 -17 44 37 44
l40 0 -32 -31z m120 21 c0 -5 -13 -10 -29 -10 -17 0 -33 5 -36 10 -4 6 8 10
29 10 20 0 36 -4 36 -10z m90 0 c0 -13 -11 -13 -30 0 -12 8 -11 10 8 10 12 0
22 -4 22 -10z m125 0 c4 -6 -7 -10 -24 -10 -17 0 -31 5 -31 10 0 6 11 10 24
10 14 0 28 -4 31 -10z m-1025 -275 c0 -3 -12 -10 -26 -16 -30 -11 -74 10 -74
37 0 8 -7 17 -15 20 -10 4 -13 13 -9 26 4 13 -1 26 -14 38 -11 11 -22 38 -26
67 -4 26 -9 62 -13 78 -4 20 25 -16 86 -108 50 -75 91 -140 91 -142z m1183
268 c-7 -2 -21 -2 -30 0 -10 3 -4 5 12 5 17 0 24 -2 18 -5z m1799 -11 c-7 -2
-12 -18 -12 -35 -1 -54 -36 -115 -107 -182 -70 -68 -82 -73 -126 -52 -34 15
-34 19 2 40 l30 17 3 -27 4 -28 13 26 c7 15 24 32 37 37 15 7 27 26 34 54 10
35 14 39 22 25 13 -24 28 -12 28 22 0 35 56 125 72 115 9 -6 9 -9 0 -12z
m-2585 -15 c-6 -20 -27 -19 -27 2 0 14 5 19 15 14 9 -3 14 -10 12 -16z m2473
1 c0 -7 -9 -28 -21 -47 -11 -19 -18 -43 -15 -54 2 -11 -2 -26 -10 -34 -12 -13
-14 -12 -15 4 -2 36 3 59 23 101 19 41 38 55 38 30z m-523 -30 c-3 -47 13 -49
36 -5 11 22 26 37 37 37 44 0 37 -46 -15 -105 -33 -38 -35 -39 -41 -17 -7 25
-19 29 -27 9 -3 -9 -16 -12 -35 -9 l-30 4 19 32 c10 17 19 37 19 45 0 11 26
39 37 41 1 0 1 -15 0 -32z m-1389 -24 c-2 -1 -15 0 -30 3 -34 6 -36 21 -5 32
17 7 24 4 30 -12 4 -11 6 -21 5 -23z m72 40 c0 -3 -5 -14 -10 -25 -15 -27 -37
-24 -42 6 -5 22 -2 25 23 25 16 0 29 -3 29 -6z m90 -26 c0 -26 -3 -29 -27 -26
-26 3 -30 9 -24 47 0 5 12 9 26 9 21 0 25 -5 25 -30z m72 7 c-8 -43 -45 -44
-50 -1 -3 25 -1 27 25 24 22 -2 27 -7 25 -23z m241 6 c-3 -10 -16 -21 -29 -24
-20 -3 -24 0 -24 19 0 20 5 24 29 24 24 0 28 -4 24 -19z m91 10 c6 -10 -10
-25 -36 -34 -14 -5 -18 -1 -18 18 0 20 5 25 24 25 14 0 27 -4 30 -9z m106 0
c0 -16 -30 -33 -46 -27 -13 5 -14 9 -4 21 13 16 50 21 50 6z m-756 -16 c-7
-17 -94 -22 -94 -6 0 13 19 19 62 20 29 1 36 -2 32 -14z m404 -7 c-2 -15 -10
-23 -23 -23 -13 0 -21 8 -23 23 -3 18 1 22 23 22 22 0 26 -4 23 -22z m79 -12
c-9 -23 -37 -20 -37 3 0 21 20 33 34 20 5 -4 6 -15 3 -23z m359 19 c-26 -19
-56 -19 -56 0 0 11 11 15 38 15 35 -1 36 -2 18 -15z m98 0 c-6 -16 -34 -21
-34 -7 0 13 11 22 26 22 8 0 11 -6 8 -15z m90 0 c-6 -16 -44 -21 -44 -7 0 14
12 22 31 22 12 0 16 -5 13 -15z m56 -5 c0 -11 -7 -20 -15 -20 -18 0 -19 12 -3
28 16 16 18 15 18 -8z m60 11 c0 -5 -7 -14 -15 -21 -13 -10 -15 -9 -15 9 0 12
6 21 15 21 8 0 15 -4 15 -9z m137 -20 c4 -31 -14 -61 -38 -61 -16 0 -18 5 -13
28 15 62 43 81 51 33z m34 -4 c-8 -8 -11 -7 -11 4 0 20 13 34 18 19 3 -7 -1
-17 -7 -23z m95 17 c-3 -9 -6 -18 -6 -20 0 -3 -4 -3 -10 1 -11 7 -2 35 12 35
6 0 7 -7 4 -16z m-216 -3 c0 -12 -20 -25 -27 -18 -7 7 6 27 18 27 5 0 9 -4 9
-9z m180 -36 c0 -45 0 -45 -35 -45 -34 0 -34 1 -24 27 12 31 37 63 51 63 4 0
8 -20 8 -45z m-2615 13 c-1 -13 -10 -40 -19 -60 -18 -41 -21 -68 -8 -68 7 0
33 68 48 127 4 15 29 7 61 -17 l21 -17 -23 -57 c-27 -67 -24 -63 -50 -68 -10
-1 -37 -12 -58 -23 -62 -32 -124 -152 -142 -275 -4 -25 -16 -76 -28 -115 -12
-38 -20 -78 -19 -88 2 -18 -82 -278 -100 -307 -5 -10 -7 6 -5 45 5 67 39 210
63 262 9 18 14 36 11 39 -10 10 -27 -6 -41 -39 -14 -30 -14 -27 -16 68 -3 136
-3 134 38 275 34 117 40 129 101 205 76 93 87 103 124 111 15 4 27 10 27 15 0
5 4 9 9 9 5 0 8 -10 6 -22z m2005 -18 c0 -5 -5 -10 -11 -10 -5 0 -7 5 -4 10 3
6 8 10 11 10 2 0 4 -4 4 -10z m110 0 c0 -5 -9 -10 -21 -10 -11 0 -17 5 -14 10
3 6 13 10 21 10 8 0 14 -4 14 -10z m204 4 c22 -8 8 -34 -19 -34 -29 0 -43 19
-24 31 17 10 23 11 43 3z m-1116 -21 c-4 -21 -30 -20 -99 1 l-44 14 73 1 c65
1 73 -1 70 -16z m137 7 c6 -1 -6 -6 -25 -11 -19 -4 -48 -11 -64 -15 -22 -5
-28 -4 -24 7 7 21 62 31 113 19z m565 0 c-19 -13 -30 -13 -30 0 0 6 10 10 23
10 18 0 19 -2 7 -10z m310 0 c0 -5 -10 -10 -22 -10 -19 0 -20 2 -8 10 19 13
30 13 30 0z m214 -4 c-3 -7 -16 -13 -29 -13 -16 0 -22 4 -18 13 3 8 16 14 29
14 16 0 22 -4 18 -14z m-1479 -17 c10 -14 1 -21 -19 -13 -9 3 -13 10 -10 15 7
12 21 11 29 -2z m105 -18 c0 -4 -13 -6 -30 -3 -16 2 -30 7 -30 11 0 4 14 6 30
3 17 -2 30 -7 30 -11z m443 12 c-7 -2 -21 -2 -30 0 -10 3 -4 5 12 5 17 0 24
-2 18 -5z m82 -3 c-3 -5 -15 -10 -25 -10 -10 0 -22 5 -25 10 -4 6 7 10 25 10
18 0 29 -4 25 -10z m-1443 -69 c-4 -9 1 -12 15 -7 20 6 35 -7 61 -51 14 -26
16 -63 3 -63 -5 0 -12 7 -15 16 -7 18 -26 9 -26 -13 0 -9 16 -35 35 -58 31
-38 33 -45 25 -76 -6 -19 -14 -41 -20 -49 -11 -17 -23 -5 -67 70 -14 25 -33
53 -42 64 -9 10 -16 28 -16 40 0 15 -5 20 -18 18 -15 -2 -17 2 -12 25 9 39 24
83 43 120 l16 32 12 -27 c6 -15 9 -33 6 -41z m1851 52 c-7 -2 -21 -2 -30 0
-10 3 -4 5 12 5 17 0 24 -2 18 -5z m110 0 c-7 -2 -21 -2 -30 0 -10 3 -4 5 12
5 17 0 24 -2 18 -5z m357 -13 c0 -5 -5 -10 -11 -10 -5 0 -7 5 -4 10 3 6 8 10
11 10 2 0 4 -4 4 -10z m225 0 c-3 -5 -12 -10 -18 -10 -7 0 -6 4 3 10 19 12 23
12 15 0z m-1749 -19 c26 -24 88 -120 82 -127 -4 -4 -49 50 -106 128 -17 24 -1
23 24 -1z m1657 12 c-7 -2 -19 -2 -25 0 -7 3 -2 5 12 5 14 0 19 -2 13 -5z
m-1533 -19 c0 -9 -5 -14 -12 -12 -18 6 -21 28 -4 28 9 0 16 -7 16 -16z m78 -4
c7 -11 11 -20 9 -20 -2 0 -12 9 -22 20 -10 11 -14 20 -9 20 5 0 15 -9 22 -20z
m-270 -37 c43 -46 112 -144 112 -159 0 -4 9 -27 21 -51 37 -76 14 -69 -48 15
-34 45 -64 79 -67 74 -5 -8 75 -131 114 -177 30 -35 53 -116 43 -152 -6 -25
-23 -31 -23 -9 0 8 -14 51 -31 95 -26 69 -41 91 -99 148 -37 38 -69 74 -71 81
-5 15 -99 26 -99 11 0 -6 -7 -18 -16 -26 -13 -14 -19 -14 -36 -4 -17 11 -20
11 -15 -1 3 -7 8 -20 12 -30 4 -10 -4 -28 -24 -50 -29 -32 -30 -33 -48 -14
-13 13 -15 20 -6 23 7 3 23 13 35 23 17 13 20 22 12 30 -15 15 -44 1 -55 -27
-11 -30 -26 -21 -60 34 l-22 36 22 16 c17 13 19 19 9 29 -8 8 -8 12 -1 12 6 0
13 -6 16 -12 3 -10 8 -10 21 1 15 12 20 11 46 -14 l29 -28 -6 36 c-5 32 -3 37
14 37 10 0 25 -6 32 -12 11 -11 11 -9 0 9 -12 20 -11 25 11 49 14 15 39 33 55
40 53 24 75 17 123 -33z m419 -40 c19 -41 32 -77 29 -80 -3 -3 -11 7 -18 23
-7 16 -27 52 -45 81 -38 59 -39 65 -17 56 9 -3 32 -39 51 -80z m563 77 c0 -5
-2 -10 -4 -10 -3 0 -8 5 -11 10 -3 6 -1 10 4 10 6 0 11 -4 11 -10z m-839 -22
c11 -21 11 -22 -4 -9 -10 7 -17 17 -17 22 0 15 9 10 21 -13z m95 -2 c3 -13 1
-33 -5 -44 -6 -12 -11 -32 -11 -46 0 -35 -20 -33 -21 2 -1 15 -2 36 -3 47 -1
25 14 65 25 65 5 0 11 -11 15 -24z m1604 4 c0 -5 -12 -10 -27 -9 l-28 1 25 8
c14 4 26 8 28 9 1 1 2 -3 2 -9z m193 1 c17 -6 18 -8 3 -20 -12 -10 -36 -12
-85 -9 -72 5 -95 13 -86 29 7 11 141 11 168 0z m156 0 c27 -17 -5 -40 -47 -34
-62 8 -68 12 -46 28 21 16 72 19 93 6z m-1723 -69 c23 -56 8 -49 -22 9 -19 38
-22 50 -10 40 10 -8 24 -30 32 -49z m339 48 c-3 -5 -13 -10 -21 -10 -8 0 -12
5 -9 10 3 6 13 10 21 10 8 0 12 -4 9 -10z m715 -9 c0 -5 -9 -7 -20 -4 -11 3
-20 7 -20 9 0 2 9 4 20 4 11 0 20 -4 20 -9z m133 2 c-13 -2 -35 -2 -50 0 -16
2 -5 4 22 4 28 0 40 -2 28 -4z m-1305 -115 c58 -151 89 -237 102 -286 15 -58
31 -92 41 -87 4 3 1 26 -6 53 -8 26 -21 76 -31 112 -9 36 -25 91 -36 122 -25
78 -24 102 3 61 12 -18 24 -33 29 -33 4 0 13 -13 20 -30 7 -16 19 -35 27 -42
13 -10 14 -6 7 28 -3 21 -10 46 -14 54 -8 17 -3 40 9 40 10 0 37 -62 50 -115
6 -22 18 -49 26 -60 16 -19 16 -18 11 17 -3 28 0 40 16 54 11 10 26 33 33 51
17 39 40 43 49 8 5 -18 -1 -40 -21 -75 -15 -27 -24 -53 -19 -57 5 -4 13 1 20
11 6 10 21 31 33 45 34 40 29 3 -7 -50 -16 -24 -25 -45 -20 -47 12 -4 30 13
55 51 17 26 19 27 28 10 6 -10 15 -21 21 -25 8 -6 8 -8 0 -8 -17 0 -26 -43
-11 -52 14 -8 47 24 47 47 0 23 17 18 25 -7 7 -20 9 -18 14 17 l6 39 13 -27
c6 -15 12 -36 12 -46 0 -10 12 -28 27 -42 23 -21 25 -22 18 -4 -15 41 -17 54
-7 71 9 17 12 16 22 -11 7 -17 19 -46 28 -65 14 -31 16 -33 20 -12 2 12 -4 36
-12 54 -9 17 -16 45 -15 62 0 17 3 25 6 19 9 -25 22 -13 25 25 4 48 18 47 37
-3 18 -50 19 -51 32 -38 6 6 3 25 -11 57 -31 73 -24 78 15 9 30 -55 33 -66 23
-88 -13 -29 -1 -49 13 -22 6 9 14 15 20 12 15 -10 10 -48 -13 -85 -11 -19 -29
-48 -38 -65 -49 -85 -89 -143 -123 -177 -21 -21 -40 -38 -42 -38 -2 0 -5 12
-7 27 -5 41 -28 41 -28 0 0 -21 -6 -37 -15 -40 -11 -5 -15 8 -17 70 -2 50 -7
78 -15 81 -10 3 -13 -19 -13 -87 0 -81 9 -117 24 -92 3 5 15 7 26 4 23 -6 25
-29 6 -88 -13 -39 -13 -40 -23 -15 -6 14 -13 34 -16 45 -2 11 -5 1 -6 -22 -1
-44 -8 -52 -28 -32 -8 8 -10 34 -6 75 4 45 2 64 -6 64 -6 0 -11 -17 -11 -43 0
-24 -7 -52 -15 -63 -13 -17 -14 -15 -16 36 l-2 55 -6 -42 c-4 -23 -12 -47 -18
-55 -6 -7 -13 -31 -15 -53 l-3 -40 -19 28 c-10 15 -22 53 -25 85 -6 48 -8 53
-15 32 -5 -13 -10 -45 -11 -70 -3 -61 -4 -62 -14 -56 -5 3 -6 56 -3 117 4 83
2 110 -7 105 -6 -4 -11 -22 -11 -41 0 -19 -4 -37 -10 -40 -6 -4 -10 5 -10 19
0 14 -4 26 -9 26 -11 0 -20 -69 -20 -154 0 -63 -3 -72 -20 -61 -7 4 -11 54
-11 133 0 126 -7 161 -29 148 -6 -4 -11 -2 -11 5 0 7 -16 -2 -35 -21 -43 -42
-45 -56 -5 -35 44 23 40 -4 -5 -44 -42 -37 -55 -39 -48 -8 5 20 2 19 -29 -10
-34 -33 -58 -42 -58 -22 0 5 22 34 48 62 58 63 97 117 84 117 -6 0 -40 -33
-77 -72 -43 -47 -65 -65 -61 -50 3 12 9 32 13 45 6 22 6 22 -15 3 l-22 -19 0
74 c0 41 10 112 21 159 11 47 22 101 25 120 5 35 5 35 -9 10 -8 -14 -17 -42
-21 -62 -4 -21 -12 -38 -18 -38 -6 0 -8 13 -4 36 5 22 3 41 -5 50 -12 14 -8
103 6 137 4 10 3 17 -4 17 -6 0 -17 -12 -23 -27 l-11 -28 -7 25 c-12 38 -11
60 2 58 6 -2 15 15 20 37 5 22 13 44 18 49 4 4 6 15 3 24 -12 29 14 3 27 -28
7 -16 16 -30 21 -30 12 0 11 57 -1 65 -5 3 -10 11 -10 16 0 28 22 -11 58 -103z
m176 104 c2 -4 1 -14 -4 -22 -7 -11 -11 -11 -24 -1 -9 8 -16 17 -16 22 0 11
37 12 44 1z m101 -2 c9 -14 -27 -60 -42 -55 -8 2 -13 -4 -13 -15 0 -24 -18
-36 -33 -21 -13 13 21 88 43 95 27 7 39 6 45 -4z m95 -2 c0 -7 -11 -26 -24
-43 l-25 -30 -9 25 c-7 19 -6 29 6 43 17 20 52 23 52 5z m83 -4 c11 -4 3 -22
-36 -80 -28 -41 -55 -74 -59 -74 -5 0 -13 11 -18 25 -8 21 -5 33 15 65 22 35
60 70 76 70 4 0 14 -3 22 -6z m141 -10 c9 -8 16 -23 16 -32 0 -13 -5 -11 -20
8 -29 37 -26 55 4 24z m110 -3 c8 -13 -4 -42 -15 -35 -12 7 -12 44 0 44 6 0
12 -4 15 -9z m166 -10 c0 -18 -18 -21 -30 -6 -10 13 -9 15 9 15 11 0 21 -4 21
-9z m80 -16 c0 -8 -4 -16 -9 -19 -12 -8 -34 21 -27 33 9 14 36 2 36 -14z m95
-4 c0 -31 -17 -37 -33 -11 -15 24 -7 42 16 38 10 -2 17 -13 17 -27z m-2301
-43 c-108 -153 -117 -159 -56 -38 23 47 46 80 62 87 13 7 26 10 28 8 2 -2 -13
-27 -34 -57z m1766 51 c0 -13 -82 -129 -109 -153 -17 -15 -21 -16 -21 -5 0 14
18 43 87 137 24 32 43 42 43 21z m65 -19 c17 -33 18 -40 7 -40 -9 0 -32 44
-32 60 0 18 9 10 25 -20z m549 22 c8 -13 -11 -35 -23 -28 -16 10 -14 36 3 36
8 0 17 -4 20 -8z m69 -23 c-4 -13 -9 -17 -16 -10 -12 12 -1 45 12 37 5 -3 7
-15 4 -27z m127 11 c0 -5 -7 -7 -15 -4 -8 4 -12 10 -9 15 6 11 24 2 24 -11z
m256 -2 c48 -55 49 -58 16 -58 -24 0 -35 7 -51 34 -12 18 -21 36 -21 40 0 15
38 4 56 -16z m180 -29 l38 -39 -41 0 c-23 0 -45 5 -48 10 -4 6 -15 8 -25 5
-12 -4 -29 6 -54 31 -20 20 -36 37 -36 38 0 0 29 0 64 -2 59 -3 66 -6 102 -43z
m-2696 6 c0 -5 -5 -3 -10 5 -5 8 -10 20 -10 25 0 6 5 3 10 -5 5 -8 10 -19 10
-25z m1240 9 c8 -20 6 -33 -7 -55 -16 -27 -19 -28 -30 -12 -17 22 -16 39 3 68
20 31 22 31 34 -1z m463 14 c2 -7 0 -20 -4 -28 -4 -8 -10 -23 -13 -33 -3 -10
-11 -15 -17 -12 -8 5 -8 10 0 18 6 6 11 24 11 39 0 28 15 38 23 16z m514 -14
c7 -15 10 -31 7 -36 -8 -12 -54 31 -54 49 0 23 35 14 47 -13z m158 18 c-5 -4
-15 -16 -21 -26 -15 -28 -34 -31 -34 -7 0 13 9 25 23 31 28 11 46 13 32 2z
m403 -16 c3 -3 -1 -13 -8 -21 -12 -14 -15 -13 -37 6 -12 13 -23 26 -23 30 0 8
58 -6 68 -15z m-1009 -12 c3 -16 1 -17 -13 -5 -19 16 -21 34 -3 29 6 -3 14
-13 16 -24z m77 9 c7 -10 14 -26 14 -35 0 -11 8 -18 19 -18 10 0 26 -11 35
-25 9 -14 24 -25 34 -25 14 1 12 5 -9 24 -38 33 -51 60 -37 74 14 14 48 -12
48 -37 0 -9 10 -21 23 -26 12 -6 31 -29 42 -52 11 -23 26 -44 33 -47 20 -9 14
36 -9 60 -12 12 -18 27 -14 33 11 19 25 12 38 -16 7 -16 25 -49 40 -75 l29
-48 -46 -61 c-46 -61 -60 -93 -30 -68 9 7 29 32 45 56 17 24 34 43 39 43 6 0
17 -16 25 -37 14 -32 14 -38 0 -53 -23 -26 -19 -41 9 -30 25 9 46 -3 46 -26 0
-19 -35 -26 -95 -19 -59 8 -105 1 -105 -15 0 -7 39 -8 109 -4 104 6 108 5 114
-15 3 -12 10 -21 17 -21 17 0 2 58 -21 81 -26 26 -17 37 32 37 39 1 42 -1 60
-44 26 -58 42 -57 22 2 -8 25 -12 48 -9 51 3 4 -4 17 -16 30 -24 26 -20 36 17
36 27 0 30 4 15 27 -9 13 -11 13 -20 0 -13 -20 -38 -4 -64 39 -17 29 -17 34
-3 48 14 14 17 12 36 -26 12 -22 26 -41 31 -41 14 0 13 5 -11 57 -20 44 -20
73 1 73 5 0 10 -4 10 -10 0 -5 5 -10 10 -10 6 0 8 10 4 24 -4 16 -1 25 10 29
11 5 22 -6 38 -36 20 -38 23 -40 26 -18 2 13 12 26 23 28 10 3 19 10 19 15 0
5 4 7 8 4 5 -3 7 -19 6 -37 -1 -18 4 -39 12 -46 8 -8 14 -22 14 -31 0 -9 9
-28 20 -42 11 -14 20 -33 20 -42 0 -9 4 -19 9 -22 5 -3 12 -22 16 -42 3 -20
10 -44 15 -53 5 -9 11 -24 14 -33 3 -10 10 -18 16 -18 14 0 5 36 -32 129 -19
47 -26 76 -19 80 6 4 1 28 -15 66 -40 94 -40 92 -6 87 22 -3 35 -14 51 -43 12
-21 26 -39 32 -39 12 0 11 10 -6 40 -16 29 -18 40 -7 40 5 0 19 -18 31 -40
l23 -41 -20 -33 c-11 -18 -27 -45 -37 -59 -13 -21 -14 -27 -4 -27 8 0 28 24
46 53 26 42 33 49 39 34 4 -13 -2 -27 -20 -46 -14 -15 -26 -33 -26 -40 0 -15
71 59 97 102 10 15 21 27 25 27 4 0 8 -12 8 -27 l1 -28 29 34 c27 32 50 35 50
5 0 -8 5 -14 11 -14 7 0 8 11 4 31 -7 31 -7 31 29 27 41 -5 44 3 16 39 -23 30
-25 43 -6 43 8 0 23 -19 34 -42 64 -138 75 -158 83 -158 13 0 13 1 -26 89 -19
43 -35 84 -35 90 0 22 59 10 106 -21 43 -29 49 -39 60 -88 27 -116 49 -190 58
-190 4 0 6 10 3 23 -20 81 -20 97 0 97 31 0 62 -33 79 -83 8 -25 26 -56 38
-69 13 -13 26 -35 30 -50 3 -16 11 -28 16 -28 12 0 13 16 1 57 l-9 32 56 -21
c75 -28 122 -38 122 -26 0 5 5 6 10 3 17 -10 11 -23 -12 -27 -12 -2 -23 -9
-26 -15 -3 -10 16 -13 70 -14 40 -1 61 -4 46 -6 -14 -2 -32 -11 -39 -19 -11
-14 -5 -15 52 -13 35 2 68 8 72 14 6 7 10 6 14 -2 3 -8 11 -10 21 -5 19 9 25
9 107 -2 164 -21 258 -26 320 -17 49 7 47 13 -9 26 -19 4 -25 10 -19 16 16 16
89 -4 85 -23 -3 -21 17 -33 31 -19 8 8 7 11 -3 11 -7 0 -10 3 -6 7 4 4 39 8
79 10 l72 3 17 -58 c9 -31 19 -73 22 -93 4 -34 2 -37 -20 -35 -29 1 -29 4 -7
28 13 15 14 21 4 31 -8 7 -15 8 -17 2 -24 -59 -25 -60 -109 -57 -44 2 -81 5
-83 7 -2 2 2 12 10 24 9 15 10 23 1 32 -8 8 -13 2 -21 -20 -8 -24 -17 -31 -36
-31 -26 0 -36 23 -16 35 13 8 13 25 0 25 -6 0 -15 -11 -20 -24 -5 -13 -14 -27
-20 -31 -14 -9 -28 4 -15 13 13 9 18 42 8 43 -40 7 -193 6 -193 -1 0 -5 27
-10 61 -12 l61 -3 -21 -26 c-11 -15 -18 -29 -14 -32 10 -11 -25 -37 -51 -37
-26 0 -36 23 -16 35 12 7 14 35 3 35 -5 0 -19 -16 -31 -36 -33 -51 -49 -31
-23 29 l20 47 -57 1 c-91 2 -123 1 -136 -4 -7 -3 -52 -71 -101 -151 -48 -80
-89 -146 -91 -146 -13 0 10 57 49 126 66 117 90 175 79 186 -12 12 -42 -39
-42 -71 0 -11 -5 -23 -10 -26 -6 -4 -22 -29 -35 -56 -14 -27 -28 -49 -31 -49
-4 0 -4 31 -1 68 5 68 -4 111 -16 78 -4 -9 -4 -22 -1 -30 3 -8 1 -17 -5 -21
-7 -4 -11 10 -11 41 0 40 -2 45 -15 34 -8 -7 -15 -24 -16 -39 -1 -22 -2 -21
-11 11 -6 22 -17 38 -29 41 -17 5 -19 0 -19 -41 0 -33 -3 -43 -10 -32 -5 8 -7
40 -4 72 4 45 2 58 -8 58 -11 0 -14 -34 -16 -166 -1 -92 -6 -172 -10 -179 -4
-6 -23 -30 -42 -52 l-35 -41 -1 102 c-1 55 -2 147 -3 204 -1 87 -3 102 -17
102 -15 0 -16 -14 -11 -122 12 -243 7 -336 -19 -355 -25 -19 -34 -7 -34 46 0
40 4 50 23 59 l22 11 -22 0 c-29 1 -31 15 -32 156 0 66 0 130 -1 143 0 13 -6
22 -16 22 -14 0 -15 -13 -9 -107 3 -59 9 -111 12 -116 9 -15 -7 -56 -20 -51
-13 5 -37 127 -37 185 0 14 -7 34 -16 45 -14 17 -15 11 -9 -81 3 -55 7 -109 8
-119 1 -10 -3 -20 -8 -22 -18 -7 -86 162 -87 217 -1 27 -6 49 -11 49 -5 0 -7
-14 -5 -30 3 -17 1 -33 -4 -36 -4 -3 -8 2 -8 10 0 9 -4 16 -10 16 -13 0 -13
-1 5 -43 8 -20 15 -45 15 -56 0 -14 -5 -19 -15 -15 -11 4 -15 -1 -15 -17 0
-29 -16 -56 -27 -46 -4 5 -8 43 -8 85 0 70 -6 91 -27 92 -5 0 -8 -15 -8 -32
-1 -31 -1 -32 -15 -14 -17 23 -31 15 -20 -11 5 -10 7 -26 6 -36 -1 -9 4 -20
12 -23 23 -9 42 -90 28 -120 -6 -14 -15 -23 -20 -19 -15 9 -39 93 -51 180 -6
44 -13 90 -16 103 -5 27 -24 20 -24 -9 0 -11 -7 -22 -15 -25 -8 -4 -15 -12
-15 -19 0 -7 -9 -23 -19 -36 l-19 -24 -7 27 c-4 15 -4 31 -1 37 4 6 -8 17 -25
26 -30 16 -31 19 -27 70 5 54 -2 56 -28 10 -6 -11 -19 -20 -28 -19 -9 0 -51 1
-95 2 l-79 2 -7 38 c-8 45 -33 107 -40 100 -3 -3 1 -35 9 -72 l14 -67 -36 3
c-34 3 -37 6 -52 57 -8 30 -21 56 -28 59 -14 4 -16 -10 -3 -23 6 -6 13 -29 17
-52 l7 -43 -42 0 c-37 0 -41 2 -41 25 0 30 -22 33 -41 6 -14 -20 -40 -25 -122
-23 -27 1 -46 6 -42 11 10 17 -11 21 -31 6 -10 -8 -40 -15 -67 -15 -46 0 -47
1 -41 25 3 14 2 25 -4 25 -5 0 -17 -11 -26 -25 -16 -25 -40 -33 -50 -16 -3 4
8 29 24 55 17 26 30 52 30 59 -1 15 -44 -36 -72 -86 -13 -22 -28 -36 -38 -35
-19 4 -26 64 -9 84 14 17 12 19 -18 28 -21 7 -23 4 -23 -32 0 -50 -34 -99 -57
-81 -10 9 -17 10 -21 2 -9 -14 -37 -21 -40 -10 -2 7 26 56 38 67 6 5 91 142
138 221 21 35 21 76 -1 91 -7 4 -6 17 3 37 15 36 5 55 -15 28 -11 -16 -14 -13
-23 24 -11 42 -7 69 9 69 5 0 9 7 9 16 0 21 16 9 50 -37 30 -42 52 -37 25 5
-14 21 -14 24 0 29 8 4 15 15 15 25 0 34 16 41 36 15z m604 -4 c0 -6 -7 -17
-15 -26 -12 -12 -19 -13 -30 -3 -20 17 -19 23 8 36 24 11 37 9 37 -7z m-1466
-5 c3 -8 2 -12 -4 -9 -6 3 -10 10 -10 16 0 14 7 11 14 -7z m504 -19 c7 -14 12
-31 12 -37 0 -6 6 -19 14 -27 19 -21 31 -71 17 -71 -5 0 -16 18 -22 40 -7 22
-15 40 -18 40 -3 0 -17 -16 -30 -35 -25 -37 -41 -45 -41 -20 0 8 -4 15 -10 15
-5 0 -7 -14 -4 -32 4 -25 3 -29 -5 -18 -20 29 -12 71 25 121 20 27 39 49 43
49 4 0 13 -11 19 -25z m535 11 c6 -15 -1 -26 -15 -26 -4 0 -8 9 -8 20 0 23 15
27 23 6z m-1243 -17 c0 -11 -4 -17 -10 -14 -5 3 -10 13 -10 21 0 8 5 14 10 14
6 0 10 -9 10 -21z m820 -23 c0 -6 -7 -2 -15 8 -8 11 -15 25 -15 30 0 6 7 2 15
-8 8 -11 15 -25 15 -30z m490 23 c0 -5 -4 -9 -10 -9 -5 0 -10 7 -10 16 0 8 5
12 10 9 6 -3 10 -10 10 -16z m780 11 c5 0 8 -9 7 -20 -2 -27 -43 -27 -50 -1
-6 24 2 34 21 26 7 -3 17 -5 22 -5z m-3096 -22 c-7 -26 -151 -319 -189 -388
-14 -25 -25 -52 -25 -60 -1 -12 -3 -11 -11 3 -6 10 -8 30 -4 45 4 15 9 62 11
106 2 61 8 85 26 111 14 21 25 30 30 23 5 -9 11 -8 22 1 19 16 19 18 1 -43 -8
-27 -13 -51 -11 -53 2 -2 20 28 40 67 20 38 49 92 65 119 16 26 32 58 36 69 3
12 9 22 11 22 3 0 2 -10 -2 -22z m2406 -23 c15 -24 19 -39 12 -51 -7 -13 -12
-10 -25 19 -16 33 -22 67 -13 67 2 0 14 -16 26 -35z m-996 -11 c4 -15 2 -32
-5 -41 -19 -22 -44 29 -29 57 13 25 26 19 34 -16z m1116 4 c0 -5 -4 -8 -10 -8
-5 0 -10 10 -10 23 0 18 2 19 10 7 5 -8 10 -18 10 -22z m500 22 c0 -5 -7 -10
-15 -10 -8 0 -15 5 -15 10 0 6 7 10 15 10 8 0 15 -4 15 -10z m-1226 -22 c12
-17 13 -25 4 -36 -10 -12 -14 -11 -25 4 -15 21 -17 54 -4 54 6 0 17 -10 25
-22z m571 -44 c9 -19 14 -43 10 -52 -5 -13 -12 -6 -31 31 -14 26 -22 52 -19
58 9 14 21 4 40 -37z m573 31 c2 -2 -3 -13 -11 -25 l-15 -22 -17 32 -17 33 29
-7 c15 -4 30 -9 31 -11z m-2922 -48 c-10 -18 -45 -84 -78 -147 -33 -63 -64
-119 -69 -125 -12 -12 -12 -45 1 -45 6 0 10 3 10 8 0 4 23 45 50 92 61 104 68
77 9 -36 -23 -44 -46 -83 -50 -89 -11 -11 -12 -65 -1 -65 4 0 19 27 34 60 14
33 31 60 37 60 16 0 13 -19 -9 -68 -26 -58 -40 -111 -30 -117 12 -8 25 14 50
87 19 54 26 65 37 57 20 -17 16 -33 -32 -125 -25 -46 -45 -94 -45 -104 0 -35
26 -21 39 20 6 21 16 42 21 45 17 10 11 -30 -11 -79 -20 -46 -20 -84 1 -71 5
3 10 2 10 -4 0 -14 -65 -152 -82 -175 -14 -18 -16 -16 -26 27 -7 25 -9 53 -6
61 4 9 0 18 -9 22 -8 3 -22 29 -32 59 -15 49 -15 56 -1 84 17 32 21 71 8 71
-4 0 -14 -17 -22 -37 l-14 -38 -6 35 c-3 19 0 52 7 73 13 41 3 49 -21 15 -15
-22 -16 -22 -16 -2 0 11 4 24 9 30 5 5 14 27 21 49 12 39 57 129 135 265 20
36 46 86 58 112 14 30 25 43 32 37 6 -7 4 -21 -9 -42z m2471 19 c-4 -9 -11
-16 -17 -16 -11 0 -14 33 -3 44 11 10 26 -11 20 -28z m-2027 11 c25 -20 81
-108 75 -118 -4 -5 1 -9 9 -9 9 0 16 -4 16 -9 0 -10 50 -45 56 -39 2 2 -8 21
-22 41 -23 34 -24 38 -7 44 10 3 28 15 40 26 19 16 25 18 38 7 8 -7 15 -17 15
-22 0 -5 24 -36 53 -69 28 -33 51 -67 49 -76 -2 -8 -13 -31 -25 -49 -22 -33
-37 -43 -37 -24 0 5 -9 14 -19 19 -16 9 -18 8 -14 -9 3 -11 11 -24 18 -30 11
-9 10 -18 -8 -48 -12 -20 -25 -38 -29 -40 -4 -2 -8 -14 -8 -27 0 -38 -21 -75
-42 -75 -17 0 -19 -5 -13 -30 10 -48 -33 -105 -49 -64 -9 23 66 204 84 204 18
0 11 20 -15 44 -14 13 -25 31 -25 40 0 9 -7 16 -15 16 -8 0 -17 10 -20 23 -4
13 -19 31 -36 41 -16 9 -29 24 -29 32 0 8 -4 14 -9 14 -15 0 -21 31 -10 52 14
25 1 38 -15 16 -7 -10 -16 -15 -19 -11 -4 3 -7 -5 -7 -19 0 -22 -17 -86 -26
-97 -2 -2 -14 10 -28 25 -31 36 -35 95 -8 122 10 10 19 26 19 34 0 26 25 78
37 78 6 0 18 -6 26 -13z m2504 -36 c-19 -31 -44 -42 -44 -18 0 7 10 25 22 40
29 36 46 19 22 -22z m77 26 c-13 -13 -26 -3 -16 12 3 6 11 8 17 5 6 -4 6 -10
-1 -17z m-3130 -14 c-5 -10 -17 -27 -26 -38 -16 -19 -17 -19 -3 5 26 46 29 50
34 50 3 0 0 -8 -5 -17z m803 -8 c-7 -17 -7 -17 -28 -9 -24 9 -19 24 9 24 18 0
23 -4 19 -15z m82 -12 c-7 -7 -26 7 -26 19 0 6 6 6 15 -2 9 -7 13 -15 11 -17z
m192 2 c-3 -3 -9 2 -12 12 -6 14 -5 15 5 6 7 -7 10 -15 7 -18z m736 -21 c4
-15 2 -32 -6 -41 -11 -14 -14 -12 -24 13 -8 20 -9 33 -1 45 14 22 23 17 31
-17z m1675 1 c11 -19 17 -35 12 -35 -12 0 -27 21 -35 48 -10 32 -1 27 23 -13z
m-3189 -36 l0 -62 -20 26 c-20 25 -20 27 -3 61 9 20 18 36 20 36 2 0 3 -28 3
-61z m564 29 c10 -11 16 -22 12 -25 -9 -10 -77 8 -70 18 4 6 11 6 20 -2 11 -9
14 -8 14 5 0 9 -7 16 -15 16 -8 0 -15 4 -15 10 0 13 31 0 54 -22z m1669 -5
c-4 -10 -9 -11 -16 -4 -5 5 -7 18 -3 28 6 14 9 15 16 4 4 -8 6 -21 3 -28z
m-2405 0 c-16 -39 -32 -54 -23 -23 7 24 23 50 31 50 2 0 -2 -12 -8 -27z m1562
11 c0 -8 -5 -12 -10 -9 -6 4 -8 11 -5 16 9 14 15 11 15 -7z m-1470 -84 c-22
-53 -40 -31 -40 47 l0 45 26 -31 c24 -29 25 -34 14 -61z m700 69 c0 -6 -4 -7
-10 -4 -5 3 -10 11 -10 16 0 6 5 7 10 4 6 -3 10 -11 10 -16z m3520 -4 c-13
-14 -25 -23 -27 -21 -8 7 10 35 25 39 10 3 19 5 21 6 3 0 -6 -10 -19 -24z
m-220 6 c0 -13 -39 -25 -75 -23 -68 3 -101 4 -110 2 -20 -5 -36 0 -31 9 3 4
33 9 68 10 34 1 64 3 66 6 9 9 82 5 82 -4z m45 -1 c3 -6 -4 -10 -17 -10 -18 0
-20 2 -8 10 19 12 18 12 25 0z m-707 -25 c-3 -3 -9 2 -12 12 -6 14 -5 15 5 6
7 -7 10 -15 7 -18z m-2458 -9 c0 -14 -4 -28 -10 -31 -6 -4 -10 7 -10 24 0 17
5 31 10 31 6 0 10 -11 10 -24z m1414 -16 c17 -38 46 -59 31 -22 -12 29 -11 47
3 47 15 0 58 -92 49 -102 -4 -3 -25 -8 -47 -10 -39 -4 -40 -4 -46 36 -4 23
-10 38 -15 36 -12 -8 -21 13 -14 35 9 30 19 25 39 -20z m2088 13 c-5 -10 -7
-23 -5 -30 2 -6 0 -14 -4 -16 -11 -7 -11 34 0 51 12 18 19 14 9 -5z m-4468
-37 c-3 -15 -8 -25 -11 -23 -2 3 -1 17 3 31 3 15 8 25 11 23 2 -3 1 -17 -3
-31z m776 24 c0 -5 -9 -10 -21 -10 -11 0 -17 5 -14 10 3 6 13 10 21 10 8 0 14
-4 14 -10z m3174 -70 c-33 -33 -67 -60 -77 -60 -16 0 -15 5 9 35 14 19 33 35
40 35 8 0 28 13 46 29 56 50 44 25 -18 -39z m-3144 50 c0 -5 -5 -10 -11 -10
-5 0 -7 5 -4 10 3 6 8 10 11 10 2 0 4 -4 4 -10z m2744 -1 c0 -2 -5 -12 -10
-22 -10 -17 -11 -17 -32 2 -16 13 -19 20 -10 24 14 5 53 2 52 -4z m487 -17
c-11 -16 -28 -35 -38 -43 -16 -12 -17 -12 -7 1 5 8 18 27 27 43 10 15 22 27
28 27 6 0 1 -13 -10 -28z m54 18 c-3 -5 -11 -10 -16 -10 -6 0 -7 5 -4 10 3 6
11 10 16 10 6 0 7 -4 4 -10z m16 -27 c-11 -21 -31 -51 -45 -67 -14 -16 -26
-33 -26 -38 0 -4 -9 -8 -20 -8 -28 0 -25 14 6 30 17 9 24 20 21 32 -3 10 0 18
8 18 7 0 23 16 36 35 32 46 44 45 20 -2z m388 -39 c-24 -31 -57 -70 -73 -88
l-30 -31 18 30 c38 61 121 166 124 156 2 -6 -16 -36 -39 -67z m-4350 43 c26
-29 35 -96 24 -186 l-8 -65 -29 38 -29 38 21 51 c12 28 20 53 17 55 -2 3 -14
-17 -26 -44 l-21 -49 -15 42 c-13 39 -13 45 8 92 12 28 25 51 28 51 4 0 17
-11 30 -23z m3683 -17 c-12 -16 -22 -34 -22 -40 0 -5 -4 -10 -10 -10 -5 0 -10
5 -10 11 0 15 52 81 58 74 3 -3 -4 -19 -16 -35z m58 15 c-7 -9 -15 -13 -18
-10 -3 2 1 11 8 20 7 9 15 13 18 10 3 -2 -1 -11 -8 -20z m260 -30 c-12 -19
-26 -35 -31 -35 -11 0 8 50 29 73 25 28 27 2 2 -38z m-3380 41 c0 -3 -4 -8
-10 -11 -5 -3 -10 -1 -10 4 0 6 5 11 10 11 6 0 10 -2 10 -4z m40 -20 c0 -15
-18 -31 -26 -23 -7 7 7 37 17 37 5 0 9 -6 9 -14z m2930 11 c0 -2 -14 -16 -32
-33 l-31 -29 22 33 c18 26 41 42 41 29z m46 -22 c-8 -9 -22 -26 -31 -37 -8
-12 -17 -20 -19 -17 -3 3 8 22 25 43 17 20 34 35 36 32 3 -3 -2 -12 -11 -21z
m418 -10 c-9 -14 -19 -24 -21 -21 -6 6 20 46 30 46 4 0 0 -11 -9 -25z m-4183
-18 c-8 -8 -11 -7 -11 4 0 20 13 34 18 19 3 -7 -1 -17 -7 -23z m425 11 c4 -12
17 -30 30 -41 l23 -18 -21 -42 c-12 -23 -23 -44 -25 -46 -1 -2 -12 4 -23 14
-11 10 -23 15 -28 11 -4 -5 3 -15 16 -23 30 -21 28 -40 -15 -125 -21 -40 -42
-87 -48 -104 -9 -28 -13 -31 -32 -23 -13 5 -23 16 -23 26 0 23 27 63 42 63 10
0 58 50 58 60 -1 3 -7 16 -14 29 -15 27 -7 77 18 116 20 31 21 49 1 41 -20 -7
-20 27 1 59 20 31 31 31 40 3z m3854 -18 c-6 -11 -13 -20 -16 -20 -2 0 0 9 6
20 6 11 13 20 16 20 2 0 0 -9 -6 -20z m-3310 -27 c0 -7 -7 -13 -15 -13 -16 0
-19 9 -9 35 5 13 8 14 15 3 5 -7 9 -19 9 -25z m2538 1 c-4 -3 -12 5 -18 18
-12 22 -12 22 6 6 10 -10 15 -20 12 -24z m-3568 -14 c-16 -31 -23 -18 -8 15 7
15 14 23 16 17 2 -6 -2 -21 -8 -32z m399 -6 c1 -11 9 -26 17 -35 13 -14 12
-18 -1 -29 -8 -7 -15 -19 -15 -26 0 -22 -19 -16 -45 14 -28 31 -30 45 -14 91
11 30 13 31 33 18 11 -8 23 -23 25 -33z m3619 26 c-7 -11 -16 -20 -20 -20 -5
0 -3 9 4 20 7 11 16 20 20 20 5 0 3 -9 -4 -20z m-3771 -22 c-3 -7 -5 -2 -5 12
0 14 2 19 5 13 2 -7 2 -19 0 -25z m-200 -15 c-3 -10 -5 -4 -5 12 0 17 2 24 5
18 2 -7 2 -21 0 -30z m4553 3 c0 -7 -9 -16 -20 -19 -11 -3 -20 -1 -20 4 0 5 7
9 16 9 8 0 12 5 9 10 -3 6 -1 10 4 10 6 0 11 -6 11 -14z m-3547 -32 c-4 -10
-9 -12 -15 -6 -12 12 -1 35 12 27 5 -3 6 -13 3 -21z m3357 12 c0 -2 -7 -9 -15
-16 -13 -11 -14 -10 -9 4 5 14 24 23 24 12z m-3412 -43 c5 -21 10 -63 12 -93
1 -30 3 -62 3 -70 0 -8 -3 -25 -7 -37 -5 -17 -3 -23 7 -23 19 0 26 -36 17 -91
-5 -30 -8 -35 -9 -16 0 15 -6 27 -12 27 -8 0 -9 -13 -5 -41 5 -28 2 -44 -8
-54 -8 -8 -17 -20 -19 -27 -4 -9 -10 -8 -21 6 -18 23 -22 131 -6 141 6 4 8 27
6 53 -3 26 -8 71 -11 99 -5 45 -3 52 10 47 18 -7 20 9 4 37 -13 25 -2 79 16
79 8 0 18 -17 23 -37z m-438 18 c0 -5 -4 -22 -10 -36 -14 -37 -32 -22 -18 15
9 28 28 42 28 21z m-489 -32 c-5 -13 -10 -19 -10 -12 -1 15 10 45 15 40 3 -2
0 -15 -5 -28z m3802 24 c-7 -2 -21 -2 -30 0 -10 3 -4 5 12 5 17 0 24 -2 18 -5z
m201 1 c21 -8 21 -34 -1 -34 -9 0 -46 6 -82 12 l-66 13 65 6 c36 3 66 6 67 7
1 1 8 -1 17 -4z m-3815 -46 c-11 -59 -19 -79 -31 -72 -15 10 13 114 30 114 6
0 6 -18 1 -42z m351 -10 c0 -20 -32 -68 -40 -63 -14 8 -12 49 2 80 11 25 13
26 25 9 7 -10 13 -22 13 -26z m3578 31 c-2 -6 -7 -10 -11 -10 -4 1 -23 1 -42
1 -19 0 -35 5 -35 10 0 6 21 10 46 10 28 0 44 -4 42 -11z m554 -11 c-2 -10 2
-18 8 -18 5 0 10 6 10 14 0 9 16 14 56 15 65 1 80 -5 63 -25 -10 -12 -8 -16
10 -21 25 -6 41 -39 41 -84 0 -24 -4 -29 -24 -29 -16 0 -27 7 -31 21 -4 13
-12 18 -22 15 -8 -3 -24 -1 -36 5 -17 10 -24 8 -40 -12 -22 -28 -32 -17 -42
46 -4 22 -13 53 -20 68 -13 27 -13 28 8 25 15 -2 21 -9 19 -20z m-4388 -17
l28 -30 -20 -43 c-12 -24 -24 -56 -28 -71 -3 -15 -11 -26 -18 -24 -19 6 -36
51 -31 82 11 58 28 115 34 115 4 0 20 -13 35 -29z m382 3 c-4 -9 -9 -15 -11
-12 -3 3 -3 13 1 22 4 9 9 15 11 12 3 -3 3 -13 -1 -22z m3538 7 c4 -5 -3 -7
-14 -4 -23 6 -26 13 -6 13 8 0 17 -4 20 -9z m-4035 -263 c0 -82 -2 -148 -4
-148 -12 0 -116 154 -111 165 3 8 1 17 -5 20 -5 4 -6 11 -3 17 11 17 12 101 1
124 -7 16 -5 28 8 47 l17 26 48 -52 49 -52 0 -147z m475 217 c-6 -16 -24 -21
-24 -7 0 11 11 22 21 22 5 0 6 -7 3 -15z m-194 -7 c-1 -25 -37 -81 -44 -69
-13 20 14 81 35 81 5 0 9 -6 9 -12z m280 -8 c0 -11 -4 -20 -9 -20 -5 0 -7 9
-4 20 3 11 7 20 9 20 2 0 4 -9 4 -20z m-1066 -55 c-8 -59 -63 -235 -73 -235
-5 0 -12 11 -15 25 -8 33 73 282 86 263 4 -7 6 -31 2 -53z m676 51 c0 -8 -4
-18 -10 -21 -5 -3 -10 3 -10 14 0 12 5 21 10 21 6 0 10 -6 10 -14z m-383 -48
c-3 -7 -5 -2 -5 12 0 14 2 19 5 13 2 -7 2 -19 0 -25z m522 -22 c-14 -39 -21
-43 -37 -23 -8 10 -6 22 9 46 27 45 47 29 28 -23z m116 -3 c-9 -15 -13 -19
-10 -8 4 11 10 29 13 40 3 11 7 14 9 8 3 -7 -3 -24 -12 -40z m1495 -8 c-1 -5
-7 -18 -14 -28 -13 -16 -14 -16 -21 5 -7 21 -8 20 -12 -9 -4 -31 -7 -33 -44
-33 -43 0 -48 10 -27 54 10 23 16 26 65 23 29 -1 53 -6 53 -12z m200 10 c0 -3
-7 -17 -16 -30 -15 -23 -15 -25 0 -25 9 0 16 -5 16 -11 0 -6 -7 -8 -16 -5 -9
3 -24 6 -34 6 -10 0 -20 9 -23 21 -7 25 -27 16 -27 -12 0 -13 -7 -19 -22 -19
-21 0 -21 0 -2 22 10 12 26 29 34 39 14 16 90 27 90 14z m120 -4 c0 -5 3 -23
6 -40 6 -27 4 -31 -15 -31 -11 0 -21 4 -21 10 0 5 -13 7 -29 4 -24 -5 -29 -2
-35 20 -4 15 -4 31 -1 36 8 12 95 13 95 1z m351 -1 c17 0 10 -58 -8 -64 -12
-5 -14 -9 -5 -18 7 -7 12 -15 12 -18 0 -9 -36 -50 -43 -50 -12 0 -25 58 -15
68 7 7 5 18 -6 33 -20 29 -21 53 -1 46 8 -4 17 -2 21 4 3 6 13 8 21 5 8 -3 19
-6 24 -6z m1224 -40 c-12 -26 -25 -40 -37 -40 -22 0 -22 3 -3 40 14 28 45 53
54 44 2 -2 -4 -22 -14 -44z m-3598 8 c-3 -7 -5 -2 -5 12 0 14 2 19 5 13 2 -7
2 -19 0 -25z m1357 -40 c-4 -40 -7 -74 -8 -75 0 -1 -13 1 -28 4 -26 5 -28 9
-28 55 0 62 13 88 45 88 25 0 25 -1 19 -72z m103 36 c-11 -35 -47 -61 -68 -48
-9 5 -13 67 -4 76 3 2 23 5 44 6 l39 2 -11 -36z m73 -4 c-25 -50 -50 -53 -50
-7 0 41 5 47 42 47 l28 0 -20 -40z m225 20 c-10 -11 -22 -20 -27 -20 -4 0 -3
9 4 20 7 11 19 20 27 20 11 0 10 -5 -4 -20z m325 13 c-1 -5 -7 -19 -15 -33
l-14 -25 -1 33 c0 22 5 32 15 32 8 0 15 -3 15 -7z m190 -33 c0 -31 -27 -49
-37 -24 -7 20 14 67 27 59 6 -3 10 -19 10 -35z m1210 36 c0 -20 -25 -66 -36
-66 -8 0 -14 2 -14 5 0 14 32 65 40 65 6 0 10 -2 10 -4z m70 -3 c-1 -14 -58
-78 -65 -72 -11 12 28 79 47 79 10 0 18 -3 18 -7z m-2737 -25 c-3 -13 -18 -33
-34 -46 -26 -21 -29 -21 -29 -6 0 17 47 74 60 74 4 0 5 -10 3 -22z m1347 13
c0 -5 3 -16 6 -24 3 -8 -2 -17 -10 -20 -10 -4 -18 4 -25 24 -9 26 -8 29 10 29
10 0 19 -4 19 -9z m-891 -66 c0 -16 -3 -36 -8 -44 -13 -20 -24 41 -15 82 6 28
8 29 15 12 4 -11 8 -33 8 -50z m2551 61 c0 -3 -4 -8 -10 -11 -5 -3 -10 -1 -10
4 0 6 5 11 10 11 6 0 10 -2 10 -4z m-4546 -101 c-13 -42 -24 -84 -24 -93 0
-24 -29 -64 -30 -41 0 15 53 180 65 199 14 23 11 6 -11 -65z m774 27 c-7 -18
-19 -32 -27 -32 -12 0 -12 -3 -3 -12 7 -7 12 -20 12 -31 0 -10 5 -15 10 -12 6
3 10 16 10 28 0 12 8 31 16 42 15 19 16 19 29 2 11 -16 11 -25 -3 -62 -8 -24
-23 -53 -32 -65 -14 -19 -19 -20 -31 -8 -8 8 -22 17 -31 21 -10 3 -18 16 -18
27 0 30 27 90 41 90 6 0 8 7 5 16 -7 19 13 49 25 37 5 -5 3 -23 -3 -41z m192
27 c0 -11 -4 -18 -10 -14 -5 3 -7 12 -3 20 7 21 13 19 13 -6z m3552 -11 c-28
-28 -49 -19 -22 10 12 12 26 20 32 16 6 -4 2 -14 -10 -26z m-3893 -43 c42 -46
43 -49 37 -96 -9 -63 4 -86 18 -35 l11 37 33 -29 c35 -32 40 -42 17 -42 -8 0
-15 5 -15 10 0 16 -30 12 -36 -5 -4 -10 -14 -13 -31 -9 -21 6 -24 3 -21 -12 2
-11 12 -23 23 -28 23 -10 55 -101 55 -153 0 -40 -6 -41 -32 -7 -27 33 -32 25
-17 -24 7 -24 19 -42 30 -45 13 -4 18 -13 17 -29 -2 -15 2 -22 11 -20 19 4 50
-27 66 -65 8 -18 20 -33 27 -33 7 0 40 -30 73 -66 64 -70 107 -88 61 -25 -29
39 -26 73 7 105 18 17 18 20 4 31 -42 30 58 50 101 19 12 -8 22 -11 22 -5 0 5
-4 13 -10 16 -18 11 -11 37 17 62 l26 25 18 -23 c26 -33 24 -55 -10 -119 -38
-71 -51 -79 -86 -52 -27 22 -55 29 -55 15 1 -19 17 -31 44 -35 41 -4 42 -18 4
-62 -32 -36 -36 -37 -98 -38 -81 -2 -180 38 -180 71 0 12 5 21 10 21 6 0 10
17 10 38 -1 33 -2 35 -14 19 -8 -10 -12 -27 -9 -37 4 -15 0 -20 -16 -20 -11 0
-21 5 -21 12 0 7 -11 28 -24 47 -24 34 -33 67 -35 119 -1 13 -5 21 -10 17 -6
-3 -13 11 -17 32 -4 21 -13 52 -20 70 -10 23 -11 32 -2 35 8 3 3 20 -14 51
-31 55 -52 147 -45 193 3 19 1 36 -4 39 -10 7 -12 55 -3 79 8 21 30 9 83 -49z
m2641 29 c0 -23 -1 -24 -16 -9 -9 8 -13 22 -10 31 8 22 26 7 26 -22z m1304 12
c-6 -16 -24 -23 -24 -8 0 10 22 33 27 28 2 -2 1 -11 -3 -20z m636 2 c0 -19 -2
-20 -10 -8 -13 19 -13 30 0 30 6 0 10 -10 10 -22z m-4309 -48 l-10 -25 0 27
c-1 14 2 35 6 45 7 17 8 17 11 -2 1 -12 -2 -32 -7 -45z m3747 48 c-3 -7 -14
-14 -26 -16 -16 -3 -20 1 -16 12 7 19 48 22 42 4z m482 2 c0 -5 -7 -10 -16
-10 -8 0 -12 5 -9 10 3 6 10 10 16 10 5 0 9 -4 9 -10z m-3681 -30 c-13 -16
-25 -28 -27 -25 -7 7 27 55 39 55 5 0 0 -13 -12 -30z m57 -38 c-20 -25 -39
-56 -42 -69 -9 -35 -24 -27 -24 13 0 21 4 33 10 29 6 -3 10 1 10 9 0 9 7 16
15 16 8 0 15 4 15 9 0 5 10 21 23 35 37 42 31 8 -7 -42z m1384 58 c0 -5 -2
-10 -4 -10 -3 0 -8 5 -11 10 -3 6 -1 10 4 10 6 0 11 -4 11 -10z m1810 0 c-19
-13 -30 -13 -30 0 0 6 10 10 23 10 18 0 19 -2 7 -10z m70 1 c0 -11 -39 -21
-45 -11 -2 4 -2 10 2 14 10 9 43 7 43 -3z m-2230 -46 c0 -38 -3 -45 -19 -45
-32 0 -34 75 -2 83 9 3 17 5 19 6 1 0 2 -19 2 -44z m110 16 c0 -25 -29 -61
-49 -61 -20 0 -32 29 -24 59 8 33 73 34 73 2z m120 24 c0 -12 -40 -84 -50 -90
-19 -12 -50 6 -50 28 0 37 24 62 64 64 20 2 36 1 36 -2z m66 -11 c-3 -9 -6
-27 -6 -40 0 -31 -17 -31 -32 1 -8 19 -8 28 2 40 17 20 44 20 36 -1z m158 1
c-4 -8 -10 -15 -15 -15 -5 0 -9 7 -9 15 0 8 7 15 15 15 9 0 12 -6 9 -15z
m-2939 -35 c-8 -17 -46 -155 -56 -205 l-12 -60 -13 38 c-12 33 -11 43 1 67 8
15 24 63 36 107 12 43 24 82 27 87 5 9 22 -24 17 -34z m2152 12 c-21 -22 -34
-27 -57 -24 -62 9 -18 39 74 51 6 0 -2 -12 -17 -27z m73 14 c0 -8 3 -21 6 -30
5 -13 -1 -16 -30 -16 l-37 0 18 30 c18 31 43 40 43 16z m90 7 c0 -5 -11 -21
-24 -38 -28 -35 -48 -26 -39 18 4 22 11 27 34 27 16 0 29 -3 29 -7z m110 -10
c0 -42 -13 -63 -36 -63 -29 0 -30 4 -3 46 23 37 39 44 39 17z m670 -9 c0 -8 7
-14 16 -14 16 0 14 -13 -11 -73 -12 -29 -12 -29 -18 -6 -11 39 -8 121 3 114 6
-3 10 -13 10 -21z m725 16 c3 -5 1 -10 -4 -10 -6 0 -11 5 -11 10 0 6 2 10 4
10 3 0 8 -4 11 -10z m102 -22 c-3 -7 -5 -2 -5 12 0 14 2 19 5 13 2 -7 2 -19 0
-25z m183 26 c0 -3 -14 -32 -31 -64 -36 -68 -83 -127 -91 -114 -8 12 94 183
110 183 6 1 12 -2 12 -5z m29 -53 c-12 -28 -25 -51 -29 -51 -4 0 -12 -10 -18
-22 -6 -13 -11 -17 -11 -10 -1 7 9 32 20 55 49 96 76 116 38 28z m-914 -27 c3
-17 1 -42 -3 -55 -9 -22 -11 -21 -37 30 -23 46 -25 58 -15 80 l12 25 18 -24
c10 -14 21 -39 25 -56z m996 39 c-10 -21 -28 -46 -40 -57 -18 -17 -21 -17 -27
-3 -10 27 36 97 63 97 l23 0 -19 -37z m49 -14 c-22 -42 -46 -54 -34 -16 11 34
35 67 45 61 5 -3 0 -23 -11 -45z m-3378 11 c-2 -16 -6 -30 -8 -30 -2 0 -4 14
-4 30 0 17 4 30 8 30 5 0 7 -13 4 -30z m1453 1 c-3 -12 -13 -21 -21 -21 -9 0
-12 5 -8 13 23 40 41 46 29 8z m2031 19 c12 0 12 -4 -2 -25 -9 -14 -22 -24
-28 -22 -6 2 -19 0 -28 -5 -13 -6 -18 -5 -18 4 0 24 31 60 47 54 8 -3 21 -6
29 -6z m-1507 -45 c0 -5 -4 -3 -9 5 -5 8 -9 22 -9 30 0 16 17 -16 18 -35z m41
14 c0 -11 -4 -17 -10 -14 -5 3 -10 15 -10 26 0 11 5 17 10 14 6 -3 10 -15 10
-26z m62 -4 c4 -20 3 -23 -8 -14 -16 13 -19 39 -5 39 5 0 11 -11 13 -25z
m1456 5 c-7 -11 -19 -20 -27 -20 -11 0 -10 5 4 20 10 11 22 20 27 20 4 0 3 -9
-4 -20z m652 10 c0 -5 -5 -10 -11 -10 -5 0 -7 5 -4 10 3 6 8 10 11 10 2 0 4
-4 4 -10z m-2027 -20 c3 -11 1 -20 -4 -20 -5 0 -9 9 -9 20 0 11 2 20 4 20 2 0
6 -9 9 -20z m874 -17 c-3 -10 -5 -4 -5 12 0 17 2 24 5 18 2 -7 2 -21 0 -30z
m547 22 c-4 -8 -11 -15 -16 -15 -6 0 -5 6 2 15 7 8 14 15 16 15 2 0 1 -7 -2
-15z m84 3 c-3 -7 -17 -14 -31 -16 -21 -3 -26 0 -21 12 7 19 58 22 52 4z m52
-3 c-7 -8 -17 -15 -22 -15 -6 0 -5 7 2 15 7 8 17 15 22 15 6 0 5 -7 -2 -15z
m100 5 c0 -15 -26 -30 -52 -30 -26 0 -37 17 -22 33 8 8 74 6 74 -3z m170 -10
c0 -24 -43 -28 -66 -6 -16 17 -5 24 39 25 21 1 27 -4 27 -19z m100 11 c0 -5
-7 -11 -15 -15 -9 -3 -15 0 -15 9 0 8 7 15 15 15 8 0 15 -4 15 -9z m49 -12
c-16 -10 -23 -4 -14 10 3 6 11 8 17 5 6 -4 5 -9 -3 -15z m135 -6 c-8 -35 -24
-54 -24 -29 0 18 17 56 26 56 2 0 1 -12 -2 -27z m-4735 -151 c-20 -63 -79
-176 -107 -205 -39 -41 -172 -117 -205 -117 -20 0 -40 11 -63 34 -39 39 -42
65 -18 145 11 38 12 57 5 64 -6 6 -11 9 -12 6 0 -2 -2 -15 -5 -29 -2 -14 -9
-42 -15 -62 l-12 -38 -19 22 c-24 28 -33 67 -19 81 6 6 11 27 11 47 1 19 7 53
15 75 8 22 15 50 15 62 0 12 5 34 10 49 l11 28 23 -46 c19 -37 22 -54 16 -91
-6 -39 -4 -46 12 -50 11 -3 18 -14 18 -30 0 -13 7 -30 15 -37 9 -7 13 -16 9
-19 -6 -6 -11 -7 -39 -10 -8 0 -15 -8 -15 -16 0 -10 7 -13 28 -9 19 4 33 -1
49 -15 23 -22 53 -28 53 -11 0 5 21 33 46 61 52 59 76 108 72 147 -1 15 4 50
11 78 l14 51 54 -63 c54 -64 54 -65 42 -102z m1061 151 c0 -9 -3 -13 -6 -10
-8 8 -47 -40 -41 -51 3 -4 -1 -18 -8 -32 -11 -20 -15 -22 -20 -9 -8 21 32 107
53 112 9 3 18 5 20 6 1 0 2 -6 2 -16z m1361 -28 c19 -40 19 -46 6 -66 l-15
-21 -16 25 c-12 18 -15 36 -10 66 4 22 8 41 10 41 2 0 13 -20 25 -45z m159 41
c0 -3 -4 -8 -10 -11 -5 -3 -10 -1 -10 4 0 6 5 11 10 11 6 0 10 -2 10 -4z
m-2177 -19 c6 -17 -12 -108 -24 -121 -18 -19 -21 5 -9 69 12 63 22 79 33 52z
m997 -8 c15 -27 9 -64 -10 -64 -10 0 -16 13 -18 43 -3 45 10 56 28 21z m192
-7 c-2 -24 -29 -58 -38 -49 -3 2 -8 21 -11 42 -6 36 -5 37 23 33 24 -2 29 -7
26 -26z m1408 7 c0 -5 -4 -9 -10 -9 -5 0 -10 7 -10 16 0 8 5 12 10 9 6 -3 10
-10 10 -16z m-1320 3 c0 -9 -62 -93 -66 -89 -1 1 3 23 9 50 9 39 14 47 34 47
13 0 23 -4 23 -8z m128 -8 c17 -5 -8 -55 -41 -81 -14 -10 -27 -28 -31 -38 -3
-11 -21 -37 -39 -57 l-32 -37 -27 39 -27 39 25 30 c31 37 62 33 37 -5 -21 -32
-6 -31 29 3 33 31 36 47 9 38 -28 -9 -34 9 -14 49 16 34 18 35 57 30 23 -3 47
-7 54 -10z m520 -54 c-26 -40 -42 -19 -27 36 l11 38 14 -27 c12 -22 12 -30 2
-47z m-1056 37 c9 -13 13 -35 10 -55 -4 -32 -5 -33 -19 -12 -17 23 -26 90 -13
90 4 0 14 -10 22 -23z m1248 -1 c14 -27 6 -101 -11 -91 -5 4 -16 19 -24 35
-12 23 -13 34 -3 55 14 31 21 31 38 1z m-2715 -36 c-8 -23 -15 -55 -15 -70 0
-15 -7 -33 -15 -40 -8 -7 -15 -18 -15 -25 0 -16 -25 -26 -45 -19 -8 4 -15 8
-15 10 0 3 19 35 41 72 23 37 49 79 58 94 22 37 24 29 6 -22z m2075 45 c0 -13
-53 -105 -60 -105 -5 0 -12 -10 -15 -22 -11 -35 -77 -128 -91 -128 -28 0 -20
32 23 89 25 34 49 61 54 61 5 0 9 8 9 18 0 19 56 92 71 92 5 0 9 -2 9 -5z
m112 -27 c1 -18 0 -54 -1 -80 -2 -28 2 -48 7 -48 13 0 23 44 24 109 1 47 4 52
22 49 16 -2 23 -14 30 -45 8 -37 5 -47 -23 -97 -20 -34 -37 -53 -45 -50 -9 4
-16 -7 -20 -30 -7 -35 -8 -36 -52 -34 -44 1 -44 1 -24 20 18 17 60 89 60 103
0 19 -24 -4 -61 -60 -38 -58 -46 -65 -75 -65 -18 0 -39 -3 -48 -6 -9 -3 -16
-1 -16 5 0 18 44 81 57 81 7 0 17 19 24 42 23 87 69 148 69 92 0 -8 5 -12 10
-9 6 4 10 14 9 23 -2 29 0 32 26 32 21 0 25 -5 27 -32z m233 10 c-4 -13 -16
-32 -26 -43 -19 -19 -19 -19 -19 12 0 20 7 36 18 42 27 16 34 13 27 -11z m55
-3 c0 -16 -6 -25 -15 -25 -18 0 -18 -5 -4 -32 9 -16 7 -24 -12 -41 -16 -15
-19 -22 -9 -25 7 -3 19 3 27 14 20 28 16 7 -13 -57 -23 -50 -31 -59 -53 -59
-24 0 -26 3 -25 42 1 28 13 65 35 107 19 35 38 72 44 82 14 26 25 24 25 -6z
m350 -20 c5 -12 2 -31 -7 -49 l-16 -30 -18 37 c-16 30 -17 41 -7 61 9 21 14
24 26 14 8 -7 18 -21 22 -33z m1293 39 c7 -7 -14 -44 -25 -44 -5 0 -8 8 -8 18
0 27 18 41 33 26z m-3489 -63 c-3 -28 -11 -48 -16 -45 -9 6 -2 79 9 97 11 18
14 -3 7 -52z m56 43 c0 -8 -5 -12 -10 -9 -6 4 -8 11 -5 16 9 14 15 11 15 -7z
m1624 1 c-4 -8 -8 -15 -10 -15 -2 0 -4 7 -4 15 0 8 4 15 10 15 5 0 7 -7 4 -15z
m635 -19 c17 -27 19 -39 11 -60 -13 -35 -30 -33 -30 3 0 16 -3 43 -6 60 -8 40
-1 39 25 -3z m1114 14 c4 -15 0 -20 -14 -20 -17 0 -18 3 -9 20 6 11 12 20 14
20 2 0 6 -9 9 -20z m232 10 c-3 -5 -13 -10 -21 -10 -8 0 -12 5 -9 10 3 6 13
10 21 10 8 0 12 -4 9 -10z m41 -27 c-18 -33 -21 -26 -6 13 6 15 13 24 16 21 3
-3 -1 -18 -10 -34z m104 27 c0 -5 -14 -10 -31 -10 -17 0 -28 4 -24 10 3 6 17
10 31 10 13 0 24 -4 24 -10z m-2910 -22 c0 -18 -2 -20 -9 -8 -6 8 -7 18 -5 22
9 14 14 9 14 -14z m826 -15 c-4 -21 -9 -60 -11 -88 -3 -27 -10 -54 -15 -59 -6
-6 -10 -18 -10 -27 0 -10 -4 -20 -9 -23 -4 -3 -9 34 -10 82 -1 71 3 93 19 120
27 44 43 42 36 -5z m834 -11 c16 -60 12 -70 -15 -39 -24 27 -33 66 -19 80 12
11 23 -3 34 -41z m91 -62 c11 -9 20 -60 10 -60 -17 0 -60 87 -66 131 l-6 44
28 -55 c15 -30 31 -57 34 -60z m879 101 c0 -5 -7 -14 -15 -21 -16 -14 -18 -10
-9 14 6 17 24 22 24 7z m-3446 -16 c3 -8 1 -15 -4 -15 -6 0 -10 7 -10 15 0 8
2 15 4 15 2 0 6 -7 10 -15z m606 -26 c0 -18 -4 -28 -10 -24 -5 3 -10 20 -10
36 0 18 4 28 10 24 6 -3 10 -20 10 -36z m82 -15 c-9 -38 -9 -38 -16 -12 -5 16
-3 35 5 50 16 30 22 12 11 -38z m3343 37 c-8 -13 -55 -15 -55 -2 0 5 12 11 28
13 32 4 36 3 27 -11z m55 -1 c0 -13 -7 -20 -19 -20 -14 0 -18 5 -14 20 3 11
12 20 19 20 8 0 14 -9 14 -20z m90 -1 c0 -11 -4 -18 -10 -14 -5 3 -7 12 -3 20
7 21 13 19 13 -6z m-3960 -3 c0 -7 9 -25 20 -38 16 -22 18 -30 8 -64 -5 -21
-11 -48 -13 -59 -4 -32 -28 -109 -37 -120 -4 -5 -8 -18 -9 -30 0 -19 -1 -19
-16 2 -8 13 -22 23 -30 23 -11 0 -13 6 -8 23 3 12 10 41 15 64 5 23 16 63 24
90 8 26 17 65 21 86 6 35 25 53 25 23z m3350 -1 c0 -8 -9 -15 -20 -15 -11 0
-20 7 -20 15 0 8 9 15 20 15 11 0 20 -7 20 -15z m340 -15 c-7 -13 -7 -21 0
-25 12 -8 13 -65 1 -65 -5 0 -16 11 -25 25 -14 21 -22 24 -54 19 -20 -3 -43
-7 -49 -9 -19 -7 -273 -8 -279 -2 -10 9 16 47 33 47 10 0 14 -6 10 -20 -6 -22
3 -26 21 -8 7 7 61 11 162 11 82 -1 153 3 156 8 3 5 -5 9 -18 9 -22 0 -21 1 7
19 35 21 49 18 35 -9z m230 23 c0 -14 -19 -38 -25 -32 -8 8 5 39 16 39 5 0 9
-3 9 -7z m-3986 -35 c4 -17 2 -28 -4 -28 -5 0 -10 14 -10 32 0 36 4 35 14 -4z
m3549 25 c-7 -2 -21 -2 -30 0 -10 3 -4 5 12 5 17 0 24 -2 18 -5z m-3294 -64
c-5 -9 -6 -31 -3 -50 5 -27 1 -38 -17 -54 l-22 -20 6 25 c4 14 10 50 13 80 8
74 15 92 24 60 4 -14 3 -32 -1 -41z m137 15 c-4 -20 -10 -34 -13 -30 -3 3 -2
21 1 42 4 20 10 34 13 30 3 -3 2 -21 -1 -42z m404 -21 c0 -18 -4 -33 -9 -33
-15 0 -33 57 -26 81 7 22 8 22 21 4 8 -10 14 -34 14 -52z m-586 13 c-3 -21 -8
-35 -11 -32 -2 2 -1 20 3 40 3 21 8 35 11 32 2 -2 1 -20 -3 -40z m1486 22 c0
-13 -4 -29 -9 -37 -7 -11 -11 -10 -19 5 -7 12 -6 23 1 36 16 25 27 23 27 -4z
m1963 15 c-7 -2 -19 -2 -25 0 -7 3 -2 5 12 5 14 0 19 -2 13 -5z m389 -15 c-7
-7 -12 -8 -12 -2 0 14 12 26 19 19 2 -3 -1 -11 -7 -17z m-3684 -33 c0 -25 -4
-47 -9 -51 -10 -6 -13 79 -2 89 10 10 10 10 11 -38z m393 -47 c11 -15 19 -39
19 -54 0 -22 -2 -25 -15 -14 -8 7 -15 16 -15 21 0 5 -11 27 -25 49 -14 22 -25
52 -25 67 l0 28 21 -35 c12 -19 30 -47 40 -62z m1529 50 c0 -10 -4 -18 -10
-18 -5 0 -10 15 -10 33 0 24 3 28 10 17 5 -8 10 -23 10 -32z m940 25 c0 -15 2
-15 19 1 15 13 20 14 24 4 3 -10 8 -11 26 0 34 20 43 14 26 -19 -15 -28 -20
-31 -63 -28 -52 3 -282 -9 -324 -17 -17 -3 -28 -1 -28 5 0 21 37 48 73 54 34
5 37 4 37 -19 0 -28 14 -31 32 -6 20 28 37 35 54 21 12 -10 18 -9 32 4 22 23
92 23 92 0z m-3380 -25 c0 -5 -4 -8 -10 -8 -5 0 -10 10 -10 23 0 18 2 19 10 7
5 -8 10 -18 10 -22z m759 -28 c-1 -8 -4 -26 -8 -40 l-7 -25 -16 30 c-9 18 -14
43 -10 64 l5 34 18 -24 c10 -13 18 -31 18 -39z m51 28 c0 -21 -3 -29 -10 -22
-5 5 -7 19 -4 32 9 31 14 27 14 -10z m249 -42 l-13 -27 -17 29 c-10 15 -16 37
-13 49 l6 20 24 -22 c22 -20 23 -26 13 -49z m1119 49 c13 -29 15 -80 3 -110
-7 -18 -9 -17 -24 12 -18 34 -21 63 -11 101 8 29 18 28 32 -3z m-241 -17 c-3
-7 -5 -2 -5 12 0 14 2 19 5 13 2 -7 2 -19 0 -25z m709 -45 c-3 -8 -10 -11 -16
-8 -14 9 -12 59 3 74 10 10 13 6 15 -19 2 -18 1 -39 -2 -47z m1491 55 c11 -9
19 -9 35 1 18 11 19 10 13 -11 -4 -13 -8 -24 -9 -25 0 -1 -49 -5 -108 -9
l-108 -7 0 30 c0 16 3 33 8 37 10 12 152 -2 169 -16z m-3500 -10 c-3 -8 -6 -5
-6 6 -1 11 2 17 5 13 3 -3 4 -12 1 -19z m1342 8 c7 -8 8 -17 3 -20 -6 -3 -12
3 -15 14 -6 24 -4 25 12 6z m315 -2 c9 -24 7 -104 -2 -104 -5 0 -17 16 -27 34
-17 31 -17 38 -5 60 15 30 25 33 34 10z m738 -6 c-5 -22 -19 -38 -34 -38 -9 0
1 29 15 48 15 19 26 14 19 -10z m-3277 -37 c-4 -17 -11 -29 -16 -25 -10 6 -12
57 -2 68 14 13 25 -13 18 -43z m2319 33 c10 -27 7 -56 -6 -52 -15 5 -24 68
-10 68 6 0 13 -7 16 -16z m734 -30 c-18 -25 -37 -48 -43 -52 -5 -3 3 12 19 34
45 60 48 64 53 64 2 0 -11 -21 -29 -46z m-2662 -5 c-4 -23 -13 -48 -21 -56
-13 -13 -15 -11 -15 11 0 14 6 31 13 38 8 7 12 20 9 30 -2 10 1 18 8 18 9 0
11 -11 6 -41z m441 -6 c-3 -10 -5 -4 -5 12 0 17 2 24 5 18 2 -7 2 -21 0 -30z
m-598 -20 c-1 -39 -2 -43 -9 -23 -12 36 -12 70 0 70 6 0 10 -21 9 -47z m691 4
c0 -10 -4 -15 -10 -12 -5 3 -10 18 -10 33 0 21 2 24 10 12 5 -8 10 -23 10 -33z
m1138 13 c19 -25 20 -33 10 -50 -9 -13 -24 -20 -45 -20 -38 0 -41 14 -13 50
11 14 20 31 20 38 0 18 4 15 28 -18z m108 3 c10 -28 -1 -83 -18 -83 -4 0 -15
14 -23 30 -14 28 -14 32 2 55 23 31 26 31 39 -2z m-1476 10 c0 -5 -5 -15 -10
-23 -8 -12 -10 -11 -10 8 0 12 5 22 10 22 6 0 10 -3 10 -7z m1109 -88 c-7 -7
-13 -6 -18 4 -5 7 -14 10 -20 7 -18 -12 -12 16 11 54 l22 35 8 -45 c5 -28 4
-48 -3 -55z m921 33 c0 -36 -22 -37 -49 -2 -27 34 -26 43 2 53 27 11 47 -10
47 -51z m362 22 c-4 -35 -7 -40 -23 -35 -13 4 -19 1 -19 -9 0 -9 -7 -16 -16
-16 -16 0 -10 11 49 88 13 17 13 17 9 -28z m-3037 20 c-3 -5 -10 -10 -16 -10
-5 0 -9 5 -9 10 0 6 7 10 16 10 8 0 12 -4 9 -10z m45 0 c0 -5 -2 -10 -4 -10
-3 0 -8 5 -11 10 -3 6 -1 10 4 10 6 0 11 -4 11 -10z m1186 -59 c5 -23 3 -31
-8 -31 -32 0 -48 43 -32 85 6 14 8 14 20 -4 8 -11 17 -34 20 -50z m978 7 c-6
-19 -6 -19 -20 1 -12 17 -13 25 -3 43 l12 22 9 -23 c5 -13 6 -33 2 -43z
m-1140 8 c18 -37 20 -56 8 -56 -12 0 -42 56 -42 80 0 28 14 18 34 -24z m1493
22 c-3 -8 -6 -5 -6 6 -1 11 2 17 5 13 3 -3 4 -12 1 -19z m-1571 -33 c-6 -22
-10 -25 -21 -15 -11 9 -11 17 -3 36 15 32 33 15 24 -21z m324 26 c19 -36 13
-61 -15 -61 -26 0 -31 13 -19 58 8 27 20 28 34 3z m986 8 c3 -6 1 -16 -5 -22
-9 -9 -14 -8 -21 3 -9 15 -4 30 10 30 5 0 12 -5 16 -11z m159 -108 l-17 -36
-24 30 c-28 35 -28 35 -9 82 l16 37 26 -38 c25 -38 25 -39 8 -75z m299 68 c-3
-5 0 -9 5 -9 6 0 11 -4 11 -10 0 -21 -19 -9 -34 22 -21 41 -20 45 4 23 11 -10
17 -22 14 -26z m-1824 -16 c0 -15 -9 -16 -27 -5 -7 4 -10 17 -6 30 5 21 6 21
19 5 7 -10 14 -24 14 -30z m-830 25 c0 -5 -25 -8 -55 -6 -30 2 -55 6 -55 11 0
4 25 7 55 6 30 -1 55 -6 55 -11z m157 -10 c-3 -8 -6 -5 -6 6 -1 11 2 17 5 13
3 -3 4 -12 1 -19z m2301 0 c10 3 12 -7 10 -39 -3 -51 -25 -60 -45 -19 -15 32
-6 91 11 68 6 -8 17 -13 24 -10z m-1898 9 c0 -2 -7 -24 -16 -50 -21 -63 -36
-60 -16 3 9 28 19 50 24 50 4 0 8 -1 8 -3z m2155 -27 c-6 -9 -9 -9 -16 1 -10
17 0 34 13 21 6 -6 7 -16 3 -22z m-2288 -2 c-3 -8 -6 -5 -6 6 -1 11 2 17 5 13
3 -3 4 -12 1 -19z m86 2 c-3 -10 -11 -25 -19 -31 -11 -9 -14 -8 -14 8 0 19 17
43 31 43 4 0 5 -9 2 -20z m1577 -41 c0 -9 -8 -27 -18 -40 l-19 -22 -11 31 c-8
23 -8 41 0 63 l11 32 18 -24 c10 -13 19 -31 19 -40z m-2444 15 c-4 -14 -9 -24
-12 -21 -3 2 -2 17 2 31 3 15 9 25 11 22 3 -3 2 -17 -1 -32z m2530 -10 c8 -18
14 -44 14 -56 l0 -23 -20 25 c-32 41 -43 68 -36 85 8 22 25 10 42 -31z m64 31
c7 -8 9 -22 6 -31 -6 -15 -9 -15 -27 5 -11 11 -17 26 -14 31 9 14 21 12 35 -5z
m370 5 c0 -5 -2 -10 -4 -10 -3 0 -8 5 -11 10 -3 6 -1 10 4 10 6 0 11 -4 11
-10z m-77 -32 c-9 -15 -23 -8 -23 12 0 17 2 19 14 8 8 -7 12 -16 9 -20z
m-2663 13 c0 -5 -7 -11 -15 -15 -9 -3 -15 0 -15 9 0 8 7 15 15 15 8 0 15 -4
15 -9z m57 3 c-3 -3 -12 -4 -19 -1 -8 3 -5 6 6 6 11 1 17 -2 13 -5z m97 -5
c15 -7 22 -17 19 -26 -4 -10 -8 -11 -13 -3 -4 6 -20 12 -35 13 -33 3 -47 27
-16 27 11 0 31 -5 45 -11z m1867 -26 c-8 -14 -10 -14 -11 -3 0 10 -5 7 -16 -8
-8 -12 -22 -22 -31 -22 -9 0 -13 -6 -10 -14 7 -17 -11 -36 -34 -36 -11 0 -16
-6 -13 -17 6 -24 -6 -39 -36 -47 -14 -3 -19 -3 -12 0 6 3 12 11 12 18 0 24 33
79 50 83 13 3 17 14 16 36 -1 31 1 32 44 37 49 5 57 0 41 -27z m89 1 c0 -15
-6 -24 -15 -24 -10 0 -15 -10 -15 -30 0 -23 -5 -31 -25 -36 -20 -5 -23 -9 -14
-20 18 -21 3 -47 -22 -39 -13 5 -25 2 -30 -6 -6 -10 -13 -10 -34 -1 -14 7 -23
17 -20 22 4 6 10 8 14 5 5 -2 16 4 26 15 10 11 25 20 33 20 12 0 12 3 1 16
-11 13 -10 18 7 32 11 10 26 30 33 46 9 21 15 26 20 17 6 -10 10 -9 15 4 8 23
26 9 26 -21z m888 28 c13 12 14 11 2 -8 -10 -17 -16 -19 -26 -10 -6 6 -9 15
-6 21 3 5 7 4 10 -3 3 -10 7 -10 20 0z m-2699 -44 c1 -3 -8 -4 -19 -1 -23 6
-25 14 -8 31 10 10 14 9 20 -5 3 -10 7 -21 7 -25z m1463 22 c-25 -23 -52 -26
-52 -6 0 8 12 17 28 19 15 2 31 5 36 6 6 0 0 -8 -12 -19z m88 10 c9 -5 19 -5
27 1 6 6 19 9 27 7 26 -6 -6 -36 -47 -43 -35 -7 -37 -6 -37 19 0 28 6 31 30
16z m1025 0 c-3 -5 -10 -10 -16 -10 -5 0 -9 5 -9 10 0 6 7 10 16 10 8 0 12 -4
9 -10z m167 -17 c-13 -22 -96 -102 -91 -87 5 14 93 112 97 109 2 -2 -1 -12 -6
-22z m-2506 -37 c-6 -41 -20 -65 -31 -54 -4 4 8 60 21 97 10 29 16 0 10 -43z
m334 32 c0 -16 -3 -19 -11 -11 -6 6 -8 16 -5 22 11 17 16 13 16 -11z m648 10
c-11 -33 -68 -36 -68 -3 0 11 10 15 36 15 23 0 34 -4 32 -12z m102 -8 c0 -13
-10 -17 -45 -18 -46 -2 -54 5 -33 26 18 18 78 12 78 -8z m37 3 c-9 -9 -19 -14
-23 -11 -10 10 6 28 24 28 15 0 15 -1 -1 -17z m1462 -18 c-20 -34 -39 -53 -39
-40 0 7 51 75 56 75 2 0 -6 -16 -17 -35z m-2542 3 c-3 -8 -6 -5 -6 6 -1 11 2
17 5 13 3 -3 4 -12 1 -19z m136 2 c-3 -11 -9 -20 -14 -20 -11 0 -11 3 -3 24 9
23 23 20 17 -4z m272 9 c11 -17 -1 -21 -15 -4 -8 9 -8 15 -2 15 6 0 14 -5 17
-11z m100 -9 c10 -11 15 -23 12 -26 -8 -8 -57 23 -57 36 0 17 26 11 45 -10z
m59 4 c4 -9 4 -19 1 -22 -6 -6 -35 18 -35 29 0 16 28 10 34 -7z m76 -12 c0
-15 -2 -15 -10 -2 -13 20 -13 33 0 25 6 -3 10 -14 10 -23z m180 24 c0 -2 3
-11 6 -20 10 -26 -62 -22 -76 4 -10 18 -8 20 30 20 22 0 40 -2 40 -4z m1380
-43 c0 -19 -14 -16 -34 6 -24 27 -11 48 15 25 10 -9 19 -23 19 -31z m180 34
c0 -8 -9 -22 -20 -32 -23 -21 -25 -16 -8 20 12 27 28 34 28 12z m-1666 -13 c8
-21 8 -24 -3 -24 -5 0 -11 9 -14 20 -6 24 8 27 17 4z m-1119 -14 c10 -16 -5
-50 -21 -50 -20 0 -29 27 -14 45 14 17 26 19 35 5z m105 -11 c7 -11 9 -24 5
-27 -7 -7 -35 25 -35 40 0 16 19 8 30 -13z m2155 1 c7 -23 -2 -43 -16 -35 -12
8 -12 55 0 55 5 0 12 -9 16 -20z m392 -11 c-6 -10 -13 -15 -15 -9 -6 17 7 42
18 35 6 -4 5 -13 -3 -26z m-2017 13 c0 -5 -7 -17 -16 -28 -14 -17 -15 -17 -10
-1 3 10 6 23 6 28 0 5 5 9 10 9 6 0 10 -4 10 -8z m180 -23 c0 -10 -4 -19 -9
-19 -12 0 -23 29 -15 41 8 14 24 0 24 -22z m1296 -13 c18 -17 21 -26 14 -43
-12 -29 -18 -28 -59 7 l-35 30 25 22 c13 13 26 19 28 14 2 -5 14 -19 27 -30z
m234 15 c-6 -12 -16 -19 -21 -15 -6 4 -4 13 7 25 21 24 29 18 14 -10z m-2480
-1 c-8 -5 -17 -7 -19 -4 -3 3 1 9 9 14 8 5 17 7 19 4 3 -3 -1 -9 -9 -14z m644
-4 c-3 -9 -10 -16 -15 -16 -6 0 -5 9 1 21 13 24 24 20 14 -5z m236 14 c0 -5
-7 -10 -15 -10 -8 0 -15 5 -15 10 0 6 7 10 15 10 8 0 15 -4 15 -10z m760 -15
c0 -16 -6 -25 -15 -25 -15 0 -21 31 -8 43 13 14 23 6 23 -18z m53 -9 c-1 -14
1 -27 5 -27 54 -10 91 5 58 23 -14 8 -15 13 -5 24 14 17 45 18 55 2 4 -6 0
-16 -9 -23 -8 -6 -15 -20 -14 -31 1 -10 -5 -20 -13 -20 -8 -1 -18 -3 -22 -4
-8 -2 -50 -3 -69 -1 -7 1 -9 11 -5 25 4 15 1 26 -6 28 -7 3 -9 12 -5 22 10 26
32 13 30 -18z m943 -11 c-17 -26 -5 -45 27 -45 16 0 17 3 7 15 -10 12 -10 18
0 30 15 19 31 19 54 2 25 -18 13 -61 -15 -54 -20 5 -26 -7 -9 -18 15 -9 12
-23 -10 -45 -20 -20 -20 -20 32 -49 l52 -30 -27 -12 c-20 -9 -30 -9 -40 0 -8
6 -38 18 -66 27 -28 8 -51 19 -51 24 0 4 -17 14 -37 20 -50 16 -54 21 -38 44
14 19 15 18 66 -3 28 -11 56 -21 60 -21 20 0 -16 39 -40 44 -14 3 -32 10 -40
15 -12 8 -12 12 2 25 9 9 22 15 29 14 7 -2 13 6 13 17 0 33 14 48 31 34 13
-10 13 -15 0 -34z m-2455 12 c-13 -13 -26 -3 -16 12 3 6 11 8 17 5 6 -4 6 -10
-1 -17z m889 9 c0 -17 -14 -29 -23 -20 -8 8 3 34 14 34 5 0 9 -6 9 -14z m398
2 c-6 -18 -25 -20 -31 -3 -5 10 0 15 14 15 12 0 19 -5 17 -12z m82 -3 c-13
-16 -50 -21 -50 -7 0 14 7 17 36 20 22 2 25 0 14 -13z m545 -24 c-2 -9 -4 -22
-4 -28 -2 -21 -50 -48 -63 -35 -8 8 -2 21 21 47 17 20 31 41 31 48 0 8 3 8 9
-2 5 -7 7 -21 6 -30z m-698 14 c2 -6 -9 -10 -24 -9 -47 2 -53 4 -53 15 0 13
72 8 77 -6z m1132 -27 c-8 -15 -13 -17 -24 -8 -11 9 -12 17 -4 32 8 15 13 17
24 8 11 -9 12 -17 4 -32z m-185 16 c13 -33 4 -42 -22 -26 -7 5 -10 16 -6 25 8
21 20 22 28 1z m510 1 c-4 -8 -10 -15 -15 -15 -4 0 -6 7 -3 15 4 8 10 15 15
15 4 0 6 -7 3 -15z m-3069 -24 c-9 -16 -25 -3 -18 15 4 10 9 12 15 6 6 -6 7
-15 3 -21z m3179 17 c-45 -76 -146 -163 -178 -153 -12 3 -30 8 -40 10 -28 6
-45 26 -27 32 16 7 41 31 64 63 28 40 32 13 4 -29 -36 -55 -20 -61 26 -9 36
41 37 42 31 14 -6 -27 -6 -28 17 -15 13 6 41 32 62 56 38 42 56 56 41 31z
m-527 -27 c3 -22 -25 -37 -40 -22 -7 7 -5 17 8 31 20 22 27 20 32 -9z m-1807
9 c0 -5 -5 -10 -11 -10 -5 0 -7 5 -4 10 3 6 8 10 11 10 2 0 4 -4 4 -10z m105
-33 c-4 -15 -14 -32 -23 -39 -13 -11 -14 -9 -8 17 8 31 26 59 33 51 2 -2 1
-15 -2 -29z m329 18 c3 -8 1 -15 -4 -15 -6 0 -10 7 -10 15 0 8 2 15 4 15 2 0
6 -7 10 -15z m374 -10 c10 -21 9 -25 -3 -25 -8 0 -15 4 -15 9 0 5 -12 11 -27
13 -41 5 -41 28 0 28 26 0 36 -5 45 -25z m62 15 c-19 -13 -30 -13 -30 0 0 6
10 10 23 10 18 0 19 -2 7 -10z m100 1 c0 -9 -34 -21 -62 -21 -11 0 -15 5 -12
15 7 16 74 22 74 6z m-1550 -10 c0 -6 -4 -13 -10 -16 -5 -3 -10 1 -10 9 0 9 5
16 10 16 6 0 10 -4 10 -9z m66 -6 c-22 -17 -36 -19 -36 -7 0 14 12 22 34 22
21 -1 21 -1 2 -15z m325 -28 c-16 -16 -20 -5 -8 23 9 22 11 23 14 6 3 -10 0
-23 -6 -29z m474 33 c3 -5 -1 -10 -9 -10 -9 0 -16 5 -16 10 0 6 4 10 9 10 6 0
13 -4 16 -10z m255 -5 c0 -8 -4 -15 -9 -15 -13 0 -22 16 -14 24 11 11 23 6 23
-9z m145 5 c8 -13 -25 -13 -45 0 -12 8 -9 10 12 10 15 0 30 -4 33 -10z m850
-18 c5 -12 13 -22 17 -22 5 0 8 -7 8 -15 0 -8 7 -15 15 -15 8 0 15 -9 15 -20
0 -12 9 -24 23 -29 44 -17 50 8 10 45 -30 27 -24 43 10 27 12 -6 41 -19 65
-28 23 -10 42 -22 42 -27 0 -4 8 -8 17 -8 9 0 34 -12 54 -26 44 -30 126 -57
134 -44 3 6 -16 19 -42 31 -119 52 -193 93 -193 107 0 10 5 12 18 7 9 -5 32
-13 49 -19 25 -8 31 -15 27 -29 -5 -17 -2 -18 25 -12 22 5 40 1 64 -13 17 -10
60 -29 95 -43 59 -23 61 -24 35 -32 -30 -8 -66 -15 -125 -23 -41 -6 -118 15
-158 44 -21 14 -45 16 -150 14 -140 -3 -166 4 -126 35 14 11 22 23 19 27 -4 4
6 17 22 30 l30 24 -20 22 c-14 16 -16 22 -5 18 8 -2 19 -14 25 -26z m-1635
-32 c-15 -28 -20 -25 -18 14 1 29 3 32 15 20 11 -10 11 -18 3 -34z m255 40
c-3 -5 -11 -10 -16 -10 -6 0 -7 5 -4 10 3 6 11 10 16 10 6 0 7 -4 4 -10z
m1525 -11 c0 -5 -7 -9 -15 -9 -9 0 -12 6 -9 15 6 15 24 11 24 -6z m184 2 c6
-10 -16 -21 -41 -21 -13 0 -13 3 -3 15 14 17 36 20 44 6z m-944 -12 c0 -5 -11
-9 -25 -9 -14 0 -25 4 -25 9 0 5 11 9 25 9 14 0 25 -4 25 -9z m-1006 -113
c-31 -48 -59 -84 -62 -81 -3 2 6 22 20 42 13 21 30 54 36 73 16 44 56 89 60
67 2 -9 -23 -54 -54 -101z m1123 108 c-3 -3 -12 -4 -19 -1 -8 3 -5 6 6 6 11 1
17 -2 13 -5z m424 -27 c-6 -6 -11 -19 -11 -29 0 -11 -7 -18 -20 -18 -11 0 -20
7 -20 15 0 8 -8 15 -17 15 -23 0 -83 -22 -83 -31 0 -3 25 -9 55 -11 53 -4 74
-12 63 -23 -2 -3 -58 -7 -124 -10 -65 -3 -148 -8 -184 -11 -69 -5 -170 4 -170
15 0 4 37 8 83 10 160 6 250 16 255 29 2 8 -11 12 -45 12 -60 0 -81 11 -58 30
11 9 34 11 75 7 33 -3 62 -1 66 4 3 5 30 7 60 6 38 -3 58 1 66 11 9 10 13 11
16 2 2 -6 -1 -17 -7 -23z m-1991 -13 c0 -11 -5 -14 -16 -10 -9 3 -18 6 -20 6
-3 0 -2 5 1 10 10 16 35 12 35 -6z m1680 4 c0 -10 -38 -48 -48 -48 -4 0 -17 7
-30 15 -15 11 -27 13 -39 7 -37 -19 -88 -23 -108 -8 -25 19 -12 33 35 38 60 7
190 3 190 -4z m-270 -5 c-1 -23 -31 -44 -56 -41 -35 4 -42 25 -12 37 28 12 68
14 68 4z m-1055 -33 c-24 -26 -32 -18 -9 9 10 11 20 18 23 16 2 -3 -4 -14 -14
-25z m258 23 c-7 -2 -19 -2 -25 0 -7 3 -2 5 12 5 14 0 19 -2 13 -5z m60 0 c-7
-2 -21 -2 -30 0 -10 3 -4 5 12 5 17 0 24 -2 18 -5z m504 -10 c-9 -9 -20 -13
-24 -9 -4 4 -1 11 7 16 25 16 35 11 17 -7z m101 -3 c-11 -17 -68 -30 -68 -16
0 14 35 36 56 36 22 0 23 -2 12 -20z m-325 -5 c1 -6 -30 -11 -73 -13 -49 -2
-72 0 -65 7 19 18 134 23 138 6z m101 0 c-7 -16 -49 -21 -58 -6 -8 13 5 21 35
21 21 0 27 -4 23 -15z m66 0 c0 -8 -4 -15 -9 -15 -13 0 -22 16 -14 24 11 11
23 6 23 -9z m-431 -24 c14 -3 -26 -31 -42 -29 -26 4 -32 -15 -12 -36 21 -20
39 -21 31 -1 -4 10 1 15 15 15 16 0 19 -4 14 -20 -8 -24 1 -26 21 -5 13 12 53
15 235 15 210 0 221 -1 249 -22 16 -12 33 -18 37 -14 5 4 -1 14 -12 23 -18 14
-15 14 45 8 36 -3 82 -6 102 -6 20 0 56 -8 78 -18 34 -15 38 -19 21 -24 -11
-3 -41 -4 -66 -4 -25 1 -45 -1 -45 -5 0 -12 -36 -9 -65 4 -20 9 -28 9 -34 0
-5 -8 -96 -11 -328 -11 l-322 0 -55 43 c-53 41 -54 42 -37 64 17 23 17 23 35
4 10 -12 25 -18 37 -15 24 7 24 15 -1 31 -46 29 -20 30 99 3z m-305 -5 c-6
-16 -24 -23 -24 -8 0 10 22 33 27 28 2 -2 1 -11 -3 -20z m366 -6 c0 -5 -9 -10
-19 -10 -11 0 -23 5 -26 10 -4 6 5 10 19 10 14 0 26 -4 26 -10z m70 -10 c-20
-13 -43 -13 -35 0 3 6 16 10 28 10 18 0 19 -2 7 -10z m115 0 c-8 -12 -65 -13
-65 -2 0 5 16 9 35 10 21 1 33 -3 30 -8z m500 -10 c-44 -6 -69 0 -41 10 10 3
33 4 50 1 31 -5 31 -5 -9 -11z m-407 3 c-10 -2 -26 -2 -35 0 -10 3 -2 5 17 5
19 0 27 -2 18 -5z m265 0 c-29 -2 -78 -2 -110 0 -32 2 -8 3 52 3 61 0 87 -1
58 -3z m992 -36 c22 -9 36 -16 30 -17 -5 0 -64 -3 -130 -5 -66 -3 -149 -8
-185 -11 -127 -12 -225 -12 -232 -1 -5 9 -10 9 -20 -1 -8 -8 -47 -12 -119 -12
-92 0 -110 3 -130 20 l-24 19 45 1 c25 0 58 -7 74 -15 34 -18 44 -19 28 -3
-24 24 -10 29 76 29 91 0 375 9 379 12 9 9 176 -4 208 -16z m-2038 -5 c-36
-40 -9 -44 40 -6 39 30 55 23 67 -30 7 -28 6 -28 -26 -22 -18 3 -58 7 -90 7
-31 1 -61 5 -67 8 -16 10 14 49 42 54 48 9 51 8 34 -11z m309 -47 c31 -21 33
-24 15 -30 -11 -3 -29 -1 -40 4 -11 6 -41 11 -67 11 l-48 0 34 29 c38 31 40
31 106 -14z"/>
<path d="M3316 3191 c-9 -14 4 -41 20 -41 8 0 14 6 14 14 0 18 -26 40 -34 27z"/>
<path d="M2521 3152 c-15 -28 -14 -42 3 -42 18 0 31 39 18 52 -7 7 -14 3 -21
-10z"/>
<path d="M2857 3058 c-32 -36 -32 -43 -10 -129 16 -65 16 -66 -6 -103 -19 -29
-26 -34 -37 -25 -11 9 -14 6 -14 -18 0 -34 -20 -97 -28 -89 -4 5 -52 -88 -52
-101 0 -3 7 0 15 7 8 6 18 9 23 6 6 -3 13 6 16 22 16 69 46 110 46 63 0 -20
17 -37 27 -28 3 3 0 21 -7 41 -9 29 -8 40 6 68 9 18 21 36 27 39 5 4 17 24 27
45 l17 39 8 -38 c12 -63 28 -56 21 9 -6 55 4 97 19 82 4 -3 9 -26 12 -50 2
-24 8 -52 13 -63 40 -96 39 -164 -6 -200 -15 -13 -29 -75 -16 -75 5 0 20 20
33 45 13 25 27 45 31 45 4 0 10 -16 14 -35 3 -19 11 -35 16 -35 8 0 6 28 -5
100 -2 15 16 50 23 45 16 -10 23 -91 10 -115 -14 -26 -6 -38 15 -20 11 9 15 9
15 1 0 -7 5 -9 10 -6 6 3 10 21 10 39 0 30 15 56 32 56 4 0 8 -6 8 -14 0 -8 4
-17 9 -21 6 -3 7 17 4 49 -5 48 -3 55 16 65 11 7 21 18 21 26 0 8 8 31 17 51
l18 36 16 -53 17 -54 -6 73 c-3 44 -1 72 5 72 5 0 15 17 21 39 14 47 15 54 3
46 -6 -3 -13 10 -17 30 -11 59 -25 51 -18 -9 8 -63 -9 -80 -20 -21 -4 19 -11
35 -17 35 -9 0 -7 -19 6 -81 6 -25 -16 -96 -33 -109 -4 -3 -13 -18 -20 -34
-15 -34 -22 -29 -38 24 -9 32 -9 43 3 60 8 12 12 24 8 28 -3 3 -10 0 -14 -7
-10 -16 -14 -11 -35 56 -17 50 -31 71 -43 60 -2 -3 2 -20 10 -39 35 -81 41
-115 23 -143 -9 -14 -18 -25 -20 -25 -2 0 -18 61 -36 135 -29 124 -37 144 -52
130 -3 -3 7 -54 22 -113 39 -152 44 -202 26 -227 -14 -19 -15 -19 -21 10 -3
17 -18 74 -33 128 -21 81 -24 102 -13 118 10 17 9 23 -11 39 l-23 18 -3 -36
c-2 -20 -7 -41 -12 -46 -8 -8 -30 53 -30 86 0 29 -16 28 -43 -4z m32 -80 c10
-43 9 -54 -4 -67 -13 -13 -15 -13 -15 -1 -1 8 -3 32 -6 53 -5 35 -1 67 10 67
2 0 9 -23 15 -52z m256 -202 c5 -33 3 -50 -11 -71 -14 -22 -19 -24 -26 -12
-21 38 -3 148 22 132 5 -3 12 -25 15 -49z"/>
<path d="M3146 3054 c14 -74 42 -160 44 -134 1 14 1 29 0 35 -20 104 -28 129
-38 133 -10 3 -12 -5 -6 -34z"/>
<path d="M3311 2763 c-64 -106 -59 -100 -71 -83 -5 8 -10 26 -10 40 -1 23 -2
23 -11 6 -8 -13 -8 -25 0 -43 6 -13 11 -40 11 -59 0 -44 22 -42 31 3 3 17 10
39 14 49 7 17 8 16 15 -6 7 -23 8 -22 15 14 4 22 21 58 36 82 16 23 29 47 29
53 0 26 -20 6 -59 -56z"/>
<path d="M2927 2787 c-3 -7 -1 -20 3 -28 7 -11 10 -10 16 4 4 10 2 23 -3 28
-7 7 -12 6 -16 -4z"/>
<path d="M2880 2776 c0 -9 5 -16 10 -16 6 0 10 4 10 9 0 6 -4 13 -10 16 -5 3
-10 -1 -10 -9z"/>
<path d="M2730 2743 c0 -5 5 -15 10 -23 8 -12 10 -11 10 8 0 12 -4 22 -10 22
-5 0 -10 -3 -10 -7z"/>
<path d="M2883 2715 c-3 -9 -3 -18 0 -21 9 -9 27 6 27 22 0 19 -19 18 -27 -1z"/>
<path d="M2890 2664 c0 -8 5 -12 10 -9 6 4 8 11 5 16 -9 14 -15 11 -15 -7z"/>
<path d="M3361 2624 c-21 -27 -28 -54 -13 -54 8 0 33 35 44 63 11 26 -8 21
-31 -9z"/>
<path d="M2826 2632 c-2 -4 -1 -14 4 -22 7 -11 12 -12 21 -3 6 6 8 16 5 22 -8
13 -23 14 -30 3z"/>
<path d="M3312 2538 c-6 -6 -12 -19 -12 -27 0 -13 2 -13 16 1 9 9 15 21 13 27
-3 9 -8 8 -17 -1z"/>
<path d="M2657 2504 c-10 -14 -17 -30 -14 -37 2 -7 12 3 21 21 21 41 18 49 -7
16z"/>
<path d="M3175 2520 c-3 -5 -1 -10 4 -10 6 0 11 5 11 10 0 6 -2 10 -4 10 -3 0
-8 -4 -11 -10z"/>
<path d="M2420 2509 c0 -5 5 -7 10 -4 6 3 10 8 10 11 0 2 -4 4 -10 4 -5 0 -10
-5 -10 -11z"/>
<path d="M3146 2483 c-9 -9 -7 -33 3 -33 12 0 22 28 12 34 -5 3 -11 3 -15 -1z"/>
<path d="M2612 2429 c-7 -10 -8 -19 -3 -19 13 0 33 28 23 33 -4 3 -13 -3 -20
-14z"/>
<path d="M4016 3081 c-5 -7 7 -104 19 -158 8 -33 28 -29 21 5 -2 15 -8 57 -11
95 -6 61 -15 81 -29 58z"/>
<path d="M4136 2877 c-7 -38 -2 -57 15 -57 11 0 11 47 0 75 -7 16 -9 13 -15
-18z"/>
<path d="M3810 2822 c0 -5 11 -19 25 -32 28 -26 33 -16 9 18 -15 22 -34 30
-34 14z"/>
<path d="M3700 2781 c0 -21 26 -36 36 -20 6 11 -13 39 -27 39 -5 0 -9 -9 -9
-19z"/>
<path d="M3870 2755 c1 -14 70 -90 70 -77 0 6 -16 28 -35 49 -19 21 -35 34
-35 28z"/>
<path d="M3750 2726 c0 -2 7 -9 15 -16 12 -10 15 -10 15 4 0 9 -7 16 -15 16
-8 0 -15 -2 -15 -4z"/>
<path d="M3786 2675 c4 -8 13 -15 21 -15 13 0 13 3 3 15 -7 8 -16 15 -21 15
-5 0 -6 -7 -3 -15z"/>
<path d="M4110 2666 c0 -2 7 -9 15 -16 12 -10 15 -10 15 4 0 9 -7 16 -15 16
-8 0 -15 -2 -15 -4z"/>
<path d="M3980 2610 c0 -5 5 -10 10 -10 6 0 10 5 10 10 0 6 -4 10 -10 10 -5 0
-10 -4 -10 -10z"/>
<path d="M4099 2589 c13 -11 26 -17 29 -14 8 8 -20 35 -37 35 -12 -1 -11 -5 8
-21z"/>
<path d="M3757 2443 c-12 -12 -7 -41 8 -47 11 -4 15 2 15 24 0 29 -9 38 -23
23z"/>
<path d="M1751 2910 c-5 -16 -7 -30 -3 -30 4 0 0 -5 -8 -11 -12 -9 -12 -10 3
-5 10 3 22 6 26 6 4 0 7 16 7 35 -1 43 -11 45 -25 5z"/>
<path d="M1781 2583 c0 -5 4 -17 9 -28 8 -18 9 -17 9 8 1 15 -3 27 -9 27 -5 0
-10 -3 -9 -7z"/>
<path d="M1640 2535 c0 -8 5 -15 10 -15 6 0 10 7 10 15 0 8 -4 15 -10 15 -5 0
-10 -7 -10 -15z"/>
<path d="M1794 2498 c3 -13 6 -29 6 -35 0 -7 5 -13 10 -13 11 0 13 30 4 54 -9
25 -27 19 -20 -6z"/>
<path d="M1940 2819 c0 -14 70 -102 77 -96 2 3 -9 26 -24 53 -28 47 -53 67
-53 43z"/>
<path d="M2170 2799 c0 -5 5 -7 10 -4 6 3 10 8 10 11 0 2 -4 4 -10 4 -5 0 -10
-5 -10 -11z"/>
<path d="M2176 2654 c-4 -10 -1 -14 6 -12 15 5 23 28 10 28 -5 0 -13 -7 -16
-16z"/>
<path d="M2070 2636 c0 -9 7 -16 16 -16 9 0 14 5 12 12 -6 18 -28 21 -28 4z"/>
<path d="M5010 2674 c0 -8 5 -12 10 -9 6 3 10 10 10 16 0 5 -4 9 -10 9 -5 0
-10 -7 -10 -16z"/>
<path d="M1740 1922 c1 -9 70 -88 70 -79 0 14 -42 76 -55 81 -8 3 -15 2 -15
-2z"/>
<path d="M2085 1820 c-3 -5 1 -13 10 -16 11 -5 15 -14 11 -30 -8 -30 10 -40
24 -14 10 18 7 25 -13 46 -16 15 -28 21 -32 14z"/>
<path d="M2142 1665 c2 -36 18 -50 18 -16 0 11 3 26 6 35 4 11 1 16 -10 16
-13 0 -16 -8 -14 -35z"/>
<path d="M2090 1644 c0 -14 4 -23 10 -19 6 3 10 15 10 26 0 10 -4 19 -10 19
-5 0 -10 -12 -10 -26z"/>
<path d="M2820 1580 c0 -11 5 -20 10 -20 6 0 10 9 10 20 0 11 -4 20 -10 20 -5
0 -10 -9 -10 -20z"/>
<path d="M2680 1540 c0 -5 -14 -30 -32 -55 -17 -24 -28 -48 -24 -52 5 -5 13 0
20 11 6 10 21 30 34 44 23 26 30 62 12 62 -5 0 -10 -4 -10 -10z"/>
<path d="M2202 1332 c-35 -35 -61 -66 -58 -69 7 -8 129 114 124 125 -1 4 -32
-21 -66 -56z"/>
<path d="M2320 1383 c0 -13 5 -23 10 -23 13 0 13 11 0 30 -8 12 -10 11 -10 -7z"/>
<path d="M2277 1356 c-4 -10 -5 -21 -2 -24 9 -9 17 6 13 25 -3 17 -4 17 -11
-1z"/>
<path d="M2770 1314 c0 -8 5 -12 10 -9 6 3 10 10 10 16 0 5 -4 9 -10 9 -5 0
-10 -7 -10 -16z"/>
<path d="M4260 1710 c0 -9 56 -147 82 -202 7 -16 16 -28 21 -28 13 0 7 25 -18
69 -14 23 -25 47 -25 52 0 20 -42 119 -51 119 -5 0 -9 -4 -9 -10z"/>
<path d="M3607 1694 c-7 -8 4 -44 14 -44 12 0 12 37 0 44 -4 3 -11 3 -14 0z"/>
<path d="M3684 1654 c4 -14 16 -35 26 -47 17 -18 20 -18 20 -4 0 9 -4 17 -10
17 -5 0 -10 14 -10 30 0 21 -5 30 -16 30 -12 0 -15 -6 -10 -26z"/>
<path d="M4180 1665 c0 -8 5 -15 10 -15 6 0 10 7 10 15 0 8 -4 15 -10 15 -5 0
-10 -7 -10 -15z"/>
<path d="M3990 1610 c0 -5 5 -10 10 -10 6 0 10 5 10 10 0 6 -4 10 -10 10 -5 0
-10 -4 -10 -10z"/>
<path d="M4060 1606 c0 -9 7 -16 16 -16 17 0 14 22 -4 28 -7 2 -12 -3 -12 -12z"/>
<path d="M4137 1614 c-4 -4 -4 -10 -2 -14 6 -10 45 0 45 11 0 10 -33 12 -43 3z"/>
<path d="M3960 1580 c-8 -5 -12 -11 -9 -14 3 -3 14 1 25 9 21 16 8 20 -16 5z"/>
<path d="M4027 1583 c-4 -3 -7 -11 -7 -17 0 -6 5 -5 12 2 6 6 9 14 7 17 -3 3
-9 2 -12 -2z"/>
<path d="M3610 1500 c0 -5 5 -10 10 -10 6 0 10 5 10 10 0 6 -4 10 -10 10 -5 0
-10 -4 -10 -10z"/>
<path d="M3035 1468 c-21 -24 -55 -81 -55 -93 0 -13 20 7 50 51 34 50 37 79 5
42z"/>
<path d="M3255 1439 c-11 -17 1 -21 15 -4 8 9 8 15 2 15 -6 0 -14 -5 -17 -11z"/>
<path d="M3630 1421 c0 -6 5 -13 10 -16 6 -3 10 1 10 9 0 9 -4 16 -10 16 -5 0
-10 -4 -10 -9z"/>
<path d="M3530 1404 c0 -9 5 -14 12 -12 18 6 21 28 4 28 -9 0 -16 -7 -16 -16z"/>
<path d="M3860 1360 c0 -5 5 -10 10 -10 6 0 10 5 10 10 0 6 -4 10 -10 10 -5 0
-10 -4 -10 -10z"/>
<path d="M4451 1344 c0 -11 3 -14 6 -6 3 7 2 16 -1 19 -3 4 -6 -2 -5 -13z"/>
<path d="M3775 1250 c4 -6 11 -8 16 -5 14 9 11 15 -7 15 -8 0 -12 -5 -9 -10z"/>
<path d="M3900 1229 c0 -11 4 -18 10 -14 5 3 7 12 3 20 -7 21 -13 19 -13 -6z"/>
<path d="M5560 1173 c0 -22 2 -25 10 -13 13 20 13 40 0 40 -5 0 -10 -12 -10
-27z"/>
<path d="M4160 1080 c0 -5 5 -10 11 -10 5 0 7 5 4 10 -3 6 -8 10 -11 10 -2 0
-4 -4 -4 -10z"/>
<path d="M4440 830 c0 -5 4 -10 9 -10 6 0 13 5 16 10 3 6 -1 10 -9 10 -9 0
-16 -4 -16 -10z"/>
<path d="M875 1091 c-3 -5 -1 -12 5 -16 5 -3 10 1 10 9 0 18 -6 21 -15 7z"/>
<path d="M1642 1618 c6 -18 28 -21 28 -4 0 9 -7 16 -16 16 -9 0 -14 -5 -12
-12z"/>
<path d="M1545 1570 c-3 -5 -1 -10 4 -10 6 0 11 5 11 10 0 6 -2 10 -4 10 -3 0
-8 -4 -11 -10z"/>
<path d="M1650 1512 c0 -10 22 -32 32 -32 15 0 8 15 -12 28 -11 7 -20 9 -20 4z"/>
<path d="M1680 1385 c0 -8 5 -15 10 -15 6 0 10 7 10 15 0 8 -4 15 -10 15 -5 0
-10 -7 -10 -15z"/>
<path d="M820 930 c-6 -11 -9 -26 -7 -33 3 -7 10 1 16 17 14 35 7 47 -9 16z"/>
<path d="M796 844 c-9 -24 -7 -54 4 -54 6 0 10 16 10 35 0 38 -4 44 -14 19z"/>
<path d="M3145 877 c-4 -10 -5 -21 -1 -24 10 -10 18 4 13 24 -4 17 -4 17 -12
0z"/>
<path d="M3705 470 c-3 -5 1 -10 9 -10 9 0 16 5 16 10 0 6 -4 10 -9 10 -6 0
-13 -4 -16 -10z"/>
<path d="M3976 413 c-3 -3 -3 -10 0 -14 7 -12 34 -11 34 0 0 11 -26 22 -34 14z"/>
</g>
</svg>
