<?xml version="1.0" standalone="no"?>
<!DOCTYPE svg PUBLIC "-//W3C//DTD SVG 20010904//EN"
 "http://www.w3.org/TR/2001/REC-SVG-20010904/DTD/svg10.dtd">
<svg version="1.0" xmlns="http://www.w3.org/2000/svg"
 width="840.000000pt" height="660.000000pt" viewBox="0 0 840.000000 660.000000"
 preserveAspectRatio="xMidYMid meet">

<g transform="translate(0.000000,660.000000) scale(0.100000,-0.100000)"
fill="#000000" stroke="none">
<path d="M2287 6044 c-1 -2 -69 -4 -150 -5 -81 -1 -149 -5 -152 -9 -2 -4 71
-10 163 -14 213 -8 311 -18 320 -32 4 -6 21 -18 39 -27 17 -9 48 -33 70 -54
21 -20 53 -50 72 -67 33 -30 34 -30 26 -6 l-7 25 28 -26 c49 -44 134 -101 134
-90 0 5 -4 13 -10 16 -5 3 -15 15 -21 26 -10 20 -10 20 31 -1 22 -11 89 -70
149 -130 60 -61 115 -110 122 -110 8 0 40 -24 72 -54 31 -29 57 -47 57 -40 0
20 40 4 52 -20 16 -36 108 -65 243 -76 66 -5 123 -10 128 -10 4 0 7 -8 7 -17
1 -12 6 -7 15 12 7 17 14 23 14 15 1 -21 -16 -45 -31 -45 -7 0 -20 -25 -29
-54 -23 -77 -79 -109 -79 -45 0 31 -10 30 -40 -1 -13 -14 -18 -25 -11 -25 9 0
10 -27 6 -106 -5 -110 -11 -136 -26 -113 -11 18 -11 76 0 97 5 10 6 33 2 52
-11 56 -26 16 -24 -65 1 -38 -2 -77 -7 -85 -11 -18 -13 0 -11 95 1 45 -1 56
-9 43 -5 -9 -9 -25 -8 -35 0 -10 0 -46 0 -80 -2 -47 -6 -63 -16 -63 -12 0 -13
21 -10 120 3 78 1 120 -6 120 -10 0 -12 -16 -14 -187 -1 -77 2 -103 12 -103 6
0 12 5 12 10 0 6 5 10 10 10 6 0 10 -8 10 -18 0 -18 -19 -38 -64 -67 -14 -10
-26 -24 -26 -32 0 -13 3 -13 15 -3 8 7 15 9 14 4 -2 -15 -83 -82 -104 -85 -29
-6 -33 36 -5 53 12 7 30 33 42 58 20 43 22 52 26 93 1 10 6 16 11 13 4 -3 6
-17 3 -31 -2 -14 0 -25 6 -25 16 0 10 278 -5 285 -7 2 -13 19 -14 37 l-1 33
-13 -40 c-8 -22 -14 -56 -14 -75 l0 -35 15 28 c9 16 17 27 20 25 6 -7 -8 -124
-17 -139 -16 -26 -22 2 -29 121 -4 66 -10 123 -13 126 -3 3 -8 -16 -12 -43 -3
-26 -7 -54 -8 -62 -1 -8 -8 -16 -16 -19 -10 -3 -12 0 -7 14 13 32 20 148 9
141 -6 -4 -13 -38 -16 -77 -7 -89 -33 -150 -61 -147 -15 2 -21 -6 -28 -37 -5
-22 -14 -47 -21 -55 -7 -9 -18 -28 -25 -43 -14 -35 -48 -39 -38 -5 4 12 10 37
13 56 9 52 -16 35 -36 -24 -20 -62 -41 -71 -41 -18 0 28 -3 34 -10 23 -5 -8
-10 -27 -10 -41 0 -34 -36 -77 -51 -62 -8 8 -8 20 0 44 6 17 11 45 11 61 0 16
5 38 10 49 8 15 7 19 -3 19 -22 0 -35 -23 -27 -45 8 -21 -7 -75 -20 -75 -4 0
-16 12 -25 27 -17 26 -17 27 5 45 24 20 15 23 -23 9 -22 -9 -29 -3 -80 67 -67
93 -131 157 -146 147 -7 -4 5 -24 33 -53 50 -53 122 -143 150 -186 16 -25 17
-33 6 -67 -7 -22 -16 -39 -20 -39 -3 0 -14 17 -24 38 -28 59 -177 262 -193
262 -10 0 -6 -11 12 -34 19 -25 24 -41 19 -60 l-6 -25 -24 28 c-13 16 -24 34
-24 40 0 5 -9 15 -20 21 -11 6 -20 18 -20 26 0 8 -4 12 -10 9 -5 -3 -10 -32
-10 -63 -1 -62 1 -62 -45 2 -12 16 -17 17 -30 6 -8 -7 -15 -24 -15 -39 0 -14
-4 -31 -8 -38 -11 -17 -46 14 -61 53 -15 39 -71 95 -71 72 0 -8 8 -26 19 -39
41 -53 52 -87 45 -139 -4 -28 -10 -50 -13 -50 -4 0 -14 23 -21 50 -7 28 -18
50 -23 50 -9 0 -37 25 -37 34 0 10 -50 59 -56 54 -5 -6 28 -61 66 -110 17 -22
19 -34 13 -79 l-8 -53 -33 63 c-22 41 -30 69 -26 85 6 25 -10 44 -21 25 -4 -6
-17 4 -31 25 -14 20 -29 36 -34 36 -15 0 -12 -9 20 -61 36 -59 44 -87 32 -118
-8 -23 -11 -21 -40 34 -18 32 -32 62 -32 66 0 6 -24 19 -35 19 -2 0 3 -16 11
-35 15 -38 19 -75 6 -75 -13 0 -72 105 -72 128 0 12 -4 22 -10 22 -6 0 -10
-26 -10 -57 0 -55 -1 -56 -16 -35 -28 40 -35 23 -10 -26 19 -37 23 -57 19 -95
-3 -26 -8 -47 -12 -47 -3 0 -21 29 -40 65 -32 64 -34 74 -16 133 11 33 -9 27
-26 -9 l-15 -31 -22 45 c-24 47 -48 74 -59 63 -3 -3 1 -14 9 -23 8 -10 27 -39
41 -65 27 -46 27 -49 16 -118 -7 -38 -15 -70 -19 -70 -4 0 -15 18 -25 40 -17
38 -17 88 1 134 4 10 1 16 -8 16 -8 0 -19 -12 -25 -27 -10 -28 -11 -27 -40 37
-17 36 -39 83 -49 105 -16 36 -18 37 -22 17 -4 -28 6 -57 59 -166 22 -43 37
-82 34 -86 -3 -5 -7 -26 -9 -47 -4 -44 -15 -112 -22 -133 -8 -23 -54 59 -54
95 0 17 7 55 15 85 18 66 18 77 4 63 -6 -6 -18 -37 -28 -69 -16 -51 -19 -55
-26 -33 -10 32 -118 209 -127 209 -14 0 -9 -21 11 -48 48 -69 77 -171 52 -186
-5 -4 -19 14 -31 39 -12 25 -26 45 -31 45 -13 0 -12 -3 22 -73 24 -48 30 -71
25 -92 -6 -25 -8 -26 -24 -12 -10 9 -24 33 -31 54 -13 38 -47 83 -62 83 -5 0
3 -24 16 -52 14 -29 25 -61 25 -70 0 -10 6 -18 13 -18 24 -1 49 -49 42 -81 -8
-36 -25 -27 -46 24 -7 18 -37 69 -66 113 -29 45 -73 125 -98 178 -25 53 -50
96 -55 96 -6 0 -10 -3 -10 -6 0 -13 105 -221 146 -289 54 -91 57 -104 38 -150
l-16 -38 -26 44 c-15 25 -39 61 -54 80 -16 20 -28 40 -28 44 0 12 -62 107 -66
102 -3 -2 18 -44 46 -93 53 -96 56 -107 36 -143 -13 -23 -14 -22 -57 48 -40
65 -59 85 -59 62 0 -5 21 -43 46 -86 43 -70 58 -125 40 -142 -7 -7 -55 49 -56
64 0 22 -21 25 -41 7 -12 -11 -23 -14 -27 -9 -4 6 -25 37 -46 70 -46 69 -73
101 -81 93 -3 -3 5 -18 18 -34 40 -50 87 -128 84 -138 -2 -6 -19 -16 -38 -22
-32 -11 -35 -10 -56 19 -13 17 -23 36 -23 43 0 6 -7 17 -15 24 -20 17 -20 -1
1 -41 23 -45 15 -78 -22 -94 -31 -13 -32 -12 -70 36 -21 27 -41 44 -43 38 -2
-7 4 -16 13 -21 9 -5 16 -14 16 -20 0 -6 7 -20 16 -30 16 -16 15 -19 -7 -38
l-24 -21 33 6 c26 5 36 3 47 -12 7 -10 17 -15 21 -11 4 4 1 14 -5 22 -10 12
-8 17 8 25 11 6 22 11 25 11 12 0 6 -59 -7 -67 -10 -6 -10 -18 -2 -51 6 -24
14 -40 17 -37 8 8 75 -96 84 -130 6 -26 21 -41 30 -32 9 8 -37 108 -74 162
-31 46 -33 54 -27 100 3 28 10 54 15 59 11 11 44 -40 46 -73 2 -40 3 -41 19
-41 11 0 13 -7 9 -29 -5 -22 -1 -32 15 -43 28 -19 66 -77 75 -113 4 -16 16
-41 27 -56 10 -15 19 -34 19 -42 0 -9 5 -19 10 -22 15 -9 12 32 -5 65 -55 106
-34 104 29 -2 27 -45 52 -76 54 -69 5 15 -26 81 -70 150 -15 25 -28 59 -28 76
0 32 23 75 32 59 45 -77 78 -146 73 -154 -3 -6 1 -13 10 -16 9 -4 23 -24 32
-46 11 -29 19 -36 27 -28 8 8 6 19 -7 41 -9 17 -17 36 -17 43 0 7 -9 21 -20
31 -11 10 -22 27 -26 37 -3 11 -17 36 -30 55 -27 41 -31 63 -10 63 20 0 46
-39 46 -67 0 -16 6 -23 20 -23 22 0 26 23 11 64 -7 18 -6 28 4 36 18 15 35 5
35 -20 0 -10 4 -21 9 -25 14 -8 101 -141 101 -154 0 -6 4 -11 8 -11 5 0 19
-21 32 -46 13 -25 27 -47 32 -50 14 -9 9 15 -12 53 -11 21 -20 43 -20 50 0 7
-9 17 -20 23 -11 6 -20 18 -20 26 0 9 -13 29 -29 45 -16 16 -32 44 -36 61 -11
57 -16 68 -26 63 -5 -4 -9 -2 -9 4 0 5 -7 17 -16 26 -13 12 -15 26 -9 63 l8
47 13 -30 c7 -16 13 -45 14 -63 0 -27 3 -32 18 -28 12 4 25 -6 45 -39 16 -25
33 -48 39 -51 17 -11 -3 38 -30 74 -22 29 -24 37 -13 54 8 12 9 24 4 29 -11
11 -5 69 6 69 12 0 34 -47 27 -59 -4 -5 3 -15 15 -22 18 -9 21 -17 16 -53 -7
-49 7 -83 17 -42 9 38 23 32 51 -24 27 -54 32 -89 13 -108 -21 -21 -38 -13
-54 28 -9 22 -22 40 -30 40 -21 0 -17 -33 6 -53 11 -9 20 -23 20 -31 0 -7 6
-19 13 -25 8 -6 20 -29 27 -51 14 -43 28 -59 39 -43 10 15 54 43 68 43 7 0 13
-7 13 -15 0 -8 4 -15 9 -15 15 0 19 62 5 88 -27 53 -1 40 33 -15 43 -73 57
-87 48 -52 -9 34 7 44 30 19 28 -31 37 -24 30 24 -5 34 -4 44 9 49 16 6 36
-19 36 -47 0 -8 11 -23 23 -33 13 -10 32 -39 41 -65 10 -27 22 -48 28 -48 6 0
7 8 3 18 -4 9 -12 31 -18 47 -5 17 -18 38 -28 48 -11 10 -19 27 -19 38 0 26
42 100 55 96 5 -2 16 -21 24 -41 11 -30 12 -42 3 -57 -11 -18 -10 -19 13 -13
21 5 27 2 32 -15 6 -24 23 -29 23 -6 0 33 19 11 54 -61 20 -42 39 -74 42 -71
9 9 -15 73 -36 98 -11 12 -20 26 -20 30 0 16 54 59 63 50 5 -5 18 -6 29 -3 14
3 18 10 14 27 -6 22 17 65 29 53 3 -3 2 -32 -4 -64 -13 -70 -14 -117 -2 -110
5 3 12 23 15 43 13 76 18 93 25 93 4 0 22 -29 40 -65 33 -65 59 -81 39 -25
-10 31 -6 60 10 60 5 0 16 -18 25 -41 9 -22 21 -38 26 -35 9 6 -3 38 -40 108
-5 10 -9 25 -9 33 0 33 20 12 57 -60 21 -41 41 -75 46 -75 11 0 8 16 -10 54
-14 29 -14 39 -3 65 l13 31 23 -32 c13 -17 24 -40 24 -50 0 -20 29 -25 31 -5
1 6 4 1 9 -13 7 -24 8 -24 25 15 17 40 18 40 27 15 l10 -25 9 30 c5 17 7 40 4
52 -6 24 3 53 16 53 5 0 9 -10 9 -23 0 -23 17 -47 32 -47 4 0 8 9 8 20 0 12
15 29 38 44 33 22 39 23 60 10 29 -19 46 -10 31 18 -12 22 -4 68 11 68 6 0 10
7 10 15 0 8 -5 15 -10 15 -14 0 -28 40 -22 63 4 16 8 14 33 -15 15 -18 28 -37
29 -41 0 -13 43 -67 53 -67 4 0 7 8 5 18 -3 22 9 42 28 42 19 0 45 25 61 59
11 22 12 22 7 4 -3 -13 -1 -23 5 -23 15 0 41 42 41 66 0 12 15 34 33 50 19 16
53 57 76 91 23 34 50 64 59 67 9 3 37 26 62 51 25 24 51 44 58 45 6 0 12 4 12
9 0 13 62 32 108 33 12 0 22 4 22 8 0 4 9 10 19 13 15 3 20 -2 25 -25 3 -17 6
-34 6 -38 0 -3 -22 -21 -50 -39 -27 -18 -50 -37 -50 -42 0 -10 49 12 91 42 24
17 28 17 33 3 3 -9 6 -17 6 -19 0 -3 -27 -22 -59 -45 -45 -30 -70 -40 -100
-40 -38 0 -85 -17 -166 -63 -52 -28 -173 -161 -245 -268 -56 -82 -88 -117
-179 -190 -69 -55 -105 -76 -182 -104 -52 -19 -99 -35 -104 -35 -5 0 2 11 15
25 30 32 18 45 -18 18 -81 -60 -166 -92 -292 -109 -69 -10 -150 -17 -180 -15
-109 6 -335 -8 -376 -23 -6 -2 -17 0 -25 4 -8 5 -19 4 -26 -2 -7 -5 -93 -17
-190 -25 -161 -13 -209 -19 -295 -37 -48 -11 -30 -26 25 -21 124 9 311 8 315
-3 4 -13 381 -7 492 8 41 6 118 13 170 16 56 3 104 11 117 19 13 9 40 13 70
11 58 -4 90 9 73 29 -9 11 2 18 62 35 176 51 254 82 317 128 91 67 312 287
354 353 49 77 116 134 180 153 131 37 152 39 414 40 198 1 266 4 271 13 6 9
67 14 223 17 117 3 221 7 229 10 23 8 260 26 350 26 118 0 340 -32 340 -49 0
-3 -21 -15 -48 -26 -38 -16 -43 -20 -24 -23 25 -4 132 43 132 58 0 6 -4 10
-10 10 -5 0 7 17 28 38 34 35 39 37 55 23 10 -8 16 -20 13 -27 -3 -7 5 -28 17
-46 13 -18 31 -55 41 -83 11 -27 25 -59 31 -70 7 -11 15 -32 19 -47 5 -24 3
-28 -20 -34 -14 -4 -76 -4 -138 0 -61 4 -126 8 -145 9 -43 2 -51 24 -14 37 63
24 153 65 153 71 0 3 -26 1 -57 -5 -43 -8 -58 -7 -61 2 -2 8 -12 6 -29 -8 -14
-11 -31 -20 -39 -20 -7 0 -33 -9 -58 -20 -36 -15 -46 -16 -46 -5 0 7 3 15 8
17 9 4 82 94 82 102 0 20 -43 -1 -95 -45 -33 -29 -73 -56 -88 -62 -42 -14 -59
-63 -68 -197 -4 -63 -13 -160 -19 -215 -24 -211 -27 -279 -23 -560 2 -266 5
-337 17 -480 8 -84 27 -428 27 -455 -1 -13 3 -49 9 -80 5 -30 12 -73 14 -95
12 -114 56 -251 136 -420 28 -60 54 -115 58 -121 18 -29 97 -120 116 -134 11
-8 31 -27 44 -42 27 -32 192 -138 215 -138 9 0 19 -5 22 -10 4 -6 38 -26 77
-46 102 -52 236 -142 282 -193 132 -141 254 -391 312 -638 8 -35 19 -74 24
-88 5 -14 12 -36 14 -48 6 -29 73 -287 79 -307 3 -8 8 -28 11 -43 4 -15 11
-25 16 -22 8 5 7 13 -7 55 -3 8 -7 29 -9 45 -3 34 -71 320 -83 350 -20 52 -40
120 -35 124 8 9 34 -34 44 -74 22 -84 62 -200 73 -212 9 -9 1 126 -9 151 -5
14 -4 17 5 11 7 -4 35 -54 62 -111 26 -57 53 -104 59 -104 12 0 13 17 1 25
-11 6 -45 104 -39 111 3 2 17 -7 31 -20 46 -43 29 -12 -23 42 -72 75 -65 102
8 29 32 -31 61 -57 65 -57 23 0 -3 36 -75 104 -54 51 -90 95 -105 128 -38 83
-28 85 52 13 46 -41 75 -61 75 -51 0 8 -19 33 -41 54 -36 33 -40 42 -31 58 10
18 11 17 22 -10 17 -46 29 -20 36 79 4 50 11 97 16 105 9 15 3 -134 -8 -195
-5 -29 -4 -29 11 -11 8 11 15 29 15 40 0 58 21 351 26 372 3 13 2 24 -4 24 -5
0 -13 -20 -16 -45 -8 -49 -22 -56 -71 -33 -22 10 -26 17 -23 46 l3 34 -80 29
c-63 24 -91 29 -134 25 -31 -3 -61 0 -72 7 -23 14 -36 2 -19 -18 7 -9 10 -19
5 -23 -4 -4 -26 14 -50 40 -24 27 -46 48 -49 48 -2 0 -41 27 -84 60 -44 33
-84 60 -89 60 -6 0 -18 10 -29 21 l-19 21 38 -16 c20 -9 53 -23 72 -31 19 -8
59 -30 88 -49 64 -40 163 -86 188 -86 26 0 33 17 9 25 -11 3 -20 11 -20 16 0
11 0 11 39 -2 29 -10 43 -29 21 -29 -16 0 -12 -17 6 -24 22 -8 202 13 244 30
19 7 64 20 100 29 36 9 75 22 87 30 12 8 29 15 37 15 20 0 161 134 208 198 22
29 60 74 85 100 25 26 54 61 66 77 12 17 24 32 27 35 34 31 188 336 207 408 3
15 14 40 24 57 35 60 88 194 94 242 4 26 13 73 20 103 8 30 19 100 25 154 11
102 14 115 28 102 9 -10 11 -249 1 -295 -35 -166 -106 -378 -144 -427 -14 -18
-30 -43 -35 -56 -11 -24 -56 -97 -103 -167 -15 -22 -32 -41 -37 -41 -6 0 -10
-5 -10 -12 0 -6 -12 -27 -27 -46 -16 -20 -35 -48 -43 -64 -8 -15 -34 -58 -57
-95 -52 -84 -79 -166 -104 -308 -21 -121 -27 -351 -10 -368 16 -16 19 4 25
173 7 222 57 419 125 489 7 8 21 33 31 56 10 23 31 57 48 76 16 19 60 79 97
134 37 55 78 114 90 130 21 29 95 175 99 198 2 7 6 19 9 27 3 8 18 62 32 118
14 57 29 111 34 120 13 26 26 184 24 297 -3 150 -52 402 -114 590 -11 33 -24
78 -28 100 -15 69 -93 287 -133 370 -21 45 -38 86 -38 93 0 7 -13 39 -30 72
-17 33 -30 67 -30 77 0 10 -9 36 -21 57 -11 21 -18 41 -15 44 4 3 -1 13 -9 22
-26 29 -66 142 -55 155 12 14 3 26 -14 19 -11 -4 -116 189 -116 213 0 5 -20
40 -45 78 -25 39 -47 75 -49 80 -2 6 -8 6 -15 -1 -8 -7 -25 -8 -49 -3 -20 4
-73 16 -117 25 -81 18 -180 20 -420 9 -60 -3 -129 -5 -151 -5 -23 1 -72 -4
-109 -10 l-68 -11 -71 74 c-39 40 -93 91 -120 113 l-50 40 -1 135 c-2 100 -6
143 -18 171 -9 20 -21 39 -25 42 -5 3 -15 26 -22 51 -7 24 -19 50 -26 56 -8 6
-14 18 -14 25 0 8 -3 14 -7 14 -8 0 -48 30 -86 64 -29 27 -91 43 -153 39 -90
-5 -112 -7 -119 -15 -4 -4 -20 -4 -36 -1 -31 6 -112 -34 -122 -61 -7 -17 -101
-24 -417 -31 -124 -3 -236 -7 -250 -10 -54 -13 -565 -16 -587 -4 -12 6 -30 8
-40 4 -25 -10 -92 -10 -188 -1 -96 10 -170 42 -229 99 -23 22 -72 64 -111 94
-161 124 -209 163 -232 187 -13 14 -30 26 -37 26 -7 0 -43 22 -79 49 -36 27
-76 52 -89 56 -13 4 -39 16 -58 25 -28 14 -69 19 -192 23 -87 2 -159 3 -161 1z
m423 -93 c3 -4 39 -29 80 -56 104 -67 123 -85 108 -102 -9 -11 -15 -10 -33 7
-12 11 -39 29 -59 39 -36 19 -37 19 -30 -1 6 -19 5 -19 -28 -3 -18 10 -50 35
-71 56 -40 41 -37 54 4 18 24 -21 69 -43 75 -36 6 5 -52 58 -77 71 -35 17 -37
39 -3 25 16 -5 31 -14 34 -18z m2514 -409 c3 -5 -3 -18 -12 -28 -18 -19 -31
-63 -57 -188 -17 -81 -25 -94 -25 -41 0 31 -2 35 -14 26 -23 -19 -25 -60 -6
-155 17 -89 20 -130 8 -141 -8 -8 -28 84 -34 155 -3 30 -8 71 -11 90 -9 60
-21 5 -17 -80 3 -52 1 -67 -5 -50 -5 14 -9 55 -10 93 -1 79 -18 90 -24 15 l-4
-53 0 59 c1 37 -4 61 -11 64 -7 2 -13 -8 -14 -25 -7 -104 -7 -103 -18 -103 -5
0 -10 22 -10 49 0 28 -5 53 -11 57 -16 10 -5 113 16 155 25 50 45 69 71 69 12
0 24 5 26 11 7 21 150 39 162 21z m185 -67 c16 -14 38 -40 47 -58 42 -81 54
-107 54 -121 0 -8 5 -18 10 -21 6 -3 10 -26 10 -50 0 -24 5 -47 11 -51 8 -4
10 -27 6 -65 -5 -62 -13 -83 -27 -74 -6 4 -4 15 3 26 10 17 9 22 -7 35 -27 19
-33 18 -40 -12 -5 -20 -11 -24 -29 -19 -12 4 -28 14 -34 23 -15 19 -17 128 -3
137 5 3 21 -17 35 -45 14 -27 30 -50 35 -50 14 0 12 11 -4 29 -20 22 -31 71
-17 71 24 0 1 103 -34 157 -15 22 -16 22 -50 5 -32 -16 -60 -60 -56 -88 3 -23
-19 -64 -34 -64 -20 0 -20 39 0 67 8 12 11 24 6 27 -15 10 6 75 33 102 14 14
28 35 31 45 8 25 18 24 54 -6z m-2024 -53 c-3 -3 -11 0 -18 7 -9 10 -8 11 6 5
10 -3 15 -9 12 -12z m202 12 c-3 -3 -12 -4 -19 -1 -8 3 -5 6 6 6 11 1 17 -2
13 -5z m163 -9 c0 -3 -9 -14 -20 -25 -16 -16 -28 -19 -55 -14 -46 8 -44 18 8
31 52 13 67 14 67 8z m55 -5 c-3 -5 -10 -10 -16 -10 -5 0 -9 5 -9 10 0 6 7 10
16 10 8 0 12 -4 9 -10z m511 -18 c6 -4 28 -39 50 -79 42 -78 68 -91 30 -15
-39 79 -41 92 -13 92 13 0 36 -9 51 -21 l26 -20 0 20 c0 19 6 21 53 21 48 0
54 -3 72 -33 47 -75 75 -134 75 -156 l0 -24 -21 27 c-29 37 -35 26 -11 -21 45
-87 72 -151 72 -170 0 -12 11 -41 25 -64 14 -24 25 -47 25 -51 0 -11 -62 -10
-80 2 -16 10 -15 11 20 27 24 11 24 12 -10 12 -32 1 -37 5 -59 54 -14 28 -28
70 -32 92 -16 81 -19 89 -29 99 -8 8 -9 3 -4 -18 4 -19 2 -31 -7 -36 -9 -6
-10 -12 -2 -22 5 -7 18 -39 27 -70 10 -32 22 -60 27 -64 21 -12 8 -34 -20 -34
-29 0 -57 21 -44 33 3 4 -1 15 -9 24 -21 25 -55 100 -68 150 -6 23 -15 45 -21
48 -13 9 0 -72 17 -106 7 -15 20 -44 27 -65 8 -22 18 -47 22 -57 6 -15 2 -17
-26 -15 -38 2 -62 15 -53 30 3 5 -1 17 -9 26 -8 9 -20 35 -27 57 -18 56 -18
56 -43 97 -123 206 -130 221 -104 231 19 8 61 8 73 -1z m375 -23 c22 -25 27
-24 21 6 -7 41 31 32 71 -17 25 -31 35 -54 35 -82 2 -48 -5 -61 -24 -45 -22
18 -27 4 -11 -33 21 -47 39 -160 27 -172 -10 -10 -34 40 -25 54 3 5 -3 18 -15
30 -11 11 -20 31 -20 44 0 14 -4 27 -9 31 -22 13 -19 -19 8 -94 16 -44 27 -81
25 -83 -2 -3 5 -22 16 -43 24 -46 25 -65 6 -65 -21 0 -58 51 -53 72 3 9 -1 22
-9 29 -8 6 -19 30 -26 53 -7 22 -20 55 -30 71 -23 38 -23 44 2 38 11 -3 20 -1
20 3 0 5 -23 56 -51 113 -40 82 -48 106 -37 112 18 13 59 1 79 -22z m-1071 12
c0 -9 -100 -4 -109 5 -2 2 21 4 52 4 32 0 57 -4 57 -9z m585 -26 c36 -37 95
-134 95 -155 0 -7 -7 -10 -15 -6 -12 4 -14 0 -9 -22 4 -15 13 -39 20 -54 8
-15 14 -34 14 -43 0 -8 9 -32 20 -52 11 -21 20 -44 20 -51 0 -7 9 -31 21 -53
11 -23 18 -44 15 -47 -3 -3 1 -14 11 -24 20 -22 15 -29 -15 -21 -16 4 -21 11
-17 23 3 11 -1 20 -11 24 -10 4 -14 13 -11 26 3 13 0 20 -9 20 -8 0 -14 7 -14
15 0 8 -14 25 -31 37 -23 17 -29 29 -26 46 3 14 -1 26 -9 29 -7 2 -17 18 -23
34 -5 16 -15 29 -20 29 -11 0 25 -95 65 -171 29 -57 30 -69 4 -69 -13 0 -22 9
-26 28 -4 15 -15 45 -25 67 -9 22 -29 68 -44 103 -15 34 -34 62 -41 62 -16 0
-19 -16 -5 -22 7 -2 77 -186 84 -223 2 -6 10 -21 20 -35 11 -15 13 -26 6 -30
-6 -4 2 -19 19 -38 16 -17 32 -41 35 -52 4 -16 0 -20 -21 -20 -37 1 -58 19
-67 60 -4 18 -14 40 -22 48 -7 8 -11 22 -8 32 3 10 0 20 -9 23 -8 3 -21 25
-27 49 -7 24 -18 46 -25 51 -7 4 -15 21 -19 37 -4 17 -13 43 -21 59 -15 30
-44 60 -44 45 0 -16 82 -217 122 -298 41 -85 46 -106 24 -106 -18 0 -46 27
-46 43 0 7 -11 29 -25 49 -14 20 -25 42 -25 48 0 6 -18 48 -40 94 -22 46 -40
88 -40 95 0 6 -4 19 -9 29 -5 9 -14 29 -20 45 -17 44 -32 32 -17 -15 39 -123
107 -284 141 -334 14 -20 23 -39 21 -42 -3 -2 -21 -1 -40 2 -35 7 -62 46 -37
54 18 6 13 18 -13 30 -16 7 -29 25 -35 49 -6 21 -24 65 -41 97 -16 32 -30 66
-30 74 0 9 -6 23 -14 31 -7 9 -21 40 -30 68 -10 29 -22 55 -27 58 -13 9 -11
-26 4 -55 7 -14 21 -50 31 -80 21 -63 90 -232 112 -272 7 -14 14 -31 14 -36 0
-15 -32 -24 -43 -13 -7 7 -17 7 -29 0 -11 -6 -22 -8 -25 -5 -4 3 -12 1 -20 -6
-8 -7 -17 -7 -23 -2 -14 15 -172 335 -167 340 2 2 25 -38 50 -89 44 -90 77
-135 77 -108 0 20 -48 119 -62 128 -7 4 -19 26 -27 48 -8 22 -27 68 -42 103
-16 34 -29 70 -29 80 0 25 16 46 29 38 6 -4 11 0 12 11 0 10 9 -11 20 -47 10
-36 29 -74 42 -86 15 -13 35 -57 52 -111 16 -48 32 -92 37 -97 4 -6 8 -18 8
-28 0 -10 9 -35 20 -55 11 -21 20 -43 20 -49 0 -6 9 -19 20 -29 19 -18 20 -17
20 1 0 11 -8 31 -17 44 -10 14 -29 59 -44 100 -64 187 -83 239 -105 289 -13
29 -24 59 -24 66 0 8 -4 15 -10 17 -5 2 -11 14 -12 28 -3 22 1 25 32 26 20 1
54 7 75 13 43 12 61 3 67 -34 2 -16 -4 -21 -32 -26 -40 -7 -39 -9 10 -16 19
-2 37 -9 38 -14 2 -5 9 -15 16 -22 7 -7 16 -26 21 -42 4 -17 9 -25 12 -18 2 6
0 28 -6 48 -5 20 -7 43 -4 51 3 8 0 14 -6 14 -6 0 -16 12 -22 27 -8 22 -7 30
7 40 13 10 21 9 40 -5 13 -9 24 -23 24 -29 0 -15 36 -18 45 -4 3 5 -4 12 -15
16 -28 9 -25 33 5 41 32 8 60 -15 75 -62 7 -19 15 -32 20 -29 5 3 2 22 -6 41
-29 69 7 86 61 29z m645 22 c0 -7 -6 -22 -14 -32 -13 -18 -14 -17 -30 13 l-17
32 31 0 c18 0 30 -5 30 -13z m40 -93 c-10 -46 -14 -53 -26 -43 -20 16 -17 46
8 99 18 38 22 42 25 22 3 -12 -1 -47 -7 -78z m366 40 c-12 -31 -25 -3 -13 29
11 29 12 30 15 9 2 -13 1 -30 -2 -38z m-6 -59 c0 -14 -4 -25 -10 -25 -5 0 -10
11 -10 25 0 14 5 25 10 25 6 0 10 -11 10 -25z m-63 -27 c-3 -7 -5 -2 -5 12 0
14 2 19 5 13 2 -7 2 -19 0 -25z m-322 -25 c14 -19 8 -56 -9 -50 -12 4 -22 67
-10 67 4 0 12 -8 19 -17z m306 -60 c-9 -16 -10 -16 -11 -1 0 9 3 25 7 35 7 16
8 17 11 1 2 -10 -1 -25 -7 -35z m124 -60 c-3 -18 -10 -33 -15 -33 -14 0 -12
88 3 113 11 21 12 21 15 -12 2 -19 1 -50 -3 -68z m-964 42 c11 -24 24 -47 29
-50 6 -3 10 -17 10 -31 0 -14 9 -42 20 -64 22 -44 25 -60 10 -60 -5 0 -10 6
-10 13 0 7 -14 39 -31 72 -28 53 -59 136 -59 158 0 19 13 3 31 -38z m-638 -2
c3 -16 9 -37 12 -48 4 -11 -4 -2 -17 20 -14 22 -23 46 -20 52 6 19 19 7 25
-24z m1324 -10 c-3 -10 -5 -4 -5 12 0 17 2 24 5 18 2 -7 2 -21 0 -30z m227 4
c-2 -63 -4 -77 -11 -77 -5 0 -9 25 -10 56 -2 41 0 55 10 51 6 -2 12 -16 11
-30z m-1640 9 c-6 -15 -34 -30 -42 -22 -10 11 9 36 27 36 14 0 19 -5 15 -14z
m1386 -48 c0 -20 4 -39 9 -42 4 -3 11 -31 14 -63 3 -32 11 -71 17 -88 l13 -30
7 25 8 25 2 -25 c2 -21 4 -18 14 15 l13 40 7 -53 c9 -71 26 -66 28 11 1 56 2
57 5 15 4 -51 18 -62 33 -25 7 18 9 13 10 -28 l2 -50 13 30 c11 24 14 26 15 9
0 -36 47 -88 85 -95 43 -7 47 10 10 39 -14 11 -25 30 -25 42 0 17 4 20 23 15
12 -4 27 -12 34 -19 17 -15 21 -88 5 -94 -7 -2 -12 -9 -12 -16 0 -28 -51 -37
-156 -30 -81 5 -107 11 -120 25 -9 10 -22 15 -30 12 -14 -5 -34 33 -34 65 1
15 2 15 15 -2 22 -29 28 -13 11 25 -8 19 -15 28 -15 22 -2 -30 -21 -10 -21 22
0 24 5 35 15 35 19 0 19 35 1 86 -17 49 -29 141 -20 155 11 18 24 -12 24 -53z
m-140 38 c0 -8 3 -22 7 -32 4 -11 3 -15 -4 -11 -13 8 -23 57 -12 57 5 0 9 -6
9 -14z m-1148 -93 c67 -159 88 -235 38 -138 -13 25 -30 51 -38 58 -13 10 -14
8 -9 -13 4 -14 10 -35 13 -47 3 -13 2 -23 -3 -23 -11 0 -30 75 -38 155 -3 33
-8 68 -11 78 -3 9 -2 17 3 17 5 0 25 -39 45 -87z m-112 42 c0 -17 -27 -32 -37
-21 -4 3 2 13 13 21 24 18 24 18 24 0z m1443 -28 c3 -22 2 -35 -4 -32 -5 4 -9
22 -9 42 0 45 5 40 13 -10z m46 -22 l0 -20 -9 20 c-5 11 -9 29 -9 40 l0 20 9
-20 c5 -11 9 -29 9 -40z m-2514 -48 c11 -13 15 -33 13 -70 l-3 -52 -37 56
c-31 46 -38 65 -38 104 l0 49 24 -35 c13 -19 32 -42 41 -52z m1020 32 c-4 -5
-13 -9 -22 -9 -13 0 -13 3 -3 15 13 15 35 11 25 -6z m1735 1 c0 20 2 22 10 10
16 -24 12 -60 -5 -54 -10 4 -15 0 -15 -11 0 -13 7 -15 37 -10 34 5 40 2 88
-47 60 -62 91 -88 105 -88 16 0 12 12 -12 37 l-22 24 32 31 c25 25 34 30 44
20 7 -7 26 -12 43 -12 26 0 44 -13 105 -76 58 -59 71 -78 59 -84 -15 -9 -170
-50 -187 -50 -5 0 -21 18 -36 41 -15 22 -33 38 -39 36 -13 -4 -74 57 -114 116
-28 40 -46 44 -51 10 -2 -13 4 -22 15 -25 10 -3 36 -35 58 -72 63 -105 68
-117 57 -128 -8 -8 -19 4 -39 37 -15 26 -43 70 -60 98 -18 27 -33 53 -33 58 0
5 -17 9 -38 9 -52 0 -68 17 -42 45 18 20 19 23 5 35 -18 15 -20 41 -3 58 10
10 15 7 25 -10 l12 -23 1 25z m-2866 -26 c22 -48 14 -55 -13 -11 -23 37 -25
47 -13 47 5 0 16 -16 26 -36z m212 -39 c34 -51 36 -58 24 -83 -9 -18 -14 -23
-18 -13 -2 8 -15 30 -28 49 -21 30 -34 102 -19 102 3 0 21 -25 41 -55z m2818
-9 c24 -18 25 -23 14 -39 -13 -17 -17 -16 -66 30 -63 59 -69 84 -13 52 21 -12
51 -31 65 -43z m-2320 39 c-4 -8 -10 -15 -15 -15 -4 0 -6 7 -3 15 4 8 10 15
15 15 4 0 6 -7 3 -15z m-719 -55 c14 -27 25 -65 25 -85 0 -75 -40 -19 -55 77
-12 76 -5 78 30 8z m806 -47 c-8 -14 -10 -10 -11 24 0 61 14 89 18 36 2 -24
-1 -51 -7 -60z m349 83 c0 -15 -18 -31 -26 -23 -7 7 7 37 17 37 5 0 9 -6 9
-14z m-1241 -48 c33 -78 21 -186 -13 -120 -15 29 -24 162 -11 162 3 0 14 -19
24 -42z m-339 -30 c30 -64 38 -108 20 -108 -5 0 -10 4 -10 10 0 5 -11 26 -25
46 -22 33 -36 114 -20 114 3 0 19 -28 35 -62z m1471 -1 c-8 -8 -11 -4 -11 14
0 33 14 47 18 19 2 -12 -1 -27 -7 -33z m1036 41 c6 -7 15 -26 20 -43 6 -16 16
-29 22 -27 23 5 10 -16 -13 -22 -42 -10 -73 8 -80 50 -5 26 -4 39 6 45 19 12
34 11 45 -3z m103 -23 c0 -17 -5 -18 -37 -9 -25 7 -31 29 -10 37 18 6 47 -11
47 -28z m-2072 -66 c13 -23 17 -42 11 -50 -6 -10 -9 -11 -9 -1 0 7 -13 31 -30
54 -16 22 -30 50 -30 62 0 20 1 20 20 -4 10 -14 28 -41 38 -61z m620 0 c-21
-13 -28 42 -9 65 15 17 16 16 19 -19 2 -24 -2 -41 -10 -46z m1252 60 c0 -5 -4
-9 -10 -9 -5 0 -10 7 -10 16 0 8 5 12 10 9 6 -3 10 -10 10 -16z m-974 -37
c-11 -10 -15 4 -8 28 l7 25 3 -23 c2 -13 1 -26 -2 -30z m-1347 1 c25 -50 35
-99 22 -108 -6 -3 -11 -1 -11 5 0 6 -11 28 -25 50 -18 28 -23 48 -19 65 3 14
8 25 10 25 2 0 12 -17 23 -37z m101 -27 c25 -53 29 -70 22 -102 l-8 -38 -22
37 c-31 49 -42 90 -35 132 3 19 7 35 9 35 2 0 18 -29 34 -64z m457 -17 c21
-23 22 -29 12 -53 -7 -14 -15 -26 -18 -26 -16 0 -43 66 -47 113 l-4 52 16 -30
c9 -16 27 -42 41 -56z m-369 -8 c2 -32 0 -61 -5 -64 -16 -10 -36 67 -29 108
10 54 29 30 34 -44z m844 25 c-2 -20 -7 -34 -11 -32 -4 3 -5 21 -3 40 2 20 7
34 11 32 4 -3 5 -21 3 -40z m-1239 -28 c38 -60 39 -64 34 -135 -5 -83 -12 -97
-34 -68 -58 78 -65 102 -58 185 4 44 10 80 14 80 3 0 23 -28 44 -62z m940 -12
c-13 -28 -19 -33 -30 -24 -13 11 -12 22 9 77 l9 24 15 -21 c13 -18 12 -25 -3
-56z m276 62 c-2 -30 -36 -112 -49 -116 -16 -6 -8 43 16 94 16 34 35 46 33 22z
m1196 2 c28 -11 25 -30 -4 -30 -21 0 -44 23 -34 33 8 9 7 9 38 -3z m149 -6 c9
-24 8 -26 -14 -14 -11 6 -18 15 -15 21 9 14 22 11 29 -7z m192 5 c11 -18 -13
-34 -31 -19 -8 7 -15 16 -15 21 0 13 38 11 46 -2z m114 1 c0 -5 -13 -10 -30
-10 -16 0 -30 5 -30 10 0 6 14 10 30 10 17 0 30 -4 30 -10z m-1020 -42 c0 -14
-18 -9 -24 8 -11 28 -6 39 9 20 8 -11 15 -23 15 -28z m-1736 -37 c21 -40 23
-56 18 -101 -7 -54 -7 -54 -23 -30 -23 36 -37 88 -38 143 -1 58 10 55 43 -12z
m490 43 c8 -21 8 -24 -3 -24 -5 0 -11 9 -14 20 -6 24 8 27 17 4z m548 -19 c-3
-30 -49 -105 -65 -105 -15 0 -2 61 23 103 25 43 47 44 42 2z m760 3 c40 -79
48 -98 40 -98 -8 0 -46 65 -63 108 -13 34 4 26 23 -10z m-840 -18 c-18 -41
-39 -58 -23 -17 5 12 12 30 15 40 3 9 10 17 15 17 5 0 2 -18 -7 -40z m288 27
c0 -8 -9 -22 -20 -32 -19 -18 -20 -17 -20 1 0 20 17 44 32 44 4 0 8 -6 8 -13z
m1606 -32 c20 -25 35 -48 32 -50 -3 -3 -38 -5 -79 -5 -41 0 -90 0 -110 0 -38
0 -61 18 -73 58 -7 20 -4 22 36 23 24 1 54 5 68 9 61 20 87 12 126 -35z
m-2420 -22 c27 -44 27 -47 15 -121 -6 -42 -17 -79 -23 -83 -9 -6 -9 -11 1 -23
7 -8 11 -27 9 -43 -3 -27 -4 -27 -35 22 -33 50 -42 105 -24 134 7 10 12 8 24
-10 9 -12 19 -20 22 -17 3 3 -3 16 -14 30 -15 19 -20 40 -20 96 0 43 4 70 9
67 6 -3 22 -27 36 -52z m310 40 c15 -20 18 -53 6 -53 -9 0 -32 44 -32 60 0 15
11 12 26 -7z m-959 -76 c-5 -15 -37 46 -37 70 1 11 9 3 21 -20 11 -21 18 -44
16 -50z m2788 77 c8 -4 23 -20 31 -37 20 -38 9 -47 -63 -47 -42 0 -55 4 -67
22 l-16 22 0 -22 c0 -16 -6 -22 -23 -22 -13 0 -28 5 -35 12 -8 8 -12 8 -12 1
0 -12 -44 -23 -58 -14 -13 9 -32 47 -32 65 0 26 46 19 69 -11 l21 -26 -2 24
c-3 20 1 23 22 21 14 -2 31 -9 38 -14 9 -8 12 -6 12 6 0 20 9 20 32 -1 16 -14
18 -14 18 0 0 23 32 33 65 21z m-2980 -34 c11 -21 14 -42 9 -67 -6 -34 -8 -35
-20 -18 -13 17 -20 115 -9 115 2 0 12 -14 20 -30z m2175 0 c12 -23 12 -24 -3
-11 -10 7 -17 20 -17 29 0 18 3 16 20 -18z m-1658 -102 l-4 -37 -28 52 c-19
37 -26 62 -23 81 l6 28 27 -43 c20 -33 26 -53 22 -81z m4322 101 c-3 -5 -35
-9 -71 -9 -76 0 -76 12 0 20 57 6 80 3 71 -11z m-4095 -20 c13 -38 15 -129 3
-129 -18 0 -40 79 -35 120 7 48 17 51 32 9z m197 14 c15 -21 18 -62 5 -82 -7
-11 -15 -4 -35 27 -30 48 -31 52 -11 52 8 0 15 5 15 10 0 15 11 12 26 -7z
m644 8 c0 -16 -48 -67 -55 -59 -8 7 13 49 29 60 15 11 26 10 26 -1z m-265
-113 c-15 -24 -24 -35 -21 -26 5 18 -1 26 -39 52 -19 14 -19 14 0 50 l19 36
34 -35 34 -34 -27 -43z m-196 78 c11 -19 10 -28 -1 -51 l-15 -27 -16 26 c-14
20 -15 30 -5 51 14 31 21 31 37 1z m-954 -30 c25 -42 25 -46 14 -117 -6 -41
-12 -75 -14 -77 -7 -8 -57 91 -57 112 0 26 22 126 28 126 2 0 15 -20 29 -44z
m859 19 c9 -13 16 -32 16 -42 -1 -14 -6 -12 -25 12 -25 30 -32 55 -16 55 5 0
16 -11 25 -25z m3318 15 c13 0 18 -5 15 -14 -5 -13 0 -12 36 1 35 12 81 14
282 9 240 -6 358 -18 382 -38 16 -13 103 -134 103 -143 0 -3 10 -19 22 -35 27
-38 19 -45 -34 -32 -47 12 -79 3 -56 -15 7 -6 27 -13 43 -16 17 -2 -1 -2 -40
0 -70 4 -70 3 -36 -12 18 -8 38 -15 45 -15 6 0 22 -9 36 -20 14 -11 40 -20 58
-20 34 0 102 -24 102 -36 0 -4 -18 -4 -40 0 -44 7 -52 -4 -24 -32 11 -10 30
-15 54 -13 36 2 37 1 62 -56 28 -62 35 -83 42 -126 3 -15 19 -51 35 -81 37
-65 38 -74 6 -82 -39 -10 -30 -26 10 -18 19 3 35 5 35 3 0 -2 27 -83 61 -179
33 -96 69 -204 81 -240 11 -36 35 -108 54 -161 19 -53 34 -111 34 -130 l-1
-34 -17 34 c-9 19 -23 37 -30 39 -11 3 -13 -18 -7 -118 6 -119 -3 -180 -26
-180 -4 0 -7 -38 -6 -85 2 -81 -4 -104 -17 -69 -3 9 -6 24 -6 35 0 10 -4 19
-10 19 -5 0 -10 -11 -10 -24 0 -30 -9 -56 -20 -56 -5 0 -14 16 -20 35 -18 55
-29 41 -14 -17 17 -62 18 -104 4 -113 -5 -3 -10 -23 -10 -44 0 -39 -19 -106
-27 -97 -11 11 -10 105 2 152 12 46 12 70 -1 132 -9 44 -21 13 -16 -43 3 -32
-3 -94 -14 -148 -17 -89 -18 -91 -30 -62 -18 41 -17 75 1 75 8 0 15 5 15 11 0
6 -7 8 -16 5 -15 -6 -16 2 -10 69 4 42 11 86 16 98 10 23 31 297 24 308 -2 4
-8 44 -13 89 -7 68 -6 99 10 177 21 104 24 178 9 188 -6 4 -10 -14 -10 -46 0
-50 -16 -123 -31 -144 -4 -5 -10 -31 -14 -57 -5 -33 -12 -48 -22 -48 -12 0
-14 8 -10 36 3 20 12 44 20 53 27 31 42 142 28 214 -7 37 -6 47 5 47 8 0 14 3
14 8 0 9 -76 86 -105 106 -16 11 -17 16 -7 29 8 9 9 18 3 21 -25 16 -41 -94
-16 -114 8 -6 19 -36 26 -65 11 -49 10 -56 -10 -88 -20 -34 -21 -36 -4 -45 15
-9 16 -16 7 -51 -10 -37 -9 -41 7 -41 17 0 19 -9 20 -72 1 -94 -2 -314 -6
-353 -6 -64 -24 -161 -34 -187 -6 -15 -8 -34 -5 -42 7 -18 -23 -119 -52 -178
-13 -26 -20 -50 -15 -53 8 -4 54 79 74 135 3 8 6 -13 6 -46 1 -34 -6 -80 -14
-103 -18 -52 0 -55 22 -3 l16 37 20 -83 c18 -70 24 -81 39 -76 15 4 18 -1 20
-33 0 -21 2 -51 3 -67 2 -31 -14 -108 -24 -116 -4 -3 -14 -30 -24 -61 -10 -31
-25 -63 -34 -70 -15 -13 -15 -10 -9 26 4 22 20 66 37 99 32 61 31 87 -2 47
l-19 -23 0 61 c0 34 -4 61 -10 61 -5 0 -9 -21 -9 -47 2 -60 -23 -145 -56 -195
-14 -21 -25 -44 -25 -52 0 -14 -39 -67 -40 -53 0 4 9 26 21 49 43 85 62 178
35 178 -8 0 -17 12 -21 27 -4 19 -9 23 -14 14 -5 -7 -3 -32 4 -55 11 -34 10
-47 -2 -79 -18 -43 -36 -49 -30 -9 3 15 8 45 11 67 11 61 -11 21 -28 -53 -8
-34 -24 -75 -36 -92 -19 -26 -24 -29 -38 -18 -12 10 -16 10 -19 1 -3 -7 -14
-13 -24 -13 -18 0 -19 2 -5 21 8 12 28 29 44 39 24 15 33 32 52 102 12 45 26
91 32 101 5 10 8 26 6 35 -2 9 -14 -13 -27 -50 -12 -38 -25 -68 -28 -68 -7 0
6 78 23 135 9 28 14 71 12 95 l-3 45 -14 -45 c-7 -25 -21 -63 -31 -85 -10 -22
-22 -52 -25 -68 -10 -37 -28 -47 -22 -11 8 52 26 108 47 149 11 21 20 48 20
58 0 24 21 63 59 111 35 43 39 59 14 54 -9 -2 -26 -21 -39 -43 -13 -22 -28
-39 -33 -37 -6 1 -11 -4 -11 -12 0 -34 -73 -243 -90 -261 -20 -19 -20 -19 -20
3 0 13 7 34 16 47 8 13 22 54 31 92 20 91 19 88 8 91 -5 2 -16 -18 -23 -45
-18 -67 -43 -123 -53 -118 -4 3 -17 -7 -29 -22 l-21 -28 5 27 c3 14 9 33 12
42 3 9 1 16 -5 16 -13 0 -15 -5 -31 -66 -9 -36 -13 -41 -36 -38 -16 1 -27 -3
-31 -14 -14 -46 -16 -46 -28 -12 -14 39 -10 48 23 53 27 4 37 14 47 45 4 14 2
22 -5 22 -7 0 -14 -9 -17 -20 -3 -13 -20 -24 -47 -31 -61 -18 -211 -15 -288 5
-83 21 -285 101 -305 121 -8 8 -24 15 -36 15 -19 0 -18 -3 14 -36 18 -20 64
-53 102 -75 37 -22 67 -46 67 -53 0 -7 20 -21 44 -30 33 -13 53 -31 85 -75 22
-33 41 -64 41 -69 0 -6 -21 -18 -47 -28 -63 -23 -78 -37 -30 -29 43 8 46 1 14
-37 -12 -15 -30 -39 -41 -54 -18 -25 -18 -25 -32 -6 -8 11 -11 27 -8 35 3 9
-4 25 -15 36 -12 12 -21 29 -21 39 0 10 -7 27 -15 40 -9 12 -17 38 -19 57 -2
24 -12 42 -30 56 -18 14 -26 28 -23 40 3 11 0 16 -8 12 -18 -6 -42 37 -25 47
7 5 3 12 -14 23 -14 9 -73 64 -131 122 -58 58 -113 105 -122 105 -13 0 -11 -6
10 -28 15 -16 25 -31 22 -34 -4 -3 31 -39 77 -79 46 -40 92 -87 103 -103 50
-79 52 -96 13 -96 -14 0 -18 5 -14 15 3 8 1 15 -4 15 -6 0 -10 -9 -10 -20 0
-13 -10 -24 -26 -30 -36 -14 -37 -13 -30 16 6 21 4 25 -8 21 -9 -4 -16 -2 -16
3 0 19 -70 160 -80 160 -13 0 -13 -6 1 -32 25 -47 58 -153 50 -161 -5 -5 -20
21 -35 60 -28 72 -51 113 -66 113 -5 0 -1 -19 9 -42 21 -48 36 -107 26 -96 -4
4 -21 35 -39 69 -17 35 -37 65 -45 67 -8 3 -11 0 -7 -7 4 -6 12 -26 16 -44 9
-31 9 -31 -8 -11 -9 11 -25 31 -35 45 -12 16 -20 20 -23 12 -7 -15 -40 -17
-49 -3 -11 18 -33 10 -39 -14 -3 -13 -20 -30 -38 -39 -35 -17 -50 -14 -42 8 4
8 -3 15 -18 17 -18 2 -22 8 -20 27 4 23 2 24 -40 19 -27 -4 -61 0 -92 11 -41
13 -53 23 -70 57 -12 23 -27 49 -35 58 -9 11 -12 29 -7 55 5 31 1 48 -15 75
-17 30 -18 36 -6 36 12 0 15 12 15 53 0 44 29 160 58 231 5 14 3 17 -7 14 -7
-2 -23 -32 -35 -67 -12 -34 -25 -65 -29 -69 -5 -4 -5 2 -1 13 14 39 20 108 8
101 -20 -12 -32 -78 -38 -201 -4 -66 -11 -128 -16 -139 -7 -12 -6 -22 1 -29
15 -15 14 -36 -4 -53 -19 -19 -19 -83 0 -108 8 -11 15 -31 15 -46 0 -27 44
-100 60 -100 6 0 10 -4 10 -9 0 -4 25 -52 56 -106 37 -64 58 -111 59 -136 2
-38 56 -130 115 -194 14 -16 43 -53 63 -81 46 -64 117 -130 189 -176 80 -52
91 -73 21 -41 -144 66 -343 262 -430 423 -51 96 -51 95 -59 88 -12 -12 94
-193 147 -253 31 -34 58 -67 60 -72 4 -8 73 -68 169 -145 51 -42 26 -34 -56
18 -41 25 -84 59 -96 77 -26 37 -59 76 -138 162 -79 86 -150 203 -150 247 0 8
-4 18 -9 24 -12 13 -40 102 -57 182 -34 153 -42 240 -39 417 1 132 -1 189 -11
214 -8 18 -12 36 -10 40 3 4 -1 92 -9 197 -23 328 -22 818 1 856 4 5 10 40 14
77 9 86 49 191 72 191 9 0 20 5 24 12 5 8 0 9 -15 5 -14 -3 -21 -1 -18 6 3 9
61 12 203 13 109 1 233 6 275 11 l76 9 16 -41 c31 -77 40 -100 42 -110 2 -6
17 -40 34 -75 31 -63 31 -64 26 -25 -3 22 -7 54 -8 70 -2 17 -5 35 -7 40 -5
18 0 35 9 35 5 0 30 -37 57 -82 26 -46 73 -124 106 -175 32 -50 67 -113 79
-140 41 -95 70 -184 67 -207 -1 -13 9 -40 23 -62 14 -21 29 -48 34 -59 8 -20
9 -20 12 0 2 12 -14 72 -37 135 -44 126 -47 138 -25 120 19 -16 65 -95 65
-112 0 -7 11 -40 24 -73 48 -123 82 -227 119 -375 9 -36 12 -40 15 -21 2 14
-1 41 -6 60 -6 20 -16 56 -22 80 -6 23 -14 49 -17 57 -3 8 -1 14 4 14 6 0 22
-42 38 -92 15 -51 31 -97 35 -103 4 -5 13 -39 20 -75 7 -36 19 -76 25 -90 7
-14 21 -78 31 -142 19 -125 37 -161 28 -55 -5 59 -29 202 -40 240 -3 9 -1 17
5 17 6 0 11 -7 11 -15 0 -9 8 -41 19 -73 10 -31 22 -78 25 -104 4 -27 12 -48
17 -48 6 0 9 8 8 18 -3 34 1 53 11 47 13 -8 13 31 0 56 -16 28 -72 229 -65
229 18 0 58 -58 71 -100 9 -29 24 -65 34 -79 9 -14 23 -53 29 -86 23 -114 31
-126 26 -40 -6 113 -37 220 -106 367 -61 131 -69 158 -44 158 28 0 145 -232
145 -288 0 -7 9 -34 21 -60 11 -26 24 -56 29 -67 5 -11 11 -31 13 -45 7 -34
58 -213 64 -223 2 -4 13 -2 24 3 10 6 19 7 19 2 0 -5 9 -20 20 -32 l21 -24 6
22 c3 12 9 22 14 22 5 0 9 15 9 34 0 20 6 36 14 39 14 6 11 45 -4 57 -3 3 -16
29 -27 57 -12 29 -38 77 -57 106 -20 30 -36 58 -36 63 0 14 -82 172 -119 229
l-32 50 6 -40 6 -40 -30 49 c-16 28 -32 64 -35 82 -4 17 -16 40 -28 50 -20 19
-21 19 -14 -6 6 -20 3 -18 -15 10 -23 37 -39 27 -18 -12 12 -22 11 -22 -7 -8
-24 19 -39 38 -56 70 -7 14 -19 32 -25 40 -33 39 -116 160 -140 204 -16 27
-42 65 -59 85 -17 20 -45 57 -63 84 -17 26 -43 59 -56 73 -14 15 -25 31 -25
35 0 4 -23 39 -51 76 -28 37 -54 75 -57 83 -16 45 -43 100 -53 106 -6 3 -18
22 -26 41 -27 65 -64 116 -75 105 -8 -8 -6 -18 6 -36 19 -31 20 -36 3 -36 -13
0 -47 90 -47 123 0 9 -13 32 -30 50 -30 35 -39 67 -19 67 24 0 48 -22 62 -58
18 -45 39 -57 69 -41 21 12 38 -1 38 -28 0 -7 4 -13 8 -13 8 0 32 -43 32 -57
0 -3 -6 -3 -14 0 -10 4 -12 0 -9 -14 3 -10 11 -19 18 -19 8 0 23 -16 35 -36
29 -45 39 -36 12 11 -25 41 -19 46 10 10 27 -35 44 -31 19 4 -12 16 -21 31
-21 34 0 3 -25 41 -56 84 -75 104 -96 147 -81 162 8 8 7 11 -3 12 -8 0 -1 7
15 14 35 16 105 20 105 5 0 -5 7 -10 15 -10 8 0 15 -4 15 -10 0 -5 7 -10 16
-10 22 0 12 23 -15 36 l-22 12 27 6 c15 4 32 2 37 -3 6 -6 7 -11 3 -11 -5 0
-3 -6 4 -14 9 -12 17 -13 36 -4 29 14 33 38 4 31 -11 -3 -20 -1 -20 5 0 12 29
21 48 16 8 -2 23 -4 34 -4z m-3752 -60 c30 -59 38 -100 21 -100 -14 0 -61 104
-61 134 0 14 2 26 5 26 3 0 18 -27 35 -60z m604 51 c8 -13 -4 -42 -15 -35 -12
7 -12 44 0 44 6 0 12 -4 15 -9z m-523 -98 l-8 -38 -9 34 c-5 18 -8 50 -5 70
l4 36 13 -32 c10 -22 11 -44 5 -70z m784 50 c-6 -42 -31 -83 -50 -83 -9 0 5
59 23 97 23 48 35 41 27 -14z m49 25 c-4 -13 -13 -32 -22 -43 -13 -18 -14 -18
-8 -2 3 11 9 30 12 43 3 13 10 24 16 24 5 0 6 -10 2 -22z m545 -19 c-8 -5 -21
-9 -29 -9 -12 1 -11 4 4 15 10 8 23 12 29 8 5 -3 3 -9 -4 -14z m-452 -11 c-3
-8 -6 -5 -6 6 -1 11 2 17 5 13 3 -3 4 -12 1 -19z m808 12 c-22 -5 -44 -4 -49
1 -6 5 10 9 40 8 l49 -1 -40 -8z m92 4 c-3 -3 -12 -4 -19 -1 -8 3 -5 6 6 6 11
1 17 -2 13 -5z m-2522 -35 c9 -16 15 -47 13 -67 l-3 -37 -23 37 c-18 28 -22
46 -17 68 4 16 8 30 11 30 2 0 11 -14 19 -31z m105 -86 c0 -24 -4 -43 -8 -43
-11 0 -52 86 -52 109 0 11 3 27 7 36 11 29 53 -52 53 -102z m413 42 c10 -20
12 -48 8 -85 l-6 -55 -24 38 c-18 29 -25 58 -28 110 l-4 72 20 -25 c11 -14 27
-38 34 -55z m-105 16 c24 -53 28 -101 11 -150 -14 -39 -28 -36 -52 11 -15 31
-16 44 -6 112 6 42 14 76 18 76 3 -1 16 -22 29 -49z m858 27 c11 -25 8 -58 -6
-58 -17 0 -31 29 -24 54 8 32 18 33 30 4z m-313 -68 c12 -37 13 -54 4 -88 -10
-38 -27 -58 -27 -31 0 6 -9 24 -21 40 -18 25 -20 38 -14 86 3 32 9 61 12 66 7
12 28 -21 46 -73z m145 63 c5 -10 6 -27 2 -38 -7 -19 -7 -19 -19 4 -7 12 -10
29 -7 37 7 19 13 18 24 -3z m82 -7 c0 -14 -4 -27 -9 -31 -12 -7 -25 31 -16 45
11 18 25 10 25 -14z m-150 -5 c11 -22 4 -51 -14 -51 -8 0 -11 12 -8 35 5 40 7
42 22 16z m355 -31 c-3 -49 -11 -59 -31 -38 -15 14 -14 19 1 52 21 45 33 39
30 -14z m195 39 c0 -21 -34 -68 -59 -81 -14 -7 -31 -20 -38 -28 -11 -13 -12
-13 -13 2 0 9 21 40 47 68 48 50 63 60 63 39z m-950 -150 c0 -21 -3 -39 -7
-39 -5 1 -22 29 -39 63 -23 45 -30 71 -26 95 l4 33 34 -56 c23 -38 34 -68 34
-96z m113 112 c18 -30 23 -116 8 -125 -15 -10 -42 67 -39 112 2 23 5 42 8 42
3 0 13 -13 23 -29z m1715 12 c-10 -2 -26 -2 -35 0 -10 3 -2 5 17 5 19 0 27 -2
18 -5z m-2168 -107 c0 -28 -13 -47 -41 -62 -26 -13 -30 -13 -35 1 -7 18 3 143
13 158 7 11 63 -76 63 -97z m-401 58 c24 -40 25 -61 7 -119 l-12 -40 -22 50
c-21 45 -22 54 -10 97 6 26 13 48 14 48 1 0 11 -16 23 -36z m1201 -35 c0 -27
-12 -29 -31 -5 -20 25 -24 48 -12 60 9 9 42 -34 43 -55z m60 42 c5 -11 7 -27
4 -36 -9 -22 -34 0 -34 31 0 29 15 31 30 5z m2886 -18 c-4 -4 -11 -1 -16 7
-16 25 -11 35 7 17 9 -9 13 -20 9 -24z m-4040 -39 c3 -13 2 -35 -3 -50 l-9
-28 -22 36 c-22 35 -29 88 -15 102 10 9 41 -29 49 -60z m1248 43 c8 -12 7 -21
-6 -33 -15 -15 -17 -15 -27 4 -22 41 9 67 33 29z m60 8 c-4 -8 -8 -15 -10 -15
-2 0 -4 7 -4 15 0 8 4 15 10 15 5 0 7 -7 4 -15z m-1511 -36 c16 -28 19 -44 13
-83 l-8 -49 -24 39 c-36 60 -37 62 -30 100 8 42 21 40 49 -7z m887 -5 c0 -21
-4 -33 -10 -29 -5 3 -10 22 -10 41 0 21 4 33 10 29 6 -3 10 -22 10 -41z m-604
-23 c19 -40 22 -81 5 -81 -11 0 -51 88 -51 111 0 32 22 17 46 -30z m104 -68
c0 -36 -18 -36 -40 -1 -12 20 -20 50 -20 78 l0 45 30 -50 c16 -27 30 -60 30
-72z m1160 86 c0 -21 -16 -26 -23 -6 -6 17 3 38 14 31 5 -3 9 -14 9 -25z m87
-13 c-6 -41 -34 -86 -52 -86 -24 0 -24 29 0 52 17 16 22 30 18 46 -4 18 -1 22
17 22 20 0 22 -4 17 -34z m-838 -33 c51 -88 54 -193 4 -151 -14 11 -15 10 -8
-12 4 -14 14 -36 22 -49 13 -20 13 -32 3 -83 -14 -63 -28 -83 -37 -49 -3 12
-10 21 -15 21 -19 0 -38 71 -38 145 0 60 3 75 15 75 18 0 19 16 4 59 -11 32
-5 101 9 101 4 0 23 -26 41 -57z m-119 33 c0 -7 8 -24 19 -37 16 -21 18 -36
13 -117 l-5 -94 -24 25 c-15 14 -26 39 -28 60 -2 20 -6 40 -9 45 -8 13 16 132
26 132 4 0 8 -6 8 -14z m350 -42 c0 -5 -7 -19 -15 -30 -13 -16 -16 -17 -25 -4
-5 8 -8 21 -5 28 3 8 5 26 5 40 l0 27 20 -25 c11 -14 20 -30 20 -36z m-1173 0
c22 -38 32 -111 14 -100 -19 12 -70 116 -65 131 9 23 26 13 51 -31z m1378 10
c9 -20 15 -47 12 -60 -3 -20 -1 -22 14 -13 16 8 20 2 34 -43 19 -64 19 -72 0
-88 -13 -11 -19 -9 -33 11 -26 36 -42 70 -42 86 0 8 -5 11 -10 8 -17 -10 -27
35 -19 79 5 23 8 44 9 49 1 19 19 4 35 -29z m98 7 c9 -16 17 -36 17 -45 0 -15
-2 -15 -19 1 -21 20 -39 73 -24 73 5 0 16 -13 26 -29z m-378 -63 c5 -17 3 -28
-3 -28 -19 0 -42 44 -42 80 l0 35 19 -30 c11 -16 23 -42 26 -57z m475 36 c0
-12 -4 -26 -10 -29 -13 -8 -34 40 -26 60 9 24 36 1 36 -31z m-895 -3 c9 -44
-8 -151 -24 -151 -4 0 -18 22 -30 48 l-23 49 29 41 c15 23 31 41 35 42 3 0 9
-13 13 -29z m345 -24 c0 -31 -3 -38 -10 -27 -13 20 -13 83 0 75 6 -3 10 -25
10 -48z m248 28 c14 -30 16 -85 4 -85 -13 0 -38 63 -34 88 5 29 16 28 30 -3z
m-1328 -15 c11 -25 9 -33 -10 -60 -12 -16 -24 -30 -28 -29 -9 0 -50 52 -58 72
-4 10 4 21 23 31 42 23 59 19 73 -14z m479 -48 c7 -12 9 -27 6 -32 -3 -5 -2
-26 4 -45 5 -19 8 -35 6 -35 -1 0 -17 22 -34 48 -21 33 -31 61 -31 87 0 38 0
39 19 19 10 -11 24 -30 30 -42z m3921 48 c0 -5 -4 -10 -10 -10 -5 0 -10 5 -10
10 0 6 5 10 10 10 6 0 10 -4 10 -10z m-4225 -33 c20 -38 17 -70 -7 -75 -26 -5
-53 54 -39 84 14 32 25 30 46 -9z m379 -32 c25 -47 36 -112 17 -101 -16 10
-61 116 -61 143 0 33 9 24 44 -42z m700 39 c8 -20 -3 -84 -14 -84 -11 0 -24
76 -15 90 9 15 22 12 29 -6z m339 -34 c-8 -29 -21 -25 -15 5 2 14 8 23 12 20
5 -3 6 -14 3 -25z m67 15 c0 -8 -4 -15 -10 -15 -5 0 -10 7 -10 15 0 8 5 15 10
15 6 0 10 -7 10 -15z m2140 7 c0 -10 -22 -32 -32 -32 -5 0 -3 9 4 20 13 20 28
27 28 12z m-3179 -53 c-10 -23 -10 -23 -10 7 -1 17 2 34 7 38 11 12 14 -18 3
-45z m159 5 c0 -24 5 -34 15 -34 11 0 15 -12 15 -44 0 -57 -8 -76 -31 -76 -13
0 -22 12 -31 41 -10 37 -10 43 6 54 14 11 16 19 8 47 -10 36 -6 61 9 52 5 -3
9 -21 9 -40z m349 15 c14 -41 14 -76 0 -85 -6 -3 -9 -15 -6 -25 6 -22 -21 -55
-34 -42 -4 4 -4 28 1 53 5 25 9 64 10 88 0 50 14 55 29 11z m176 -29 c-4 -11
-11 -20 -17 -20 -5 0 -7 7 -4 16 3 9 6 25 6 37 1 20 2 20 11 4 6 -9 7 -26 4
-37z m399 31 c9 -14 -4 -41 -20 -41 -15 0 -17 10 -8 34 7 18 20 21 28 7z
m-1651 -27 c18 -23 18 -26 2 -51 -9 -14 -14 -34 -11 -45 3 -15 -3 -12 -24 13
-31 36 -36 59 -20 90 14 26 31 24 53 -7z m1593 -41 c-4 -8 -13 -13 -21 -9 -9
3 -17 0 -19 -7 -13 -40 -17 -48 -26 -42 -7 4 -5 16 5 33 8 15 20 40 25 56 l11
29 15 -22 c9 -12 13 -29 10 -38z m2855 15 c12 -24 30 -55 41 -71 11 -15 18
-34 16 -43 -2 -9 -24 16 -55 64 -29 44 -53 82 -53 86 0 3 7 6 15 6 8 0 24 -19
36 -42z m-4381 12 c0 -11 -4 -20 -10 -20 -5 0 -10 9 -10 20 0 11 5 20 10 20 6
0 10 -9 10 -20z m1104 -34 c-10 -27 -29 -13 -32 25 l-3 34 21 -21 c13 -13 18
-27 14 -38z m163 17 c-17 -18 -22 -8 -11 22 5 12 10 13 17 6 8 -8 6 -16 -6
-28z m3043 2 c0 -5 -5 -3 -10 5 -5 8 -10 20 -10 25 0 6 5 3 10 -5 5 -8 10 -19
10 -25z m-3747 -28 c35 -60 42 -91 23 -106 -13 -11 -18 -7 -33 26 -9 21 -24
46 -32 56 -11 13 -12 22 -3 42 6 14 13 25 16 25 2 0 15 -19 29 -43z m-127 -34
c3 -13 3 -31 0 -40 -11 -28 -34 6 -41 62 l-6 50 20 -25 c12 -14 24 -35 27 -47z
m515 -4 l-9 -34 -1 37 c-1 20 2 45 6 55 7 16 8 16 11 -3 2 -12 -1 -37 -7 -55z
m257 27 c5 -37 -6 -78 -18 -71 -13 8 -22 62 -15 85 9 29 29 20 33 -14z m-471
8 c3 -8 -2 -23 -11 -32 -15 -15 -16 -14 -16 16 0 33 16 43 27 16z m318 7 c3
-5 1 -12 -5 -16 -5 -3 -10 1 -10 9 0 18 6 21 15 7z m261 -8 c3 -10 10 -26 15
-35 13 -25 11 -72 -3 -86 -8 -8 -14 -5 -25 15 -7 14 -13 33 -13 42 0 9 -9 22
-21 29 -20 13 -20 14 -3 33 21 24 43 25 50 2z m3017 -26 c-8 -13 -23 3 -23 26
0 20 0 20 14 2 8 -11 12 -23 9 -28z m-3213 9 c0 -3 -4 -8 -10 -11 -5 -3 -10
-1 -10 4 0 6 5 11 10 11 6 0 10 -2 10 -4z m-596 -41 c19 -29 21 -75 3 -75 -18
0 -49 63 -41 83 9 23 19 21 38 -8z m556 10 c0 -8 9 -24 19 -34 12 -12 17 -27
14 -40 -10 -38 -33 -16 -33 30 0 10 -7 19 -15 19 -8 0 -15 9 -15 20 0 11 7 20
15 20 8 0 15 -7 15 -15z m-1175 -31 c24 -37 11 -41 -15 -5 -12 17 -17 31 -12
31 5 0 17 -12 27 -26z m496 -54 c-2 -3 -12 -16 -23 -30 -16 -20 -21 -22 -28
-10 -13 21 -13 22 12 53 20 25 23 26 32 10 5 -10 8 -20 7 -23z m39 -23 c0 -7
-13 -26 -30 -42 -37 -35 -43 -11 -7 29 24 28 37 33 37 13z m4157 -165 c38 -59
36 -85 -3 -37 -27 34 -84 131 -84 142 1 12 47 -45 87 -105z m-3447 -72 c0 -5
-10 -10 -22 -10 -13 0 -33 -3 -45 -6 -13 -4 -23 -2 -23 4 0 6 17 13 38 15 20
2 40 4 45 5 4 1 7 -2 7 -8z m3707 -452 c-3 -8 -6 -5 -6 6 -1 11 2 17 5 13 3
-3 4 -12 1 -19z m141 -213 c-3 -3 -9 2 -12 12 -6 14 -5 15 5 6 7 -7 10 -15 7
-18z m1029 -57 c-3 -8 -6 -5 -6 6 -1 11 2 17 5 13 3 -3 4 -12 1 -19z m-284
-105 c-3 -29 -10 -53 -14 -53 -11 0 -12 131 -2 157 11 29 22 -41 16 -104z
m353 -5 c16 -86 17 -96 6 -82 -18 20 -43 178 -26 161 3 -3 12 -39 20 -79z
m-50 -99 c4 -36 3 -51 -4 -44 -5 6 -13 37 -16 70 -8 76 10 53 20 -26z m-713
-11 c6 -22 5 -22 -8 -4 -17 22 -20 40 -6 32 5 -3 11 -16 14 -28z m394 -25 c-3
-10 -5 -2 -5 17 0 19 2 27 5 18 2 -10 2 -26 0 -35z m365 2 c2 -19 0 -35 -4
-35 -4 0 -8 16 -8 35 0 19 2 35 4 35 2 0 6 -16 8 -35z m-732 -40 c0 -5 -5 -3
-10 5 -5 8 -10 20 -10 25 0 6 5 3 10 -5 5 -8 10 -19 10 -25z m370 -19 c0 -3
-4 -8 -10 -11 -5 -3 -10 -1 -10 4 0 6 5 11 10 11 6 0 10 -2 10 -4z m-340 -26
c0 -11 -4 -20 -10 -20 -5 0 -10 9 -10 20 0 11 5 20 10 20 6 0 10 -9 10 -20z
m307 -92 c-3 -7 -5 -2 -5 12 0 14 2 19 5 13 2 -7 2 -19 0 -25z m307 -16 c3 -5
-4 -21 -16 -38 -11 -16 -17 -21 -14 -11 3 10 6 27 6 38 0 19 15 26 24 11z
m-314 -146 c-7 -7 -10 11 -10 60 0 92 14 106 18 18 2 -38 -2 -72 -8 -78z m310
14 c-5 -30 -17 -74 -28 -98 -18 -39 -20 -41 -26 -20 -15 56 -7 103 25 141 17
21 33 37 34 35 1 -2 -1 -28 -5 -58z m-99 3 c-8 -15 -10 -15 -11 -2 0 17 10 32
18 25 2 -3 -1 -13 -7 -23z m-170 -35 c10 -143 10 -144 -6 -124 -17 22 -21 136
-5 136 6 0 10 -6 11 -12z m179 -38 c0 -22 -6 -33 -24 -41 -20 -10 -25 -20 -29
-68 -7 -74 -17 -121 -27 -121 -4 0 -11 32 -15 71 -7 66 -6 72 17 97 14 15 35
42 47 60 12 17 24 32 27 32 2 0 4 -14 4 -30z m20 -98 c0 -49 -15 -73 -24 -39
-7 31 3 89 15 81 5 -3 9 -22 9 -42z m-129 -79 c0 -38 0 -85 1 -105 0 -40 -21
-113 -30 -103 -7 7 -4 232 4 258 12 39 25 13 25 -50z m-2048 -4 c18 -32 24
-70 8 -53 -14 14 -41 84 -33 84 4 0 15 -14 25 -31z m67 -6 c0 -20 -16 -8 -23
17 -4 17 -3 19 9 9 8 -6 14 -18 14 -26z m140 -4 c0 -5 -7 -9 -15 -9 -15 0 -20
12 -9 23 8 8 24 -1 24 -14z m280 -15 c17 -43 11 -50 -15 -21 -14 16 -23 33
-20 38 11 16 25 10 35 -17z m-240 -30 c0 -19 -16 -18 -24 2 -11 27 -7 37 9 24
8 -7 15 -19 15 -26z m-155 16 c3 -5 1 -10 -4 -10 -6 0 -11 5 -11 10 0 6 2 10
4 10 3 0 8 -4 11 -10z m355 -15 c10 -19 11 -28 2 -37 -8 -8 -14 -4 -22 16 -19
51 -4 66 20 21z m-39 -27 c7 -18 15 -37 17 -43 2 -5 -8 3 -22 19 -26 29 -34
56 -17 56 5 0 15 -15 22 -32z m1706 0 c-3 -7 -5 -2 -5 12 0 14 2 19 5 13 2 -7
2 -19 0 -25z m-1917 12 c0 -5 -2 -10 -4 -10 -3 0 -8 5 -11 10 -3 6 -1 10 4 10
6 0 11 -4 11 -10z m366 -26 c8 -20 13 -38 10 -41 -5 -6 -36 51 -36 67 0 20 11
9 26 -26z m-202 0 c11 -28 6 -39 -9 -20 -8 11 -15 23 -15 28 0 14 18 9 24 -8z
m169 -26 c9 -21 13 -38 8 -38 -10 0 -41 67 -34 74 8 8 8 8 26 -36z m1049 5
l-6 -28 -6 25 c-6 23 -7 22 -13 -11 -4 -21 -15 -43 -24 -50 -15 -13 -16 -11
-10 21 7 34 44 83 57 75 4 -3 5 -17 2 -32z m-242 17 c0 -5 -11 -10 -25 -10
-14 0 -25 5 -25 10 0 6 11 10 25 10 14 0 25 -4 25 -10z m-1050 -21 c0 -5 -4
-9 -10 -9 -5 0 -10 7 -10 16 0 8 5 12 10 9 6 -3 10 -10 10 -16z m1096 -32 c-7
-37 -38 -73 -55 -62 -14 8 -14 45 0 45 5 0 7 4 4 10 -8 13 38 60 49 50 5 -5 6
-24 2 -43z m-890 17 c10 -38 -11 -52 -24 -16 -6 17 -8 33 -5 36 13 12 23 5 29
-20z m-342 -33 c-7 -7 -34 28 -34 43 1 6 10 0 21 -13 11 -13 17 -27 13 -30z
m1027 -33 c18 -33 -15 -20 -38 15 -37 54 -39 76 -4 37 18 -19 36 -43 42 -52z
m52 41 c21 -27 21 -35 0 -43 -11 -5 -29 5 -55 31 -21 20 -38 40 -38 44 0 15
76 -11 93 -32z m426 -32 c-14 -36 -38 -67 -51 -67 -11 0 -2 50 18 98 13 31 15
32 30 18 14 -14 14 -21 3 -49z m-384 40 c13 -10 15 -16 6 -21 -12 -8 -41 10
-41 25 0 13 13 11 35 -4z m835 9 c0 -3 -4 -8 -10 -11 -5 -3 -10 -1 -10 4 0 6
5 11 10 11 6 0 10 -2 10 -4z m-1235 -37 c8 -34 -1 -51 -15 -29 -12 19 -13 60
-1 60 5 0 12 -14 16 -31z m-459 10 c9 -15 -11 -33 -30 -26 -9 4 -13 13 -10 22
7 17 30 20 40 4z m49 -18 c2 -11 0 -21 -6 -21 -5 0 -9 12 -9 27 0 30 9 27 15
-6z m358 -14 c-1 -21 -9 -47 -16 -58 -13 -17 -14 -13 -14 41 0 51 3 60 16 58
12 -3 15 -14 14 -41z m-203 22 c0 -7 -9 -27 -21 -45 -14 -24 -28 -34 -45 -34
-33 0 -30 16 10 56 35 35 56 43 56 23z m85 1 c7 -11 -18 -63 -43 -89 -31 -31
-63 -81 -53 -81 11 0 64 65 104 128 43 67 73 71 62 9 -5 -25 -11 -34 -21 -30
-12 4 -14 -3 -13 -33 1 -22 6 -47 11 -57 9 -18 -24 -77 -85 -151 l-24 -30 -12
22 c-10 19 -14 20 -31 10 -11 -7 -22 -25 -25 -40 -8 -34 -19 -35 -39 -6 -24
34 -19 3 9 -51 21 -41 22 -51 11 -67 -12 -16 -15 -13 -36 32 -30 65 -38 40 -9
-28 29 -68 50 -97 70 -98 17 0 89 -67 89 -82 0 -13 -10 -9 -53 22 -96 67 -173
138 -192 175 -11 22 -22 42 -25 45 -12 11 -52 86 -69 129 -10 25 -22 54 -26
64 -12 28 13 20 30 -10 16 -28 16 -28 11 -3 -3 14 -8 34 -11 45 -3 13 8 37 31
68 31 43 39 48 62 42 31 -8 54 -24 47 -34 -2 -4 8 -6 23 -4 15 2 33 -1 41 -6
12 -8 10 -15 -8 -46 -22 -37 -22 -53 -2 -40 6 3 11 12 11 20 0 13 48 58 72 68
10 4 10 7 -1 15 -11 8 -9 17 14 46 38 50 67 67 80 46z m213 -27 c23 -65 25
-98 8 -112 -9 -8 -19 -11 -22 -8 -10 9 -17 157 -8 157 5 0 15 -17 22 -37z
m572 33 c0 -3 -4 -16 -10 -30 -14 -37 -32 -33 -19 4 6 17 15 30 20 30 5 0 9
-2 9 -4z m-1275 -16 c8 -13 -4 -50 -16 -50 -5 0 -9 14 -9 30 0 30 13 40 25 20z
m303 -17 c-2 -22 -9 -29 -30 -31 -34 -4 -35 4 -6 35 28 30 40 29 36 -4z m777
-25 c-2 -24 -13 -50 -24 -62 -29 -29 -39 -11 -11 19 23 24 23 25 3 25 -12 0
-24 -7 -27 -16 -7 -17 -31 -14 -31 4 0 11 73 71 87 72 4 0 5 -19 3 -42z m425
32 c0 -18 -27 -65 -46 -81 -19 -15 -18 -13 11 48 19 41 35 55 35 33z m-306
-15 c-4 -8 -8 -15 -10 -15 -2 0 -4 7 -4 15 0 8 4 15 10 15 5 0 7 -7 4 -15z
m-1134 -14 c0 -22 -16 -36 -24 -22 -8 12 3 41 15 41 5 0 9 -9 9 -19z m574 -13
c12 -48 4 -108 -15 -108 -5 0 -9 29 -9 65 0 64 12 86 24 43z m-674 -4 c0 -8
-4 -12 -10 -9 -5 3 -10 10 -10 16 0 5 5 9 10 9 6 0 10 -7 10 -16z m190 10 c0
-4 -10 -22 -21 -41 -19 -31 -23 -33 -32 -18 -13 24 7 65 33 65 11 0 20 -3 20
-6z m1003 -23 c-5 -20 -31 -36 -41 -26 -6 6 27 45 39 45 4 0 5 -9 2 -19z
m-1128 -11 c7 -22 -2 -60 -15 -60 -11 0 -21 45 -14 64 8 22 21 20 29 -4z
m1322 -12 c-3 -8 -6 -5 -6 6 -1 11 2 17 5 13 3 -3 4 -12 1 -19z m53 -38 c-12
-16 -30 -30 -41 -30 -20 0 -20 0 1 30 24 34 53 54 58 40 2 -6 -6 -23 -18 -40z
m-437 34 c12 -12 -52 -109 -73 -110 -29 -2 -34 13 -15 44 38 59 70 83 88 66z
m257 -19 c-7 -9 -15 -13 -18 -10 -3 2 1 11 8 20 7 9 15 13 18 10 3 -2 -1 -11
-8 -20z m-1148 -10 c-2 -14 -6 -25 -8 -25 -2 0 -4 11 -4 25 0 14 4 25 9 25 4
0 6 -11 3 -25z m1219 -28 c-15 -15 -24 -2 -16 24 7 20 8 21 17 5 7 -12 7 -21
-1 -29z m-191 24 c0 -12 -20 -25 -27 -18 -7 7 6 27 18 27 5 0 9 -4 9 -9z m80
-5 c0 -15 -18 -31 -26 -23 -7 7 7 37 17 37 5 0 9 -6 9 -14z m384 -20 c-3 -14
-13 -26 -20 -26 -12 0 -12 5 1 31 19 36 29 33 19 -5z m-827 -44 c-13 -12 -19
-13 -31 -3 -14 12 -13 17 6 44 l22 30 9 -27 c7 -21 6 -32 -6 -44z m923 24
c-12 -20 -26 -36 -31 -36 -11 0 -5 12 26 52 28 37 32 26 5 -16z m-1680 -10 c0
-6 -7 -2 -15 8 -8 11 -15 25 -15 30 0 6 7 2 15 -8 8 -11 15 -25 15 -30z m610
-20 c-7 -7 -10 4 -9 30 1 39 1 39 10 9 5 -18 5 -33 -1 -39z m380 32 c-11 -12
-22 -19 -25 -17 -8 9 26 50 36 44 5 -3 0 -16 -11 -27z m-901 -34 c25 -66 25
-70 6 -54 -26 22 -55 77 -49 94 10 27 20 18 43 -40z m585 12 c-6 -25 -24 -37
-24 -16 0 13 23 50 28 46 1 -2 0 -15 -4 -30z m-95 -72 c-6 -8 -15 -14 -20 -14
-15 0 -15 45 0 69 l15 24 9 -32 c5 -22 4 -37 -4 -47z m796 66 c3 -5 1 -10 -4
-10 -6 0 -11 5 -11 10 0 6 2 10 4 10 3 0 8 -4 11 -10z m-655 -35 c0 -13 -11
-37 -24 -52 -21 -24 -25 -26 -31 -11 -8 19 33 100 47 92 4 -3 8 -16 8 -29z
m72 -42 c-19 -30 -28 -29 -36 2 -4 16 0 35 10 51 l17 26 12 -29 c10 -22 9 -32
-3 -50z m658 73 c0 -3 -4 -8 -10 -11 -5 -3 -10 -1 -10 4 0 6 5 11 10 11 6 0
10 -2 10 -4z m-1390 -69 c-1 -7 -12 2 -25 18 -32 39 -32 58 0 22 14 -15 25
-33 25 -40z m820 34 c0 -9 -6 -26 -14 -36 -13 -18 -14 -18 -20 3 -8 24 10 66
25 57 5 -4 9 -14 9 -24z m109 -2 c-11 -21 -55 -43 -69 -34 -16 10 2 37 34 50
37 16 50 10 35 -16z m57 -4 c-4 -16 -13 -25 -27 -25 -21 0 -19 10 9 43 19 22
26 15 18 -18z m44 31 c0 -3 -4 -8 -10 -11 -5 -3 -10 -1 -10 4 0 6 5 11 10 11
6 0 10 -2 10 -4z m415 -6 c-3 -5 -13 -10 -21 -10 -8 0 -12 5 -9 10 3 6 13 10
21 10 8 0 12 -4 9 -10z m-335 -8 c0 -17 -32 -52 -49 -52 -29 0 -32 12 -9 37
20 22 58 32 58 15z m-535 -12 c3 -5 1 -10 -4 -10 -6 0 -11 5 -11 10 0 6 2 10
4 10 3 0 8 -4 11 -10z m965 6 c0 -3 -4 -8 -10 -11 -5 -3 -10 -1 -10 4 0 6 5
11 10 11 6 0 10 -2 10 -4z m-350 -16 c0 -12 -40 -34 -47 -26 -9 8 17 36 33 36
8 0 14 -4 14 -10z m130 -3 c0 -19 -21 -37 -42 -37 -18 0 -25 29 -11 43 12 12
53 7 53 -6z m-852 -74 c-26 -32 -43 8 -19 46 l15 24 8 -28 c4 -18 3 -34 -4
-42z m912 58 c0 -5 -7 -14 -15 -21 -12 -10 -15 -10 -15 2 0 8 3 18 7 21 9 10
23 9 23 -2z m38 -11 c-15 -23 -28 -26 -28 -7 0 17 10 27 27 27 11 0 11 -4 1
-20z m-738 -81 c-25 -35 -31 -36 -48 -8 -12 18 -10 26 14 62 l28 42 13 -33
c12 -30 12 -36 -7 -63z m790 87 c0 -3 -4 -8 -10 -11 -5 -3 -10 -1 -10 4 0 6 5
11 10 11 6 0 10 -2 10 -4z m45 -16 c-20 -23 -29 -21 -19 4 3 9 13 16 22 16 13
0 12 -3 -3 -20z m-972 -4 c8 -19 -17 -53 -27 -37 -9 13 2 51 14 51 4 0 10 -6
13 -14z m224 -50 c-8 -11 -18 -21 -24 -23 -19 -7 -24 30 -7 55 16 24 17 25 30
7 12 -16 12 -22 1 -39z m113 46 c0 -1 -12 -21 -27 -45 l-26 -42 -13 30 c-16
40 -3 62 36 61 16 -1 30 -2 30 -4z m100 3 c0 -3 -8 -18 -19 -33 -10 -15 -26
-39 -35 -54 -20 -35 -32 -35 -40 -3 -9 37 18 83 51 88 16 2 31 5 36 6 4 0 7
-1 7 -4z m650 -16 c-7 -11 -14 -18 -17 -15 -3 3 0 12 7 21 18 21 23 19 10 -6z
m-561 -5 c2 -2 -9 -20 -24 -39 -15 -20 -28 -42 -29 -48 -3 -16 -29 -57 -37
-57 -4 0 -9 19 -12 42 -4 32 -1 48 14 69 10 15 19 32 19 39 0 8 10 9 33 5 17
-4 34 -9 36 -11z m97 -26 c-3 -18 -16 -41 -28 -51 -23 -19 -59 -19 -65 0 -6
17 58 83 81 83 16 0 18 -5 12 -32z m-803 9 c6 -17 -32 -79 -44 -71 -15 9 -10
44 6 50 8 4 15 12 15 20 0 18 16 18 23 1z m847 9 c0 -3 -4 -8 -10 -11 -5 -3
-10 -1 -10 4 0 6 5 11 10 11 6 0 10 -2 10 -4z m-776 -47 c-8 -14 -21 -10 -28
7 -10 25 5 40 20 19 7 -10 11 -22 8 -26z m906 32 c0 -5 -7 -11 -15 -15 -8 -3
-15 -12 -15 -20 0 -20 -31 -36 -69 -36 -44 0 -46 15 -4 49 36 30 103 44 103
22z m100 -2 c0 -21 -58 -69 -84 -69 -14 0 -26 4 -26 8 0 15 46 52 70 57 12 2
25 7 28 10 8 8 12 6 12 -6z m-864 -14 c3 -8 -1 -24 -9 -35 -14 -21 -16 -21
-25 -4 -7 12 -7 25 -1 36 12 22 28 23 35 3z m-82 -4 c7 -11 -3 -41 -14 -41
-11 0 -21 30 -14 41 3 5 9 9 14 9 5 0 11 -4 14 -9z m226 -27 c0 -14 -7 -39
-16 -56 -16 -30 -17 -31 -30 -13 -19 26 -18 42 7 76 23 33 39 30 39 -7z m780
26 c0 -16 -38 -50 -56 -50 -13 0 -12 5 6 30 21 29 50 41 50 20z m75 -9 c-3 -6
-11 -11 -17 -11 -6 0 -6 6 2 15 14 17 26 13 15 -4z m66 -8 c-8 -15 -10 -15
-11 -2 0 17 10 32 18 25 2 -3 -1 -13 -7 -23z m-1553 -8 c-3 -3 -9 2 -12 12 -6
14 -5 15 5 6 7 -7 10 -15 7 -18z m716 -1 c5 -19 -2 -39 -33 -84 -21 -33 -42
-65 -44 -72 -4 -10 -10 -8 -21 6 -13 16 -13 22 -1 45 7 14 23 36 34 48 12 12
21 27 21 33 0 13 23 50 31 50 4 0 10 -12 13 -26z m-404 -17 c-1 -20 -31 -67
-43 -67 -15 0 -12 42 5 69 22 34 38 33 38 -2z m483 -9 c5 -39 0 -58 -18 -58
-19 0 -29 54 -14 79 17 25 25 19 32 -21z m-743 -22 c0 -12 -5 -7 -19 24 -11
24 -11 24 3 6 9 -11 16 -24 16 -30z m320 19 c0 -8 -4 -15 -10 -15 -5 0 -10 7
-10 15 0 8 5 15 10 15 6 0 10 -7 10 -15z m60 -15 c0 -16 -4 -30 -9 -30 -13 0
-21 27 -15 45 10 25 24 17 24 -15z m88 -1 c2 -13 -4 -33 -11 -43 -14 -19 -15
-19 -27 3 -10 19 -9 28 1 47 15 30 33 26 37 -7z m350 -31 c2 -22 -3 -39 -12
-47 -13 -11 -16 -7 -24 21 -10 36 2 72 21 65 7 -2 13 -19 15 -39z m202 7 c0
-18 -10 -31 -32 -45 -49 -30 -52 -25 -18 25 35 51 50 57 50 20z m58 13 c-6
-18 -28 -21 -28 -4 0 9 7 16 16 16 9 0 14 -5 12 -12z m78 -10 c-9 -13 -20 -33
-26 -45 -5 -12 -21 -29 -34 -39 -14 -9 -23 -21 -19 -27 3 -5 -9 -22 -28 -38
-19 -15 -30 -31 -26 -36 7 -7 32 17 103 100 20 24 25 18 16 -19 -6 -21 -30
-44 -93 -87 -77 -54 -79 -67 -4 -29 46 22 151 99 172 124 32 40 115 108 132
108 9 0 -4 -18 -34 -45 -28 -25 -61 -56 -75 -69 -64 -59 -231 -158 -321 -191
-70 -25 -86 -34 -63 -35 42 0 82 14 192 67 51 25 96 42 99 39 12 -12 -69 -84
-129 -116 -39 -21 -78 -33 -116 -36 -31 -3 -61 -9 -67 -14 -13 -11 -46 -15
-65 -7 -54 21 -200 67 -214 67 -49 0 -277 166 -292 212 -9 31 5 35 27 8 l19
-25 -6 47 c-7 66 9 67 39 0 14 -31 33 -66 41 -77 24 -32 21 6 -5 49 -11 19
-19 42 -17 51 2 9 13 -4 28 -32 20 -39 74 -133 87 -152 2 -2 5 -2 8 1 3 3 -19
52 -49 109 -36 68 -52 109 -47 118 6 9 18 -5 41 -50 53 -104 91 -173 106 -188
27 -29 23 -4 -8 56 -31 57 -31 61 -15 78 21 20 21 20 34 -20 6 -18 17 -30 27
-30 9 0 21 -7 26 -15 17 -28 21 -2 4 33 -17 36 -17 36 12 77 16 22 35 52 42
65 24 46 51 23 52 -42 0 -25 1 -26 24 -17 9 3 16 15 16 25 0 30 18 22 25 -11
7 -32 -1 -54 -16 -45 -5 3 -6 0 -4 -7 3 -8 -11 -33 -31 -56 -46 -55 -37 -66
16 -18 22 20 44 36 48 36 4 0 13 14 19 30 14 36 30 39 39 6 6 -27 -25 -82 -83
-147 -39 -43 -38 -67 2 -29 14 13 51 57 82 97 41 53 63 73 76 69 12 -3 17 2
17 15 0 18 9 23 28 17 4 -2 6 -6 5 -10 -6 -16 13 -7 25 12 15 25 35 16 27 -11
-5 -13 -2 -19 10 -19 13 0 15 7 10 33 -5 29 -2 35 42 69 26 20 56 37 67 37 17
1 17 0 2 -21z m-856 2 c0 -5 -2 -10 -4 -10 -3 0 -8 5 -11 10 -3 6 -1 10 4 10
6 0 11 -4 11 -10z m616 -25 c-4 -40 -30 -85 -51 -85 -23 0 -18 36 10 80 31 49
44 51 41 5z m333 -1 c-44 -46 -68 -59 -81 -46 -16 16 58 82 90 82 l26 0 -35
-36z m-899 0 c0 -8 -4 -12 -10 -9 -5 3 -10 13 -10 21 0 8 5 12 10 9 6 -3 10
-13 10 -21z m1085 16 c-3 -5 -11 -10 -16 -10 -6 0 -7 5 -4 10 3 6 11 10 16 10
6 0 7 -4 4 -10z m-1236 -46 c-12 -15 -39 -8 -39 10 0 7 6 18 12 24 18 18 43
-15 27 -34z m75 24 c9 -36 7 -48 -8 -48 -17 0 -28 27 -21 51 8 26 21 24 29 -3z
m1089 -24 c-38 -59 -185 -175 -201 -160 -4 4 1 12 11 17 29 17 140 111 171
147 34 38 46 36 19 -4z m-859 -7 c7 -18 6 -30 -4 -42 -12 -15 -15 -14 -27 10
-15 28 -8 68 10 62 7 -2 16 -15 21 -30z m-274 -18 c0 -6 -4 -7 -10 -4 -5 3
-10 11 -10 16 0 6 5 7 10 4 6 -3 10 -11 10 -16z m1035 -137 c-39 -37 -101 -84
-138 -104 -114 -62 -90 -39 133 129 36 27 67 48 70 45 3 -2 -27 -34 -65 -70z
m-1117 14 c67 -34 114 -65 99 -66 -4 0 -47 22 -95 50 -100 57 -103 66 -4 16z
m87 -11 c17 -13 26 -24 20 -24 -5 0 -23 11 -40 24 -16 14 -25 25 -20 25 6 0
24 -11 40 -25z m278 -269 c37 -43 67 -88 67 -99 0 -19 -1 -20 -20 -2 -11 10
-20 24 -20 31 0 8 -28 46 -62 85 -34 40 -55 70 -47 67 8 -2 44 -40 82 -82z
m320 -23 c37 -15 44 -27 29 -50 -6 -9 -26 -4 -80 22 -40 20 -72 40 -72 46 0
13 69 3 123 -18z m-113 -35 c31 -22 52 -68 30 -68 -6 0 -10 7 -10 15 0 8 -15
21 -32 28 -18 8 -39 21 -47 30 -12 15 -11 17 6 17 11 0 35 -10 53 -22z m74
-34 c16 -6 23 -64 8 -64 -15 0 -32 24 -32 47 0 25 1 26 24 17z m68 -64 c-6
-42 -26 -32 -30 14 -3 34 -2 36 16 27 14 -7 18 -18 14 -41z m38 -16 c0 -19 -4
-33 -9 -29 -12 7 -11 65 1 65 4 0 8 -16 8 -36z m30 -9 c0 -19 -4 -35 -9 -35
-9 0 -12 49 -4 63 9 15 13 6 13 -28z m30 15 c0 -5 -4 -10 -10 -10 -5 0 -10 5
-10 10 0 6 5 10 10 10 6 0 10 -4 10 -10z m-313 -61 c24 -47 54 -141 48 -147
-5 -5 -37 59 -68 136 -30 72 -14 81 20 11z m300 19 c-3 -8 -6 -5 -6 6 -1 11 2
17 5 13 3 -3 4 -12 1 -19z m-128 -68 c0 -10 -3 -8 -9 5 -12 27 -12 43 0 25 5
-8 9 -22 9 -30z m78 8 c-3 -8 -6 -5 -6 6 -1 11 2 17 5 13 3 -3 4 -12 1 -19z
m28 3 c3 -5 1 -12 -5 -16 -5 -3 -10 1 -10 9 0 18 6 21 15 7z m-57 -52 c-3 -8
-7 -3 -11 10 -4 17 -3 21 5 13 5 -5 8 -16 6 -23z m32 -35 c0 -27 -4 -43 -10
-39 -5 3 -10 24 -10 46 0 21 5 39 10 39 6 0 10 -21 10 -46z m-123 -16 c-3 -8
-6 -5 -6 6 -1 11 2 17 5 13 3 -3 4 -12 1 -19z m63 -44 c0 -8 -4 -12 -10 -9 -5
3 -10 10 -10 16 0 5 5 9 10 9 6 0 10 -7 10 -16z"/>
<path d="M4470 5335 c0 -15 18 -40 24 -34 3 3 -1 14 -9 25 -8 10 -14 15 -15 9z"/>
<path d="M4720 5343 c0 -4 5 -15 10 -23 8 -13 10 -13 10 2 0 9 -4 20 -10 23
-5 3 -10 3 -10 -2z"/>
<path d="M3800 5318 c0 -9 -4 -18 -10 -20 -5 -1 7 -18 27 -37 l36 -35 -7 35
c-7 38 -46 86 -46 57z"/>
<path d="M3867 4809 c22 -37 43 -57 43 -40 0 15 -41 71 -52 71 -5 0 -1 -14 9
-31z"/>
<path d="M5728 4683 c7 -3 16 -2 19 1 4 3 -2 6 -13 5 -11 0 -14 -3 -6 -6z"/>
<path d="M5850 4655 c0 -9 -4 -13 -10 -10 -14 9 -12 -6 3 -24 8 -9 19 -42 26
-73 7 -32 16 -60 21 -63 5 -3 25 -40 46 -83 44 -90 42 -87 51 -78 4 3 1 12 -5
18 -13 13 -16 38 -4 38 11 0 72 -115 72 -137 0 -10 5 -24 12 -31 6 -6 9 -14 6
-17 -3 -4 -20 19 -38 50 -18 31 -34 54 -37 52 -2 -3 0 -13 6 -24 17 -31 51
-115 51 -127 0 -14 -65 99 -133 235 -30 58 -58 104 -64 102 -5 -2 -15 8 -21
22 -12 26 -26 32 -37 16 -3 -6 20 -49 50 -96 31 -47 83 -139 116 -203 34 -64
74 -139 90 -167 25 -45 65 -124 90 -180 5 -11 13 -28 19 -37 5 -10 14 -26 18
-35 5 -9 13 -18 18 -20 15 -5 9 154 -7 173 -10 13 -10 17 2 24 11 7 11 12 1
22 -18 18 -15 25 17 30 26 4 30 1 39 -31 6 -20 14 -53 17 -73 4 -21 13 -42 21
-49 8 -6 14 -16 14 -21 0 -6 7 -26 17 -45 13 -29 14 -36 3 -43 -12 -7 -12 -13
0 -37 7 -15 12 -34 11 -41 -2 -13 40 -94 82 -156 15 -21 27 -43 27 -48 0 -5
15 -24 33 -42 38 -38 95 -150 128 -250 11 -37 30 -72 40 -79 10 -6 19 -22 19
-34 0 -12 9 -38 21 -57 21 -36 39 -47 39 -23 0 6 18 -16 40 -50 34 -53 85
-103 104 -103 17 0 2 30 -30 61 -19 18 -45 50 -56 69 -12 19 -41 64 -64 100
-23 36 -54 97 -68 135 -50 128 -68 169 -135 305 -79 161 -101 212 -101 231 0
8 -5 20 -12 27 -8 8 -8 15 1 26 10 12 10 19 -2 36 -9 14 -17 17 -22 11 -3 -6
-15 -11 -27 -11 -17 0 -20 4 -14 30 4 22 2 30 -9 30 -8 0 -15 7 -15 15 0 8 5
15 10 15 6 0 10 4 10 10 0 5 -6 7 -14 4 -17 -6 -30 27 -22 54 4 10 -1 38 -9
62 -20 56 -19 59 13 72 l27 12 -32 4 c-27 3 -33 8 -33 27 0 14 -8 29 -19 35
-11 6 -26 32 -35 63 -16 55 -49 97 -60 78 -4 -6 0 -21 9 -34 16 -26 35 -77 40
-114 2 -11 6 -31 10 -43 5 -17 3 -21 -10 -18 -11 2 -46 55 -87 132 -39 71
-100 175 -137 230 -38 56 -74 114 -82 130 -16 33 -39 46 -39 21z m240 -503 c0
-15 -2 -15 -10 -2 -13 20 -13 33 0 25 6 -3 10 -14 10 -23z m140 -77 c0 -18 -1
-18 -16 -3 -10 10 -14 23 -10 34 6 16 8 16 16 4 6 -8 10 -24 10 -35z m-140 10
c0 -8 -4 -15 -10 -15 -5 0 -10 7 -10 15 0 8 5 15 10 15 6 0 10 -7 10 -15z m80
-7 c0 -13 -23 -5 -28 10 -2 7 2 10 12 6 9 -3 16 -11 16 -16z m541 -1043 l10
-20 -16 20 c-9 11 -21 29 -26 40 l-10 20 16 -20 c9 -11 21 -29 26 -40z"/>
<path d="M6545 4636 c-76 -29 -96 -39 -119 -65 -11 -12 -25 -21 -31 -21 -7 0
-18 -7 -25 -15 -7 -8 -25 -15 -40 -15 -15 0 -45 -8 -66 -17 -38 -17 -38 -17
-12 -21 15 -2 55 6 90 17 124 40 205 69 229 81 29 15 79 60 79 72 0 14 -43 7
-105 -16z"/>
<path d="M5820 4280 c11 -20 30 -28 30 -12 0 11 -22 32 -32 32 -5 0 -4 -9 2
-20z"/>
<path d="M5138 4243 c7 -3 16 -2 19 1 4 3 -2 6 -13 5 -11 0 -14 -3 -6 -6z"/>
<path d="M5850 4232 c0 -12 9 -26 19 -31 16 -9 18 -8 14 9 -3 11 -11 25 -19
31 -11 9 -14 7 -14 -9z"/>
<path d="M5033 4223 c-7 -2 -13 -11 -13 -19 0 -12 4 -12 30 1 17 9 30 18 30
20 0 6 -31 5 -47 -2z"/>
<path d="M6547 4184 c-14 -14 -7 -25 13 -22 12 2 21 8 21 13 0 12 -24 18 -34
9z"/>
<path d="M5145 4120 c3 -5 8 -10 11 -10 2 0 4 5 4 10 0 6 -5 10 -11 10 -5 0
-7 -4 -4 -10z"/>
<path d="M5023 4107 c-37 -14 -53 -27 -32 -27 28 0 89 21 89 30 0 13 -17 12
-57 -3z"/>
<path d="M5958 4098 c9 -9 15 -9 24 0 9 9 7 12 -12 12 -19 0 -21 -3 -12 -12z"/>
<path d="M6985 4031 c-6 -11 9 -23 19 -14 9 9 7 23 -3 23 -6 0 -12 -4 -16 -9z"/>
<path d="M5820 3895 c0 -5 14 -37 32 -72 32 -65 51 -79 28 -21 -16 38 -60 107
-60 93z"/>
<path d="M5095 3791 c-30 -5 -35 -8 -20 -13 34 -10 153 -4 167 10 10 9 0 12
-47 11 -33 -1 -78 -5 -100 -8z"/>
<path d="M4980 3776 c0 -2 7 -6 15 -10 8 -3 15 -1 15 4 0 6 -7 10 -15 10 -8 0
-15 -2 -15 -4z"/>
<path d="M5080 3745 c0 -9 6 -12 15 -9 8 4 15 10 15 15 0 5 -7 9 -15 9 -8 0
-15 -7 -15 -15z"/>
<path d="M5138 3743 c7 -3 16 -2 19 1 4 3 -2 6 -13 5 -11 0 -14 -3 -6 -6z"/>
<path d="M5492 3718 c-7 -7 -12 -20 -12 -30 0 -10 -5 -18 -10 -18 -6 0 -8 -10
-4 -24 5 -22 3 -23 -78 -29 -51 -3 -84 -2 -87 4 -2 6 -10 4 -20 -4 -9 -9 -46
-18 -84 -21 -60 -5 -68 -4 -65 11 3 17 27 27 92 38 28 5 35 9 26 15 -8 5 -26
7 -40 4 -14 -2 -52 -6 -84 -7 -35 -2 -61 -8 -64 -15 -2 -7 7 -12 21 -12 24 0
44 -24 28 -34 -4 -3 -34 -8 -67 -11 l-59 -5 25 20 c14 11 28 20 33 20 4 0 7 8
7 17 0 13 -3 14 -12 5 -14 -14 -32 -16 -24 -3 7 11 -12 19 -43 17 -32 -1 -41
-26 -10 -26 22 0 22 0 3 -14 -14 -11 -16 -18 -8 -26 7 -7 8 -28 2 -63 -33
-196 -47 -400 -28 -412 6 -4 10 19 10 62 1 60 10 142 36 316 8 59 16 63 145
72 52 3 101 8 109 10 8 2 64 7 125 10 60 4 112 8 117 11 6 4 28 -26 28 -39 0
-6 -145 -18 -312 -25 -75 -4 -140 -11 -144 -15 -20 -20 29 -27 151 -22 226 10
251 12 271 22 10 5 38 8 61 7 35 -2 48 -9 82 -45 40 -43 61 -90 61 -136 0 -13
5 -23 10 -23 6 0 15 10 20 23 l9 22 0 -22 c1 -13 7 -23 15 -23 8 0 17 -14 21
-32 6 -28 117 -273 145 -318 14 -23 120 -240 120 -245 0 -3 9 -27 21 -53 30
-68 37 -85 44 -107 10 -34 31 -56 49 -49 11 4 14 13 10 33 -6 24 -5 25 8 7 15
-18 15 -18 20 2 4 13 -4 34 -20 56 -14 20 -23 39 -20 42 3 3 15 -10 26 -28 42
-67 114 -118 82 -57 -11 20 -10 21 6 15 32 -13 124 -23 130 -15 5 9 -28 29
-48 29 -8 0 -31 16 -52 35 -21 19 -42 35 -47 35 -5 0 -9 4 -9 10 0 5 7 7 15 4
9 -4 15 0 15 8 0 22 -12 29 -27 16 -12 -9 -27 2 -81 58 -37 39 -75 73 -84 77
-10 3 -15 12 -12 20 3 8 -2 16 -13 19 -11 3 -45 58 -88 144 -38 77 -71 141
-72 143 -2 2 -6 1 -10 -3 -4 -4 -1 -21 6 -39 26 -64 21 -71 -8 -12 -17 33 -31
64 -31 68 0 4 -9 20 -19 35 -11 15 -43 97 -72 182 -28 85 -56 157 -61 158 -21
9 -38 36 -33 53 5 14 1 19 -11 19 -10 0 -39 23 -65 50 -26 28 -49 50 -51 50
-2 0 -9 -5 -16 -12z m689 -1065 c13 -16 12 -17 -3 -4 -10 7 -18 15 -18 17 0 8
8 3 21 -13z"/>
<path d="M6901 3663 c-13 -46 -13 -53 -2 -53 5 0 11 12 14 28 3 15 9 35 12 45
4 9 3 17 -3 17 -6 0 -16 -17 -21 -37z"/>
<path d="M6290 3683 c0 -4 14 -33 30 -63 17 -30 37 -70 45 -87 16 -36 35 -44
34 -15 -1 23 -81 164 -96 170 -7 2 -13 0 -13 -5z"/>
<path d="M6020 3476 c0 -8 5 -18 10 -21 6 -3 10 3 10 14 0 12 -4 21 -10 21 -5
0 -10 -6 -10 -14z"/>
<path d="M5111 3297 c-111 -12 -126 -30 -21 -23 47 3 98 6 113 6 18 0 27 5 25
12 -5 15 -25 16 -117 5z"/>
<path d="M5088 3238 c9 -9 15 -9 24 0 9 9 7 12 -12 12 -19 0 -21 -3 -12 -12z"/>
<path d="M6033 3174 c-3 -8 -1 -20 6 -27 6 -6 11 -32 11 -57 0 -25 4 -60 9
-78 6 -20 6 -32 0 -32 -5 0 -9 -9 -9 -20 0 -11 3 -20 8 -20 4 0 12 -9 17 -19
45 -85 90 -154 93 -139 2 9 -2 27 -9 40 -28 52 -69 208 -84 316 -7 52 -28 71
-42 36z"/>
<path d="M4927 3074 c-9 -9 -8 -63 2 -89 7 -16 9 -12 13 20 5 42 -3 81 -15 69z"/>
<path d="M5703 3066 c-4 -8 -25 -21 -45 -29 -39 -16 -45 -30 -28 -57 8 -13 10
-12 10 3 0 9 2 17 5 17 10 0 55 -54 81 -98 16 -25 32 -41 40 -38 7 3 18 -2 24
-10 7 -8 18 -14 25 -14 22 0 24 38 4 61 -10 12 -19 29 -19 38 0 29 -39 80 -65
87 -22 5 -25 11 -21 30 7 27 1 32 -11 10z"/>
<path d="M6130 2954 c0 -20 22 -74 31 -74 5 0 9 3 9 8 -1 13 -39 77 -40 66z"/>
<path d="M6930 2920 c0 -5 5 -10 10 -10 6 0 10 5 10 10 0 6 -4 10 -10 10 -5 0
-10 -4 -10 -10z"/>
<path d="M6890 2810 c0 -5 5 -10 11 -10 5 0 7 5 4 10 -3 6 -8 10 -11 10 -2 0
-4 -4 -4 -10z"/>
<path d="M7058 2767 c-12 -29 -10 -63 3 -50 6 6 9 23 7 39 -2 24 -4 26 -10 11z"/>
<path d="M6497 2744 c-4 -4 -7 -18 -7 -32 0 -18 -4 -23 -15 -18 -16 6 -18 3
-46 -73 -7 -19 -25 -49 -40 -65 -14 -17 -29 -41 -33 -54 -8 -25 -43 -46 -96
-57 -58 -12 -133 -47 -119 -56 7 -4 19 -4 28 1 25 12 130 33 194 37 57 5 58 4
47 -16 -11 -22 -4 -27 20 -11 8 5 15 24 16 42 0 18 10 51 22 73 19 36 21 37
22 15 0 -14 -9 -42 -20 -63 -24 -44 -9 -49 28 -9 15 16 35 31 45 35 9 3 17 13
17 20 0 8 9 35 21 61 11 26 19 59 17 74 -3 25 -4 24 -16 -13 -25 -74 -23 -72
-31 -51 -6 16 -10 10 -19 -26 -7 -26 -16 -50 -22 -53 -12 -8 -13 -3 -1 28 5
13 16 47 25 75 16 56 6 73 -12 20 -11 -32 -11 -32 -4 7 3 22 6 53 6 68 -1 30
-16 52 -27 41z m-48 -166 c-20 -39 -51 -79 -56 -74 -5 5 56 96 64 96 2 0 -2
-10 -8 -22z"/>
<path d="M5314 2676 c-36 -16 -49 -32 -34 -41 6 -4 20 1 30 10 17 15 25 16 70
5 54 -13 93 -51 73 -71 -13 -13 -88 7 -104 28 -6 7 -18 13 -25 13 -56 0 76
-66 146 -73 25 -3 54 -8 64 -13 16 -6 18 -4 13 9 -19 48 -17 49 19 16 41 -38
84 -59 84 -40 0 6 -5 11 -10 11 -6 0 -30 19 -54 43 -24 23 -67 59 -97 80 -43
30 -62 37 -99 37 -25 -1 -59 -7 -76 -14z"/>
<path d="M6250 2669 c0 -7 55 -29 71 -29 5 0 9 6 9 14 0 9 -14 15 -40 18 -22
2 -40 0 -40 -3z"/>
<path d="M6612 2577 c-8 -25 -12 -52 -9 -59 7 -21 28 42 25 76 -3 27 -4 26
-16 -17z"/>
<path d="M6710 2588 c0 -25 3 -29 10 -18 13 20 13 50 0 50 -5 0 -10 -15 -10
-32z"/>
<path d="M6757 2597 c-3 -8 -1 -20 4 -28 6 -10 9 -7 9 14 0 29 -5 35 -13 14z"/>
<path d="M6962 2437 c2 -32 7 -56 13 -55 13 4 8 89 -6 103 -7 7 -9 -8 -7 -48z"/>
<path d="M6570 2459 c0 -5 5 -7 10 -4 6 3 10 8 10 11 0 2 -4 4 -10 4 -5 0 -10
-5 -10 -11z"/>
<path d="M7010 2336 c0 -9 5 -16 10 -16 6 0 10 4 10 9 0 6 -4 13 -10 16 -5 3
-10 -1 -10 -9z"/>
<path d="M5749 2003 c-52 -64 -70 -103 -49 -103 6 0 10 6 10 13 0 17 39 63 50
60 4 -1 10 9 13 22 5 29 -4 32 -24 8z"/>
<path d="M5435 1951 c-6 -11 9 -23 19 -14 9 9 7 23 -3 23 -6 0 -12 -4 -16 -9z"/>
<path d="M5520 1941 c0 -6 5 -13 10 -16 6 -3 10 1 10 9 0 9 -4 16 -10 16 -5 0
-10 -4 -10 -9z"/>
<path d="M5400 1910 c0 -5 5 -10 11 -10 5 0 7 5 4 10 -3 6 -8 10 -11 10 -2 0
-4 -4 -4 -10z"/>
<path d="M5460 1902 c0 -14 61 -105 66 -99 7 6 -48 107 -58 107 -5 0 -8 -4 -8
-8z"/>
<path d="M6135 1610 c-10 -11 -16 -22 -13 -25 3 -3 13 4 23 15 10 11 16 22 13
25 -3 3 -13 -4 -23 -15z"/>
<path d="M6380 1548 c0 -19 2 -20 10 -8 13 19 13 30 0 30 -5 0 -10 -10 -10
-22z"/>
<path d="M2470 5954 c0 -10 64 -63 69 -58 6 5 -50 64 -61 64 -4 0 -8 -3 -8 -6z"/>
<path d="M2690 5782 c0 -11 22 -32 32 -32 5 0 4 9 -2 20 -11 20 -30 28 -30 12z"/>
<path d="M2770 5680 c0 -5 5 -10 11 -10 5 0 7 5 4 10 -3 6 -8 10 -11 10 -2 0
-4 -4 -4 -10z"/>
<path d="M2570 5673 c1 -16 70 -88 70 -73 -1 8 -14 30 -30 48 -30 32 -40 39
-40 25z"/>
<path d="M2519 5622 c43 -57 80 -96 81 -84 0 16 -68 99 -87 107 -9 3 -7 -5 6
-23z"/>
<path d="M2884 5606 c-10 -26 5 -45 52 -70 22 -11 55 -40 73 -63 17 -24 36
-43 42 -43 12 0 -37 63 -108 139 -45 49 -53 53 -59 37z"/>
<path d="M2830 5579 c0 -5 19 -31 42 -57 24 -26 44 -49 45 -51 2 -2 6 -2 9 1
3 4 -12 29 -33 56 -38 50 -63 71 -63 51z"/>
<path d="M2664 5533 c19 -36 45 -70 46 -59 0 14 -43 86 -52 86 -5 0 -2 -12 6
-27z"/>
<path d="M2840 5495 c29 -30 56 -52 59 -50 6 7 -90 105 -103 105 -6 0 14 -25
44 -55z"/>
<path d="M3045 5520 c10 -11 20 -18 23 -15 7 6 -18 35 -31 35 -5 0 -2 -9 8
-20z"/>
<path d="M2630 5480 c0 -11 4 -20 9 -20 5 0 7 9 4 20 -3 11 -7 20 -9 20 -2 0
-4 -9 -4 -20z"/>
<path d="M2775 5481 c-5 -9 74 -111 108 -140 10 -7 17 -19 17 -26 0 -7 11 -15
25 -17 14 -3 25 -4 25 -2 0 2 -32 46 -72 99 -68 90 -89 107 -103 86z"/>
<path d="M3140 5480 c0 -5 5 -10 11 -10 5 0 7 5 4 10 -3 6 -8 10 -11 10 -2 0
-4 -4 -4 -10z"/>
<path d="M3095 5460 c3 -5 11 -10 16 -10 6 0 7 5 4 10 -3 6 -11 10 -16 10 -6
0 -7 -4 -4 -10z"/>
<path d="M2477 5384 c-3 -4 3 -28 13 -55 11 -26 21 -81 23 -120 3 -48 8 -74
17 -77 10 -4 11 11 6 69 -11 114 -39 202 -59 183z"/>
<path d="M2760 5331 c0 -5 7 -14 15 -21 16 -14 18 -10 9 14 -6 17 -24 22 -24
7z"/>
<path d="M2810 5251 c0 -5 5 -13 10 -16 6 -3 10 -2 10 4 0 5 -4 13 -10 16 -5
3 -10 2 -10 -4z"/>
<path d="M3290 5039 c0 -5 5 -7 10 -4 6 3 10 8 10 11 0 2 -4 4 -10 4 -5 0 -10
-5 -10 -11z"/>
<path d="M3560 4818 c0 -17 18 -44 24 -37 8 7 -5 49 -15 49 -5 0 -9 -6 -9 -12z"/>
<path d="M1170 4730 c0 -5 5 -10 10 -10 6 0 10 5 10 10 0 6 -4 10 -10 10 -5 0
-10 -4 -10 -10z"/>
<path d="M5326 4641 c-15 -6 -16 -10 -7 -15 8 -5 20 -2 29 8 17 17 9 19 -22 7z"/>
<path d="M794 4457 c0 -56 -4 -115 -8 -131 -7 -27 -8 -28 -27 -11 -24 23 -38
11 -16 -13 10 -10 17 -26 17 -34 0 -9 11 -23 24 -32 21 -13 48 -60 97 -171 13
-30 13 -30 17 -6 4 28 -29 107 -71 168 -27 38 -29 47 -23 100 3 32 8 86 12
120 6 62 0 113 -14 113 -4 0 -7 -46 -8 -103z"/>
<path d="M5342 4511 c4 -13 18 -16 19 -4 0 4 -5 9 -11 12 -7 2 -11 -2 -8 -8z"/>
<path d="M489 4324 c-2 -10 -1 -44 2 -74 4 -37 7 -45 9 -25 6 62 6 84 0 101
-6 17 -7 16 -11 -2z"/>
<path d="M638 4300 c-11 -38 -10 -56 3 -43 6 6 9 23 7 39 l-3 29 -7 -25z"/>
<path d="M911 4282 c5 -15 16 -31 23 -37 30 -24 99 -140 103 -176 7 -50 23
-51 23 -1 0 39 -30 90 -87 152 -13 14 -26 34 -29 45 -3 12 -14 26 -24 33 -18
11 -19 10 -9 -16z"/>
<path d="M1420 4175 c0 -8 7 -23 16 -32 8 -10 29 -38 46 -63 37 -53 51 -36 16
18 -14 20 -32 49 -42 65 -18 30 -36 36 -36 12z"/>
<path d="M700 4140 c0 -17 33 -80 43 -80 10 0 -1 37 -21 68 -15 24 -22 28 -22
12z"/>
<path d="M1944 4030 c3 -14 6 -28 6 -32 0 -5 5 -8 10 -8 15 0 12 24 -6 46 -15
18 -15 18 -10 -6z"/>
<path d="M1530 4011 c0 -6 5 -13 10 -16 6 -3 10 1 10 9 0 9 -4 16 -10 16 -5 0
-10 -4 -10 -9z"/>
<path d="M1620 3990 c0 -5 5 -10 11 -10 5 0 7 5 4 10 -3 6 -8 10 -11 10 -2 0
-4 -4 -4 -10z"/>
<path d="M1150 3820 c-12 -8 -10 -10 8 -10 13 0 20 4 17 10 -7 12 -6 12 -25 0z"/>
<path d="M6847 1545 c-14 -44 -117 -132 -202 -174 -46 -22 -86 -41 -90 -41
-11 0 -116 -63 -111 -67 2 -3 33 9 68 25 35 17 87 40 115 51 68 27 121 61 158
102 47 52 77 99 72 112 -2 7 -7 3 -10 -8z"/>
<path d="M6786 1365 c-13 -13 -73 -182 -89 -250 -2 -11 -3 21 -1 70 l3 90 -19
-90 c-18 -83 -40 -387 -27 -375 3 3 11 55 18 115 10 100 21 137 33 124 3 -3
-2 -53 -10 -113 -8 -60 -12 -111 -9 -114 11 -11 23 20 30 73 11 92 37 250 42
255 3 3 3 -38 -1 -90 -6 -89 -8 -111 -21 -210 -3 -22 -1 -40 4 -40 4 0 11 28
15 63 4 34 9 82 13 107 3 25 15 123 27 218 13 95 19 175 15 178 -4 2 -14 -3
-23 -11z m-12 -159 c-3 -21 -9 -35 -11 -32 -3 3 -2 21 1 42 4 20 10 34 12 31
3 -3 2 -21 -2 -41z"/>
<path d="M6599 1280 c-7 -22 -25 -243 -24 -281 2 -45 9 -68 19 -58 11 11 26
311 17 327 -6 9 -11 15 -12 12z"/>
<path d="M6475 1115 c-4 -38 -13 -114 -21 -167 -8 -56 -10 -106 -6 -119 8 -22
14 10 41 252 4 37 4 75 0 85 -4 12 -9 -8 -14 -51z"/>
<path d="M6630 1143 c0 -16 -3 -46 -5 -68 -4 -32 -4 -36 4 -18 15 34 23 113
11 113 -5 0 -10 -12 -10 -27z"/>
<path d="M6539 1123 c0 -28 -2 -33 -8 -19 -12 31 -20 6 -31 -96 -12 -114 -12
-116 -1 -98 6 8 13 37 16 65 10 69 27 95 20 30 -3 -27 -8 -67 -11 -87 -4 -24
-2 -38 5 -38 6 0 11 12 12 28 0 15 2 38 4 52 14 94 17 200 6 200 -6 0 -11 -16
-12 -37z"/>
<path d="M6420 330 c0 -5 5 -10 11 -10 5 0 7 5 4 10 -3 6 -8 10 -11 10 -2 0
-4 -4 -4 -10z"/>
</g>
</svg>
