<?xml version="1.0" standalone="no"?>
<!DOCTYPE svg PUBLIC "-//W3C//DTD SVG 20010904//EN"
 "http://www.w3.org/TR/2001/REC-SVG-20010904/DTD/svg10.dtd">
<svg version="1.0" xmlns="http://www.w3.org/2000/svg"
 width="344.000000pt" height="293.000000pt" viewBox="0 0 344.000000 293.000000"
 preserveAspectRatio="xMidYMid meet">

<g transform="translate(0.000000,293.000000) scale(0.100000,-0.100000)"
fill="#000000" stroke="none">
<path d="M2565 2781 c-70 -9 -103 -21 -127 -47 -20 -23 -34 -109 -20 -127 30
-36 61 -110 72 -171 15 -82 8 -207 -16 -262 -29 -69 -56 -128 -75 -166 -11
-20 -19 -47 -19 -60 0 -52 -4 -53 -227 -56 -530 -8 -584 -7 -642 16 -75 30
-123 16 -160 -45 -32 -54 -46 -59 -68 -26 -35 50 -72 83 -95 83 -27 0 -88 -35
-88 -51 0 -6 -9 -22 -19 -35 l-20 -25 -33 58 c-24 40 -41 59 -58 61 -37 6 -69
-18 -82 -60 -17 -56 -35 -68 -59 -38 -10 14 -24 42 -31 63 -14 45 -41 67 -83
67 -41 0 -71 -23 -85 -66 l-12 -36 -30 31 c-33 34 -86 64 -99 56 -19 -12 15
-118 53 -166 39 -48 111 -53 154 -9 35 35 40 36 47 10 3 -11 13 -23 24 -26 10
-3 37 -15 61 -26 24 -11 49 -17 57 -14 8 3 25 27 37 53 13 26 24 50 25 52 1 2
23 -19 49 -48 38 -42 52 -51 79 -51 33 0 74 30 102 75 12 19 14 19 35 -10 71
-92 99 -97 173 -29 47 44 52 46 94 40 24 -3 49 -10 55 -15 6 -4 54 -22 107
-39 l96 -31 229 3 c126 2 263 1 304 -3 70 -6 75 -8 78 -30 2 -13 12 -31 22
-40 11 -9 23 -40 29 -75 6 -32 15 -64 20 -70 5 -6 17 -43 26 -82 23 -95 15
-161 -40 -329 -32 -98 -41 -180 -23 -215 15 -29 58 -51 141 -75 106 -30 310 0
344 52 20 31 14 108 -20 223 -27 94 -25 149 8 245 38 112 85 306 85 353 0 19
7 30 23 37 20 9 22 18 25 88 l3 77 -34 0 c-31 0 -34 3 -45 45 -7 25 -12 56
-12 68 0 13 -6 29 -12 35 -17 17 -23 268 -9 360 6 40 26 101 46 143 41 85 43
112 13 173 -33 69 -78 89 -208 92 -58 1 -132 -1 -165 -5z m274 -50 c49 -23 55
-47 10 -37 -19 5 -48 9 -65 11 -34 3 -119 44 -94 44 8 1 26 -5 40 -12 14 -7
34 -16 45 -20 18 -6 18 -5 -2 12 -13 11 -23 22 -23 25 0 9 49 -4 89 -23z
m-153 -13 c9 -15 -37 1 -56 18 -13 13 -11 13 18 3 17 -6 35 -16 38 -21z m-56
-8 c0 -5 -13 -4 -30 1 -16 6 -30 15 -30 19 0 5 14 4 30 -1 17 -6 30 -15 30
-19z m-81 4 c17 -4 31 -10 31 -15 0 -5 -7 -6 -16 -2 -9 3 -19 1 -23 -6 -6 -8
-15 -8 -40 0 -24 9 -29 14 -19 20 16 10 26 11 67 3z m366 -86 c-6 -40 -22 -90
-71 -238 -14 -41 -19 -87 -20 -177 0 -68 -3 -124 -7 -125 -4 -2 -25 8 -47 22
-30 18 -38 29 -34 43 4 14 -2 21 -25 30 -17 6 -31 15 -31 20 0 5 7 7 15 3 8
-3 15 -1 15 4 0 6 12 10 28 11 27 0 27 0 4 11 -18 9 -22 17 -17 36 4 18 1 25
-15 29 -25 7 -26 19 -2 32 16 10 16 10 -1 11 -31 0 -15 33 26 53 43 20 48 32
12 25 -14 -3 -25 -1 -25 3 0 5 7 9 15 9 8 0 15 5 15 10 0 6 -7 10 -15 10 -18
0 -20 16 -2 23 9 4 8 8 -3 16 -11 8 -11 11 -2 11 15 0 62 45 62 58 0 6 -7 12
-15 16 -21 8 -19 28 3 25 43 -4 53 1 47 22 -7 20 -5 21 35 14 36 -6 42 -5 37
8 -6 16 0 27 16 27 5 0 6 -18 2 -42z m-315 22 c0 -5 -4 -10 -10 -10 -5 0 -10
5 -10 10 0 6 5 10 10 10 6 0 10 -4 10 -10z m50 -90 c8 -5 11 -10 5 -10 -5 0
-17 5 -25 10 -8 5 -10 10 -5 10 6 0 17 -5 25 -10z m60 -10 c0 -5 -8 -10 -17
-10 -15 0 -16 2 -3 10 19 12 20 12 20 0z m-175 -48 c-3 -3 -11 0 -18 7 -9 10
-8 11 6 5 10 -3 15 -9 12 -12z m12 -28 c-3 -3 -12 -4 -19 -1 -8 3 -5 6 6 6 11
1 17 -2 13 -5z m50 -20 c-3 -3 -12 -4 -19 -1 -8 3 -5 6 6 6 11 1 17 -2 13 -5z
m43 -14 c0 -5 -4 -10 -10 -10 -5 0 -10 5 -10 10 0 6 5 10 10 10 6 0 10 -4 10
-10z m-93 -6 c-3 -3 -12 -4 -19 -1 -8 3 -5 6 6 6 11 1 17 -2 13 -5z m53 -14
c0 -5 -9 -10 -20 -10 -11 0 -20 5 -20 10 0 6 9 10 20 10 11 0 20 -4 20 -10z
m80 6 c0 -2 -7 -6 -15 -10 -8 -3 -15 -1 -15 4 0 6 7 10 15 10 8 0 15 -2 15 -4z
m-45 -36 c-28 -12 -47 -12 -40 0 3 6 18 10 33 9 24 0 25 -1 7 -9z m-55 -23 c8
-3 0 -4 -17 -4 -18 1 -33 5 -33 9 0 9 24 16 30 8 3 -4 12 -10 20 -13z m90 13
c0 -5 -8 -10 -17 -10 -15 0 -16 2 -3 10 19 12 20 12 20 0z m-35 -30 c-3 -5
-15 -10 -26 -10 -11 0 -17 5 -14 10 3 6 15 10 26 10 11 0 17 -4 14 -10z m40
-11 c10 -15 -1 -23 -20 -15 -9 3 -13 10 -10 16 8 13 22 13 30 -1z m-115 -3 c0
-3 -4 -8 -10 -11 -5 -3 -10 -1 -10 4 0 6 5 11 10 11 6 0 10 -2 10 -4z m30 -16
c0 -5 -8 -10 -17 -10 -15 0 -16 2 -3 10 19 12 20 12 20 0z m60 -10 c0 -5 -9
-10 -20 -10 -11 0 -20 5 -20 10 0 6 9 10 20 10 11 0 20 -4 20 -10z m30 -20 c0
-5 7 -10 16 -10 8 0 12 -4 9 -10 -4 -6 -13 -5 -25 3 -21 13 -26 27 -10 27 6 0
10 -4 10 -10z m-30 -20 c0 -5 -7 -10 -15 -10 -8 0 -15 5 -15 10 0 6 7 10 15
10 8 0 15 -4 15 -10z m197 -37 c-3 -10 -5 -4 -5 12 0 17 2 24 5 18 2 -7 2 -21
0 -30z m-261 12 c-22 -17 -36 -19 -36 -7 0 14 12 22 34 22 21 -1 21 -1 2 -15z
m39 -15 c-3 -5 -10 -10 -16 -10 -5 0 -9 5 -9 10 0 6 7 10 16 10 8 0 12 -4 9
-10z m72 4 c-3 -3 -12 -4 -19 -1 -8 3 -5 6 6 6 11 1 17 -2 13 -5z m-37 -14 c0
-5 -4 -10 -10 -10 -5 0 -10 5 -10 10 0 6 5 10 10 10 6 0 10 -4 10 -10z m-70
-14 c0 -3 -4 -8 -10 -11 -5 -3 -10 -1 -10 4 0 6 5 11 10 11 6 0 10 -2 10 -4z
m60 -26 c12 -8 9 -10 -12 -10 -16 0 -28 5 -28 10 0 13 20 13 40 0z m-120 -60
c0 -5 -5 -10 -11 -10 -5 0 -7 5 -4 10 3 6 8 10 11 10 2 0 4 -4 4 -10z m50 -44
c0 -2 -7 -7 -16 -10 -8 -3 -12 -2 -9 4 6 10 25 14 25 6z m185 -25 c51 -29 105
-77 105 -92 0 -8 -17 3 -134 92 -50 37 -36 37 29 0z m53 9 c17 -11 32 -27 32
-35 0 -12 -11 -7 -40 16 -22 18 -40 34 -40 36 0 8 17 2 48 -17z m-90 -27 c73
-45 152 -110 152 -125 0 -6 -12 -2 -27 7 -51 34 -93 57 -93 52 0 -3 25 -22 55
-43 67 -44 74 -56 82 -142 3 -37 9 -71 13 -77 11 -14 -12 -118 -30 -140 -14
-17 -13 -18 3 -12 22 8 21 5 -2 -34 -11 -17 -17 -37 -15 -44 6 -15 -61 -70
-102 -85 -25 -9 -21 -3 24 37 35 33 49 52 44 61 -7 10 -17 9 -51 -3 -56 -19
-67 -19 -50 2 12 15 12 16 -6 9 -61 -25 -75 -13 -29 23 15 12 22 21 15 21 -6
0 -20 -9 -31 -20 -21 -21 -50 -27 -50 -10 0 6 23 24 51 41 l51 32 -34 14 c-55
24 -60 28 -56 38 4 15 63 8 100 -11 38 -19 37 -17 -17 27 -37 29 -38 31 -12
25 29 -7 35 2 15 23 -11 10 -9 15 6 27 11 7 18 15 15 17 -2 2 -17 13 -34 26
l-30 23 28 -7 c27 -7 39 8 15 18 -9 4 -8 6 3 6 8 1 20 -4 27 -11 18 -18 14 3
-5 24 -19 21 -39 23 -46 6 -2 -7 -7 -10 -11 -6 -8 7 24 48 37 48 5 0 22 -9 38
-21 16 -11 29 -16 29 -11 0 5 -27 26 -60 46 -60 38 -80 63 -37 51 12 -4 50
-22 84 -41 34 -19 65 -34 70 -34 14 1 -84 59 -137 82 -49 21 -63 46 -23 40 13
-2 20 3 20 15 0 20 -19 38 -62 58 -24 12 -26 14 -9 15 11 0 48 -17 82 -37z
m-131 -9 c-3 -3 -12 -4 -19 -1 -8 3 -5 6 6 6 11 1 17 -2 13 -5z m43 -14 c0 -5
-7 -10 -15 -10 -8 0 -15 5 -15 10 0 6 7 10 15 10 8 0 15 -4 15 -10z m-75 -10
c-3 -5 -10 -10 -16 -10 -5 0 -9 5 -9 10 0 6 7 10 16 10 8 0 12 -4 9 -10z m-40
-60 c-3 -5 -10 -10 -16 -10 -5 0 -9 5 -9 10 0 6 7 10 16 10 8 0 12 -4 9 -10z
m32 -16 c-3 -3 -12 -4 -19 -1 -8 3 -5 6 6 6 11 1 17 -2 13 -5z m-57 -8 c0 -3
-4 -8 -10 -11 -5 -3 -10 -1 -10 4 0 6 5 11 10 11 6 0 10 -2 10 -4z m110 -6
c12 -8 11 -10 -7 -10 -13 0 -23 5 -23 10 0 13 11 13 30 0z m-1937 -20 c-3 -12
-8 -19 -11 -16 -5 6 5 36 12 36 2 0 2 -9 -1 -20z m301 4 c8 -22 9 -21 -19 -28
-14 -4 -30 -17 -34 -29 -5 -12 -15 -37 -21 -54 -14 -37 -42 -43 -76 -18 -18
14 -17 14 12 15 35 0 55 19 74 70 20 53 52 75 64 44z m1556 6 c0 -5 -4 -10
-10 -10 -5 0 -10 5 -10 10 0 6 5 10 10 10 6 0 10 -4 10 -10z m-1099 -24 c-6
-8 -22 -16 -34 -19 -22 -6 -22 -6 2 14 27 22 49 26 32 5z m1279 9 c0 -2 -16
-20 -35 -40 -38 -38 -62 -44 -72 -19 -3 8 -12 13 -19 10 -8 -3 -14 -1 -14 5 0
7 12 8 30 4 26 -6 34 -2 51 19 17 22 59 37 59 21z m-1567 -20 c-3 -9 -8 -14
-10 -11 -3 3 -2 9 2 15 9 16 15 13 8 -4z m1357 11 c0 -2 -7 -6 -15 -10 -8 -3
-15 -1 -15 4 0 6 7 10 15 10 8 0 15 -2 15 -4z m-1916 -31 c6 -11 16 -23 21
-27 6 -4 2 -8 -9 -8 -19 0 -56 35 -56 52 0 16 32 4 44 -17z m205 -1 c37 -47
19 -63 -21 -19 l-24 25 -47 -45 c-45 -42 -79 -56 -91 -36 -3 4 5 6 18 4 18 -4
28 2 40 21 9 14 23 37 31 51 21 35 67 34 94 -1z m456 -4 c22 -42 19 -45 -15
-16 -17 14 -37 23 -45 20 -8 -4 -15 -3 -15 0 0 6 37 24 52 25 4 1 14 -12 23
-29z m297 16 c20 -4 26 -11 21 -22 -6 -16 -31 -14 -87 8 -26 10 -27 13 -10 19
10 4 26 6 34 4 8 -2 27 -6 42 -9z m998 4 c0 -5 -7 -10 -16 -10 -8 0 -12 5 -9
10 3 6 10 10 16 10 5 0 9 -4 9 -10z m-845 -11 c-104 -14 -105 -29 -2 -29 64 0
86 -3 85 -12 -2 -10 50 -15 217 -21 186 -7 225 -11 260 -28 23 -11 30 -17 15
-14 -14 4 -142 8 -285 10 -236 4 -266 7 -327 27 -46 15 -68 28 -68 38 0 31 23
40 100 39 l75 -2 -70 -8z m420 1 c-7 -12 -232 -12 -290 -1 -28 6 11 9 128 10
110 1 166 -2 162 -9z m373 -12 c65 -23 85 -45 30 -34 -44 10 -108 17 -83 10
11 -3 24 -10 30 -15 5 -5 17 -9 27 -9 10 0 18 -4 18 -10 0 -5 -4 -10 -10 -10
-5 0 -10 -7 -10 -17 0 -9 3 -13 7 -10 3 4 12 2 20 -5 10 -8 17 -8 25 0 9 9 7
12 -7 12 -13 0 -16 3 -9 10 7 7 20 7 33 2 l23 -8 -24 -16 c-25 -16 -77 -16
-122 2 -19 7 -25 17 -27 54 -4 48 -2 66 9 66 4 0 35 -10 70 -22z m-1496 -15
c8 -10 18 -27 22 -38 6 -16 1 -14 -23 9 -17 17 -31 33 -31 38 0 14 16 9 32 -9z
m1981 -79 c-3 -8 -11 -14 -18 -14 -9 0 -10 9 -1 41 10 39 11 39 18 14 4 -15 4
-33 1 -41z m-353 46 c0 -5 -12 -10 -26 -10 -14 0 -23 4 -19 10 3 6 15 10 26
10 10 0 19 -4 19 -10z m-1542 -13 c6 -7 7 -18 3 -26 -7 -11 -11 -9 -20 7 -6
11 -11 23 -11 26 0 11 17 6 28 -7z m277 2 c8 -12 -23 -38 -46 -39 -8 0 -24 7
-35 16 -18 14 -18 14 5 3 22 -10 27 -9 39 10 16 23 27 27 37 10z m1295 -9 c0
-5 -5 -10 -11 -10 -5 0 -7 5 -4 10 3 6 8 10 11 10 2 0 4 -4 4 -10z m30 -10 c0
-5 8 -10 18 -10 30 0 32 -10 7 -34 -29 -29 -48 -36 -65 -26 -11 7 -7 12 13 21
26 12 38 39 17 39 -5 0 -10 5 -10 10 0 6 5 10 10 10 6 0 10 -4 10 -10z m-75
-30 c-3 -5 -11 -10 -16 -10 -6 0 -7 5 -4 10 3 6 11 10 16 10 6 0 7 -4 4 -10z
m-134 -17 c55 -20 66 -39 18 -29 -17 3 -42 6 -55 6 -17 0 -24 6 -24 20 0 24 0
24 61 3z m10 -63 c24 -11 36 -20 26 -20 -20 0 -87 26 -87 34 0 10 17 6 61 -14z
m124 0 c-3 -5 -10 -10 -16 -10 -5 0 -9 5 -9 10 0 6 7 10 16 10 8 0 12 -4 9
-10z m-117 -61 c2 -5 10 -9 18 -9 9 0 12 -4 9 -10 -16 -25 -75 -3 -75 28 0 15
42 7 48 -9z m157 11 c3 -5 15 -10 26 -10 10 0 19 -4 19 -10 0 -5 -11 -10 -25
-10 -14 0 -25 5 -25 10 0 6 -7 10 -15 10 -8 0 -15 5 -15 10 0 6 6 10 14 10 8
0 18 -4 21 -10z m-69 -55 c-11 -8 -22 -12 -25 -9 -6 6 19 24 34 24 6 -1 1 -7
-9 -15z m54 -4 c0 -11 -31 -24 -39 -16 -3 3 1 10 9 15 19 12 30 12 30 1z m-80
-30 c0 -13 -26 -32 -33 -24 -14 13 -6 33 13 33 11 0 20 -4 20 -9z m47 -34 c-5
-15 -20 -18 -37 -7 -13 9 -13 11 -1 19 17 11 43 3 38 -12z m38 -18 c-4 -5 -13
-9 -22 -9 -13 0 -13 3 -3 15 13 15 35 11 25 -6z m194 17 c-32 -32 -87 -66
-106 -66 -35 0 -19 18 41 46 46 22 76 31 65 20z m-159 -15 c0 -13 -26 -32 -33
-24 -8 7 11 33 24 33 5 0 9 -4 9 -9z m-129 -12 c11 -5 17 -14 14 -19 -6 -10
-45 9 -45 22 0 11 8 10 31 -3z m179 3 c0 -5 -11 -14 -25 -20 -28 -13 -44 2
-18 17 22 13 43 14 43 3z m-115 -36 c12 -12 12 -15 0 -20 -8 -3 -15 -1 -15 4
0 6 -7 10 -16 10 -8 0 -12 5 -9 10 9 14 24 12 40 -4z m236 -45 c-8 -18 -34
-42 -72 -64 -32 -19 -59 -31 -59 -26 0 5 4 9 10 9 5 0 12 11 16 25 4 16 13 25
26 25 10 0 17 4 13 10 -5 9 66 62 74 54 2 -2 -2 -17 -8 -33z m-165 14 c-11 -8
-24 -15 -30 -15 -5 0 -1 7 10 15 10 8 24 14 29 14 6 0 1 -6 -9 -14z m131 -122
c-25 -75 -19 -204 13 -276 25 -56 21 -77 -15 -77 -27 0 -32 9 -13 28 9 9 8 12
-4 12 -9 0 -20 -4 -23 -10 -3 -5 -22 -10 -41 -10 -19 0 -34 5 -34 10 0 6 5 10
10 10 19 0 10 31 -11 39 -21 7 -21 8 10 30 46 33 38 44 -13 16 -50 -28 -56
-29 -56 -15 0 6 8 10 18 10 13 0 14 2 4 9 -10 6 -8 10 8 14 12 3 24 15 27 26
3 12 11 21 18 21 15 0 37 25 29 33 -4 3 -18 -2 -32 -11 -37 -24 -54 -25 -39
-1 6 10 20 19 30 19 10 0 15 4 12 10 -3 5 2 24 11 41 11 23 13 34 4 39 -7 4 9
22 42 48 29 22 56 41 59 41 3 1 -3 -25 -14 -56z m-281 -28 c-26 -19 -42 -19
-26 0 7 8 20 15 29 15 13 -1 13 -3 -3 -15z m12 -61 c36 -10 25 -24 -18 -24
-38 0 -49 8 -33 23 8 8 21 9 51 1z m-41 -50 c-3 -3 -12 -4 -19 -1 -8 3 -5 6 6
6 11 1 17 -2 13 -5z m13 -44 c0 -13 -11 -13 -30 0 -12 8 -11 10 8 10 12 0 22
-4 22 -10z m110 -20 c-8 -6 -22 -10 -30 -9 -9 0 -5 6 10 14 27 14 44 10 20 -5z
m208 -5 c-3 -3 -9 2 -12 12 -6 14 -5 15 5 6 7 -7 10 -15 7 -18z m-348 -41 c0
-2 -7 -4 -15 -4 -8 0 -15 4 -15 10 0 5 7 7 15 4 8 -4 15 -8 15 -10z m57 0 c-3
-3 -12 -4 -19 -1 -8 3 -5 6 6 6 11 1 17 -2 13 -5z m80 -30 c-3 -3 -12 -4 -19
-1 -8 3 -5 6 6 6 11 1 17 -2 13 -5z m-152 -14 c4 -6 -5 -10 -20 -10 -15 0 -24
4 -20 10 3 6 12 10 20 10 8 0 17 -4 20 -10z m15 -99 c34 -17 68 -27 76 -24 8
3 26 2 40 -1 26 -7 26 -7 8 -25 -18 -17 -20 -17 -38 -2 -10 9 -21 15 -25 13
-23 -12 -131 37 -131 60 0 12 4 11 70 -21z m220 -37 c0 -6 -65 -34 -81 -34
-19 0 -1 14 34 27 37 13 47 15 47 7z"/>
<path d="M2787 1779 c7 -7 15 -10 18 -7 3 3 -2 9 -12 12 -14 6 -15 5 -6 -5z"/>
<path d="M2720 955 c0 -9 5 -15 11 -13 6 2 11 8 11 13 0 5 -5 11 -11 13 -6 2
-11 -4 -11 -13z"/>
<path d="M1352 1231 c-7 -4 -12 -12 -11 -17 1 -5 -3 -22 -9 -37 -7 -16 -12
-33 -12 -39 0 -5 -8 -22 -18 -36 -10 -15 -40 -79 -67 -142 -27 -63 -57 -126
-67 -139 -10 -13 -18 -32 -18 -43 0 -10 -11 -41 -25 -68 -14 -27 -25 -53 -25
-57 1 -4 10 9 21 30 27 52 31 46 7 -15 -21 -58 -45 -91 -34 -48 6 23 5 23 -10
-4 -12 -22 -13 -30 -4 -36 9 -6 9 -12 0 -30 -9 -16 -14 -19 -20 -10 -11 18
-18 2 -29 -67 -5 -34 -17 -75 -25 -92 -21 -40 -20 -58 4 -66 12 -4 31 -23 44
-44 13 -20 41 -45 62 -56 21 -11 71 -39 110 -63 58 -34 142 -72 160 -72 2 0 4
7 4 15 0 11 12 15 44 15 35 0 46 4 51 19 3 11 12 22 20 25 8 3 15 16 15 28 0
19 156 342 180 373 4 6 15 35 24 66 15 52 62 159 122 273 14 26 22 51 19 54
-8 8 -18 -10 -67 -113 -21 -44 -43 -79 -48 -77 -6 1 -10 -5 -10 -12 0 -35
-246 -546 -262 -546 -4 0 -8 7 -8 16 0 9 -5 12 -12 8 -7 -5 -9 -2 -5 9 3 9 1
17 -6 20 -6 2 -4 6 6 10 12 4 17 1 17 -11 0 -11 8 -5 21 17 22 36 16 58 -7 27
-10 -14 -14 -15 -14 -5 1 23 27 53 33 37 4 -8 6 -7 6 5 1 10 -6 17 -18 17 -23
0 -38 -17 -44 -50 -2 -14 -3 -6 -2 18 2 32 10 51 31 73 22 23 24 29 11 29 -9
0 -17 4 -17 9 0 5 -13 3 -30 -5 -16 -9 -30 -20 -30 -25 0 -11 -25 -39 -35 -39
-3 0 -3 5 1 12 4 6 8 23 9 37 2 14 6 37 10 50 6 17 5 22 -3 17 -13 -8 -33 -73
-39 -131 -2 -22 -6 -49 -7 -60 -2 -11 -4 -26 -5 -34 -2 -27 -14 -1 -17 39 -2
22 3 57 11 77 8 19 15 48 15 64 0 15 7 34 15 43 8 8 15 23 15 34 0 11 7 25 16
32 13 11 16 10 20 -7 5 -20 9 -18 45 18 21 21 39 43 39 48 0 6 9 16 19 23 19
13 19 14 0 53 -10 21 -18 43 -17 49 1 6 -3 21 -10 34 -16 28 -6 48 14 31 8 -7
13 -18 10 -26 -3 -7 -1 -13 5 -13 5 0 14 -10 19 -22 8 -18 9 -13 4 20 -3 26
-2 42 4 42 6 0 14 10 18 23 l8 22 7 -25 c7 -24 7 -24 8 6 1 16 8 39 16 50 14
18 14 18 15 0 0 -14 7 -9 25 18 14 20 25 42 25 48 0 6 3 8 6 5 8 -8 44 36 44
53 0 8 6 9 18 5 9 -4 27 -10 40 -13 15 -3 21 -10 18 -19 -3 -8 -6 -19 -6 -25
0 -6 -7 -7 -15 -4 -9 3 -18 -1 -22 -10 -8 -21 6 -32 17 -14 14 21 12 3 -5 -60
-8 -30 -15 -61 -15 -69 0 -27 11 -3 26 56 37 145 33 135 60 130 30 -5 43 16
24 38 -7 8 -10 21 -7 29 11 28 -46 73 -143 111 -137 54 -197 72 -270 84 -77
13 -72 13 -88 2z m108 -31 c12 -8 11 -10 -7 -10 -13 0 -23 5 -23 10 0 13 11
13 30 0z m208 -57 c63 -26 84 -46 35 -34 -51 12 -153 54 -153 63 0 11 40 1
118 -29z m-299 -35 c-12 -24 -24 -38 -26 -31 -5 15 24 73 37 73 6 0 1 -19 -11
-42z m180 26 c2 -2 1 -7 -2 -11 -4 -3 -22 1 -40 10 l-32 17 35 -6 c19 -4 37
-8 39 -10z m31 -18 c0 -3 -4 -8 -10 -11 -5 -3 -10 -1 -10 4 0 6 5 11 10 11 6
0 10 -2 10 -4z m87 -11 c19 -8 50 -15 69 -15 18 0 40 -7 49 -17 19 -18 38 -63
31 -71 -6 -6 -119 40 -127 52 -4 5 -12 5 -18 2 -6 -4 -11 -3 -11 3 0 5 6 12
13 14 7 3 6 6 -5 6 -9 1 -20 -3 -23 -9 -10 -16 -65 17 -59 35 8 19 35 19 81 0z
m-114 -65 c-3 -11 -10 -20 -15 -20 -6 0 -8 -6 -5 -13 3 -8 1 -20 -5 -28 -7
-11 -8 -9 -4 6 5 14 0 12 -18 -10 -30 -35 -35 -22 -6 15 11 14 20 30 20 36 0
11 20 34 31 34 4 0 5 -9 2 -20z m-202 -17 c-12 -20 -14 -14 -5 12 4 9 9 14 11
11 3 -2 0 -13 -6 -23z m219 -3 c-14 -9 -7 -14 13 -11 12 2 8 -27 -5 -35 -7 -4
-8 -3 -4 4 4 7 3 12 -3 12 -5 0 -12 -8 -14 -17 -3 -10 -5 -4 -6 13 -1 29 17
60 28 48 3 -3 -1 -9 -9 -14z m-102 -32 c-5 -24 -14 -47 -20 -53 -7 -7 -8 -3
-3 13 3 12 2 22 -3 22 -13 0 -23 -42 -13 -54 12 -15 -5 -55 -25 -63 -9 -3 -20
0 -25 8 -7 11 -9 11 -9 -3 0 -10 -4 -18 -10 -18 -15 0 -12 27 5 44 8 8 15 21
15 29 0 9 9 26 20 39 11 12 29 35 41 51 29 39 38 34 27 -15z m157 -13 c-8 -21
-18 -36 -21 -33 -3 3 2 23 11 43 8 21 18 36 21 33 3 -3 -2 -23 -11 -43z m-279
-31 c-19 -19 -21 -11 -4 16 7 11 14 16 16 10 2 -5 -4 -17 -12 -26z m168 -20
c-3 -32 -14 -45 -14 -16 0 15 -5 20 -15 16 -8 -4 -15 -1 -15 4 0 9 13 16 41
21 3 0 5 -11 3 -25z m-188 -49 c-3 -8 -10 -15 -15 -15 -7 0 -6 10 1 26 12 26
25 16 14 -11z m151 3 c-3 -7 -5 -2 -5 12 0 14 2 19 5 13 2 -7 2 -19 0 -25z
m56 -8 c-3 -12 -8 -19 -11 -16 -5 6 5 36 12 36 2 0 2 -9 -1 -20z m-279 -5 c-6
-16 -24 -21 -24 -7 0 11 11 22 21 22 5 0 6 -7 3 -15z m203 -7 c-3 -8 -6 -5 -6
6 -1 11 2 17 5 13 3 -3 4 -12 1 -19z m-149 -44 c-2 -39 17 -60 39 -42 10 8 13
3 15 -23 2 -49 -1 -72 -11 -79 -5 -3 -9 -22 -8 -43 1 -38 -21 -74 -30 -49 -9
25 -19 11 -15 -23 7 -56 -12 -40 -27 23 -7 31 -23 90 -36 130 -13 39 -19 72
-15 72 5 0 11 -6 13 -12 3 -7 3 1 0 18 -3 20 0 34 11 43 23 19 36 5 36 -40 0
-32 -3 -39 -20 -39 -11 0 -20 -5 -20 -10 0 -6 9 -28 20 -50 11 -22 20 -48 20
-58 0 -35 13 -32 37 9 24 42 22 74 -3 42 -12 -16 -15 -16 -24 -3 -12 18 -13
70 -1 70 4 0 6 23 3 50 -3 34 -1 50 7 50 7 0 11 -14 9 -36z m88 -45 c-14 -32
-15 -32 -16 -8 0 14 5 30 12 37 18 18 20 8 4 -29z m39 14 c-3 -16 -10 -32 -15
-37 -5 -5 -4 7 2 27 13 43 23 50 13 10z m-206 -113 c13 -47 29 -103 37 -125 8
-23 14 -48 14 -57 0 -28 19 -31 40 -6 l19 23 1 -40 c0 -23 -9 -66 -20 -98 -11
-31 -20 -63 -20 -72 0 -25 -17 -17 -30 16 -10 24 -11 36 -2 50 16 25 15 33 -7
82 -29 67 -86 301 -77 323 10 26 17 11 45 -96z m255 29 c-3 -34 -2 -49 6 -44
6 3 8 10 5 15 -3 5 -1 11 5 15 13 8 13 -15 0 -35 -7 -12 -12 -12 -22 -2 -19
19 -25 15 -26 -20 -1 -47 -62 -88 -62 -43 0 9 6 12 15 9 12 -5 15 2 15 29 0
20 5 39 10 42 6 3 10 17 10 30 0 26 28 67 41 59 4 -2 5 -27 3 -55z m-295 -81
c2 -33 -17 -18 -23 17 -9 45 6 73 15 30 4 -16 7 -38 8 -47z m215 7 c-4 -8 -8
-15 -10 -15 -2 0 -4 7 -4 15 0 8 4 15 10 15 5 0 7 -7 4 -15z m-229 -92 c17
-59 16 -93 -3 -93 -16 0 -44 117 -37 151 9 39 16 29 40 -58z m63 -70 c14 -25
16 -67 3 -59 -11 7 -39 92 -41 126 -4 46 2 46 14 0 7 -25 18 -55 24 -67z m132
77 c0 -25 -2 -29 -13 -18 -8 7 -12 20 -9 30 7 29 22 21 22 -12z m-240 -70 c5
0 11 -13 15 -28 7 -34 -42 -139 -58 -123 -6 6 -3 18 7 32 9 13 16 31 16 41 0
11 5 15 14 12 12 -5 13 0 7 23 -4 15 -14 28 -22 28 -19 0 -22 26 -7 61 l12 29
4 -37 c2 -21 7 -38 12 -38z m-40 -79 c-4 -14 -12 -25 -19 -23 -6 1 -11 -5 -11
-14 0 -8 -4 -13 -8 -10 -4 3 -3 30 2 61 10 55 11 55 27 34 11 -15 14 -30 9
-48z m133 7 c4 -12 4 -33 1 -45 -5 -17 -2 -23 10 -23 9 0 22 -16 31 -36 19
-46 19 -54 -1 -54 -8 0 -22 17 -30 38 -8 20 -19 44 -24 52 -19 29 -22 40 -16
65 8 31 22 32 29 3z m-26 -88 c3 -14 12 -38 21 -54 l14 -29 -30 24 c-38 31
-54 63 -46 96 7 25 8 25 21 7 8 -10 17 -30 20 -44z m196 -7 c-16 -12 -18 -12
-21 7 -2 12 4 27 15 35 16 12 18 11 21 -8 2 -12 -4 -27 -15 -34z m-256 -13
c-1 -22 -17 -28 -17 -7 0 12 9 27 16 27 2 0 2 -9 1 -20z m233 -84 c0 -3 -4 -8
-10 -11 -5 -3 -10 -1 -10 4 0 6 5 11 10 11 6 0 10 -2 10 -4z"/>
<path d="M1330 720 c0 -5 5 -10 10 -10 6 0 10 5 10 10 0 6 -4 10 -10 10 -5 0
-10 -4 -10 -10z"/>
<path d="M1660 886 c0 -9 5 -16 10 -16 6 0 10 4 10 9 0 6 -4 13 -10 16 -5 3
-10 -1 -10 -9z"/>
<path d="M1640 838 c0 -7 -3 -24 -7 -38 -6 -22 -5 -24 10 -11 18 15 23 61 7
61 -5 0 -10 -6 -10 -12z"/>
<path d="M1642 718 c-14 -14 -16 -38 -4 -38 12 0 32 23 32 37 0 16 -12 17 -28
1z"/>
<path d="M1589 553 c-13 -17 -13 -17 6 -3 11 8 22 16 24 17 2 2 0 3 -6 3 -6 0
-17 -8 -24 -17z"/>
<path d="M1565 490 l-39 -40 27 0 c19 0 27 5 27 17 0 9 7 25 17 35 33 37 5 26
-32 -12z"/>
<path d="M1539 493 c-13 -16 -12 -17 4 -4 16 13 21 21 13 21 -2 0 -10 -8 -17
-17z"/>
<path d="M1550 389 c0 -5 5 -7 10 -4 6 3 10 8 10 11 0 2 -4 4 -10 4 -5 0 -10
-5 -10 -11z"/>
</g>
</svg>
