<svg width="342" height="158" viewBox="0 0 342 158" fill="none" xmlns="http://www.w3.org/2000/svg">
<path d="M54 103.25C81.2 103.25 103.25 81.2 103.25 54C103.25 26.8 81.2 4.75 54 4.75C26.8 4.75 4.75 26.8 4.75 54C4.75 81.2 26.8 103.25 54 103.25Z" stroke="white" stroke-width="11"/>
<path d="M171 103.25C198.2 103.25 220.25 81.2 220.25 54C220.25 26.8 198.2 4.75 171 4.75C143.8 4.75 121.75 26.8 121.75 54C121.75 81.2 143.8 103.25 171 103.25Z" stroke="white" stroke-width="11"/>
<path d="M288 103.25C315.2 103.25 337.25 81.2 337.25 54C337.25 26.8 315.2 4.75 288 4.75C260.8 4.75 238.75 26.8 238.75 54C238.75 81.2 260.8 103.25 288 103.25Z" stroke="white" stroke-width="11"/>
<path d="M112.5 153.25C139.7 153.25 161.75 131.2 161.75 104C161.75 76.8 139.7 54.75 112.5 54.75C85.3 54.75 63.25 76.8 63.25 104C63.25 131.2 85.3 153.25 112.5 153.25Z" stroke="#FF4500" stroke-width="11"/>
<path d="M229.5 153.25C256.7 153.25 278.75 131.2 278.75 104C278.75 76.8 256.7 54.75 229.5 54.75C202.3 54.75 180.25 76.8 180.25 104C180.25 131.2 202.3 153.25 229.5 153.25Z" stroke="#FF4500" stroke-width="11"/>
<path d="M93.3999 24.45C99.7936 32.9749 103.25 43.3437 103.25 54C103.25 64.6562 99.7936 75.025 93.3999 83.55" stroke="white" stroke-width="11"/>
<path d="M210.4 24.45C216.794 32.9749 220.25 43.3437 220.25 54C220.25 64.6562 216.794 75.025 210.4 83.55M171 103.25C160.344 103.25 149.975 99.7937 141.45 93.3999" stroke="white" stroke-width="11"/>
<path d="M288 103.25C277.344 103.25 266.975 99.7936 258.45 93.3999" stroke="white" stroke-width="11"/>
</svg>
