<svg version="1.2" xmlns="http://www.w3.org/2000/svg" viewBox="0 0 450 450" width="450" height="450">
	<style>
		.s0 { fill: #000000 } 
	</style>
	<g id="SVGRepo_bgCarrier">
	</g>
	<g id="SVGRepo_tracerCarrier">
	</g>
	<g id="SVGRepo_iconCarrier">
		<g>
			<path class="s0" d="m423.19 434.92l-86.75-156.92 17.43-6.96c6.69-2.67 12.3-10.39 12.78-17.58l2.17-32.68c0.36-5.46 3.14-14.01 6.06-18.65l17.44-27.7c3.84-6.09 3.84-15.64 0-21.74l-17.44-27.7c-2.92-4.64-5.7-13.18-6.06-18.65l-2.17-32.68c-0.48-7.18-6.09-14.91-12.78-17.57l-30.42-12.15c-5.09-2.03-12.35-7.31-15.86-11.52l-20.93-25.19c-3.6-4.33-10.17-7.23-16.37-7.23q-2.27 0-4.3 0.51l-31.75 8.09c-2.53 0.64-6.1 1.01-9.8 1.01-3.7 0-7.27-0.37-9.8-1.01l-31.76-8.09q-2.02-0.51-4.29-0.51c-6.2 0-12.78 2.9-16.37 7.23l-20.94 25.19c-3.5 4.21-10.76 9.49-15.85 11.52l-30.43 12.15c-6.68 2.67-12.3 10.39-12.77 17.57l-2.17 32.68c-0.36 5.47-3.14 14.01-6.06 18.65l-17.44 27.71c-3.84 6.09-3.84 15.64 0 21.73l17.44 27.71c2.92 4.64 5.69 13.18 6.06 18.65l2.17 32.67c0.47 7.19 6.09 14.91 12.77 17.58l17.44 6.96-86.75 156.92c-1.93 3.48-2.12 7.02-0.53 9.72 1.59 2.69 4.78 4.24 8.76 4.24h97.75c7.36 0 15.91-5.05 19.47-11.49l65.98-119.35c2.17-0.33 4.71-0.52 7.32-0.52 2.61 0 5.15 0.19 7.31 0.52l65.98 119.35c3.56 6.44 12.12 11.49 19.48 11.49h97.75c3.97 0 7.16-1.55 8.75-4.24 1.6-2.7 1.4-6.24-0.52-9.72zm-198.75-378.39c59.11 0 107.03 47.92 107.03 107.03 0 59.12-47.92 107.04-107.03 107.04-59.11 0-107.03-47.92-107.03-107.04 0-59.11 47.92-107.03 107.03-107.03z"/>
			<path id="2" class="s0" d="m236.12 179.32l-19.3 17.14v0.4h38.08v17.14h-61.77v-16.1l26.89-25.71q8.12-7.79 11.39-13.02 3.34-5.3 3.34-11.12 0-12.96-13.94-12.96-12.11 0-23.16 9.62v-18.19q12.23-7.92 27.61-7.92 14.39 0 22.44 7.27 8.11 7.19 8.11 19.49 0 16.43-19.69 33.96z"/>
		</g>
	</g>
</svg>