<svg version="1.2" xmlns="http://www.w3.org/2000/svg" viewBox="0 0 565 344" width="565" height="344">
	<style>
		.s0 { fill: #ffffff } 
	</style>
	<path class="s0" d="m62.61 271.92q-25.06-0.99-41.1-13.74c-2.04-1.62-6.9-6.49-8.53-8.54-4.34-5.46-7.29-10.76-9.26-16.65-6.05-18.13-2.93-41.92 8.91-68.03 10.15-22.35 25.8-44.52 53.11-75.23 4.02-4.52 16-17.73 16.08-17.73 0.03 0-0.63 1.13-1.45 2.51-7.1 11.89-13.17 25.9-16.48 38.03-5.32 19.46-4.68 36.16 1.87 49.11 4.53 8.92 12.28 16.65 20.99 20.92 15.26 7.48 37.6 8.1 64.88 1.81 1.88-0.43 94.94-25.14 206.82-54.9 111.87-29.77 203.42-54.1 203.44-54.08 0.03 0.02-259.92 111.26-394.86 168.96-21.37 9.14-27.09 11.45-37.13 14.98-25.69 9.01-48.69 13.32-67.29 12.58z"/>
</svg>