<svg version="1.2" xmlns="http://www.w3.org/2000/svg" viewBox="0 0 200 200" width="200" height="200">
	<style>
		.s0 { fill: #ffffff } 
	</style>
	<g>
		<path fill-rule="evenodd" class="s0" d="m100 200.25c-55.3 0-100-44.7-100-100 0-55.3 44.7-100 100-100 55.3 0 100 44.7 100 100 0 55.3-44.7 100-100 100zm58-82.92c2.25-3.66 1.08-8.5-2.58-10.75-30.84-19-76-24.33-112.34-13.33-4.08 1.25-6.41 5.67-5.16 9.75 1.25 4.08 5.66 6.42 9.75 5.17 31.83-9.67 72.75-4.84 99.66 11.66 3.67 2.25 8.5 1.09 10.75-2.58zm-14.16 18.58c-26.42-16.16-59.09-19.91-97.17-11.16-3.33 0.83-5.42 4.16-4.67 7.5 0.75 3.33 4.09 5.41 7.42 4.66 34.83-7.91 64.33-4.66 87.83 9.67 2.92 1.83 6.75 0.83 8.59-2.08 1.83-2.92 0.91-6.75-2-8.59zm28.16-50.25c2.67-4.41 1.17-10.16-3.25-12.83-37.16-22.08-95.83-24.17-131.16-13.42-5 1.5-7.75 6.75-6.25 11.67 1.5 5 6.75 7.75 11.66 6.25 30.75-9.33 83.92-7.58 116.17 11.58 4.5 2.67 10.17 1.17 12.83-3.25z"/>
	</g>
</svg>