<svg version="1.2" xmlns="http://www.w3.org/2000/svg" viewBox="0 0 420 200" width="420" height="200">
	<style>
		.s0 { fill: #ffffff } 
	</style>
	<g>
		<path fill-rule="evenodd" class="s0" d="m213.76 193.11c-43.62 0-80.72-26.04-94.35-62.37 13.1 38.99 45.74 69.26 94.28 69.26 45.78 0 81.9-30.68 94.75-70.11-13.38 36.77-51.06 63.22-94.68 63.22zm0-186.35c44.19 0 81.7 26.74 94.89 63.82-12.64-39.78-47.51-70.58-94.96-70.58-51.04 0-81.59 30.38-94.5 69.71 13.46-36.62 50.38-62.95 94.57-62.95z"/>
		<path fill-rule="evenodd" class="s0" d="m215.7 60.01c-1 1.48 1.16-0.63 3.4 1.25 3.2 2.67 2.94 0.86 4.85 2.39 1.22 0.98 0.22 1.54 0.94 1.19 1.39-0.68 3.53 0.33 3.53 0.33 0 0 4.16-1.29 0.69-1.19-3.44 0.11-3.48-2.67-5.89-2.16-2.42 0.51-2-2.05-3.77-2.09-1.29-0.03-3.13-0.63-3.75 0.27m17.35 69.81h0.03q-0.01-0.01-0.03-0.01zm3.89 3.95c1.86 4.88-0.91 0.92-0.91 8.29 0 6.78-1.95 5.68-1.95 5.68 0 0-0.42 8.01-4.61 12.93-2.68 2.65-0.6 4.85-0.6 4.85 0 0-0.91 0.49-2.22 6.31-0.41 1.88 2.03 4.78 4.15 4.06 1.58-0.54-3.87-1.06 2.03-3.52 2.28-0.95 0.42-2.73 0.42-2.73 0 0 3.83-0.29 5.99-5.99 3.8 0.55 2.39-1.75 10.23-3.42 2.07-0.44 2.51-1.05 2.26-2.98-0.26-1.91 2.55 0.29 10.32-7.52 6.12-6.16 3.92-7.55 8.15-9.78 4.47-2.35 4.88 0.21 6.38-1.71 3.43-4.38 2.21-4.11 3.64-6.89l1.01-1.54-48.15 0.01c1.37 0.55 3.07 1.9 3.86 3.95zm-46.96-68.77c-1.27-3.1-1.18-8.11 1.54-12.75 1.71-2.89 6.25-4.17 10.21-2.65 4.45-3.46 5.51 0.27 9.45-1.41 5.18-2.22 2.27 5.85 7.29 7.9 2.07-5.44-4.72-9.53-0.47-12.1 3.05-1.82 5.34-2.95 6.58-5.41 1.78-3.49 2.47-6.03 3.83-6.49 3.16-1.06 2.48-4.02 2.48-4.02 0 0 3.36 0.97 5.97-1.44-1.99-1.06-4.91-1.97-4.14-4.08 0.89-2.49 7.66 2.57 9.66-1.51-4.02-1.73-8.13-5.48-10.58-6.35-1.69 1.81-2.74 1.08-4.91-0.61-3.68-2.86-3.99-0.14-6.28-2.11-1.84 3.63 0.92 3.34 1.78 4.25 2.36 2.55-2.39-2.29-1.94 4.21 0.13 1.69-2.4 2-4.29-1.66-0.98-1.91-8.78-1.5-9.96-3.33 1.07-2.12 10.26-9.67 24.38-7.86-20.5-7.93-48.2 0.74-48.49 3.75-2.75 1.71-1.81 3.66-3.18 4.11-2.39 0.79-4.99 7.98-4.99 7.98 0 0 1.48 0.97-3.15 6.09-3.82 4.21-4.95 10.59-4.95 10.59 0 0 2.52 4.55 2.05 9.79-0.36 4-0.53 1.03 1.23 3.93 1.03 1.7 2.15 7.62 2.84 5.31 1.31-4.41-2.38-8.49-1.77-12.87 0.14 0.54 1.42-1.74 1.37 0.32-0.14 5.42 6.76 15.84 6.76 15.84 0 0-2.58 2.58 0.12 2.58z"/>
		<path class="s0" d="m43.07 79.49h-15.57l2.32 2.73v20.14c0 4.54-3.04 6.45-7.58 6.45-4.55 0-7.59-1.91-7.59-6.45v-20.14l2.32-2.73h-15.57l2.33 2.73v20.47c0 10.05 5.71 13.93 18.5 13.93 12.79 0 18.5-3.88 18.5-13.93v-20.47l2.33-2.73z"/>
		<path fill-rule="evenodd" class="s0" d="m97.1 79.49h-13.14l2.34 2.73v18.34l-18.84-21.07h-11.8l2.33 2.73v30.96l-2.33 2.73h13.12l-2.32-2.73v-18.67l20 21.4h8.31v-33.69l2.33-2.73z"/>
		<path fill-rule="evenodd" class="s0" d="m127.35 115.91l-2.33-2.73v-30.96l2.33-2.73h-15.68l2.33 2.73v30.96l-2.33 2.73h15.68z"/>
		<path fill-rule="evenodd" class="s0" d="m179.05 79.49h-13.19l2.34 2.73-9.31 20.04-8.98-20.04 2.33-2.73h-15.52l17.24 36.42h7.69l17.4-36.42z"/>
		<path fill-rule="evenodd" class="s0" d="m223.08 115.91v-9.88l-2.77 2.29h-18.89v-6.99h11.96l2.72 2.29v-11.85l-2.72 2.3h-11.96v-6.99h18.89l2.77 2.29v-9.88h-34.79l2.33 2.73v30.96l-2.33 2.73h34.79z"/>
		<path fill-rule="evenodd" class="s0" d="m259.59 115.91l2.32-2.73-7.08-10.32h-4.65v10.32l2.32 2.73h-15.46l2.33-2.73v-30.96l-2.33-2.73h23.05c10.52 0 14.28 4.96 14.28 11.03 0 5.29-3.43 9.06-8.35 11.03l10.02 14.36zm-1.05-28.83h-8.36v8.95h7.03c3.55 0 6.1-2.12 6.1-4.75 0-3-2.34-4.2-4.77-4.2z"/>
		<path class="s0" d="m322.85 105.27c0-5.79-4.72-9.01-11.53-11.2-4.43-1.36-10.69-2.34-10.69-5.24 0-1.43 1.71-2.41 4.7-2.41 4 0 10.53 1.64 15.62 4.04v-12.17l-2.93 2.78c-3.1-1.26-8.48-2.57-12.18-2.57-12.57 0-16.62 5.46-16.62 10.43 0 6.77 4.54 9.72 11.69 12.18 5.31 1.8 10.24 1.96 10.24 4.96 0 2.57-3.04 2.9-4.59 2.9-3.93 0-10.92-1.37-17.12-5.35v13.48l2.94-3.17c2.88 1.1 9.37 2.95 14.68 2.95 10.91 0 15.79-4.75 15.79-11.62"/>
		<path fill-rule="evenodd" class="s0" d="m362.48 115.91l2.32-2.73-1.77-3.82h-17.62l-1.82 3.82 2.33 2.73h-13.58l16.45-33.69-1.32-2.73h12.46l18.18 36.42c0 0-15.63 0-15.63 0zm-8.31-26.15l-6.1 13.04h12.25z"/>
		<path fill-rule="evenodd" class="s0" d="m421.89 115.91v-9.88l-2.78 2.29h-17.78v-26.1l2.32-2.73h-15.45l2.33 2.73v30.96l-2.33 2.73h33.69z"/>
		<path class="s0" d="m411.53 84.54c0-2.81 2.31-5.09 5.15-5.09 2.85 0 5.17 2.28 5.17 5.09 0 2.8-2.31 5.09-5.17 5.09-2.84 0-5.15-2.28-5.15-5.09zm0.49 0c0 2.55 2.09 4.6 4.66 4.6 2.58 0 4.69-2.05 4.69-4.6 0-2.55-2.09-4.61-4.69-4.61-2.59 0-4.66 2.06-4.66 4.61z"/>
		<path fill-rule="evenodd" class="s0" d="m418.64 82.55q-0.78-0.63-1.79-0.62c-1.52 0-2.64 1.16-2.64 2.62 0 1.47 1.11 2.66 2.63 2.66 0.69 0 1.35-0.25 1.87-0.7v-0.67c-0.47 0.55-1.16 0.9-1.89 0.9-1.21 0-2.11-1.04-2.11-2.19 0-1.14 0.91-2.16 2.12-2.16q1.09 0.01 1.81 0.82c0 0 0-0.66 0-0.66z"/>
	</g>
</svg>