<svg version="1.2" xmlns="http://www.w3.org/2000/svg" viewBox="0 0 280 200" width="280" height="200">
	<style>
		.s0 { fill: #ffffff } 
	</style>
	<path fill-rule="evenodd" class="s0" d="m167.09 2.84q0.01 0.03 0.01 0.06-0.02 0-0.04 0.01zm1.45-0.05c4.49 0.06 8.97 0.34 13.42 1.13 6.1 1.09 10.27 4.66 12.62 10.16 3.49 8.2 3.87 16.69 1.35 25.25-0.38 1.3-0.99 2.55-1.58 3.79-0.43 0.89-0.54 1.66-0.1 2.63 2.52 5.42 4.96 10.87 7.41 16.3q0.73 1.66 1.48 3.29c0.18 0.38 0.41 0.72 0.83 1-0.12-0.56-0.22-1.15-0.38-1.69-1.91-6.37-3.02-12.89-3.61-19.51-0.53-5.96-0.59-11.92-0.11-17.88 0.44-5.59 1.58-11.06 3.93-16.19 1.35-2.92 3.1-5.57 6.04-7.16 4.02-2.18 7.89-1.88 11.59 0.74 3.33 2.35 5.43 5.68 7.16 9.26 1.68 3.46 3.16 6.98 4.02 10.75 0.1 0.46 0.31 0.91 0.71 1.34-0.07-0.6-0.1-1.19-0.22-1.78q-0.71-3.8-1.5-7.57c-0.14-0.69-0.09-1.27 0.37-1.85q4.66-5.73 9.33-11.49c0.05-0.06 0.2-0.06 0.51-0.14q3.9 25.45 7.77 50.86 0.17 0 0.35 0c0.41-2.78 0.69-5.6 1-8.41q0.51-4.41 0.99-8.82 0.49-4.32 0.99-8.65c0.34-2.88 0.69-5.74 1.05-8.77h2.42c2.65 13.02 5.28 25.98 7.93 38.93q0.17 0 0.23 0c0.05 0 0.12-0.03 0.14-0.06 0.04-0.1 0.11-0.2 0.13-0.3q1.38-26.09 2.76-52.18c0-0.05 0.05-0.1 0.15-0.25 0.18 0.18 0.38 0.33 0.49 0.53 3.2 5.68 6.36 11.37 9.59 17.03 0.42 0.76 0.6 1.49 0.52 2.34q-0.57 6.05-1.08 12.1-0.91 10.98-1.8 21.96-0.55 6.55-1.1 13.1c-0.64 7.64-1.25 15.3-1.89 22.93-0.53 6.23-1.09 12.45-1.62 18.67q-0.83 10.08-1.66 20.15c-0.03 0.36-0.12 0.73-0.2 1.22-1.41-0.99-2.39-1.98-2.67-3.67q-1.93-11.76-3.98-23.49c-1.17-6.75-2.39-13.48-3.59-20.22-0.15-0.79-0.33-1.56-0.67-2.35-2.03 12.26-3.31 24.61-5.2 37.14-1.34-1.54-2.24-2.8-2.54-4.63-0.99-6.11-2.22-12.18-3.31-18.27-0.9-5.02-1.73-10.04-2.62-15.05-1.31-7.32-2.7-14.65-4.03-21.97-1.02-5.6-2.01-11.21-3.03-16.83-0.11-0.69-0.28-1.36-0.71-2.06 0 0.43-0.03 0.84 0 1.27 0.42 5.52 1.03 11.03 1.22 16.55 0.27 7.57-0.05 15.12-1.58 22.58-0.61 2.96-1.56 5.8-3.36 8.33-2.25 3.19-5.69 4.15-9.21 2.42-3.56-1.74-6.52-4.21-8.98-7.31-3.6-4.54-6.19-9.66-8.29-15.06-0.22-0.54-0.46-1.09-0.83-1.96-3.14 4.72-5.72 9.43-8.67 14.22-4.43-12.01-8.79-23.83-13.14-35.65q-0.22 0.05-0.44 0.1c0.74 8.93 1.68 17.84 2.57 27.04-4.6-1.17-8.96-2.27-13.34-3.39-1.79-23.52-3.29-46.89-5.47-70.39 0.51-0.05 0.97-0.13 1.44-0.11zm99.87 131.26c0.13-0.61 0.28-1.07 0.33-1.53q0.59-7.21 1.14-14.42c0.47-6.01 0.92-12.02 1.41-18.03 0.58-7.04 1.22-14.09 1.8-21.13 0.54-6.62 1.05-13.22 1.59-19.84q0.68-8.11 1.39-16.21c0.47-5.57 0.9-11.15 1.48-16.71 0.11-1.17-0.07-2.11-0.63-3.11-2.12-3.77-4.2-7.56-6.3-11.33-0.71-1.27-1.45-2.5-2.19-3.77q-0.2 0.05-0.4 0.1c-1.07 19.39-1.94 38.8-2.94 58.24q-0.33-0.32-0.41-0.69c-0.76-4.03-1.45-8.08-2.24-12.12-2.09-10.7-4.23-21.38-6.34-32.08-0.05-0.21 0-0.49-0.13-0.64-0.23-0.26-0.53-0.56-0.83-0.61-0.18-0.03-0.47 0.35-0.64 0.59-0.11 0.17-0.1 0.43-0.11 0.64q-0.32 3.03-0.63 6.05-0.95 8.74-1.88 17.48-0.8 7.51-1.58 15.04c-0.03 0.37-0.16 0.73-0.26 1.09-1.2-6.27-2.12-12.49-3.04-18.72-0.94-6.28-1.83-12.57-2.82-18.84-0.97-6.18-1.78-12.4-2.9-18.8-0.39 0.36-0.57 0.49-0.7 0.65-2.56 3.21-5.11 6.46-7.68 9.65-0.46 0.58-0.54 1.1-0.39 1.81q1.81 9.18 3.54 18.39c1.09 5.76 2.11 11.52 3.16 17.3 1.43 7.87 2.9 15.74 4.3 23.61 1.61 9.07 3.14 18.14 4.74 27.21q1.39 7.92 2.81 15.85c0.13 0.79 0.46 1.42 1.42 2.04 1.02-7.01 1.81-13.84 2.66-20.66q1.32-10.33 2.64-20.66c0.43 1.04 0.66 2.09 0.84 3.16 0.94 5.45 1.84 10.92 2.78 16.37 1.3 7.6 2.63 15.22 3.93 22.83 0.56 3.24 1.09 6.48 1.65 9.73 0.13 0.8 0.33 1.61 1.46 2.1zm-88.67-115.19c0.29-0.05 0.41-0.1 0.51-0.09q0.24 0.05 0.46 0.15c2.15 0.96 3.45 2.7 4.13 4.87 1.83 5.91 1.28 11.61-2.06 16.88-0.67 1.07-0.72 1.99-0.33 3.06q0.99 2.69 1.99 5.4 3.62 9.79 7.21 19.59c1.65 4.52 3.23 9.08 4.86 13.61 0.12 0.33 0.33 0.63 0.54 1.01 0.23-0.22 0.38-0.3 0.47-0.42 2.2-3.72 4.39-7.45 6.61-11.16 0.43-0.7 0.38-1.28 0.05-1.99-1.87-4.13-3.7-8.3-5.55-12.44q-2.64-5.93-5.31-11.84c-0.27-0.61-0.45-1.14-0.07-1.84 2.65-4.91 3.51-10.19 3.36-15.72-0.13-4.93-0.84-9.72-3.03-14.18-1.63-3.34-4.03-5.94-7.41-7.62-2.42-1.2-5.03-1.56-7.62-1.84-3.46-0.38-6.96-0.45-10.48-0.64 1.76 22.98 3.52 45.94 5.28 69.1 3.77 0.97 7.62 1.96 11.72 3.01-2.01-19.09-3.77-37.96-5.3-56.84zm57.53 46.62c-0.13-6.6-0.67-13.17-1.45-19.69-0.64-5.41-1.69-10.81-2.79-16.16-1.22-5.98-3.12-11.76-6.03-17.14-1.71-3.16-3.82-6.01-7.03-7.83-2.57-1.47-5.23-1.68-8.05-0.75-3.11 1.04-5.12 3.3-6.63 6.05-2.21 3.98-3.28 8.33-3.99 12.79-1.53 9.68-1.15 19.34 0.28 28.97 1.09 7.32 2.98 14.47 5.7 21.37 1.88 4.8 4.16 9.41 7.28 13.56 2.53 3.39 5.63 6.11 9.43 8 3.21 1.58 6.2 0.69 7.92-1.69 0.75-1.06 1.49-2.18 2-3.38 1.35-3.19 2.08-6.57 2.37-10.02 0.42-4.7 0.68-9.39 1.03-14.08zm-55-26.5q0.2 0.02 0.41 0.05 0.18-0.25 0.34-0.51c1.95-3.69 2.26-7.61 1.7-11.66-0.25-1.81-0.79-3.52-1.83-5.04-0.51-0.74-1.07-1.48-2.27-1.66 0.56 6.36 1.1 12.58 1.66 18.82z"/>
	<path fill-rule="evenodd" class="s0" d="m161.38 197.07c-0.13-15.92-0.28-31.67-0.41-47.62 0.92-0.04 1.83-0.1 2.75-0.09 2.9 0.04 5.81 0 8.71 0.15 4.15 0.23 8.31 0.5 12.43 0.99 2.32 0.28 4.59 1 6.71 2.07 5.71 2.87 7.56 8 5.76 13.93-0.87 2.91-2.63 5.27-4.8 7.34-0.43 0.41-0.97 0.71-1.57 1.14 4.14 4.66 7.99 9 11.84 13.37q0.17-0.05 0.34-0.1c0.09-12.89 0.05-25.78-0.31-38.89 1.22 0 2.45-0.05 3.69-0.03 1.86 0.02 3.72 0.08 5.6 0.1 6.04 0.05 12.06 0.44 17.96 1.73 4.61 1 8.87 2.85 12.1 6.47 0.82 0.94 1.48 2.02 2.18 3.06 0.33 0.48 0.58 1.02 0.94 1.66 0.25-0.41 0.41-0.62 0.53-0.87 2.35-5.09 6.55-8.12 11.49-10.29 3.84-1.69 7.92-2.52 12.07-3.03 0.42-0.05 0.85 0 1.53 0 0.67 4.3 1.33 8.55 2.02 12.92-1.96 0.14-3.75 0.2-5.51 0.42-1.3 0.14-2.57 0.49-3.84 0.8-0.41 0.1-0.8 0.37-1.13 0.65-0.71 0.59-0.73 1.23 0.05 1.76q1.86 1.2 3.8 2.25c2.4 1.32 4.79 2.62 6.66 4.69 2.01 2.21 2.87 4.76 2.75 7.67-0.11 3.12-1.31 5.85-3.21 8.3-3.12 4.03-7.32 6.52-12.03 8.23-3.36 1.22-6.83 1.94-10.37 2.39-0.74 0.1-1.15-0.03-1.27-0.82q-0.94-6.25-1.87-12.5c0-0.05 0.03-0.1 0.13-0.28q0.87 0 1.87 0c2.64-0.05 5.26-0.25 7.72-1.3 0.84-0.36 1.91-0.64 2.03-1.71 0.11-1.05-0.94-1.38-1.63-1.86-1.58-1.09-3.21-2.08-4.82-3.11-1.95-1.25-3.71-2.72-5.07-4.61-0.25-0.35-0.55-0.64-0.94-1.09-0.17 0.51-0.33 0.86-0.4 1.22-1.25 7.42-5.38 12.94-11.47 17.12-4.38 3.01-9.25 4.91-14.39 6.21-4.9 1.25-9.91 1.77-14.96 1.91q-0.74 0-1.48-0.05c-0.1 0-0.2-0.09-0.45-0.2v-7.69c-4.48 3.38-8.31 7-12.49 10.26-4.64-7.39-9.22-14.69-13.8-21.98q-0.22 0.07-0.43 0.13c0.15 6.36 0.12 12.73 0.47 19.2h-15.46zm0.25-46.87q0.01 0 0.03 0 0-0.01 0-0.02zm0.43 23.13c0.1 7.64-0.02 15.3 0.1 23.08 4.74-0.1 9.26 0.1 13.84-0.06-0.49-12.25-0.56-24.27-0.58-36.25 1.3-0.45 2.31 0.03 3.36 0.31 3.54 0.91 4.68 4.26 3.43 7.41-1.03 2.53-2.95 4.29-5.07 5.91-0.38 0.28-0.73 0.61-1.19 0.99 4.97 8.01 9.84 15.9 14.82 23.9 3.85-3.26 7.53-6.39 11.4-9.68-4.16-4.71-8.18-9.24-12.28-13.86 0.73-0.64 1.3-1.14 1.85-1.67 2.17-2.05 3.96-4.37 4.82-7.32 0.79-2.7 0.94-5.38-0.36-7.98-1.58-3.18-4.4-4.76-7.61-5.82-4.52-1.48-9.27-1.48-13.94-1.87-3-0.27-6.03-0.17-9.04-0.22-1.29-0.01-2.58 0-3.95 0 0.13 7.93 0.3 15.53 0.4 23.13zm108.23-24.34c-0.89 0.08-1.6 0.09-2.27 0.23-1.83 0.34-3.66 0.69-5.47 1.12-4.93 1.18-9.4 3.32-12.93 7.02-2.41 2.54-3.94 5.35-3.58 9.12 0.27 2.72 1.29 4.86 3.15 6.62 1.41 1.35 3.06 2.45 4.66 3.59 1.64 1.17 3.39 2.21 5 3.42 1.1 0.84 1.14 1.86 0.12 2.77-0.65 0.56-1.44 1.05-2.23 1.35-2.58 0.94-5.28 1.4-8.05 1.23-0.26 0-0.52 0.05-1 0.1 0.62 4 1.22 7.89 1.83 11.77 0.56 0 0.89 0.04 1.2 0 4.31-0.57 8.51-1.61 12.44-3.47 4.56-2.14 8.41-5.14 10.62-9.84 2.26-4.81 1.52-10.16-3.34-13.54-2.14-1.49-4.51-2.66-6.77-4-0.66-0.39-1.33-0.77-1.91-1.26-1.08-0.94-1.07-2.03 0.07-2.88 0.59-0.45 1.32-0.86 2.04-1.01 1.55-0.33 3.13-0.52 4.69-0.71 1.12-0.13 2.24-0.14 3.53-0.21-0.61-3.92-1.21-7.62-1.8-11.42zm-66.45 47.44q0-0.01 0-0.02 0 0 0 0zm0.56 0.13c4.39 0.04 8.74-0.47 13.03-1.38 6.67-1.38 12.93-3.75 18.36-8 5.38-4.21 8.66-9.65 9.38-16.49 0.36-3.44 0.05-6.77-1.71-9.86-2.29-4.04-5.91-6.39-10.17-7.82-2.28-0.76-4.65-1.26-7.02-1.63-2.8-0.46-5.64-0.81-8.47-0.94-4.01-0.2-8.01-0.15-12.01-0.18-0.69 0-1.38 0.06-2.18 0.1 0.47 15.41 0.47 30.69 0.23 46.05 0.24 0.07 0.41 0.15 0.56 0.15zm-27.96-23.52q0-0.01 0-0.01 0 0-0.01 0.01zm5-5.55c0.91-2.3 0.46-4.16-1.08-5.36-1.11-0.86-2.41-1.22-4.02-1.22-0.08 3.94-0.08 7.84 0.1 12.12 2.34-1.59 4.1-3.26 5-5.54z"/>
	<path fill-rule="evenodd" class="s0" d="m52 88.77c-0.14 1.12-0.24 1.79-0.3 2.49-0.17 1.79-0.46 3.6-0.4 5.39 0.07 1.72-0.74 2.52-2.04 3.36-5.17 3.29-10.27 6.7-15.37 10.08-0.91 0.59-1.78 1.26-2.88 2.05-0.22-1.43-0.09-2.66-0.04-3.86 0.17-3.72 0.4-7.44 0.61-11.16 0.3-5.14 0.63-10.28 0.91-15.43q0.33-6.4 0.64-12.81 0.49-9.18 0.99-18.37 0.41-7.79 0.82-15.59 0.64-12.22 1.28-24.44 0.1-1.88 0.17-3.75c6.93-1.32 13.73-2.62 20.72-3.96q-0.67 11.77-1.35 23.54c-2.14 0.56-4.08 1.07-6.04 1.58q-0.39 0.1-0.8 0.19c-2.19 0.54-2.18 0.54-2.31 2.84-0.18 2.95-0.41 5.91-0.59 8.86-0.07 1.02 0 2.06 0 3.29 2.57-0.82 4.81-2.15 7.36-3.32-0.08 1.82-0.13 3.45-0.23 5.07q-0.55 8.19-1.15 16.39c-0.17 2.26-0.19 2.26-2.36 3.08-1.33 0.49-2.65 1.07-4.02 1.45-0.9 0.25-1.23 0.72-1.28 1.61-0.1 2.31-0.26 4.6-0.41 6.88-0.08 1.42-0.2 2.84-0.31 4.58 3.42-1.28 6.15-3.23 9.08-5.19v3.66c0.3-0.49 0.45-0.64 0.5-0.82 1.61-6.03 3.19-12.07 4.8-18.08 2.28-8.46 4.53-16.92 6.85-25.38 2.49-9.02 5.02-18.04 7.54-27.05 0.43-1.53 1.05-2.99 1.42-4.54 0.34-1.45 0.7-1.43 1.94-1.4 0.16 0 0.33 0.03 0.72 0.06 0.2 0.81 0.45 1.68 0.63 2.57 0.97 5.06 1.89 10.13 2.86 15.18 1.53 7.9 3.07 15.8 4.68 23.7 1.66 8.17 3.42 16.3 5.15 24.45q-0.01 0.08 0.03 0.16c1.16 2.29 0.23 4.09-1.1 6.03-3.29 4.79-6.37 9.71-9.55 14.57-0.16 0.25-0.36 0.48-0.74 0.95-1-5.53-1.94-10.76-2.91-16.16-0.56 0.24-0.91 0.36-1.22 0.52-3.01 1.67-6.01 3.38-9.04 5.03-0.92 0.49-1.28 1.26-1.49 2.2q-1.95 8.82-3.89 17.65c-0.03 0.16-0.1 0.31-0.23 0.71-2.62-2.82-4.84-5.82-7.65-8.83zm-6-60.76c2.62-0.71 5.04-1.41 7.48-2.01 1.58-0.39 1.58-0.32 1.68-2 0.32-5.63 0.69-11.26 1.02-16.89 0.06-1.07 0-2.16 0-3.33-6.42 1.22-12.7 2.42-19.13 3.64q-0.46 10.26-0.97 20.59-0.49 10.35-1.06 20.68c-0.38 6.83-0.82 13.66-1.2 20.51-0.38 6.9-0.71 13.78-1.07 20.68-0.36 6.84-0.9 13.67-1.13 20.84 1.82-1.27 3.3-2.36 4.85-3.36q6.52-4.27 13.07-8.5c0.71-0.46 0.99-1 1.04-1.87 0.39-6.56 0.84-13.12 1.27-19.67 0.03-0.58 0-1.17 0-2.08-3.06 1.94-5.98 3.57-9.11 5.14 0-0.65-0.01-1.02 0-1.4q0.35-5.25 0.73-10.49 0.08-1.06 0.15-2.12c0.03-0.69 0.37-1.02 1.05-1.25 1.81-0.6 3.59-1.34 5.4-1.93 0.77-0.25 1.04-0.69 1.09-1.41 0.11-1.75 0.28-3.49 0.39-5.24q0.49-7.04 0.99-14.09c0.01-0.36-0.03-0.74-0.07-1.25-2.58 0.94-4.8 2.47-7.55 3.21 0.36-5.57 0.69-10.9 1.05-16.4zm30.11 42.09q-0.01 0.01-0.03 0.02 0-0.02 0-0.03zm2.83 15.36c0.82-0.97 1.48-1.98 2.12-2.97q3.97-6.13 7.93-12.24c0.47-0.71 0.78-1.34 0.56-2.28q-1.63-7.19-3.11-14.42c-2.07-10.12-4.15-20.24-6.15-30.38-1.37-6.87-2.6-13.77-3.92-20.65-0.13-0.65 0.02-1.58-0.96-1.66-1.12-0.08-1.02 0.96-1.2 1.63q-2.47 8.68-4.92 17.37c-1.74 6.27-3.51 12.54-5.2 18.83-1.86 6.86-3.67 13.75-5.5 20.61-1.91 7.19-3.82 14.39-5.66 21.6-0.43 1.68-0.56 3.44-0.83 5.17-0.13 0.85 0.1 1.58 0.68 2.25 1.96 2.29 3.85 4.64 5.78 6.95 0.15 0.18 0.39 0.29 0.77 0.57 0.25-0.97 0.46-1.74 0.64-2.51q1.62-7.3 3.18-14.61c0.21-1.02 0.61-1.82 1.61-2.3 0.74-0.36 1.42-0.82 2.13-1.22 2.95-1.64 5.91-3.27 9.19-5.09 1.06 5.28 1.62 10.35 2.86 15.35z"/>
	<path fill-rule="evenodd" class="s0" d="m155.52 70.88q0-0.02 0-0.04 0 0 0 0zm-14.12-0.77c-0.12-8.79-0.22-17.42-0.32-26.26-3.25 0.51-6.35 0.99-9.61 1.5-0.38 8.41 0.05 16.76-0.11 25.29-4.65 0.46-9.14 0.9-13.82 1.36-0.04-0.57-0.14-1.03-0.13-1.5q0.41-13.8 0.81-27.6 0.26-9.68 0.48-19.36c0.03-1.04-0.13-1.3-1.01-1.32-2.71-0.03-5.45 0-8.39 0-0.91 17.29-1.73 34.46-2.5 51.86-4.43 1.2-8.88 2.42-13.55 3.68 0.62-9.23 1.23-18.27 1.84-27.29 0.61-8.99 1.07-17.98 1.65-27.14-3.36 0.59-6.42 1.13-9.75 1.72 0.43-7.11 0.91-14.02 1.47-21.1 0.62 0 1.22-0.03 1.79 0 6.9 0.41 13.81 0.4 20.71-0.12 2.83-0.21 5.63-0.72 8.45-1.08 0.32-0.05 0.65-0.03 0.98-0.05q5.1-0.04 10.19-0.08c0.33 0 0.64 0.05 1.2 0.08 0 4.05-0.21 8.07-0.21 12.08 0 4 0 7.99 0 12.17 3.13 0.08 5.98-0.89 9.12-1.19-0.2-7.72-0.4-15.31-0.61-23.01h12.56c0.79 22.7 1.51 45.33 2.88 68.1-4.77-0.25-9.35-0.49-14.12-0.74zm13.13-0.23c-0.92-22.22-1.82-44.25-2.73-66.26-1.94-0.38-9.78-0.3-11.03 0.12q0.18 3.74 0.31 7.5c0.09 2.57 0.19 5.14 0.2 7.72 0 2.49 0.33 4.99 0.07 7.51-3.61 0.59-7.03 1.15-10.72 1.76 0.12-8.38 0.23-16.54 0.35-24.67h-11.02c-0.59 22.53-1.16 44.89-1.76 67.42 4.15-0.05 8.15-0.87 12.4-1.05v-25.3c3.75-0.61 7.34-1.19 11.09-1.8 0.07 0.78 0.14 1.35 0.15 1.94 0 1.16-0.03 2.31 0 3.46 0.07 4.27 0.17 8.53 0.23 12.81 0.04 2.35 0 4.71 0.05 7.08 0.02 1.1 0.17 1.23 1.24 1.28 3.72 0.17 7.42 0.31 11.17 0.48zm-56.99-47.59c-0.37 6.34-0.74 12.34-1.1 18.34q-0.54 8.94-1.13 17.87c-0.42 5.98-0.86 11.97-1.31 18.16 4.2-1.14 8.14-2.21 12.09-3.28 0.39-8.8 0.72-17.44 1.18-26.09 0.45-8.61 0.73-17.23 1.29-26.02h9.68c0.19-5.9 0.37-11.61 0.57-17.45-9.99 1.04-19.73 1.84-29.71 0.74-0.45 6.53-0.87 12.89-1.32 19.41 3.31-0.58 6.41-1.12 9.78-1.7z"/>
	<path fill-rule="evenodd" class="s0" d="m71.17 148.41c0.15 4.41 0.28 8.66 0.43 13.02-4.16 0.17-8.13 0.31-12.25 0.46v5.42c3.38 0.23 6.62-0.32 9.85-0.41 0.51 1.25 0.87 9.79 0.54 12.75h-10.25c-0.24 1.52-0.04 2.97-0.1 4.61 4.33 0.38 8.57 0.05 13.02 0.12q0.14 6.68 0.28 13.13c-1.55 0.53-23.67 0.33-28.5-0.23v-7.21q-0.17-0.1-0.36-0.19c-4.15 3.22-8.07 6.75-12.25 10.12-4.61-7.36-9.17-14.67-13.73-21.98-0.44 3.25-0.23 6.42-0.26 9.62q-0.01 4.75 0 9.56c-1.07 0.36-11.21 0.48-15.06 0.13q0-0.93 0-1.89 0.01-8.88-0.05-17.76-0.08-8.06-0.25-16.12c-0.06-3.34-0.2-6.66-0.29-10.01 0-0.54 0-1.07 0-1.84 1.51 0 2.93 0 4.32 0 1.37 0 2.74 0.1 4.12 0.08 4.94 0 9.86 0.22 14.75 0.92 3.54 0.51 7 1.39 9.86 3.74 2.34 1.91 3.56 4.35 3.75 7.38 0.33 5.07-1.94 8.97-5.35 12.41-0.34 0.34-0.75 0.61-1.3 1.03 3.82 4.71 7.79 8.94 11.81 13.22 0.41-6.48 0.09-12.9 0.13-19.34 0.03-6.4-0.12-12.81-0.18-19.42 9.03-0.45 18.07-0.88 27.32-1.32zm-40.16 26.95c0.74-0.71 1.33-1.27 1.92-1.83 2.21-2.12 3.92-4.58 4.66-7.59 0.84-3.41 0.64-6.65-1.71-9.46-1.71-2.05-4-3.23-6.5-3.96-5.37-1.56-10.92-1.61-16.43-1.82q-3.12-0.12-6.24-0.18c-1.3-0.04-2.59 0-3.89 0 0.15 15.47 0.3 30.71 0.47 46.15 4.6 0.09 9.12 0.15 13.79 0-0.33-12.21-0.54-24.23-0.49-36.23 1.26-0.43 2.27 0.09 3.32 0.37 3 0.8 4.48 3.72 3.43 6.89-0.66 1.99-1.91 3.56-3.43 4.92-0.89 0.81-1.84 1.52-2.91 2.39 1.66 2.7 3.27 5.37 4.92 8.02 1.65 2.65 3.24 5.33 4.95 7.95 1.7 2.58 3.1 5.35 4.93 7.93 3.83-3.24 7.49-6.35 11.31-9.59-3.87-4.83-8.17-9.12-12.07-13.93zm40.94 21.75c-0.12-4.07-0.21-7.92-0.33-11.92-4.48 0.06-8.72 0.2-12.99 0v-6.41c3.51-0.33 6.93 0.46 10.47 0.02-0.08-3.74-0.05-7.32-0.39-10.96-3.48 0.21-6.79 0.41-10.18 0.61-0.23-2.62-0.21-4.99-0.03-7.44 4.12-0.12 8.1-0.23 12.2-0.35 0.1-3.89-0.08-7.56-0.31-11.34-8.66 0.41-17.16 0.82-25.77 1.23 0.13 15.36 0.27 30.6 0.4 46 8.9 0.18 17.76 0.37 26.93 0.57zm-54.64-36.15c0.07 4.28-0.16 8.23 0.2 12.45 0.89-0.69 1.58-1.14 2.14-1.7 1.45-1.43 2.73-2.98 3.13-5.07 0.39-2.12-0.4-3.8-2.36-4.71-0.87-0.39-1.84-0.59-3.11-0.97z"/>
	<path fill-rule="evenodd" class="s0" d="m3.57 141.08c0-1.13 0-1.94 0-2.73q0.05-9.46 0.08-18.91 0-7.97 0-15.94c0.05-10.8 0.18-21.58 0.2-32.38 0.03-16.06 0-32.13-0.04-48.21 0-4.22-0.15-8.43-0.21-12.66 0-0.38 0.05-0.76 0.1-1.22 2.7-0.43 5.36-0.71 8.03-0.46 2.5 0.23 5 0.59 7.44 1.2 4.82 1.19 7.87 4.53 9.99 8.84 2.08 4.23 3.03 8.77 3.64 13.42 1.09 8.24 0.87 16.51-0.03 24.75-0.71 6.42-1.4 12.86-2.44 19.23-1.3 8-3.16 15.89-5.5 23.67-1.84 6.09-3.96 12.09-6.48 17.91-2.69 6.19-5.78 12.19-9.76 17.65-1.45 1.98-2.98 3.87-5.01 5.84zm1.02-131.33c-0.06 43.1-0.13 86.11-0.2 129.34 0.4-0.34 0.65-0.52 0.84-0.74 2.92-3.29 5.32-6.96 7.44-10.78 4.6-8.26 8.05-17.02 10.85-26.04q5.39-17.38 7.43-35.48c0.67-5.97 1.15-11.98 1.59-17.99q0.64-8.7-0.67-17.33c-0.68-4.47-1.66-8.83-3.9-12.81-2.08-3.7-4.96-6.39-9.15-7.44-1.65-0.41-3.33-0.68-4.99-0.92-3.11-0.46-6.19-0.12-9.24 0.19z"/>
	<path fill-rule="evenodd" class="s0" d="m104.24 148.24c1.11 5.01 2.14 9.73 3.21 14.62-1.08 0.32-2.1 0.68-3.16 0.88-2.71 0.52-5.25 1.53-7.63 2.86-2.33 1.3-4.35 3-5.55 5.45-1.17 2.39-1.48 4.79-0.07 7.22 0.81 1.39 2.04 2.29 3.41 3 1.78 0.92 3.67 1.43 5.68 1.42 2.19-0.04 4.38-0.18 6.57-0.27 0.42-0.01 0.87 0 1.53 0 0.33 4.66 0.59 9.34 0.75 14.14-1.11 0.17-2.14 0.35-3.14 0.45-4.21 0.43-8.43 0.44-12.61-0.33-4.97-0.91-9.61-2.63-13.38-6.17-5.37-5.04-7.25-11.21-5.76-18.38 1.05-5.07 3.59-9.35 7.16-13.07 4.62-4.82 10.3-7.86 16.54-9.97 2.03-0.68 4.1-1.17 6.45-1.85zm3.25 36.17c-2.29 0.07-4.37 0.08-6.42 0.18-2.36 0.1-4.58-0.46-6.69-1.4-3.62-1.61-5.49-4.87-4.92-8.57 0.38-2.41 1.53-4.43 3.28-6.11 3.01-2.9 6.71-4.43 10.68-5.48 0.99-0.27 1.98-0.5 3.05-0.78-0.84-4.41-1.77-8.64-2.79-12.97-5.64 1.43-10.88 3.21-15.6 6.29-5.57 3.62-9.96 8.21-12.31 14.52-1.62 4.33-2.08 8.77-0.5 13.19 2.01 5.62 6.08 9.38 11.52 11.65 4.99 2.07 10.26 2.65 15.61 2.52 1.94-0.05 3.87-0.41 5.91-0.63-0.28-4.28-0.54-8.34-0.81-12.41z"/>
	<path fill-rule="evenodd" class="s0" d="m157.97 170.96c0.1 7-1.59 12.5-5.13 17.42-3.13 4.36-7.36 7.14-12.43 8.66-4.87 1.46-9.88 1.59-14.82 0.57-6.55-1.33-11.6-4.94-14.93-10.83-3.52-6.24-3.73-12.82-1.97-19.55 2.83-10.85 11.72-17.95 23.16-18.61 3.97-0.23 7.85 0.1 11.65 1.37 5.96 1.99 10.21 5.81 12.6 11.64 1.41 3.47 1.86 6.02 1.87 9.33zm-49.58 3.99q-0.06 6.74 3.54 12.46c2.85 4.49 6.87 7.5 11.97 8.94 4.99 1.39 10.04 1.43 15.09 0.19 6.34-1.54 11.26-5.02 14.52-10.7 3.87-6.75 4.79-13.94 2.72-21.41-2.14-7.71-7.39-12.37-15.08-14.24-4.25-1.04-8.54-1.07-12.87-0.23-5.52 1.08-10.21 3.52-13.85 7.83-4.16 4.96-5.97 10.75-6.04 17.16z"/>
	<path fill-rule="evenodd" class="s0" d="m268.41 134.06c-1.13-0.48-1.31-1.29-1.46-2.11-0.56-3.24-1.09-6.49-1.65-9.73-1.3-7.61-2.63-15.23-3.93-22.83q-1.4-8.18-2.78-16.37c-0.18-1.07-0.41-2.12-0.84-3.16q-1.32 10.33-2.64 20.66c-0.85 6.82-1.64 13.65-2.66 20.66-0.96-0.62-1.27-1.25-1.42-2.04q-1.39-7.93-2.81-15.85c-1.58-9.07-3.13-18.14-4.74-27.21-1.4-7.87-2.87-15.74-4.3-23.61-1.05-5.76-2.07-11.54-3.16-17.3q-1.73-9.21-3.54-18.39c-0.13-0.7-0.07-1.23 0.39-1.81 2.59-3.19 5.12-6.43 7.68-9.64 0.13-0.17 0.31-0.28 0.7-0.66 1.12 6.4 1.93 12.61 2.9 18.8 0.99 6.27 1.88 12.56 2.82 18.84 0.92 6.23 1.84 12.45 3.04 18.72 0.08-0.36 0.21-0.72 0.26-1.08q0.79-7.52 1.58-15.05 0.94-8.74 1.88-17.48 0.31-3.02 0.63-6.04c0.01-0.22 0-0.48 0.11-0.65 0.17-0.24 0.46-0.62 0.64-0.59 0.32 0.07 0.61 0.36 0.83 0.61 0.11 0.15 0.08 0.41 0.13 0.64 2.11 10.7 4.25 21.39 6.34 32.09 0.79 4.03 1.48 8.08 2.24 12.11q0.08 0.37 0.41 0.69c0.98-19.42 1.86-38.83 2.94-58.24q0.2-0.05 0.4-0.1c0.72 1.25 1.48 2.51 2.19 3.77 2.1 3.77 4.18 7.58 6.3 11.33 0.56 0.99 0.74 1.94 0.63 3.11-0.56 5.56-1.01 11.13-1.48 16.71q-0.71 8.09-1.39 16.21c-0.54 6.62-1.05 13.22-1.59 19.84-0.6 7.04-1.22 14.09-1.8 21.14-0.49 6-0.94 12.01-1.41 18.02q-0.57 7.21-1.14 14.42c-0.03 0.48-0.2 0.92-0.33 1.53zm-27.77-126.92q0 0.02 0.01 0.05 0-0.01 0.01-0.01zm-0.79 0.77c-1.78 2.22-3.48 4.51-5.35 6.65-0.96 1.09-1.07 2.16-0.81 3.46q1.23 6.12 2.39 12.26 2.01 10.57 3.97 21.15c1.21 6.69 2.38 13.37 3.6 20.05q2.08 11.38 4.17 22.79 1.83 10.27 3.65 20.54c0.07 0.35 0.21 0.68 0.31 1.02q0.13 0.01 0.27-0.01 2.72-20.91 5.44-41.82 0.23 0 0.45-0.03c3.32 18.16 6.47 36.36 9.78 54.54 0.66-6.24 1.18-12.46 1.69-18.69 0.5-6 0.96-12.01 1.45-18.02q0.78-9.17 1.58-18.34c0.28-3.33 0.53-6.67 0.81-9.99 0.25-2.9 0.54-5.78 0.79-8.68q0.75-8.92 1.48-17.86c0.31-3.77 0.66-7.52 0.94-11.31 0.05-0.61-0.13-1.3-0.43-1.84q-2.11-3.9-4.3-7.75-1.23-2.17-2.47-4.33c-0.54 4.1-0.79 8.11-1 12.13q-0.33 5.98-0.61 11.97c-0.2 4.05-0.34 8.1-0.54 12.14-0.18 3.99-0.33 7.99-0.63 11.97-0.29 4-0.11 8.04-0.67 12.07-0.91-0.13-1.06-0.66-1.17-1.2q-0.19-0.97-0.36-1.93c-1.4-7.47-2.77-14.96-4.22-22.44-1.33-6.83-2.75-13.63-4.15-20.44q-0.18-0.88-0.44-1.81c-0.18 0.11-0.25 0.13-0.26 0.16q-2.39 21.72-4.78 43.43-0.03 0.24-0.15 0.46c0 0.03-0.08 0.05-0.13 0.06-0.05 0-0.11 0-0.26 0.02-3.06-20.25-6.12-40.5-9.25-61.11-0.48 0.45-0.66 0.57-0.79 0.73z"/>
	<path fill-rule="evenodd" class="s0" d="m179.74 18.86c1.53 18.88 3.29 37.74 5.3 56.84-4.12-1.05-7.95-2.04-11.72-3.01-1.78-23.18-3.53-46.13-5.29-69.11 3.54 0.2 7.03 0.26 10.49 0.64 2.6 0.28 5.22 0.64 7.62 1.85 3.37 1.69 5.78 4.28 7.41 7.62 2.19 4.48 2.9 9.25 3.03 14.17 0.14 5.53-0.71 10.82-3.36 15.72-0.38 0.71-0.2 1.24 0.06 1.85q2.66 5.91 5.32 11.83 2.76 6.24 5.55 12.45c0.33 0.7 0.36 1.3-0.05 1.99-2.22 3.7-4.41 7.44-6.62 11.16-0.08 0.13-0.21 0.21-0.46 0.41-0.2-0.38-0.43-0.67-0.54-1-1.63-4.55-3.21-9.09-4.86-13.62q-3.59-9.79-7.21-19.59-0.98-2.68-1.99-5.4c-0.4-1.07-0.36-1.99 0.33-3.06 3.34-5.26 3.88-10.96 2.06-16.87-0.66-2.16-1.96-3.9-4.14-4.87q-0.23-0.1-0.46-0.15c-0.09 0-0.21 0.03-0.51 0.08zm-10.61-14.24c0 0.61-0.02 0.89 0 1.15 0.61 7.54 1.25 15.07 1.84 22.61 0.33 4.1 0.58 8.19 0.89 12.29 0.49 6.44 1.04 12.89 1.53 19.33q0.4 5.32 0.67 10.65c0.05 0.92 0.42 1.42 1.29 1.61q2.32 0.54 4.62 1.11c1.19 0.29 2.37 0.62 3.77 1-1.74-19.06-3.45-37.85-5.18-56.78 1.89 0.14 3.32 0.63 4.56 1.73 2.12 1.91 2.96 4.45 3.39 7.13 0.84 5.28-0.03 10.26-2.93 14.82-0.45 0.7-0.51 1.31-0.2 2.12 1.57 4.1 3.03 8.21 4.53 12.33q4.55 12.42 9.12 24.82c0.05 0.12 0.2 0.18 0.36 0.32 1.84-3.07 3.62-6.08 5.48-9.04 0.48-0.76 0.51-1.35 0.17-2.13-1.58-3.55-3.11-7.12-4.71-10.66q-3.02-6.67-6.11-13.29c-0.43-0.92-0.38-1.69 0.1-2.61 0.79-1.55 1.5-3.18 2.04-4.83 1.5-4.62 1.48-9.38 1.02-14.15-0.33-3.41-1.18-6.69-2.66-9.78-2.26-4.69-5.85-7.74-11.03-8.69-1.78-0.33-3.58-0.61-5.37-0.75-2.34-0.18-4.69-0.19-7.19-0.27z"/>
	<path fill-rule="evenodd" class="s0" d="m237.27 65.48c-0.33 4.69-0.61 9.4-1.02 14.07-0.3 3.44-1.04 6.83-2.37 10.03-0.5 1.2-1.25 2.3-2.01 3.37-1.71 2.39-4.72 3.28-7.92 1.7-3.8-1.88-6.91-4.61-9.43-8-3.09-4.17-5.38-8.76-7.28-13.57q-4.05-10.37-5.69-21.37c-1.42-9.63-1.81-19.29-0.28-28.97 0.71-4.46 1.76-8.8 3.98-12.79 1.53-2.75 3.52-5 6.64-6.04 2.81-0.94 5.48-0.71 8.05 0.74 3.21 1.83 5.31 4.68 7.02 7.84 2.92 5.38 4.81 11.16 6.03 17.13 1.1 5.35 2.16 10.75 2.8 16.17 0.77 6.52 1.33 13.07 1.45 19.69zm-1.06-1.6c-0.28-4.26-0.44-7.44-0.69-10.62-0.66-8.9-1.83-17.73-4.15-26.39-1.2-4.51-2.63-8.92-4.84-13.05-1.35-2.52-2.86-4.95-5.03-6.85-2.52-2.19-5.3-3.34-8.76-2.34-2.91 0.84-4.74 2.84-6.24 5.26-1.94 3.16-3 6.68-3.75 10.28-1.07 5.06-1.47 10.19-1.44 15.35 0.05 9.18 1.16 18.24 3.58 27.12 1.89 6.95 4.38 13.67 8.11 19.86 2.7 4.46 6.01 8.33 10.69 10.88 3.24 1.76 6.09 1.13 8.03-2.01 0.51-0.84 0.99-1.71 1.37-2.62 1.49-3.68 2.07-7.62 2.42-11.54 0.41-4.79 0.51-9.61 0.69-13.35z"/>
	<path fill-rule="evenodd" class="s0" d="m161.69 150.17q0 0.01 0.01 0.02-0.02 0-0.04 0zm3.95 0.01c3.02 0.05 6.04-0.05 9.04 0.22 4.68 0.39 9.4 0.39 13.94 1.87 3.21 1.06 6.01 2.64 7.61 5.82 1.3 2.61 1.15 5.28 0.36 7.98-0.86 2.95-2.65 5.25-4.82 7.32-0.55 0.53-1.12 1.01-1.85 1.67 4.1 4.62 8.12 9.17 12.28 13.86-3.86 3.27-7.55 6.4-11.4 9.68-4.96-8-9.85-15.89-14.82-23.9 0.46-0.38 0.81-0.71 1.19-0.99 2.1-1.62 4.05-3.38 5.07-5.91 1.25-3.15 0.11-6.5-3.43-7.41-1.05-0.26-2.06-0.76-3.36-0.31 0.04 11.98 0.09 24 0.58 36.25-4.58 0.16-9.1-0.04-13.84 0.06-0.12-7.78 0-15.44-0.1-23.08-0.1-7.6-0.27-15.2-0.4-23.13q2.03-0.01 3.95 0zm22.88 24.73c0.48-0.4 0.78-0.64 1.07-0.89 2.92-2.49 5.52-5.22 6.29-9.15 0.86-4.32 0-7.81-4.72-10.49-3.23-1.83-6.83-2.34-10.42-2.63-4.08-0.35-8.2-0.4-12.3-0.53-1.84-0.06-3.67 0-5.68 0 0.13 14.73 0.28 29.37 0.41 44.1h11.49q0-6.09 0-12.13c0-4-0.08-8-0.08-12 0-4.03-0.3-8.05-0.06-12.23 1.39 0.1 2.6 0.1 3.77 0.28 3.42 0.56 5.61 3.32 5.36 6.76-0.11 1.57-0.71 2.97-1.63 4.25-1.1 1.51-2.43 2.82-3.92 3.95-0.29 0.23-0.64 0.4-0.98 0.59 4.74 7.59 9.3 14.85 13.87 22.16 0.35-0.21 0.55-0.3 0.71-0.43q3.9-3.28 7.77-6.58c1.27-1.09 1.29-1.12 0.12-2.44-2.54-2.88-5.11-5.73-7.64-8.59-1.12-1.27-2.21-2.57-3.43-3.97z"/>
	<path fill-rule="evenodd" class="s0" d="m270.29 148.99c0.61 3.81 1.19 7.52 1.8 11.42-1.27 0.07-2.41 0.08-3.53 0.21-1.56 0.19-3.14 0.37-4.69 0.71-0.72 0.15-1.45 0.56-2.04 1.01-1.14 0.85-1.15 1.94-0.07 2.88 0.58 0.49 1.26 0.89 1.91 1.26 2.26 1.34 4.63 2.52 6.77 4 4.86 3.36 5.61 8.73 3.34 13.54-2.22 4.7-6.07 7.7-10.62 9.84-3.93 1.84-8.13 2.88-12.44 3.47-0.31 0.05-0.64 0-1.2 0-0.61-3.88-1.2-7.78-1.83-11.77 0.48-0.05 0.74-0.11 1-0.1 2.77 0.17 5.45-0.28 8.05-1.23 0.81-0.3 1.58-0.77 2.23-1.35 1.02-0.91 1-1.94-0.12-2.77-1.61-1.21-3.36-2.23-5-3.42-1.6-1.14-3.25-2.25-4.66-3.59-1.86-1.76-2.9-3.9-3.15-6.62-0.36-3.78 1.17-6.6 3.58-9.12 3.55-3.72 8-5.84 12.93-7.02 1.82-0.43 3.64-0.78 5.47-1.12 0.69-0.14 1.4-0.15 2.27-0.23zm-0.95 1.05q0 0 0 0 0.01 0 0.03 0zm-13.73 4.02c-2.9 1.58-5.38 3.57-7.14 6.37-1.57 2.47-2.32 5.15-1.17 7.96 0.56 1.39 1.46 2.69 2.43 3.84 1.86 2.21 4.43 3.54 6.82 5.07 1.15 0.74 2.3 1.48 3.34 2.35 1.04 0.89 1.1 2.34 0.25 3.41-0.45 0.54-1.01 1.05-1.62 1.37-1.99 1.05-4.14 1.64-6.4 1.82-1.02 0.09-2.02 0.1-3.26 0.17 0.54 3.41 1.06 6.63 1.58 9.93 1.12-0.2 2.03-0.37 2.93-0.51 3.99-0.66 7.76-1.93 11.26-3.92 3.1-1.76 5.73-4.04 7.54-7.15 2.62-4.49 2.68-9.66-2.16-13.31-1.48-1.12-3.12-2-4.7-2.97-1.4-0.85-2.87-1.59-4.2-2.55-1.52-1.1-1.58-2.78-0.23-4.08 0.43-0.41 0.92-0.84 1.46-1.02 1.19-0.4 2.41-0.74 3.63-0.94 1.54-0.26 3.12-0.38 4.85-0.58-0.49-3.14-0.97-6.15-1.48-9.28-5.04 0.58-9.54 1.73-13.73 4.02z"/>
	<path fill-rule="evenodd" class="s0" d="m203.84 196.39q0 0 0 0 0 0.01 0 0.02zm-0.23-46.06c0.8-0.05 1.49-0.11 2.19-0.1 4 0.04 8 0 12 0.18 2.83 0.14 5.67 0.5 8.47 0.94 2.37 0.38 4.74 0.88 7.02 1.63 4.24 1.42 7.86 3.77 10.17 7.82 1.76 3.1 2.07 6.42 1.71 9.86-0.72 6.87-4 12.28-9.38 16.5-5.43 4.24-11.67 6.6-18.36 8-4.29 0.89-8.64 1.41-13.03 1.38-0.15 0-0.32-0.08-0.56-0.15 0.24-15.37 0.24-30.62-0.23-46.06zm1.25 44.99c0.33 0.12 0.47 0.2 0.64 0.22q0.49 0.04 0.99 0c4.05-0.19 8.06-0.66 12.01-1.6 4.78-1.12 9.34-2.77 13.52-5.35 4.41-2.73 8.05-6.21 10.27-11 1.83-3.98 2.57-8.18 1.78-12.48-0.86-4.69-3.95-7.8-8.08-9.97-4.1-2.16-8.6-2.96-13.11-3.34-5.45-0.46-10.93-0.53-16.39-0.74-0.53-0.02-1.07 0.05-1.62 0.08v44.16z"/>
	<path fill-rule="evenodd" class="s0" d="m46 28.01c-0.34 5.5-0.69 10.83-1.05 16.4 2.75-0.76 4.97-2.28 7.56-3.21 0.03 0.51 0.08 0.87 0.06 1.25q-0.47 7.04-0.99 14.09-0.21 2.62-0.39 5.23c-0.05 0.73-0.31 1.17-1.09 1.42-1.81 0.57-3.59 1.33-5.4 1.92-0.67 0.23-1.02 0.56-1.05 1.26q-0.06 1.06-0.15 2.12-0.37 5.24-0.72 10.48c-0.04 0.38 0 0.76 0 1.4 3.14-1.58 6.04-3.19 9.1-5.13 0 0.92 0.03 1.5 0 2.07-0.43 6.55-0.89 13.12-1.27 19.67-0.05 0.88-0.33 1.42-1.03 1.88q-6.55 4.22-13.08 8.49c-1.54 1.01-3.02 2.1-4.85 3.36 0.23-7.16 0.77-13.99 1.13-20.84 0.37-6.9 0.7-13.78 1.07-20.67 0.38-6.83 0.83-13.67 1.21-20.51q0.56-10.35 1.05-20.68 0.49-10.33 0.97-20.59c6.44-1.22 12.69-2.42 19.13-3.64 0 1.17 0.05 2.25 0 3.32q-0.5 8.45-1.02 16.89c-0.1 1.68-0.1 1.62-1.68 2.01-2.44 0.61-4.86 1.3-7.47 2.01zm-7.91-19.69q0.01 0 0.02 0 0-0.02 0-0.05zm-1.71 33.32c-0.59 11.15-1.15 22.31-1.86 33.45-0.82 12.91-1.71 32.08-1.42 33.24q0.5-0.3 0.97-0.6c4.17-2.71 8.3-5.49 12.53-8.1 2.01-1.23 3.54-2.51 3.01-5.11q0-0.09 0-0.17 0.57-8.02 1.14-16.05c0.02-0.25-0.08-0.49-0.15-0.89-2.98 1.58-5.83 3.1-9 4.79 0.39-6.01 0.75-11.62 1.12-17.28q3.75-1.41 7.31-2.77c0.65-4.43 1.38-17.86 1.02-19.08-2.41 0.74-4.5 2.31-7.23 2.8 0.39-6.29 0.76-12.33 1.14-18.35 0.46-0.22 0.79-0.41 1.15-0.51q3.32-0.9 6.65-1.73c1.13-0.28 1.27-0.35 1.35-1.5 0.06-0.87 0.05-1.76 0.1-2.63q0.45-7.54 0.9-15.08c0.02-0.32-0.08-0.63-0.13-1.02-5.61 1.08-11.12 2.15-16.87 3.27-0.58 11.16-1.14 22.24-1.73 33.32z"/>
	<path fill-rule="evenodd" class="s0" d="m76.05 70.07q0 0.01 0 0.03 0.02-0.01 0.03-0.01zm-9.19 5.12c-0.71 0.39-1.4 0.85-2.12 1.21-0.99 0.48-1.38 1.29-1.61 2.31q-1.57 7.31-3.18 14.6c-0.17 0.79-0.4 1.56-0.64 2.52-0.38-0.27-0.61-0.38-0.78-0.58-1.92-2.32-3.82-4.66-5.77-6.95-0.58-0.69-0.83-1.39-0.68-2.25 0.26-1.73 0.4-3.49 0.82-5.17 1.85-7.21 3.76-14.4 5.67-21.6 1.82-6.88 3.63-13.74 5.49-20.61q2.58-9.42 5.21-18.83 2.42-8.69 4.92-17.37c0.2-0.67 0.08-1.71 1.2-1.63 0.97 0.09 0.84 1.01 0.95 1.67 1.32 6.88 2.56 13.78 3.92 20.64 2.01 10.14 4.08 20.26 6.16 30.39q1.48 7.23 3.11 14.42c0.21 0.94-0.1 1.56-0.56 2.27q-3.98 6.12-7.93 12.25c-0.65 1-1.3 1.99-2.13 2.96-1.21-4.99-1.79-10.07-2.86-15.34-3.28 1.82-6.23 3.44-9.19 5.09zm12.55 7.52q0 0 0 0-0.02 0.01-0.04 0.03zm0.56-0.62c2.51-3.81 4.96-7.63 7.51-11.4 0.86-1.25 1.35-2.47 0.69-3.96-0.23-0.55-0.28-1.17-0.39-1.75-1.83-8.79-3.69-17.56-5.45-26.37-1.98-9.83-3.87-19.67-5.8-29.5-0.38-1.91-0.77-3.82-1.23-6.07-0.28 0.7-0.45 1.08-0.56 1.48-1.17 4.05-2.39 8.08-3.51 12.15q-4.28 15.6-8.54 31.21c-1.15 4.21-2.34 8.43-3.46 12.66q-1.79 6.75-3.5 13.5c-0.96 3.75-1.86 7.54-2.87 11.29-0.25 0.94 0.03 1.56 0.61 2.22q1.63 1.86 3.23 3.74c0.62 0.74 1.25 1.48 2 2.38 0.19-0.74 0.3-1.21 0.42-1.67 1.05-4.71 2.14-9.4 3.16-14.11 0.23-1.07 0.79-1.73 1.71-2.24 3.26-1.78 6.5-3.61 9.74-5.42 0.99-0.54 1.98-1.07 3.16-1.73 0.86 4.79 1.67 9.35 2.52 14.21 0.31-0.32 0.45-0.45 0.56-0.62z"/>
	<path fill-rule="evenodd" class="s0" d="m154.53 69.87c-3.75-0.16-7.45-0.31-11.17-0.48-1.07-0.05-1.22-0.18-1.24-1.28-0.03-2.35 0-4.71-0.05-7.08-0.06-4.26-0.16-8.53-0.23-12.81-0.01-1.15 0.04-2.3 0-3.45 0-0.59-0.08-1.17-0.15-1.94-3.75 0.6-7.34 1.18-11.09 1.79v25.3c-4.23 0.18-8.25 1.01-12.4 1.05 0.6-22.53 1.17-44.89 1.76-67.42h11.02c-0.12 8.13-0.23 16.29-0.35 24.67 3.69-0.61 7.11-1.16 10.72-1.76 0.26-2.52-0.05-5.02-0.07-7.5 0-2.57-0.11-5.16-0.2-7.72-0.08-2.52-0.21-5.03-0.31-7.51 1.24-0.41 9.09-0.49 11.03-0.12 0.91 22.01 1.81 44.04 2.73 66.26zm-24.94-26.06c4.52-0.7 8.71-1.38 13.16-2.09 0.15 8.92 0.29 17.71 0.46 26.7 3.47 0.17 6.85 0.33 10.32 0.5-0.49-10.9-1-21.6-1.47-32.32-0.46-10.7-0.7-21.4-1.18-32.06h-8.96c0.2 7.63 0.4 15.12 0.6 22.68-4.33 0.69-8.46 1.35-12.84 2.04-0.1-8.33 0.36-16.49 0.18-24.61h-8.96c-0.05 0.49-0.1 0.82-0.11 1.14q-0.15 6.4-0.28 12.8c-0.08 5.04-0.1 10.08-0.22 15.12q-0.21 8.29-0.49 16.59c-0.18 5.58-0.39 11.18-0.58 16.76-0.03 0.95 0.07 1.91 0.1 2.96 3.53-0.36 6.82-0.71 10.27-1.05z"/>
	<path fill-rule="evenodd" class="s0" d="m97.54 22.28c-3.37 0.59-6.47 1.12-9.77 1.7 0.44-6.54 0.87-12.89 1.31-19.41 10 1.09 19.74 0.29 29.72-0.74-0.2 5.84-0.38 11.55-0.58 17.45h-9.68c-0.56 8.79-0.82 17.4-1.28 26.02-0.45 8.65-0.79 17.27-1.19 26.09-3.95 1.07-7.88 2.14-12.08 3.28 0.44-6.19 0.89-12.16 1.3-18.16q0.59-8.94 1.13-17.87c0.38-6.01 0.73-12 1.11-18.34zm19.77-1.9c0-5.25 0.54-10.28 0.33-15.49-9.24 1.09-18.31 1.17-27.53 0.84-0.49 5.75-0.9 11.33-1.18 17.07 3.27-0.54 6.34-1.05 9.63-1.59-0.15 4.64-0.48 9.1-0.76 13.55-0.28 4.47-0.49 8.95-0.77 13.44-0.28 4.55-0.66 9.07-0.92 13.6-0.27 4.45-0.73 8.87-0.89 13.48 3.17-0.84 6.07-1.61 8.98-2.37 0.7-0.18 0.96-0.62 0.96-1.33q0.04-2.63 0.15-5.25c0.34-7.23 0.72-14.44 1.07-21.66 0.28-5.85 0.52-11.71 0.8-17.55 0.1-2.18 0.28-4.35 0.45-6.74 0 0 9.66 0 9.68 0z"/>
	<path fill-rule="evenodd" class="s0" d="m31.01 175.36c3.91 4.8 8.19 9.1 12.06 13.92-3.82 3.25-7.47 6.36-11.31 9.6-1.82-2.58-3.22-5.35-4.92-7.93-1.71-2.6-3.31-5.29-4.95-7.95-1.63-2.66-3.26-5.31-4.93-8.02 1.06-0.87 2.03-1.58 2.92-2.39 1.51-1.36 2.76-2.95 3.42-4.92 1.06-3.16-0.43-6.09-3.42-6.9-1.05-0.28-2.04-0.79-3.33-0.36-0.06 12 0.17 24.03 0.5 36.23-4.68 0.15-9.19 0.07-13.8 0-0.15-15.42-0.29-30.67-0.46-46.16q1.94-0.01 3.89 0 3.12 0.07 6.24 0.18c5.51 0.22 11.06 0.27 16.42 1.83 2.51 0.73 4.79 1.93 6.51 3.95 2.35 2.82 2.56 6.06 1.71 9.47-0.76 3.01-2.45 5.46-4.66 7.59-0.59 0.56-1.19 1.13-1.93 1.82zm-12.74-0.09c4.6 7.34 9.14 14.61 13.75 21.99 3.31-2.75 6.55-5.3 9.63-8.17-3.97-4.84-8.33-9.07-12.04-13.94 0.78-0.67 1.4-1.2 2-1.76 2.73-2.57 4.87-5.5 5.31-9.37 0.37-3.14-0.38-5.94-2.89-7.97-1.17-0.93-2.57-1.67-3.97-2.27-2.7-1.13-5.6-1.53-8.5-1.71-3.49-0.23-6.99-0.34-10.5-0.44-2.34-0.07-4.66 0-7.17 0q0 0.96 0 1.92c0.09 5.47 0.23 10.93 0.27 16.4 0.07 7.95 0.05 15.9 0.09 23.85 0 0.58 0.1 1.15 0.15 1.81h11.49c-0.12-12.16-0.25-24.21-0.37-36.3 2.04-0.09 3.87 0.12 5.6 0.91 1.93 0.89 3.18 2.32 3.46 4.46 0.24 1.84-0.05 3.66-1.16 5.19-0.98 1.36-2.14 2.61-3.27 3.86-0.51 0.55-1.15 0.98-1.86 1.55z"/>
	<path fill-rule="evenodd" class="s0" d="m71.95 197.1c-9.19-0.19-18.03-0.38-26.93-0.57-0.14-15.38-0.27-30.64-0.4-46 8.63-0.41 17.12-0.82 25.76-1.23 0.23 3.77 0.43 7.46 0.32 11.34-4.12 0.12-8.09 0.23-12.2 0.35-0.18 2.45-0.2 4.82 0.03 7.44 3.39-0.2 6.7-0.4 10.17-0.61 0.33 3.64 0.3 7.22 0.4 10.96-3.54 0.45-6.96-0.36-10.47-0.02v6.41c4.28 0.2 8.53 0.06 12.99 0 0.11 4 0.21 7.85 0.33 11.92zm-2.51-46.77c-8.09 0.36-15.91 0.72-23.77 1.07 0.12 14.77 0.22 29.33 0.33 43.85 1.48 0.43 22.44 1.01 24.66 0.69v-9.69c-0.74-0.05-1.27-0.12-1.79-0.1-1.2 0.05-2.41 0.2-3.59 0.18-2.07-0.02-4.15-0.2-6.22-0.18-1.4 0-1.45 0.08-1.48-1.38q-0.05-2.97-0.05-5.93c0-0.36 0.11-0.72 0.18-1.12 3.44-0.31 6.8 0.53 10.14 0.1v-8.96c-3.57 0.04-6.93 0.56-10.37 0.2 0.03-3.06-0.2-5.94 0.03-8.84 4.12-0.21 8.07-0.43 12.21-0.66-0.09-3.06-0.18-6.04-0.28-9.26z"/>
	<path fill-rule="evenodd" class="s0" d="m4.59 9.75c3.04-0.31 6.12-0.65 9.23-0.19 1.68 0.24 3.36 0.52 4.99 0.92 4.2 1.04 7.09 3.74 9.15 7.44 2.22 3.98 3.21 8.36 3.9 12.81q1.32 8.63 0.68 17.33c-0.45 6.01-0.94 12-1.6 17.99q-2.03 18.09-7.42 35.48c-2.8 9.02-6.26 17.76-10.85 26.04-2.13 3.83-4.53 7.49-7.44 10.78-0.2 0.23-0.45 0.4-0.84 0.74 0.06-43.24 0.13-86.24 0.2-129.34zm0.98 1.04v125.31c0.28-0.32 0.46-0.45 0.56-0.63 2.16-3.36 4.5-6.63 6.42-10.11 3.02-5.41 5.37-11.14 7.49-16.97 2.82-7.74 5.04-15.64 6.77-23.67 1.51-7.08 2.8-14.19 3.51-21.4 0.55-5.66 1.05-11.34 1.38-17.04 0.24-4.49 0-8.99-0.56-13.45-0.56-4.69-1.57-9.28-3.67-13.56-2.03-4.12-5.09-6.88-9.62-8.03-3.73-0.96-7.5-0.75-11.27-0.71-0.32 0-0.63 0.16-1.01 0.26z"/>
	<path fill-rule="evenodd" class="s0" d="m107.49 184.41c0.26 4.05 0.52 8.12 0.8 12.41-2.04 0.23-3.96 0.58-5.91 0.63-5.35 0.13-10.6-0.45-15.6-2.52-5.45-2.27-9.52-6.03-11.52-11.65-1.59-4.42-1.12-8.86 0.49-13.19 2.35-6.31 6.75-10.9 12.31-14.52 4.74-3.08 9.98-4.87 15.61-6.29 1 4.33 1.94 8.56 2.78 12.97-1.07 0.27-2.06 0.51-3.05 0.78-3.95 1.05-7.67 2.58-10.68 5.48-1.74 1.68-2.9 3.72-3.27 6.11-0.58 3.7 1.3 6.96 4.92 8.57 2.1 0.94 4.33 1.5 6.68 1.4 2.07-0.1 4.13-0.11 6.42-0.18zm-4.58-33.99c-1.72 0.54-3.17 1.03-4.62 1.46-3.66 1.09-7.03 2.74-10.19 4.84-5.58 3.72-9.8 8.55-11.82 15.08-1.38 4.48-1.32 8.89 0.79 13.1 2.06 4.14 5.38 7.02 9.55 8.89 5.53 2.49 11.41 2.9 17.38 2.57 1.02-0.06 2.03-0.26 3.21-0.41-0.21-3.6-0.43-7.06-0.64-10.57-1.04 0-1.85 0.02-2.65 0-2.88-0.08-5.78 0.25-8.61-0.76-4.64-1.64-8.63-5.92-6.24-12.28 0.92-2.43 2.49-4.34 4.56-5.89 3.08-2.3 6.62-3.57 10.29-4.53 0.46-0.11 0.9-0.28 1.45-0.44-0.81-3.65-1.57-7.18-2.42-11.05z"/>
	<path fill-rule="evenodd" class="s0" d="m108.39 174.95c0.05-6.41 1.88-12.22 6.04-17.16 3.64-4.31 8.33-6.75 13.85-7.83 4.33-0.84 8.62-0.81 12.87 0.23 7.69 1.87 12.94 6.53 15.08 14.24 2.07 7.47 1.15 14.68-2.72 21.41-3.26 5.68-8.18 9.16-14.52 10.7-5.05 1.24-10.1 1.22-15.09-0.19-5.09-1.44-9.1-4.45-11.97-8.94-2.42-3.81-3.57-7.97-3.54-12.46zm1.07-0.94c-0.2 2.52 0.28 6.14 1.39 8.94 2.37 5.97 6.48 10.2 12.69 12.21 5.08 1.65 10.22 1.63 15.39 0.35 6.27-1.53 10.93-5.17 14.02-10.77 3.51-6.34 4.2-13.09 2.31-20.03-1.53-5.65-4.97-9.81-10.32-12.28-2.26-1.04-4.66-1.5-7.11-1.88-4.22-0.64-8.35-0.23-12.33 1.02-6.28 1.96-10.77 6.11-13.6 12.03-1.58 3.31-2.32 6.82-2.44 10.41z"/>
	<path fill-rule="evenodd" class="s0" d="m240.66 7.17c3.11 20.63 6.19 40.89 9.25 61.15 0.15 0 0.2 0 0.27-0.01 0.04 0 0.11-0.04 0.13-0.07q0.11-0.22 0.15-0.46 2.38-21.71 4.77-43.42c0-0.04 0.08-0.05 0.26-0.17q0.24 0.93 0.45 1.81c1.38 6.82 2.81 13.62 4.15 20.45 1.44 7.47 2.81 14.96 4.21 22.43q0.18 0.97 0.36 1.93c0.12 0.54 0.25 1.07 1.17 1.2 0.56-4.03 0.36-8.08 0.68-12.06 0.29-3.99 0.42-7.99 0.62-11.97 0.2-4.05 0.35-8.1 0.54-12.15q0.3-5.98 0.61-11.97c0.22-4.02 0.46-8.05 1.01-12.13q1.24 2.16 2.47 4.33c1.45 2.58 2.91 5.15 4.29 7.75 0.3 0.55 0.46 1.24 0.43 1.85-0.26 3.77-0.62 7.54-0.94 11.3q-0.73 8.94-1.48 17.87c-0.25 2.89-0.54 5.77-0.79 8.67-0.28 3.33-0.53 6.67-0.81 9.99-0.51 6.11-1.07 12.22-1.58 18.34-0.49 6.01-0.95 12.02-1.44 18.03-0.51 6.22-1.04 12.44-1.7 18.68-3.31-18.17-6.45-36.38-9.78-54.54q-0.22 0.01-0.44 0.04-2.73 20.9-5.45 41.81-0.13-0.01-0.26 0.02c-0.1-0.35-0.25-0.68-0.32-1.03q-1.81-10.27-3.65-20.54c-1.37-7.59-2.78-15.19-4.17-22.78-1.21-6.69-2.37-13.37-3.6-20.05q-1.95-10.59-3.97-21.16-1.16-6.13-2.39-12.26c-0.26-1.3-0.14-2.37 0.81-3.46 1.88-2.14 3.57-4.42 5.35-6.65 0.13-0.16 0.31-0.28 0.81-0.74z"/>
	<path fill-rule="evenodd" class="s0" d="m169.12 4.62c2.52 0.08 4.87 0.1 7.19 0.28 1.8 0.13 3.59 0.41 5.37 0.74 5.2 0.95 8.77 4.02 11.03 8.69 1.48 3.1 2.34 6.37 2.67 9.78 0.44 4.77 0.47 9.53-1.03 14.16-0.54 1.66-1.25 3.27-2.04 4.82-0.47 0.92-0.52 1.69-0.1 2.62q3.1 6.61 6.11 13.28c1.6 3.54 3.13 7.13 4.71 10.67 0.35 0.77 0.31 1.36-0.16 2.12-1.87 2.96-3.64 5.98-5.49 9.04-0.14-0.13-0.31-0.2-0.36-0.31q-4.56-12.42-9.12-24.83c-1.5-4.11-2.98-8.23-4.53-12.33-0.31-0.82-0.24-1.41 0.2-2.12 2.9-4.56 3.77-9.53 2.93-14.82-0.43-2.68-1.27-5.22-3.39-7.12-1.22-1.11-2.67-1.6-4.56-1.73 1.73 18.93 3.44 37.71 5.19 56.77-1.4-0.38-2.57-0.71-3.77-1q-2.3-0.58-4.63-1.1c-0.87-0.2-1.23-0.7-1.28-1.62q-0.28-5.34-0.68-10.65c-0.49-6.43-1.03-12.89-1.53-19.32-0.31-4.1-0.57-8.2-0.89-12.3-0.59-7.54-1.23-15.06-1.84-22.6-0.02-0.27 0-0.53 0-1.15z"/>
	<path fill-rule="evenodd" class="s0" d="m236.22 63.88c-0.18 3.72-0.28 8.54-0.7 13.35-0.34 3.92-0.92 7.84-2.42 11.54-0.36 0.9-0.83 1.78-1.36 2.62-1.94 3.14-4.79 3.78-8.03 2.01-4.68-2.56-8-6.42-10.69-10.89-3.73-6.19-6.22-12.9-8.11-19.85-2.42-8.87-3.53-17.93-3.58-27.13-0.01-5.17 0.38-10.29 1.44-15.34 0.75-3.6 1.81-7.13 3.75-10.29 1.48-2.42 3.31-4.41 6.24-5.25 3.46-0.99 6.24 0.15 8.76 2.34 2.17 1.89 3.68 4.33 5.03 6.85 2.21 4.13 3.64 8.54 4.84 13.05 2.32 8.64 3.49 17.48 4.15 26.39 0.23 3.16 0.41 6.34 0.69 10.62zm-9.05-2.11c-0.31-4.5-0.54-10.03-1.12-15.52-0.59-5.73-1.5-11.41-3.51-16.86-0.8-2.16-1.69-4.26-3.34-5.96-1.1-1.12-2.39-1.6-3.88-1.07-1.07 0.38-1.73 1.28-2.24 2.3-0.87 1.75-1.34 3.59-1.58 5.5-0.58 4.53-0.68 9.04-0.36 13.6 0.36 5.2 0.98 10.35 2.07 15.46 0.82 3.87 1.93 7.65 3.72 11.19 0.92 1.81 1.98 3.52 3.9 4.53 1.33 0.69 2.73 0.57 3.67-0.61 0.53-0.68 0.94-1.48 1.24-2.29 1.12-2.98 1.05-6.12 1.41-10.25z"/>
	<path fill-rule="evenodd" class="s0" d="m188.53 174.91c1.22 1.4 2.3 2.7 3.42 3.97 2.54 2.88 5.1 5.73 7.64 8.59 1.17 1.32 1.15 1.35-0.12 2.44q-3.87 3.3-7.77 6.58c-0.16 0.14-0.36 0.22-0.7 0.43-4.58-7.31-9.14-14.58-13.88-22.16 0.34-0.19 0.69-0.36 0.99-0.59 1.48-1.13 2.81-2.43 3.91-3.95 0.93-1.28 1.52-2.68 1.63-4.25 0.25-3.45-1.92-6.22-5.36-6.76-1.17-0.2-2.39-0.18-3.77-0.28-0.23 4.18 0.06 8.21 0.06 12.23 0 4 0.07 8 0.09 12q0 6.04 0 12.13h-11.49c-0.14-14.73-0.28-29.37-0.42-44.1 2.01 0 3.84-0.05 5.68 0 4.1 0.13 8.22 0.18 12.3 0.53 3.59 0.31 7.21 0.8 10.42 2.63 4.74 2.69 5.58 6.18 4.73 10.49-0.78 3.93-3.38 6.67-6.29 9.15-0.28 0.25-0.58 0.48-1.07 0.89z"/>
	<path fill-rule="evenodd" class="s0" d="m269.37 150.04c0.49 3.14 0.97 6.14 1.48 9.28-1.74 0.2-3.31 0.32-4.85 0.58q-1.85 0.33-3.63 0.94c-0.54 0.18-1.03 0.61-1.46 1.02-1.33 1.3-1.29 2.98 0.23 4.08 1.32 0.96 2.8 1.7 4.2 2.55 1.58 0.97 3.22 1.85 4.7 2.97 4.84 3.65 4.78 8.82 2.16 13.31-1.81 3.11-4.44 5.37-7.54 7.15-3.52 1.99-7.29 3.26-11.26 3.92-0.9 0.14-1.81 0.31-2.93 0.51-0.52-3.3-1.04-6.52-1.58-9.93 1.24-0.07 2.24-0.08 3.26-0.17 2.26-0.18 4.41-0.77 6.4-1.82 0.61-0.33 1.17-0.83 1.62-1.37 0.87-1.07 0.8-2.5-0.25-3.41-1.04-0.89-2.19-1.63-3.34-2.35-2.39-1.53-4.96-2.86-6.82-5.07-0.97-1.15-1.87-2.45-2.43-3.84-1.15-2.81-0.38-5.49 1.17-7.96 1.76-2.8 4.26-4.79 7.14-6.37 4.2-2.29 8.69-3.46 13.76-4.02z"/>
	<path fill-rule="evenodd" class="s0" d="m204.86 195.32v-44.16c0.54-0.03 1.07-0.1 1.61-0.08 5.47 0.21 10.95 0.28 16.4 0.74 4.51 0.38 9 1.18 13.1 3.34 4.11 2.17 7.21 5.28 8.08 9.97 0.79 4.3 0.07 8.5-1.78 12.48-2.2 4.79-5.84 8.27-10.27 11-4.18 2.58-8.74 4.23-13.51 5.35-3.97 0.94-7.97 1.41-12.02 1.6q-0.49 0-0.99 0c-0.15 0-0.29-0.1-0.64-0.22zm12.03-10.42c2.65-0.2 4.78-1.09 6.77-2.22 5.05-2.88 7.93-7.11 7.77-13.1-0.1-3.51-1.81-5.96-4.92-7.54-3.03-1.55-6.29-1.53-9.63-1.68v24.52z"/>
	<path fill-rule="evenodd" class="s0" d="m38.12 8.27c5.76-1.12 11.27-2.19 16.89-3.27 0.05 0.39 0.15 0.7 0.13 1.02q-0.45 7.54-0.91 15.08c-0.05 0.87-0.03 1.76-0.09 2.63-0.09 1.14-0.22 1.22-1.35 1.5q-3.34 0.83-6.66 1.73c-0.36 0.1-0.69 0.31-1.15 0.51-0.38 6.02-0.74 12.06-1.13 18.35 2.73-0.49 4.84-2.06 7.22-2.8 0.35 1.22-0.38 14.65-1.02 19.08q-3.55 1.34-7.31 2.77c-0.36 5.66-0.72 11.27-1.12 17.28 3.18-1.69 6.03-3.21 9.01-4.79 0.06 0.4 0.16 0.64 0.15 0.89q-0.56 8.03-1.14 16.05-0.01 0.08 0 0.17c0.53 2.61-1.02 3.9-3.01 5.11-4.23 2.61-8.36 5.4-12.53 8.1q-0.47 0.3-0.97 0.6c-0.31-1.16 0.59-20.33 1.42-33.24 0.7-11.14 1.26-22.29 1.86-33.45 0.59-11.09 1.15-22.19 1.72-33.37z"/>
	<path fill-rule="evenodd" class="s0" d="m79.34 82.78q0.01-0.02 0.03-0.04 0 0 0 0zm-2.49-14.23c-1.18 0.64-2.17 1.18-3.16 1.72-3.24 1.81-6.48 3.64-9.74 5.42-0.92 0.51-1.48 1.17-1.71 2.24q-1.55 7.05-3.16 14.11c-0.1 0.47-0.23 0.93-0.42 1.67-0.77-0.9-1.38-1.66-2-2.38q-1.6-1.88-3.23-3.74c-0.58-0.66-0.86-1.28-0.61-2.22 1.01-3.75 1.91-7.52 2.87-11.29q1.71-6.77 3.5-13.5c1.12-4.23 2.31-8.45 3.46-12.66q4.26-15.61 8.54-31.21c1.12-4.07 2.32-8.1 3.51-12.15 0.11-0.4 0.29-0.77 0.56-1.48 0.46 2.25 0.85 4.16 1.23 6.07 1.93 9.83 3.82 19.67 5.8 29.5 1.78 8.79 3.64 17.58 5.45 26.37 0.11 0.6 0.16 1.22 0.39 1.75 0.66 1.5 0.15 2.7-0.69 3.96-2.54 3.77-5 7.59-7.51 11.4-0.11 0.15-0.27 0.28-0.56 0.62-0.85-4.86-1.68-9.43-2.52-14.2zm-4.24-33.27q-0.17 0-0.33 0c-1.94 7.82-3.87 15.63-5.86 23.65 0.53-0.11 0.79-0.11 1.02-0.23q2.59-1.22 5.18-2.44c2.93-1.34 2.47-0.75 2.16-3.67q-0.95-8.38-1.94-16.77c-0.02-0.2-0.15-0.38-0.23-0.54z"/>
	<path fill-rule="evenodd" class="s0" d="m129.59 43.81v25.16c-3.45 0.36-6.74 0.69-10.27 1.05-0.03-1.05-0.13-2.01-0.1-2.96 0.19-5.58 0.4-11.18 0.58-16.76 0.18-5.53 0.38-11.06 0.49-16.59 0.12-5.04 0.14-10.08 0.22-15.12 0.06-4.26 0.18-8.54 0.28-12.8 0-0.33 0.06-0.65 0.11-1.14h8.96c0.18 8.1-0.28 16.28-0.18 24.61 4.38-0.69 8.51-1.35 12.84-2.04-0.2-7.56-0.4-15.03-0.6-22.68h8.96c0.48 10.66 0.72 21.36 1.18 32.06 0.47 10.7 0.98 21.42 1.47 32.32-3.49-0.17-6.85-0.33-10.32-0.5-0.15-8.99-0.3-17.78-0.46-26.7-4.43 0.71-8.64 1.37-13.16 2.09z"/>
	<path fill-rule="evenodd" class="s0" d="m117.31 20.39h-9.66c-0.16 2.39-0.33 4.54-0.44 6.73-0.28 5.84-0.53 11.71-0.81 17.55-0.35 7.23-0.72 14.44-1.07 21.66q-0.11 2.63-0.15 5.25c0 0.69-0.26 1.14-0.95 1.34-2.92 0.75-5.81 1.53-8.99 2.37 0.16-4.61 0.63-9.04 0.89-13.48 0.26-4.55 0.64-9.07 0.92-13.6 0.28-4.48 0.49-8.97 0.77-13.45 0.28-4.46 0.61-8.91 0.76-13.55-3.31 0.54-6.35 1.05-9.63 1.6 0.3-5.75 0.69-11.33 1.19-17.07 9.21 0.34 18.29 0.24 27.52-0.84 0.2 5.18-0.33 10.22-0.35 15.49z"/>
	<path fill-rule="evenodd" class="s0" d="m18.27 175.26c0.7-0.58 1.35-1.01 1.86-1.55 1.13-1.25 2.28-2.5 3.27-3.87 1.1-1.53 1.4-3.34 1.15-5.18-0.28-2.13-1.53-3.58-3.45-4.46-1.73-0.79-3.56-1.01-5.6-0.91 0.12 12.1 0.25 24.13 0.36 36.3h-11.49c-0.05-0.66-0.15-1.24-0.15-1.81-0.03-7.95-0.01-15.9-0.08-23.86-0.05-5.46-0.18-10.93-0.28-16.39q0-0.96 0-1.93c2.52 0 4.86-0.05 7.18 0 3.51 0.1 7.01 0.22 10.5 0.45 2.9 0.2 5.8 0.59 8.5 1.71 1.39 0.59 2.79 1.33 3.96 2.27 2.52 2.03 3.26 4.82 2.9 7.97-0.44 3.87-2.57 6.8-5.32 9.37-0.59 0.55-1.22 1.08-1.99 1.76 3.7 4.89 8.07 9.1 12.03 13.94-3.09 2.86-6.33 5.42-9.63 8.16-4.62-7.39-9.15-14.65-13.74-21.99z"/>
	<path fill-rule="evenodd" class="s0" d="m69.44 150.34c0.1 3.21 0.19 6.2 0.28 9.26-4.14 0.22-8.09 0.43-12.21 0.66-0.23 2.88 0 5.76-0.03 8.84 3.44 0.35 6.8-0.16 10.37-0.2v8.96c-3.34 0.41-6.7-0.41-10.14-0.1-0.07 0.4-0.18 0.76-0.18 1.12q-0.02 2.96 0.05 5.93c0.03 1.46 0.06 1.4 1.48 1.38 2.07 0 4.15 0.16 6.22 0.18 1.2 0 2.4-0.15 3.59-0.18 0.52-0.02 1.05 0.05 1.79 0.1v9.69c-2.22 0.32-23.18-0.26-24.66-0.69-0.11-14.53-0.21-29.09-0.33-43.85 7.86-0.35 15.68-0.71 23.77-1.07z"/>
	<path fill-rule="evenodd" class="s0" d="m5.57 10.79c0.38-0.11 0.69-0.26 1.01-0.28 3.77-0.03 7.55-0.25 11.27 0.71 4.53 1.15 7.59 3.93 9.62 8.03 2.1 4.28 3.09 8.88 3.67 13.57 0.54 4.46 0.8 8.97 0.56 13.45-0.31 5.67-0.83 11.35-1.38 17.03-0.71 7.21-1.98 14.32-3.51 21.4-1.73 8.04-3.95 15.94-6.77 23.68-2.12 5.82-4.47 11.55-7.49 16.97-1.94 3.49-4.26 6.75-6.42 10.1-0.11 0.19-0.28 0.32-0.56 0.63zm6.51 89.35c0.49-0.54 0.7-0.74 0.87-0.97 2.37-3.47 3.87-7.36 5.08-11.34 2.62-8.58 4.05-17.37 4.56-26.32 0.3-5.09 0.55-10.18-0.03-15.26-0.28-2.52-0.8-4.97-1.94-7.25-1.17-2.35-3.75-4.41-7.38-2.96-0.39 21.19-0.79 42.44-1.16 64.1z"/>
	<path fill-rule="evenodd" class="s0" d="m102.91 150.42c0.86 3.88 1.61 7.39 2.42 11.04-0.54 0.17-0.99 0.33-1.45 0.45-3.67 0.95-7.21 2.22-10.29 4.52-2.05 1.55-3.63 3.46-4.56 5.9-2.38 6.35 1.6 10.62 6.24 12.28 2.83 1 5.73 0.67 8.61 0.76 0.81 0.01 1.63 0 2.65 0 0.22 3.5 0.43 6.96 0.64 10.56-1.18 0.17-2.19 0.37-3.21 0.42-5.95 0.34-11.83-0.09-17.38-2.57-4.18-1.88-7.49-4.76-9.55-8.89-2.1-4.23-2.17-8.64-0.79-13.11 2.03-6.53 6.24-11.35 11.82-15.07 3.15-2.11 6.54-3.76 10.19-4.84 1.45-0.43 2.9-0.91 4.63-1.47z"/>
	<path fill-rule="evenodd" class="s0" d="m109.46 174.01c0.12-3.57 0.86-7.1 2.44-10.39 2.83-5.93 7.32-10.06 13.6-12.03 3.98-1.25 8.11-1.67 12.33-1.02 2.45 0.37 4.85 0.84 7.11 1.87 5.35 2.47 8.8 6.64 10.32 12.28 1.87 6.95 1.2 13.68-2.31 20.04-3.11 5.61-7.75 9.23-14.02 10.76-5.19 1.27-10.31 1.29-15.39-0.34-6.19-2.01-10.32-6.24-12.69-12.22-1.12-2.8-1.59-6.42-1.39-8.95zm33.49-1.14q0-0.74 0-1.46c-0.12-3.11-0.75-6.08-2.56-8.7-2.5-3.63-7.31-4.54-11.11-2.66-2.47 1.22-4.05 3.27-5.12 5.76-1.56 3.62-1.84 7.41-1.41 11.28 0.26 2.35 0.92 4.6 2.28 6.6 1.22 1.79 2.89 3.09 4.96 3.55 4.61 1.02 8.86-1 11-5.13 1.49-2.9 1.91-6.03 1.94-9.22z"/>
	<path fill-rule="evenodd" class="s0" d="m227.16 61.77c-0.36 4.13-0.29 7.29-1.41 10.26-0.32 0.8-0.71 1.61-1.24 2.29-0.94 1.18-2.34 1.3-3.67 0.61-1.91-1.01-2.96-2.72-3.9-4.53-1.81-3.54-2.91-7.33-3.72-11.2-1.07-5.1-1.71-10.25-2.07-15.45-0.32-4.56-0.22-9.09 0.36-13.6 0.24-1.91 0.71-3.77 1.58-5.5 0.51-1.02 1.18-1.92 2.24-2.3 1.48-0.53 2.78-0.05 3.88 1.07 1.65 1.69 2.55 3.8 3.34 5.96 2.01 5.44 2.92 11.12 3.51 16.85 0.58 5.5 0.81 11.03 1.12 15.53zm-0.99-3.54c-0.61-5.67-1.12-11.33-1.84-16.98-0.53-4.18-1.48-8.29-2.98-12.24-0.69-1.8-1.55-3.51-2.88-4.94-1.45-1.53-2.95-1.45-4.07 0.3-0.49 0.77-0.85 1.64-1.13 2.51-0.96 3-1.19 6.11-1.27 9.24q-0.24 9.32 1.33 18.49c0.84 4.92 1.94 9.77 4.02 14.35 0.74 1.65 1.63 3.23 2.99 4.48 1.78 1.63 3.25 1.33 4.18-0.92 0.4-0.96 0.68-1.98 0.88-2.98 0.69-3.74 0.66-7.53 0.77-11.31z"/>
	<path fill-rule="evenodd" class="s0" d="m216.89 184.9v-24.52c3.34 0.13 6.6 0.13 9.63 1.68 3.11 1.58 4.82 4.03 4.92 7.54 0.17 5.99-2.71 10.22-7.77 13.1-1.99 1.13-4.11 2.02-6.76 2.22zm1.03-23.65v22.52c2.03-0.22 3.67-1.01 5.21-1.9 4.33-2.52 7.09-6.14 7.34-11.32 0.15-3.13-0.94-5.72-3.76-7.33-2.68-1.53-5.63-1.97-8.77-1.99z"/>
	<path fill-rule="evenodd" class="s0" d="m72.6 35.27c0.09 0.18 0.2 0.36 0.24 0.56 0.65 5.58 1.33 11.18 1.94 16.77 0.33 2.92 0.77 2.31-2.16 3.67q-2.59 1.22-5.18 2.44c-0.23 0.1-0.5 0.12-1.02 0.23 1.99-8.02 3.91-15.83 5.86-23.65q0.16 0 0.32-0.02zm-0.29 5.15q-0.15 0-0.3 0c-1.36 5.58-2.73 11.16-4.2 17.09 2.28-1.07 4.19-1.98 6.19-2.93-0.57-4.78-1.13-9.45-1.69-14.14z"/>
	<path fill-rule="evenodd" class="s0" d="m12.08 100.14c0.39-21.66 0.79-42.91 1.18-64.1 3.62-1.45 6.19 0.61 7.38 2.97 1.13 2.27 1.66 4.72 1.94 7.24 0.57 5.09 0.31 10.17 0.03 15.26-0.51 8.95-1.94 17.74-4.56 26.32-1.22 3.98-2.71 7.87-5.09 11.34-0.16 0.25-0.39 0.45-0.88 0.97zm1.08-3.95q0.12 0.04 0.27 0.09c0.18-0.3 0.42-0.58 0.56-0.89 0.93-2.34 1.95-4.65 2.78-7.02 1.89-5.56 3.09-11.3 3.82-17.12q0.82-6.6 1.2-13.23c0.29-5.04 0.31-10.08-0.84-15.05-0.38-1.61-0.89-3.16-1.88-4.52-1.25-1.73-2.66-2.24-4.77-1.7q-0.56 29.71-1.14 59.44z"/>
	<path fill-rule="evenodd" class="s0" d="m142.95 172.87c-0.04 3.21-0.45 6.32-1.95 9.22-2.14 4.15-6.38 6.16-10.99 5.14-2.08-0.47-3.74-1.77-4.96-3.56-1.36-1.99-2.02-4.25-2.29-6.6-0.42-3.87-0.14-7.66 1.42-11.28 1.07-2.48 2.65-4.54 5.12-5.76 3.8-1.88 8.59-0.97 11.11 2.67 1.81 2.62 2.44 5.58 2.55 8.69q0.01 0.74 0 1.46zm-0.95-0.24c0.03-2.6-0.37-5.12-1.37-7.52-1.86-4.52-6.6-6.29-10.98-4.14-2.01 0.99-3.34 2.65-4.26 4.63-1.8 3.83-2.26 7.85-1.53 12.02 0.31 1.79 0.74 3.54 1.72 5.1 1.5 2.35 3.59 3.95 6.42 3.93 3.38-0.01 6.08-1.49 7.82-4.52 1.7-2.95 2.13-6.16 2.18-9.47z"/>
	<path fill-rule="evenodd" class="s0" d="m226.17 58.23c-0.13 3.81-0.09 7.59-0.79 11.31q-0.27 1.54-0.87 2.98c-0.94 2.24-2.4 2.55-4.18 0.92-1.37-1.25-2.25-2.81-3-4.47-2.05-4.58-3.17-9.44-4.01-14.36q-1.57-9.17-1.34-18.48c0.09-3.13 0.32-6.24 1.27-9.24 0.28-0.87 0.64-1.76 1.14-2.52 1.12-1.74 2.63-1.83 4.06-0.29 1.34 1.41 2.19 3.14 2.88 4.93 1.52 3.95 2.46 8.07 2.98 12.25 0.71 5.65 1.24 11.33 1.86 16.97zm-9.71-34.42c-1.55 0.61-1.97 1.93-2.4 3.23-1.42 4.34-1.37 8.85-1.32 13.35 0.03 3.11 0.41 6.22 0.74 9.32 0.61 5.61 1.6 11.16 3.59 16.47 0.81 2.16 1.66 4.28 3.23 6.05 1.73 1.94 3.04 1.69 3.77-0.86 0.51-1.78 0.87-3.64 0.95-5.48 0.43-8.84-0.29-17.63-1.73-26.36-0.59-3.62-1.48-7.17-2.86-10.6-0.82-2.02-1.7-4.06-3.98-5.13z"/>
	<path fill-rule="evenodd" class="s0" d="m217.93 161.25c3.16 0.02 6.09 0.46 8.77 1.99 2.83 1.61 3.9 4.18 3.75 7.33-0.23 5.18-3.01 8.8-7.34 11.32-1.53 0.89-3.17 1.68-5.2 1.9v-22.52zm1.09 21.43c0.67-0.25 1.25-0.43 1.79-0.66 4.48-1.93 7.72-4.95 8.71-9.91 0.64-3.18-0.16-6.58-3.64-8.36-1.92-0.99-4.03-1.29-6.14-1.57-0.29-0.03-0.62 0.09-0.9 0.14-0.37 1.64-0.23 18.96 0.18 20.36z"/>
	<path fill-rule="evenodd" class="s0" d="m72.31 40.42c0.56 4.69 1.12 9.37 1.69 14.14-2 0.96-3.91 1.86-6.19 2.93 1.45-5.92 2.82-11.5 4.2-17.08q0.15 0 0.3 0zm0.82 13.56c-0.36-3-0.71-5.84-1.07-8.69q-0.19 0-0.41 0c-0.79 3.39-1.81 6.71-2.45 10.5 1.48-0.67 2.6-1.2 3.93-1.81z"/>
	<path fill-rule="evenodd" class="s0" d="m13.16 96.19c0.38-19.82 0.74-39.65 1.12-59.44 2.09-0.56 3.52-0.03 4.78 1.7 0.98 1.36 1.49 2.91 1.87 4.52 1.15 4.97 1.14 10.01 0.84 15.05q-0.38 6.64-1.2 13.23c-0.72 5.83-1.91 11.56-3.82 17.12-0.81 2.37-1.83 4.7-2.78 7.02-0.13 0.31-0.36 0.59-0.56 0.89q-0.12-0.05-0.25-0.09zm0.83-3.72c0.41-0.33 0.52-0.38 0.57-0.46q0.3-0.67 0.58-1.36c2.32-5.85 3.55-11.96 4.51-18.13 1.17-7.52 1.69-15.11 1.35-22.73-0.1-2.13-0.35-4.27-0.76-6.34-0.3-1.43-0.89-2.81-1.55-4.13-0.67-1.35-1.84-2.08-3.65-2.04-0.35 18.4-0.69 36.64-1.05 55.19z"/>
	<path fill-rule="evenodd" class="s0" d="m141.99 172.62c-0.05 3.31-0.48 6.52-2.17 9.47-1.75 3.03-4.45 4.51-7.82 4.53-2.83 0.01-4.92-1.58-6.42-3.94-0.99-1.56-1.42-3.31-1.73-5.1-0.72-4.17-0.26-8.18 1.53-12.02 0.92-1.96 2.26-3.64 4.26-4.62 4.4-2.16 9.12-0.38 10.98 4.13 0.99 2.4 1.4 4.92 1.37 7.52zm-0.82-0.76c0.11-1.84-0.33-4.37-1.45-6.74-1.19-2.52-3.15-4.04-5.99-4.19-3.05-0.16-5.24 1.32-6.87 3.72-1.05 1.57-1.64 3.33-2.06 5.17-0.8 3.62-0.64 7.21 0.63 10.69 0.86 2.33 2.32 4.24 4.89 4.89 3.51 0.87 7.29-0.53 9.09-4.15 1.35-2.74 1.76-5.62 1.76-9.39z"/>
</svg>