<svg version="1.2" xmlns="http://www.w3.org/2000/svg" viewBox="0 0 200 200" width="200" height="200">
	<style>
		.s0 { fill: #ffffff } 
	</style>
	<path id="path8" class="s0" d="m175.3 22.68c0.02-4.4 3.6-7.95 8-7.94q0.05 0 0.1 0c4.43 0.05 7.98 3.68 7.94 8.11-0.05 4.43-3.67 7.98-8.11 7.94-4.42-0.05-7.98-3.67-7.93-8.11zm8.1 6.62c3.7 0.13 6.81-2.75 6.94-6.45 0.14-3.69-2.75-6.8-6.44-6.94-3.7-0.13-6.81 2.76-6.94 6.45q0 0.08 0 0.16c-0.24 3.5 2.4 6.53 5.9 6.76q0.28 0.02 0.55 0.01zm-1.66-1.98h-1.32v-9.26h3.47c2.15 0 3.31 0.83 3.31 2.65 0 1.82-0.99 2.31-2.48 2.48l2.65 4.13h-1.66l-2.47-3.97h-1.66v3.97zm1.66-5.3c1.15 0 2.31-0.16 2.31-1.48 0-1.32-0.99-1.32-1.99-1.32h-1.98v2.81c0 0 1.66 0 1.66-0.01z"/>
	<path id="path10" class="s0" d="m178.8 162.86c0-1.27 1.04-2.31 2.33-2.3q0.01 0 0.03 0c1.29 0 2.33 1.04 2.33 2.33 0 1.28-1.05 2.33-2.33 2.33-1.27 0.03-2.33-0.97-2.36-2.24q0-0.06 0-0.12zm2.35 1.98c1.08 0 1.95-0.87 1.95-1.95 0-1.08-0.87-1.95-1.95-1.95-1.08 0-1.95 0.87-1.95 1.95 0 1.08 0.87 1.95 1.95 1.95zm-0.48-0.58h-0.38v-2.69h1.01q0.95-0.01 0.96 0.76c0.03 0.37-0.24 0.69-0.61 0.72q-0.04 0-0.07 0l0.77 1.21h-0.48l-0.72-1.16h-0.49v1.16zm0.49-1.54c0.33 0 0.67-0.05 0.67-0.43 0-0.39-0.28-0.39-0.58-0.39h-0.58v0.82z"/>
	<path id="path12" class="s0" d="m26.92 158.97q1.39 5.34 2.41 10.83c0.09 0.64-0.13 1.28-0.58 1.73-0.35 0.4-0.83 0.65-1.35 0.73-0.73 0.02-1.43-0.28-1.92-0.82-1.54-2.31-2.02-5.05-3.95-7.12-0.46-0.44-1.14-0.57-1.73-0.34l-0.43 0.44 0.33 33.25c0.21 1.06 1.05 1.89 2.12 2.07 0.83-0.29 1.44-1.01 1.59-1.88l0.1-1.87-0.2-16.22c-0.29-1.21-1.87-1.21-2.07-2.36 0.2-0.62 0.91-1.06 1.44-1.34 2.12-0.91 4.33-1.54 6.4-2.6 0.63-0.05 1.4-0.15 1.97 0.19l0.39 0.53 0.24 23.25c0.2 0.76 0.43 1.87 1.4 2.02 0.43 0.33 0.28 0.91 0.09 1.34-0.48 0.73-1.39 0.77-2.07 0.87h-7.8c-0.62 0.05-1.1-0.39-1.54-0.77-1.68 1.3-4.52 0.77-6.44 0.91-2.27-0.24-5.1 0.63-7.08-0.72-0.33-0.24-0.24-0.77-0.24-1.06 0.38-0.77 1.49-0.48 1.73-1.39l0.34-1.06-0.1-25.27-0.14-7.89c-0.25-0.38-0.7-0.59-1.16-0.53-0.87 0.1-1.4 0.96-1.83 1.59-1.01 1.78-1.68 3.76-2.55 5.58-0.29 0.61-0.81 1.08-1.44 1.3-0.86 0.24-1.78-0.04-2.36-0.72-1.06-1.3-0.09-3.04 0-4.43l1.74-8.04c0.24-0.38 0.43-0.96 0.91-1.05 1.4-0.53 1.74 1.44 3.03 1.05l17.33-0.14c1.06-0.1 1.69-1.69 2.88-0.91l0.53 0.86z"/>
	<path id="path14" class="s0" d="m132.98 159.4l0.39 0.53 0.1 5.48 0.24 31.91c0.14 0.91 0.48 1.78 1.44 2.22 0.26 0.4 0.33 0.89 0.2 1.34-0.39 1.06-1.59 1.21-2.65 1.21l-7.27-0.05c-0.64-0.06-1.22-0.39-1.59-0.91-0.23-0.47-0.25-1.01-0.05-1.5 0.73-0.48 1.54-0.96 1.64-1.97l-0.05-14.86c-0.1-1.21 0.05-2.99-0.1-4.14-0.58 1.34 0.1 3.22-1.39 3.99-0.62 0.18-1.29 0.07-1.83-0.29-0.61-0.65-1.03-1.47-1.2-2.35-0.44-0.39-0.96-0.1-1.4 0.09-5.63 4-3.17 11.8-3.66 17.86-0.09 1.21 1.54 0.77 1.69 1.88-0.02 0.49-0.21 0.96-0.53 1.34-0.53 0.53-1.39 0.48-2.02 0.58l-7.99-0.1c-0.53-0.12-0.96-0.5-1.15-1.01-0.18-0.39-0.13-0.86 0.14-1.2 0.48-0.48 1.35-0.39 1.54-1.16l0.05-1.83-0.15-16.74c-0.09-1.4-2.21-1.3-2.02-2.84l1.01-0.91c2.31-1.02 4.72-1.74 6.98-2.79 0.87-0.1 1.74-0.1 2.22 0.67 0.24 1.21-0.1 2.7 0.24 4 0.1 0.14 0.29 0.09 0.38 0.04 1.4-2.16 3.23-4.66 6.07-4.47 1.06 0.1 2.3 0.15 2.88 1.16l0.15-0.34-0.1-6.26-0.1-0.04q0.08-1.02-0.14-2.03c0.1-1.39-2.12-1.44-1.44-2.93 2.02-2.36 5.33-2.12 7.7-3.95 0.62-0.09 1.25 0.05 1.77 0.39z"/>
	<path id="path16" class="s0" d="m109.32 23.01l4.13-0.83c0 0-6.44-14.22-9.09-21.49 2.16-0.18 4.34-0.01 6.45 0.49 3.14 5.46 8.93 16.04 8.93 16.04 0 0 9.92-5.62 15.05-8.26 1.59 0.39 3.03 1.26 4.13 2.47l-15.21 13.56 4.46 12.74c0 0 10.75-15.22 16.2-22.49 1.88 0.55 3.51 1.71 4.64 3.3-2.15 3.97-5.46 7.61-7.11 11.41 6.44 0.5 13.06 0.33 19.34 0.83 1.84 1.85 3.3 4.04 4.3 6.45l-16.2 1.32-7.78 13.39 10.42-2.31c0 0 8.1-3.47 16.7-6.78 1.48 1.94 2.5 4.21 2.97 6.61l-17.52 6.94-15.54 3.31q-3.05 3.79-5.3 8.1c13.9-2.47 27.46-6.94 41.51-9.76 6.12 21.14 2.93 43.87-8.76 62.51-37.87 9.59-78.22-2.48-117.41 2.65l-11.41 1.32c-8.1-9.76-12.07-21.83-14.22-34.4-2-13.73-0.4-27.75 4.63-40.68 1.16-0.16 18.36-1.65 18.36-1.65l-10.58-12.9c0.33-2.15 2.31-3.81 3.64-5.63 5.62 5.79 15.88 17.69 15.88 17.69l5.95-0.49-18.19-20.83c2.01-3.01 4.59-5.59 7.6-7.61l15.38 2.81c0 0-0.16-8.26 0.16-12.9 3.18-1.87 6.65-3.21 10.26-3.96 3.14 5.45 5.29 11.4 8.76 16.86 3.97-6.44 7.44-13.55 10.92-20.5 0.47-0.38 1.12-0.45 1.65-0.16l11.91 22.81zm-11.41-7.44l-8.26 15.55 4.79 16.04 7.11-4.96 1.99-13.4c-1.82-4.46-3.64-9.09-5.63-13.23zm-23.98 1v7.77l3.81 0.83q-1.44-4.5-3.81-8.6zm-20.01 9.26v0.5c4.14 4.13 12.24 13.22 12.24 13.22v-10.25zm62.18 3.64l-3.64 2.32 0.83 2.64 3.3-2.97zm-41.67 3.3l0.5 14.39 5.45-12.57-5.95-1.82zm66.64 6.12l-5.13 0.67-8.1 12.9 5.29-0.17c0 0 7.94-13.39 7.94-13.4zm-31.92 9.43l0.67 14.88 11.08-14.22c0.68-0.86 1.14-1.89 1.32-2.98l-2.15-6.61-10.92 8.93zm-23.98-1.98l-3.47 6.94 6.61 7.61q-1.16-7.37-3.14-14.55zm15.54 6.29l-4.29 2.15 0.32 5.95 3.48 1.16 0.49-9.26zm-44.32 0.82l-5.95 9.26 12.07 4.63 10.09-8.77-3.8-4.13zm-24.98 1.82l10.58 4.96 3.31-5.45-13.89 0.49zm90.79 6.78l-5.63 9.26 6.45-0.66 5.79-9.43zm-42.83 1.99l-19.18 15.71-9.26 0.33q2.71-3.05 4.96-6.45-5.08-2.39-10.42-4.14l-6.78 9.1c-2.15 0.33-4.63 0-6.28 0.83-0.5 7.6 1.15 14.55 2.47 21.49 0.67 1.82 1.16 4.8 3.81 4.64 18.85 0 36.71 2.97 55.23 4.79v-28.6q-1.94-3.72-4.63-6.95l-8.6 5.13-15.88 0.16c-0.16-0.33 13.07-7.6 19.02-11.41-1.48-1.65-2.48-3.64-4.46-4.63zm-45.98 0.33c-1.15 2.48-0.99 6.28-0.83 8.93 1.49-2.48 5.13-7.28 5.13-7.28zm134.94 3.81l-6.78 1.98c1.82 3.64 5.95 10.76 5.95 10.76l-8.1 0.32-7.28-8.76-11.74 2.65 3.31 6.11-5.96 0.67-4.63-5.96c0 0-16.7 4.8-24.97 7.44l-0.5 0.83c0.17 9.26 0.83 18.19 1.82 27.12l0.83 1.99c15.54 2.97 31.26 3.64 47.79 4.63l1.49-0.66c4.46-6.45 6.94-13.56 9.42-20.84 2.48-8.76 3.14-20.34-0.66-28.27z"/>
	<path id="path18" class="s0" d="m76.3 159.25l0.24 0.68 0.1 14.29c0.58 1.06 1.21-0.57 1.88-0.67 2.07-0.73 4.47 0.1 5.96 1.73 2.89 3.08 3.32 7.03 4.04 11.02l0.1-0.1c0.43-4.62 1.4-9.47 5.58-11.98 2.22-1.34 5.44-1.2 7.56 0.05 2.6 2.31 4.67 5.15 4.57 8.71q0.06 1.38-0.33 2.7c-3.08 1.49-6.4 2.55-9.53 3.9-0.73 0.58-0.1 1.49 0 2.12 0.53 1.29 1.2 3.13 2.84 3.36 0.91 0.29 2.21 0.87 3.03 0.1 0.96-0.86 0.24-3.51 2.35-2.84 0.87 0.15 1.64 0.68 2.07 1.45 0.58 2.5-0.57 4.81-1.73 6.69-2.22 1.87-5.25 2.21-8.09 1.87-5.48-1.11-7.45-6.93-8.23-11.79-0.43 4.43-0.72 9.77-5.58 11.55-2.98 0.81-6.3 0.24-8.42-1.88-0.24-0.38-0.33-0.96-0.86-1.15-1.21 0.05-1.21 1.39-1.88 2.16-0.77 0.48-1.59 1.26-2.6 0.92q-0.52-0.36-0.81-0.92c-1.06 1.16-2.55 0.77-4 0.87l-5.63-0.1c-0.67-0.08-1.25-0.55-1.44-1.2-0.1-0.68 0.58-0.97 1.06-1.21 0.57-0.88 0.83-1.94 0.72-2.98q-0.22-7.34-1.39-14.58c-0.29-0.97-0.58-2.07-1.4-2.7-0.62-0.24-1.06 0.24-1.49 0.58l-0.48 0.76 0.05 17.23c0.24 0.82 0.58 1.74 1.49 2.02 0.23 0.32 0.26 0.72 0.1 1.06-1.06 1.54-3.18 0.77-4.67 0.97-1.83-0.25-4.72 0.72-5.97-1.01-0.18-0.45 0-0.97 0.44-1.21 0.91-0.24 1.1-1.25 1.39-1.92l-0.15-18c-0.34-0.62-0.97-1.02-1.68-1.06-0.77 0.05-1.4 0.73-1.78 1.35-0.82 1.49-0.34 3.17-0.43 4.9l0.14 12.95c-0.05 1.1 1.06 1.44 1.54 2.12 0.09 0.63-0.24 1.25-0.81 1.54-3.08 0.57-5.73 0.14-8.85 0.24-0.73-0.15-1.54-0.2-1.93-0.91-0.14-0.29-0.24-0.82 0.1-1.06 0.72-0.29 1.27-0.89 1.49-1.64l0.2-0.96-0.2-17.28c-0.19-1.39-2.31-1.21-1.92-2.7 1.01-1.2 2.65-1.44 3.99-2.07q1.89-0.62 3.66-1.54c0.91-0.05 2.02-0.19 2.4 0.73 0 0.67-0.24 1.59 0.44 1.92 1.06-0.1 1.2-1.35 2.07-1.87 1.68-1.4 4.52-1.11 6.35-0.25 0.91 0.53 1.2 1.4 1.87 2.12 1.21 0 1.35-1.49 2.22-2.02 1.64-1.06 4.28-0.73 5.82 0.24 2.83 2.31 2.83 6.02 3.66 9.24q1.16 6.65 1.2 13.38c0.15 0.91 0.1 2.36 1.26 2.65l0.24 0.24 0.19-0.38-0.33-33.11c-0.05-1.25-0.87-2.26-1.69-3.08-0.12-0.38-0.03-0.8 0.25-1.11 1.82-1.73 4.32-1.87 6.44-3.03 0.97-0.81 2.55-0.96 3.23-0.1zm18.53 19.07c-0.58 2.64-0.39 4.95 0.09 7.55 0.2 0.33 0.29 0.91 0.82 0.91 1.01-0.58 2.21-0.81 3.03-1.82 1.69-2.65-0.29-5.49-1.54-7.8-0.96-0.68-2.07 0.19-2.4 1.16zm-15.6-0.92c-0.5 0.18-0.92 0.56-1.15 1.06-1.74 3.7-1.88 7.74-1.45 11.98 0.39 1.77 0.53 3.7 1.88 5.05 0.38 0.24 0.91-0.1 1.3-0.38 3.08-4.72 2.16-11.8 0.43-16.89-0.24-0.2-0.38-0.92-1.01-0.82z"/>
	<path id="path20" class="s0" d="m197.8 159.45l0.1 1.68 0.33 34.75c0.03 0.41 0.29 0.77 0.68 0.91 0.38 0.15 1.01 0.2 1.06 0.73 0.1 0.57-0.04 1.16-0.38 1.63-2.03 1.11-4.14 1.78-6.26 2.55-1.01 0.15-2.02 0.92-3.03 0.25-0.58-0.43 0.38-1.3-0.48-1.54-0.92 0.58-1.55 1.68-2.56 1.97-2.3 0.43-4.62-0.53-6.3-2.07-3.66-4.19-3.41-10.78-2.6-16.22 0.36-3.65 1.87-7.09 4.33-9.82 1.23-1.11 2.91-1.56 4.53-1.2 0.86 0.14 1.39 0.86 2.16 1.34 0.2-0.05 0.39-0.14 0.39-0.33l-0.05-8.14c-0.25-1.54-3.61-1.87-1.88-3.89 0.68-0.39 1.64-0.1 2.36-0.43 2.12-1.21 4.47-1.93 6.64-3.04 0.47 0.06 0.85 0.41 0.96 0.87zm-10.63 18.04c-0.68 0.2-0.82 0.92-1.06 1.4-0.92 3.32-1.64 7.07-1.11 10.73 0.48 2.07 0.58 4.33 2.36 5.92 0.41 0.27 0.96 0.16 1.25-0.25 2.22-4.14 1.92-9.52 0.86-14.14-0.53-1.35-0.76-3.13-2.3-3.66z"/>
	<path id="path22" class="s0" d="m174.08 176.53c0.86 1.4 1.45 2.95 1.73 4.57q1.46 7.96 1.98 16.03c0.01 0.67 0.21 1.31 0.57 1.87 0.44 0.39 1.11 0.43 1.11 1.11-0.02 0.59-0.38 1.11-0.91 1.35-2.7 0.48-5.78 0.24-8.57 0.24-0.64-0.07-1.21-0.48-1.49-1.06-0.1-0.43-0.05-1.06 0.48-1.25 1.11-0.44 1.06-1.69 1.26-2.7 0.09-5.34-1.11-10.73-2.6-15.74-0.23-0.65-0.67-1.21-1.26-1.59-0.46-0.14-0.97 0.06-1.2 0.48l-0.15 0.68 0.24 17.33c-0.04 1.2 1.21 1.39 1.59 2.3 0.1 0.63-0.48 1.11-0.91 1.4-2.65 0.48-5.97 0.24-8.66 0.19-0.65-0.1-1.2-0.54-1.45-1.16-0.24 0.2-0.67 0.68-1.01 0.97-1.01 0.81-2.26 0.86-3.46 0.81-1.39-0.28-2.36-1.25-3.46-2.21h-0.68c-2.07 2.02-5.15 3.17-7.89 1.92-2.31-0.72-4.43-2.89-4.72-5.34-0.58-3.27-0.38-6.98 2.36-9.09 2.17-2.36 4.95-3.23 7.7-4.19 0.58-1.21 0.48-2.84 0.1-4.09-0.39-0.77-0.63-1.64-1.54-2.03l-2.55-0.24c-0.25 0.05-0.58 0.15-0.63 0.43 0.24 0.68 1.16 0.73 1.34 1.54 0.25 1.11 0.25 2.6-0.67 3.47-1.3 0.81-3.37 1.2-4.72 0.19-1.16-0.91-1.44-2.21-1.44-3.66-0.05-2.26 1.97-3.89 3.84-4.67 2.7-0.91 5.54-0.76 8.42-0.43 1.93 0.25 3.6 1.47 4.43 3.23 1.01 2.7 1.3 5.68 1.64 8.61 0.24 3.37 0.38 6.93 0.58 10.3 0.04 0.38 0.28 0.71 0.62 0.87 0.58-0.1 1.4 0 1.45 0.72q0.36 0.9 0.38 1.88c0.63-0.11 1.15-0.53 1.39-1.11l0.34-1.11-0.2-17.51c-0.09-1.45-3.75-2.07-1.2-3.52 2.07-1.01 4.28-1.77 6.3-2.88 0.68-0.1 1.49-0.1 2.02 0.38 0.38 0.53 0.1 1.26 0.58 1.74 0.67-0.25 0.67-1.01 1.2-1.45 0.91-0.91 2.23-1.27 3.47-0.96 1.77 0.57 3.27 1.77 4.24 3.37zm-30.41 10.83c-2.7 1.54-1.93 4.91-2.02 7.41 0.24 1.01 0.57 2.31 1.73 2.7 0.89 0.29 1.87 0 2.45-0.73q0.03-4.78-0.43-9.53c-0.28-0.72-1.25-0.28-1.73 0.15z"/>
	<path id="path24" class="s0" d="m163.56 125.21c-4.92 6.76-10.89 12.68-17.69 17.53-35.72-0.5-68.63-10.25-103.36-11.91-1.25-0.9-2.17-2.17-2.65-3.64 27.13-4.8 54.74-1.99 81.69-0.33 14.17 0.65 28.37-0.29 42.34-2.81 0 0-0.33 1.15-0.33 1.16z"/>
	<path id="path26" class="s0" d="m110.15 142.24c10.41 1.16 20.83 1.99 31.09 3.31-21.5 15.05-55.89 15.38-78.22 2.15-6.12-3.81-12.56-7.94-17.53-13.72 0.33-0.83 1.49-0.17 2.32-0.5l14.88 1.32 47.46 7.44z"/>
</svg>