<svg width="40" height="40" viewBox="0 0 40 40" fill="none" xmlns="http://www.w3.org/2000/svg">
<path fill-rule="evenodd" clip-rule="evenodd" d="M28.8889 0H11.1111C4.97462 0 0 4.97462 0 11.1111V28.8889C0 35.0253 4.97462 40 11.1111 40H28.8889C35.0253 40 40 35.0253 40 28.8889V11.1111C40 4.97462 35.0253 0 28.8889 0ZM36.1111 28.8889C36.0989 32.8724 32.8724 36.0989 28.8889 36.1111H11.1111C7.12744 36.0989 3.90109 32.8724 3.88889 28.8889V11.1111C3.90109 7.12744 7.12744 3.90109 11.1111 3.88889H28.8889C32.8724 3.90109 36.0989 7.12744 36.1111 11.1111V28.8889ZM30.5556 11.6667C31.7829 11.6667 32.7778 10.6717 32.7778 9.44444C32.7778 8.21716 31.7829 7.22222 30.5556 7.22222C29.3282 7.22222 28.3333 8.21716 28.3333 9.44444C28.3333 10.6717 29.3282 11.6667 30.5556 11.6667ZM20 10C14.4772 10 10 14.4772 10 20C10 25.5229 14.4772 30 20 30C25.5229 30 30 25.5229 30 20C30.006 17.346 28.9542 14.799 27.0776 12.9224C25.2009 11.0458 22.654 9.99409 20 10ZM13.8889 20C13.8889 23.3751 16.6249 26.1111 20 26.1111C23.3751 26.1111 26.1111 23.3751 26.1111 20C26.1111 16.6249 23.3751 13.8889 20 13.8889C16.6249 13.8889 13.8889 16.6249 13.8889 20Z" fill="#F5F5F5"/>
</svg>
