<svg width="57" height="40" viewBox="0 0 57 40" fill="none" xmlns="http://www.w3.org/2000/svg">
<path d="M55.8405 6.28891C55.5161 5.08252 54.8821 3.98233 54.0017 3.09784C53.1213 2.21335 52.0251 1.57541 50.8223 1.24752C46.3624 0.0200039 28.5197 2.16857e-05 28.5197 2.16857e-05C28.5197 2.16857e-05 10.6799 -0.0199618 6.21716 1.15332C5.01509 1.4963 3.92117 2.14326 3.04042 3.03209C2.15966 3.92092 1.52164 5.02177 1.18761 6.22896C0.0113966 10.6994 4.17271e-06 19.9715 4.17271e-06 19.9715C4.17271e-06 19.9715 -0.0113877 29.2892 1.15629 33.7139C1.81132 36.1604 3.73371 38.093 6.17729 38.7525C10.6828 39.98 28.477 40 28.477 40C28.477 40 46.3196 40.02 50.7796 38.8495C51.9828 38.5222 53.08 37.8858 53.9626 37.0031C54.8452 36.1204 55.4827 35.0221 55.812 33.8167C56.991 29.3491 56.9996 20.0799 56.9996 20.0799C56.9996 20.0799 57.0565 10.7594 55.8405 6.28891ZM22.8124 28.5612L22.8266 11.4331L37.6561 20.0114L22.8124 28.5612Z" fill="#F5F5F5"/>
</svg>
